# Blender v3.6.3 OBJ File: 'convex_cup.blend'
# www.blender.org
mtllib geometry_14.mtl
o geometry_14
v 0.202208 0.760741 0.154389
v 0.142083 0.656605 0.154389
v 0.142083 0.795457 0.114749
v 0.185433 0.770432 0.147815
v 0.184262 0.771112 0.154389
v 0.142083 0.793771 0.154389
v 0.142083 0.795471 0.153725
v 0.145603 0.793432 0.154389
v 0.142813 0.795036 0.154389
vn 0.4294 -0.2479 -0.8684
vn 0.5006 0.8657 -0.0011
vn 0.5004 0.8658 -0.0004
vn 0.0000 0.0000 1.0000
vn 0.0003 0.0000 1.0000
vn -1.0000 0.0000 0.0000
vn 0.5001 0.8660 -0.0003
vn 0.5002 0.8659 -0.0004
vn 0.5000 0.8660 0.0088
vn -0.5331 0.3078 0.7881
vn 0.4983 0.8668 0.0201
usemtl None
s off
f 1//1 2//1 3//1
f 1//2 3//2 4//2
f 1//3 4//3 5//3
f 1//4 5//4 8//4
f 1//5 8//5 9//5
f 1//4 9//4 6//4
f 1//4 6//4 2//4
f 2//6 6//6 7//6
f 2//6 7//6 3//6
f 3//7 7//7 5//7
f 3//8 5//8 4//8
f 5//9 7//9 8//9
f 6//10 9//10 7//10
f 7//11 9//11 8//11
