# Blender v3.6.3 OBJ File: 'convex_cup.blend'
# www.blender.org
mtllib geometry_46.mtl
o geometry_46
v 0.028809 0.283523 -0.152166
v 0.027833 0.284083 -0.184476
v 0.028809 0.283523 -0.184128
v 0.028809 0.318172 -0.152166
v -0.055883 0.332414 -0.152166
v 0.008290 0.295368 -0.188609
v 0.028809 0.285761 -0.184476
v -0.109647 0.363453 -0.152166
v 0.028809 0.378795 -0.159932
v -0.025890 0.378795 -0.152166
v -0.011538 0.306821 -0.189998
v 0.028809 0.334755 -0.188727
v 0.028809 0.330893 -0.188609
v 0.028809 0.323964 -0.187976
v -0.031379 0.318274 -0.188609
v -0.100784 0.378795 -0.152166
v -0.094590 0.378795 -0.156365
v -0.104999 0.360776 -0.156365
v -0.087990 0.350955 -0.168238
v -0.050909 0.329550 -0.184476
v 0.028809 0.378795 -0.189931
v 0.007368 0.378795 -0.188809
v 0.028809 0.376688 -0.189994
v 0.028809 0.369842 -0.189790
v -0.022489 0.378795 -0.184476
v -0.003162 0.378795 -0.187542
v 0.003574 0.378795 -0.188609
v -0.093547 0.378795 -0.156917
v -0.071916 0.378795 -0.168238
v -0.070331 0.378795 -0.168856
v -0.053660 0.378795 -0.175352
v -0.069870 0.340500 -0.177648
v -0.047765 0.378795 -0.177648
vn -0.4975 -0.8675 0.0000
vn 1.0000 -0.0000 0.0000
vn 0.0000 0.0000 1.0000
vn 0.0000 -0.0038 1.0000
vn -0.5000 -0.8661 0.0001
vn 0.1557 -0.0905 -0.9836
vn 0.2556 -0.1486 -0.9553
vn -0.5000 -0.8660 -0.0000
vn -0.5000 -0.8660 -0.0003
vn 0.1394 0.1258 0.9822
vn 0.0524 -0.0303 -0.9982
vn 0.0530 -0.0306 -0.9981
vn 0.1556 -0.0899 -0.9837
vn 0.1559 -0.0901 -0.9836
vn -0.5001 -0.8660 -0.0004
vn -0.5001 -0.8660 -0.0025
vn -0.5338 0.3084 -0.7873
vn -0.5338 0.3083 -0.7874
vn -0.5035 -0.8640 -0.0068
vn -0.5001 -0.8660 -0.0005
vn 0.0000 1.0000 0.0000
vn 0.0000 1.0000 0.0001
vn -0.0522 0.0302 -0.9982
vn -0.0516 0.0298 -0.9982
vn 0.0515 -0.0297 -0.9982
vn 0.0524 -0.0302 -0.9982
vn -0.0524 0.0302 -0.9982
vn -0.1561 0.0901 -0.9836
vn -0.1557 0.0900 -0.9837
vn -0.0526 0.0304 -0.9982
vn -0.4513 0.2607 -0.8535
vn -0.4481 0.2586 -0.8558
vn -0.4479 0.2586 -0.8559
vn -0.3556 0.2053 -0.9118
vn -0.3553 0.2051 -0.9120
vn -0.5008 -0.8655 -0.0027
vn -0.2579 0.1488 -0.9546
vn -0.2579 0.1489 -0.9546
vn -0.3552 0.2050 -0.9120
usemtl None
s off
f 1//1 2//1 3//1
f 1//2 3//2 7//2
f 1//2 7//2 14//2
f 1//2 14//2 13//2
f 1//2 13//2 12//2
f 1//2 12//2 24//2
f 1//2 24//2 23//2
f 1//2 23//2 21//2
f 1//2 21//2 9//2
f 1//2 9//2 4//2
f 1//3 4//3 10//3
f 1//3 10//3 16//3
f 1//3 16//3 8//3
f 1//4 8//4 5//4
f 1//5 5//5 2//5
f 2//6 6//6 7//6
f 2//7 7//7 3//7
f 2//8 5//8 8//8
f 2//9 8//9 6//9
f 4//10 9//10 10//10
f 6//11 11//11 12//11
f 6//12 12//12 13//12
f 6//13 13//13 14//13
f 6//14 14//14 7//14
f 6//15 8//15 15//15
f 6//16 15//16 11//16
f 8//17 16//17 17//17
f 8//18 17//18 18//18
f 8//19 18//19 19//19
f 8//20 19//20 20//20
f 8//20 20//20 15//20
f 9//21 21//21 22//21
f 9//21 22//21 27//21
f 9//21 27//21 26//21
f 9//21 26//21 25//21
f 9//21 25//21 33//21
f 9//21 33//21 31//21
f 9//21 31//21 30//21
f 9//21 30//21 29//21
f 9//21 29//21 28//21
f 9//22 28//22 17//22
f 9//21 17//21 16//21
f 9//21 16//21 10//21
f 11//23 22//23 21//23
f 11//24 21//24 23//24
f 11//25 23//25 24//25
f 11//26 24//26 12//26
f 11//27 15//27 22//27
f 15//28 20//28 25//28
f 15//28 25//28 26//28
f 15//29 26//29 27//29
f 15//30 27//30 22//30
f 17//31 28//31 18//31
f 18//32 28//32 19//32
f 19//33 28//33 29//33
f 19//34 29//34 30//34
f 19//35 30//35 31//35
f 19//35 31//35 32//35
f 19//36 32//36 20//36
f 20//37 32//37 25//37
f 25//38 32//38 33//38
f 31//39 33//39 32//39
