# Blender v3.6.3 OBJ File: 'convex_cup.blend'
# www.blender.org
mtllib geometry_0.mtl
o geometry_0
v 0.402979 0.644801 -0.000031
v 0.377004 0.659780 -0.000031
v 0.375829 0.660473 0.020887
v 0.401804 0.645495 0.022907
v 0.402979 0.644801 0.000003
v 0.153009 0.211817 0.000003
v 0.153009 0.211863 -0.000031
v 0.376672 0.659225 -0.000031
v 0.334963 0.684096 0.114611
v 0.392303 0.650996 0.067367
v 0.398203 0.647575 0.045474
v 0.148233 0.214591 0.045474
v 0.151808 0.212510 0.022907
v 0.142077 0.218150 -0.000008
v 0.142077 0.252637 -0.000031
v 0.142077 0.252915 -0.000031
v 0.356341 0.671753 0.114611
v 0.142077 0.349997 0.114611
v 0.373862 0.661629 0.107923
v 0.384155 0.655665 0.088296
v 0.142333 0.218012 0.067367
v 0.142077 0.218150 0.067984
v 0.369341 0.664218 0.114611
v 0.142077 0.270621 0.114611
v 0.142077 0.260173 0.107923
v 0.142077 0.236411 0.088296
v 0.211830 0.391418 0.114611
vn 0.4995 0.8663 -0.0007
vn 0.4996 0.8663 -0.0006
vn 0.4949 0.8689 0.0000
vn 0.8660 -0.5000 0.0000
vn 0.7137 -0.4121 -0.5663
vn -0.0000 -0.0000 -1.0000
vn -0.7901 0.4729 -0.3900
vn 0.4993 0.8664 -0.0007
vn 0.4996 0.8663 -0.0005
vn 0.4997 0.8662 -0.0004
vn 0.5036 0.8639 0.0007
vn 0.8517 -0.4917 0.1812
vn 0.8518 -0.4918 0.1803
vn 0.8644 -0.4991 0.0604
vn 0.8645 -0.4991 0.0595
vn -0.5013 -0.8653 -0.0001
vn -0.3219 -0.5570 -0.7656
vn -0.0024 -0.0007 -1.0000
vn -0.7974 0.4604 -0.3900
vn 0.5000 0.8660 0.0001
vn -0.7975 0.4604 -0.3899
vn 0.0000 0.0000 1.0000
vn -0.0004 0.0000 1.0000
vn 0.5005 0.8657 0.0006
vn 0.5129 0.8584 0.0082
vn 0.7901 -0.4562 0.4094
vn 0.8268 -0.4774 0.2974
vn -0.4285 -0.9032 0.0257
vn -0.4975 -0.8675 0.0011
vn -0.5014 -0.8652 0.0000
vn -1.0000 0.0000 0.0000
vn 0.5015 0.8652 0.0041
vn 0.6832 -0.3945 0.6145
vn 0.7406 -0.4276 0.5183
vn 0.7408 -0.4278 0.5179
vn 0.7897 -0.4560 0.4105
vn 0.7713 -0.4733 0.4255
vn 0.6827 -0.3942 0.6152
vn 0.6825 -0.3941 0.6156
usemtl None
s off
f 1//1 2//1 3//1
f 1//2 3//2 4//2
f 1//3 4//3 5//3
f 1//4 5//4 6//4
f 1//5 6//5 7//5
f 1//6 7//6 15//6
f 1//6 15//6 16//6
f 1//6 16//6 8//6
f 1//6 8//6 2//6
f 2//7 8//7 9//7
f 2//8 9//8 3//8
f 3//9 9//9 4//9
f 4//10 9//10 10//10
f 4//11 10//11 11//11
f 4//12 11//12 12//12
f 4//13 12//13 13//13
f 4//14 13//14 6//14
f 4//15 6//15 5//15
f 6//16 13//16 14//16
f 6//17 14//17 7//17
f 7//18 14//18 15//18
f 8//19 16//19 9//19
f 9//20 17//20 10//20
f 9//21 16//21 18//21
f 9//22 18//22 24//22
f 9//22 24//22 27//22
f 9//22 27//22 23//22
f 9//23 23//23 17//23
f 10//24 17//24 19//24
f 10//25 19//25 20//25
f 10//26 20//26 21//26
f 10//27 21//27 12//27
f 10//27 12//27 11//27
f 12//28 21//28 22//28
f 12//29 22//29 13//29
f 13//30 22//30 14//30
f 14//31 22//31 26//31
f 14//31 26//31 25//31
f 14//31 25//31 24//31
f 14//31 24//31 18//31
f 14//31 18//31 16//31
f 14//31 16//31 15//31
f 17//32 23//32 19//32
f 19//33 23//33 25//33
f 19//34 25//34 20//34
f 20//35 25//35 26//35
f 20//36 26//36 21//36
f 21//37 26//37 22//37
f 23//38 27//38 25//38
f 24//39 25//39 27//39
