# Blender v3.6.3 OBJ File: 'convex_cup.blend'
# www.blender.org
mtllib geometry_16.mtl
o geometry_16
v 0.142077 0.526209 0.158146
v 0.050423 0.526209 0.149580
v 0.142077 0.526209 0.188533
v 0.142077 0.414424 0.138945
v 0.050423 0.526209 0.181176
v 0.050423 0.414424 0.159991
v 0.141575 0.526209 0.188608
v 0.077033 0.414424 0.188608
v 0.089118 0.414424 0.186694
v 0.095452 0.414424 0.185689
v 0.142077 0.481940 0.184475
v 0.142077 0.414424 0.172310
v 0.050423 0.525268 0.181326
v 0.051437 0.526209 0.181451
v 0.050423 0.414424 0.189988
v 0.141521 0.526209 0.188613
v 0.069955 0.414424 0.188983
v 0.103087 0.414424 0.184475
v 0.120330 0.414424 0.179822
v 0.142077 0.438140 0.177648
v 0.128377 0.414424 0.177648
v 0.050423 0.524283 0.181481
v 0.059969 0.526209 0.183755
v 0.050594 0.414424 0.189993
v 0.115135 0.526209 0.189997
v 0.050423 0.424515 0.189683
v 0.050423 0.505065 0.184475
v 0.062643 0.526209 0.184475
v 0.100637 0.526209 0.189238
v 0.050423 0.432613 0.189438
v 0.050423 0.467187 0.187948
v 0.075643 0.526209 0.186539
v 0.088696 0.526209 0.188608
v 0.050423 0.459941 0.188608
v 0.082703 0.526209 0.187658
vn 0.0000 1.0000 0.0000
vn 0.0000 1.0000 0.0001
vn 0.0000 1.0000 -0.0001
vn 1.0000 -0.0000 0.0000
vn 0.0917 0.1686 -0.9814
vn -0.2229 -0.0904 -0.9706
vn -1.0000 -0.0000 0.0000
vn 0.1470 -0.0849 0.9855
vn 0.1558 -0.0900 0.9837
vn 0.1560 -0.0901 0.9836
vn 0.1562 -0.0902 0.9836
vn 0.0000 -1.0000 0.0000
vn 0.0000 -1.0000 0.0002
vn -0.2587 0.1520 0.9539
vn 0.0923 -0.0534 0.9943
vn 0.0529 -0.0305 0.9981
vn 0.1565 -0.0904 0.9835
vn 0.2576 -0.1488 0.9547
vn 0.2577 -0.1488 0.9547
vn 0.3553 -0.2052 0.9119
vn -0.2577 0.1501 0.9545
vn -0.2577 0.1509 0.9544
vn -0.0293 0.0169 0.9994
vn -0.0522 0.0302 0.9982
vn 0.0524 -0.0302 0.9982
vn 0.0520 -0.0301 0.9982
vn 0.2579 -0.1490 0.9546
vn -0.2575 0.1487 0.9548
vn -0.2570 0.1485 0.9549
vn -0.0523 0.0302 0.9982
vn -0.1561 0.0902 0.9836
vn -0.1562 0.0903 0.9836
vn -0.0526 0.0304 0.9982
vn -0.0525 0.0303 0.9982
vn -0.1551 0.0896 0.9838
vn -0.1559 0.0901 0.9837
vn -0.1560 0.0901 0.9836
usemtl None
s off
f 1//1 2//1 5//1
f 1//2 5//2 14//2
f 1//1 14//1 23//1
f 1//3 23//3 28//3
f 1//1 28//1 32//1
f 1//1 32//1 35//1
f 1//1 35//1 33//1
f 1//1 33//1 29//1
f 1//1 29//1 25//1
f 1//1 25//1 16//1
f 1//1 16//1 7//1
f 1//1 7//1 3//1
f 1//4 3//4 11//4
f 1//4 11//4 20//4
f 1//4 20//4 12//4
f 1//4 12//4 4//4
f 1//5 4//5 2//5
f 2//6 4//6 6//6
f 2//7 6//7 15//7
f 2//7 15//7 26//7
f 2//7 26//7 30//7
f 2//7 30//7 34//7
f 2//7 34//7 31//7
f 2//7 31//7 27//7
f 2//7 27//7 22//7
f 2//7 22//7 13//7
f 2//7 13//7 5//7
f 3//8 7//8 8//8
f 3//9 8//9 9//9
f 3//10 9//10 10//10
f 3//11 10//11 11//11
f 4//12 12//12 21//12
f 4//12 21//12 19//12
f 4//12 19//12 18//12
f 4//12 18//12 10//12
f 4//12 10//12 9//12
f 4//12 9//12 8//12
f 4//12 8//12 17//12
f 4//12 17//12 24//12
f 4//13 24//13 15//13
f 4//12 15//12 6//12
f 5//14 13//14 14//14
f 7//15 16//15 8//15
f 8//16 16//16 17//16
f 10//17 18//17 11//17
f 11//18 18//18 19//18
f 11//19 19//19 20//19
f 12//20 20//20 21//20
f 13//21 22//21 23//21
f 13//22 23//22 14//22
f 15//23 24//23 25//23
f 15//24 25//24 26//24
f 16//25 25//25 17//25
f 17//26 25//26 24//26
f 19//27 21//27 20//27
f 22//28 27//28 23//28
f 23//29 27//29 28//29
f 25//30 29//30 30//30
f 25//30 30//30 26//30
f 27//31 31//31 32//31
f 27//32 32//32 28//32
f 29//33 33//33 34//33
f 29//34 34//34 30//34
f 31//35 34//35 33//35
f 31//36 33//36 35//36
f 31//37 35//37 32//37
