# Blender v3.6.3 OBJ File: 'convex_cup.blend'
# www.blender.org
mtllib geometry_47.mtl
o geometry_47
v -0.149630 0.397238 -0.093969
v -0.142978 0.408759 -0.093969
v -0.139877 0.397238 -0.107932
v -0.108151 0.397238 -0.093969
v -0.117648 0.452626 -0.093969
v -0.107896 0.452626 -0.107932
v -0.136922 0.397238 -0.111203
v -0.057382 0.397238 -0.135279
v -0.025400 0.452626 -0.135279
v -0.076571 0.452626 -0.093969
v -0.105306 0.452626 -0.110799
v -0.125066 0.397238 -0.124301
v -0.091564 0.452626 -0.125991
v -0.112821 0.397238 -0.135279
v -0.080851 0.452626 -0.135279
v -0.123534 0.397238 -0.125991
v -0.120701 0.397238 -0.128453
vn -0.7410 0.4278 -0.5176
vn 0.0000 -1.0000 0.0000
vn -0.0002 -1.0000 0.0000
vn 0.0000 0.0000 1.0000
vn -0.0227 0.0046 0.9997
vn -0.7410 0.4279 -0.5176
vn -0.6821 0.3938 -0.6161
vn 0.5930 -0.3424 0.7288
vn 0.5914 -0.3372 0.7325
vn 0.0000 1.0000 0.0000
vn 0.0000 1.0000 0.0001
vn -0.6820 0.3938 -0.6162
vn -0.6817 0.3937 -0.6166
vn -0.6816 0.3934 -0.6170
vn 0.0000 -0.0000 -1.0000
vn -0.6812 0.3932 -0.6175
vn -0.6135 0.3541 -0.7059
vn -0.6127 0.3537 -0.7067
vn -0.6125 0.3535 -0.7071
usemtl None
s off
f 1//1 2//1 3//1
f 1//2 3//2 7//2
f 1//2 7//2 12//2
f 1//3 12//3 16//3
f 1//2 16//2 17//2
f 1//2 17//2 14//2
f 1//2 14//2 8//2
f 1//2 8//2 4//2
f 1//4 4//4 10//4
f 1//4 10//4 5//4
f 1//5 5//5 2//5
f 2//6 5//6 6//6
f 2//1 6//1 3//1
f 3//7 6//7 7//7
f 4//8 8//8 9//8
f 4//9 9//9 10//9
f 5//10 10//10 9//10
f 5//10 9//10 15//10
f 5//10 15//10 13//10
f 5//10 13//10 11//10
f 5//11 11//11 6//11
f 6//12 11//12 7//12
f 7//13 11//13 13//13
f 7//14 13//14 12//14
f 8//15 14//15 15//15
f 8//15 15//15 9//15
f 12//16 13//16 16//16
f 13//17 17//17 16//17
f 13//18 15//18 17//18
f 14//19 17//19 15//19
