# Blender v3.6.3 OBJ File: 'convex_cup.blend'
# www.blender.org
mtllib geometry_48.mtl
o geometry_48
v 0.077354 0.290136 -0.134986
v 0.047289 0.307496 -0.134986
v 0.047512 0.307367 -0.117575
v 0.077354 0.290136 -0.093969
v 0.077354 0.255496 -0.134986
v 0.030995 0.316900 -0.134986
v 0.047512 0.307367 -0.107585
v 0.046438 0.307987 -0.093969
v 0.077354 0.255496 -0.093969
v 0.076969 0.255717 -0.093969
v 0.064847 0.262716 -0.134986
v 0.028809 0.318158 -0.134986
v 0.028809 0.318158 -0.093969
v 0.064505 0.262912 -0.093969
v 0.057695 0.266844 -0.113857
v 0.028809 0.283523 -0.134986
v 0.028809 0.283523 -0.093969
vn 0.5000 0.8660 -0.0000
vn 1.0000 -0.0000 0.0000
vn -0.0000 0.0000 -1.0000
vn -0.0021 -0.0002 -1.0000
vn 0.0017 0.0033 -1.0000
vn 0.4999 0.8661 -0.0000
vn 0.0000 0.0000 1.0000
vn -0.4977 -0.8674 0.0000
vn -0.5000 -0.8660 -0.0000
vn 0.4987 0.8668 -0.0000
vn 0.4997 0.8662 0.0001
vn 0.4998 0.8661 0.0000
vn -1.0000 0.0000 0.0000
usemtl None
s off
f 1//1 2//1 3//1
f 1//1 3//1 7//1
f 1//1 7//1 4//1
f 1//2 4//2 9//2
f 1//2 9//2 5//2
f 1//3 5//3 11//3
f 1//3 11//3 16//3
f 1//3 16//3 12//3
f 1//4 12//4 6//4
f 1//5 6//5 2//5
f 2//6 6//6 3//6
f 3//6 6//6 7//6
f 4//1 7//1 8//1
f 4//7 8//7 13//7
f 4//7 13//7 17//7
f 4//7 17//7 14//7
f 4//7 14//7 10//7
f 4//7 10//7 9//7
f 5//8 9//8 10//8
f 5//9 10//9 11//9
f 6//10 12//10 13//10
f 6//11 13//11 8//11
f 6//12 8//12 7//12
f 10//9 14//9 11//9
f 11//9 14//9 15//9
f 11//9 15//9 16//9
f 12//13 16//13 17//13
f 12//13 17//13 13//13
f 14//9 16//9 15//9
f 14//9 17//9 16//9
