# Blender v3.6.3 OBJ File: 'convex_cup.blend'
# www.blender.org
mtllib geometry_36.mtl
o geometry_36
v -0.123449 0.378805 -0.135279
v -0.099273 0.420687 -0.135279
v -0.115445 0.378805 -0.142218
v -0.068016 0.378805 -0.135279
v -0.080835 0.452626 -0.135279
v -0.072831 0.452626 -0.142218
v -0.115102 0.378805 -0.142459
v 0.028809 0.378805 -0.159931
v -0.025402 0.452626 -0.135279
v -0.051978 0.452626 -0.156368
v -0.094592 0.378805 -0.156368
v 0.028809 0.378805 -0.189934
v 0.028809 0.452626 -0.155234
v -0.046627 0.452626 -0.159177
v -0.071921 0.378805 -0.168235
v 0.017570 0.378805 -0.189345
v 0.028809 0.388849 -0.189629
v 0.028809 0.452626 -0.185846
v -0.029322 0.452626 -0.168235
v -0.047760 0.378805 -0.177650
v 0.028809 0.422493 -0.188607
v 0.028809 0.412283 -0.188917
v 0.007375 0.378805 -0.188810
v 0.028809 0.448962 -0.186183
v 0.027736 0.452626 -0.185681
v -0.005160 0.452626 -0.177650
v -0.044779 0.378805 -0.178458
v 0.003574 0.378805 -0.188607
v -0.003506 0.378805 -0.187489
v 0.020134 0.452626 -0.184472
v -0.019440 0.378805 -0.184958
v 0.003619 0.452626 -0.180020
v -0.029098 0.378805 -0.182690
v -0.022480 0.378805 -0.184472
vn -0.6127 0.3537 -0.7068
vn 0.0000 -1.0000 -0.0002
vn 0.0000 -1.0000 0.0000
vn 0.0000 -1.0000 0.0001
vn 0.0000 0.0000 1.0000
vn 0.0000 -0.0081 1.0000
vn -0.5455 0.3149 -0.7767
vn 0.2443 -0.1410 0.9594
vn 0.0000 1.0000 0.0000
vn 0.0000 1.0000 0.0001
vn 0.0000 1.0000 -0.0001
vn -0.5341 0.3084 -0.7871
vn -0.5340 0.3082 -0.7873
vn 1.0000 0.0000 0.0000
vn 0.3448 -0.0596 0.9368
vn -0.4489 0.2591 -0.8552
vn -0.4480 0.2585 -0.8559
vn -0.0523 0.0303 -0.9982
vn -0.3554 0.2051 -0.9119
vn -0.0524 0.0303 -0.9982
vn -0.1521 0.0905 -0.9842
vn -0.2586 0.1492 -0.9544
vn -0.1535 0.0901 -0.9840
vn -0.0534 0.0308 -0.9981
vn -0.1554 0.0897 -0.9838
vn -0.1557 0.0900 -0.9837
vn -0.1562 0.0902 -0.9836
vn -0.1564 0.0903 -0.9835
vn -0.2577 0.1488 -0.9547
vn -0.2577 0.1487 -0.9547
vn -0.1574 0.0909 -0.9833
vn -0.2571 0.1484 -0.9549
vn -0.2573 0.1486 -0.9548
usemtl None
s off
f 1//1 2//1 3//1
f 1//2 3//2 7//2
f 1//3 7//3 11//3
f 1//3 11//3 15//3
f 1//3 15//3 20//3
f 1//3 20//3 27//3
f 1//3 27//3 33//3
f 1//4 33//4 34//4
f 1//3 34//3 31//3
f 1//3 31//3 29//3
f 1//3 29//3 28//3
f 1//3 28//3 23//3
f 1//3 23//3 16//3
f 1//3 16//3 12//3
f 1//3 12//3 8//3
f 1//3 8//3 4//3
f 1//5 4//5 9//5
f 1//5 9//5 5//5
f 1//6 5//6 2//6
f 2//1 5//1 6//1
f 2//1 6//1 3//1
f 3//7 6//7 7//7
f 4//8 8//8 9//8
f 5//9 9//9 13//9
f 5//9 13//9 18//9
f 5//10 18//10 25//10
f 5//9 25//9 30//9
f 5//9 30//9 32//9
f 5//9 32//9 26//9
f 5//9 26//9 19//9
f 5//9 19//9 14//9
f 5//11 14//11 10//11
f 5//10 10//10 6//10
f 6//12 10//12 7//12
f 7//13 10//13 11//13
f 8//14 12//14 17//14
f 8//14 17//14 22//14
f 8//14 22//14 21//14
f 8//14 21//14 24//14
f 8//14 24//14 18//14
f 8//14 18//14 13//14
f 8//15 13//15 9//15
f 10//16 14//16 11//16
f 11//17 14//17 15//17
f 12//18 16//18 17//18
f 14//17 19//17 15//17
f 15//19 19//19 26//19
f 15//19 26//19 20//19
f 16//20 21//20 22//20
f 16//18 22//18 17//18
f 16//20 23//20 21//20
f 18//21 24//21 25//21
f 20//22 26//22 27//22
f 21//23 25//23 24//23
f 21//24 23//24 28//24
f 21//25 28//25 29//25
f 21//26 29//26 25//26
f 25//27 29//27 31//27
f 25//28 31//28 30//28
f 26//29 32//29 27//29
f 27//30 32//30 33//30
f 30//31 31//31 34//31
f 30//32 34//32 33//32
f 30//33 33//33 32//33
