# Blender v3.6.3 OBJ File: 'convex_cup.blend'
# www.blender.org
mtllib geometry_18.mtl
o geometry_18
v 0.028809 0.283523 -0.139876
v 0.028809 0.283523 -0.152166
v 0.028809 0.318170 -0.139876
v -0.098409 0.356972 -0.139876
v 0.028809 0.318170 -0.152166
v -0.098409 0.356972 -0.152166
v -0.038399 0.356972 -0.139876
v -0.038399 0.356972 -0.152166
vn 1.0000 -0.0000 0.0000
vn 0.0000 0.0000 1.0000
vn -0.5000 -0.8660 0.0000
vn 0.0000 -0.0000 -1.0000
vn 0.5000 0.8660 0.0000
vn 0.0000 1.0000 0.0000
usemtl None
s off
f 1//1 2//1 5//1
f 1//1 5//1 3//1
f 1//2 3//2 7//2
f 1//2 7//2 4//2
f 1//3 4//3 6//3
f 1//3 6//3 2//3
f 2//4 6//4 8//4
f 2//4 8//4 5//4
f 3//5 5//5 8//5
f 3//5 8//5 7//5
f 4//6 7//6 8//6
f 4//6 8//6 6//6
