# Blender v3.6.3 OBJ File: 'convex_cup.blend'
# www.blender.org
mtllib geometry_22.mtl
o geometry_22
v 0.217646 0.620086 0.154537
v 0.217646 0.620900 0.154537
v 0.217646 0.620086 0.154396
v 0.296644 0.620086 0.154537
v 0.274028 0.718542 0.154537
v 0.334970 0.684095 0.114611
v 0.298025 0.620086 0.114611
v 0.297059 0.620086 0.154259
v 0.301648 0.628751 0.154537
v 0.274281 0.718978 0.154537
v 0.337004 0.682922 0.114611
v 0.274355 0.719104 0.154537
v 0.343835 0.620086 0.114611
v 0.314166 0.620086 0.142648
v 0.347562 0.676825 0.142214
v 0.333945 0.684686 0.154537
v 0.356352 0.671756 0.114611
v 0.288996 0.710652 0.154537
v 0.369331 0.664264 0.114611
v 0.333544 0.620086 0.125995
v 0.314804 0.620086 0.142214
v 0.361609 0.668723 0.125995
v 0.331361 0.686179 0.154537
vn -1.0000 0.0000 0.0000
vn 0.0000 -1.0000 0.0000
vn 0.0000 -1.0000 -0.0001
vn 0.0000 -1.0000 0.0002
vn 0.0000 0.0000 1.0000
vn 0.0028 0.0000 1.0000
vn -0.0028 0.0000 1.0000
vn -0.4291 0.2478 -0.8686
vn -0.4290 0.2476 -0.8687
vn -0.4384 0.1531 -0.8857
vn 0.5287 -0.3053 0.7920
vn -0.4288 0.2482 -0.8686
vn 0.0000 0.0000 -1.0000
vn -0.0031 0.0000 -1.0000
vn -0.4268 0.2517 -0.8686
vn 0.4994 0.8664 -0.0014
vn 0.5342 -0.3084 0.7871
vn 0.5294 -0.3057 0.7914
vn 0.4998 0.8661 -0.0006
vn 0.4999 0.8661 -0.0003
vn 0.6820 -0.3936 0.6164
vn 0.5345 -0.3086 0.7868
vn 0.6125 -0.3534 0.7071
vn 0.5010 0.8654 0.0015
vn 0.6122 -0.3534 0.7073
vn 0.5002 0.8659 0.0006
vn 0.5000 0.8660 -0.0002
vn 0.5002 0.8659 0.0005
vn 0.5001 0.8660 0.0000
vn 0.6819 -0.3935 0.6166
usemtl None
s off
f 1//1 2//1 3//1
f 1//2 3//2 7//2
f 1//2 7//2 13//2
f 1//2 13//2 20//2
f 1//2 20//2 21//2
f 1//3 21//3 14//3
f 1//2 14//2 8//2
f 1//4 8//4 4//4
f 1//5 4//5 9//5
f 1//5 9//5 16//5
f 1//5 16//5 23//5
f 1//5 23//5 18//5
f 1//5 18//5 12//5
f 1//6 12//6 10//6
f 1//7 10//7 5//7
f 1//5 5//5 2//5
f 2//8 5//8 6//8
f 2//9 6//9 7//9
f 2//10 7//10 3//10
f 4//11 8//11 9//11
f 5//12 10//12 6//12
f 6//13 11//13 17//13
f 6//14 17//14 19//14
f 6//13 19//13 13//13
f 6//13 13//13 7//13
f 6//15 10//15 12//15
f 6//16 12//16 11//16
f 8//17 14//17 15//17
f 8//17 15//17 16//17
f 8//18 16//18 9//18
f 11//19 12//19 17//19
f 12//20 18//20 17//20
f 13//21 19//21 20//21
f 14//22 21//22 15//22
f 15//23 20//23 22//23
f 15//24 22//24 16//24
f 15//25 21//25 20//25
f 16//26 22//26 23//26
f 17//27 18//27 19//27
f 18//28 23//28 22//28
f 18//29 22//29 19//29
f 19//30 22//30 20//30
