# Blender v3.6.3 OBJ File: 'convex_cup.blend'
# www.blender.org
mtllib geometry_1.mtl
o geometry_1
v 0.403003 0.644804 -0.000042
v 0.401801 0.645497 -0.022910
v 0.398223 0.647577 -0.045476
v 0.335136 0.683998 -0.114428
v 0.377006 0.659779 -0.000042
v 0.153007 0.211818 -0.000042
v 0.151831 0.212511 -0.022910
v 0.392292 0.650997 -0.067370
v 0.148227 0.214591 -0.045476
v 0.142322 0.218011 -0.067370
v 0.376674 0.659224 -0.000042
v 0.373862 0.661628 -0.107921
v 0.369440 0.664170 -0.114428
v 0.141862 0.349229 -0.114428
v 0.141862 0.252907 -0.000042
v 0.141862 0.218289 -0.000042
v 0.384138 0.655666 -0.088290
v 0.141862 0.218289 -0.068535
v 0.141862 0.235482 -0.087662
v 0.141862 0.259794 -0.107921
v 0.279360 0.508132 -0.114428
v 0.141862 0.270008 -0.114428
v 0.141862 0.236083 -0.088289
vn 0.5038 0.8638 -0.0003
vn 0.4997 0.8662 0.0003
vn 0.4992 0.8665 0.0008
vn 0.0000 0.0000 1.0000
vn 0.8645 -0.4991 -0.0596
vn 0.8644 -0.4991 -0.0605
vn 0.8518 -0.4918 -0.1804
vn 0.5001 0.8659 -0.0002
vn 0.8517 -0.4917 -0.1813
vn 0.8268 -0.4774 -0.2976
vn 0.8266 -0.4772 -0.2984
vn -0.7901 0.4734 0.3895
vn 0.5002 0.8659 -0.0004
vn 0.5004 0.8658 -0.0019
vn -0.0000 -0.0000 -1.0000
vn -0.7982 0.4608 0.3880
vn -0.7975 0.4609 0.3894
vn -0.5021 -0.8648 0.0001
vn -0.5008 -0.8655 -0.0001
vn -0.4959 -0.8684 -0.0008
vn 0.5162 0.8564 -0.0101
vn 0.7900 -0.4561 -0.4097
vn 0.7794 -0.4660 -0.4189
vn 0.7897 -0.4560 -0.4105
vn -0.5162 -0.8565 0.0000
vn 0.7409 -0.4278 -0.5177
vn 0.6819 -0.3937 -0.6164
vn 0.6816 -0.3935 -0.6170
vn -1.0000 0.0000 0.0000
vn 0.7810 -0.4510 -0.4321
vn 0.7413 -0.4280 -0.5170
vn 0.6812 -0.3933 -0.6175
usemtl None
s off
f 1//1 2//1 3//1
f 1//2 3//2 4//2
f 1//3 4//3 5//3
f 1//4 5//4 11//4
f 1//4 11//4 15//4
f 1//4 15//4 16//4
f 1//4 16//4 6//4
f 1//5 6//5 7//5
f 1//6 7//6 2//6
f 2//7 7//7 3//7
f 3//8 8//8 4//8
f 3//9 7//9 9//9
f 3//10 9//10 10//10
f 3//11 10//11 8//11
f 4//12 11//12 5//12
f 4//13 8//13 12//13
f 4//14 12//14 13//14
f 4//15 13//15 21//15
f 4//15 21//15 22//15
f 4//15 22//15 14//15
f 4//16 14//16 15//16
f 4//17 15//17 11//17
f 6//18 16//18 10//18
f 6//19 10//19 9//19
f 6//20 9//20 7//20
f 8//21 17//21 12//21
f 8//22 10//22 17//22
f 10//23 18//23 19//23
f 10//24 19//24 17//24
f 10//25 16//25 18//25
f 12//26 17//26 20//26
f 12//27 20//27 21//27
f 12//28 21//28 13//28
f 14//29 22//29 20//29
f 14//29 20//29 23//29
f 14//29 23//29 19//29
f 14//29 19//29 18//29
f 14//29 18//29 16//29
f 14//29 16//29 15//29
f 17//30 19//30 23//30
f 17//31 23//31 20//31
f 20//32 22//32 21//32
