# Blender v3.6.3 OBJ File: 'convex_cup.blend'
# www.blender.org
mtllib geometry_31.mtl
o geometry_31
v 0.141862 0.452614 -0.179966
v 0.141862 0.452614 -0.152813
v 0.141862 0.437754 -0.177648
v 0.081330 0.332898 -0.177648
v 0.056032 0.332898 -0.184476
v 0.125152 0.452614 -0.184476
v 0.126358 0.452614 -0.152813
v 0.141862 0.347582 -0.152813
v 0.141862 0.422917 -0.174310
v 0.105476 0.332898 -0.168235
v 0.141862 0.395914 -0.168235
v 0.032295 0.332898 -0.188243
v 0.099091 0.452614 -0.188611
v 0.028809 0.452614 -0.155233
v 0.090481 0.390500 -0.152813
v 0.133385 0.332898 -0.152813
v 0.128151 0.332898 -0.156365
v 0.141862 0.356653 -0.156365
v 0.109239 0.332898 -0.166266
v 0.141862 0.384605 -0.164817
v 0.029971 0.332898 -0.188611
v 0.081805 0.452614 -0.189517
v 0.028809 0.332898 -0.188673
v 0.028809 0.452614 -0.185848
v 0.028809 0.332898 -0.158429
v 0.057238 0.332898 -0.152813
v 0.072654 0.452614 -0.189994
v 0.028809 0.369850 -0.189790
v 0.031255 0.452614 -0.186238
v 0.028809 0.448958 -0.186187
v 0.028809 0.376694 -0.189994
v 0.028809 0.388847 -0.189630
v 0.060182 0.452614 -0.189342
v 0.046205 0.452614 -0.188611
v 0.028809 0.422495 -0.188611
vn 1.0000 -0.0000 0.0000
vn 0.2580 -0.1489 -0.9546
vn 0.2577 -0.1488 -0.9547
vn 0.0000 1.0000 0.0000
vn 0.0000 1.0000 -0.0001
vn 0.0000 0.0000 1.0000
vn 0.3554 -0.2051 -0.9119
vn 0.0000 -1.0000 -0.0000
vn 0.0000 -1.0000 -0.0003
vn 0.0000 -1.0000 0.0004
vn 0.3554 -0.2052 -0.9119
vn 0.3555 -0.2052 -0.9119
vn 0.1561 -0.0901 -0.9836
vn -0.0248 0.0143 0.9996
vn 0.5342 -0.3084 -0.7871
vn 0.5341 -0.3083 -0.7872
vn 0.4479 -0.2586 -0.8559
vn 0.4479 -0.2586 -0.8558
vn 0.1556 -0.0898 -0.9837
vn 0.0531 -0.0307 -0.9981
vn 0.0523 -0.0302 -0.9982
vn -1.0000 -0.0000 0.0000
vn -0.1937 -0.0262 0.9807
vn 0.4480 -0.2587 -0.8558
vn 0.4483 -0.2587 -0.8556
vn 0.0520 -0.0300 -0.9982
vn -0.1566 0.0910 -0.9835
vn 0.0515 -0.0297 -0.9982
vn -0.0518 0.0299 -0.9982
vn -0.0521 0.0302 -0.9982
vn -0.1561 0.0907 -0.9836
vn -0.1560 0.0901 -0.9836
vn -0.0523 0.0302 -0.9982
usemtl None
s off
f 1//1 2//1 8//1
f 1//1 8//1 18//1
f 1//1 18//1 20//1
f 1//1 20//1 11//1
f 1//1 11//1 9//1
f 1//1 9//1 3//1
f 1//2 3//2 4//2
f 1//3 4//3 5//3
f 1//3 5//3 6//3
f 1//4 6//4 13//4
f 1//4 13//4 22//4
f 1//4 22//4 27//4
f 1//4 27//4 33//4
f 1//4 33//4 34//4
f 1//4 34//4 29//4
f 1//5 29//5 24//5
f 1//4 24//4 14//4
f 1//4 14//4 7//4
f 1//4 7//4 2//4
f 2//6 7//6 15//6
f 2//6 15//6 26//6
f 2//6 26//6 16//6
f 2//6 16//6 8//6
f 3//7 9//7 4//7
f 4//8 10//8 19//8
f 4//8 19//8 17//8
f 4//8 17//8 16//8
f 4//8 16//8 26//8
f 4//8 26//8 25//8
f 4//8 25//8 23//8
f 4//9 23//9 21//9
f 4//10 21//10 12//10
f 4//8 12//8 5//8
f 4//11 9//11 11//11
f 4//12 11//12 10//12
f 5//13 12//13 6//13
f 6//13 12//13 13//13
f 7//14 14//14 15//14
f 8//15 16//15 17//15
f 8//16 17//16 18//16
f 10//17 11//17 19//17
f 11//18 20//18 19//18
f 12//19 21//19 13//19
f 13//20 21//20 23//20
f 13//21 23//21 22//21
f 14//22 24//22 30//22
f 14//22 30//22 35//22
f 14//22 35//22 32//22
f 14//22 32//22 31//22
f 14//22 31//22 28//22
f 14//22 28//22 23//22
f 14//22 23//22 25//22
f 14//23 25//23 26//23
f 14//14 26//14 15//14
f 17//24 19//24 20//24
f 17//25 20//25 18//25
f 22//21 23//21 28//21
f 22//26 28//26 27//26
f 24//27 29//27 30//27
f 27//28 28//28 31//28
f 27//29 31//29 32//29
f 27//30 32//30 33//30
f 29//31 34//31 30//31
f 30//32 34//32 35//32
f 32//33 35//33 34//33
f 32//33 34//33 33//33
