# Blender v3.6.3 OBJ File: 'convex_cup.blend'
# www.blender.org
mtllib geometry_6.mtl
o geometry_6
v 0.333953 0.684686 0.154546
v 0.202217 0.760730 0.154400
v 0.142828 0.795047 0.154400
v 0.296803 0.706134 0.177645
v 0.331925 0.685856 0.156372
v 0.293948 0.620082 0.156372
v 0.142077 0.352391 0.154553
v 0.301648 0.628748 0.154546
v 0.217674 0.620082 0.154407
v 0.142115 0.656609 0.154400
v 0.142115 0.793747 0.154400
v 0.142115 0.788678 0.156372
v 0.145007 0.793747 0.156372
v 0.162024 0.783911 0.168240
v 0.180129 0.773469 0.177645
v 0.217674 0.751804 0.188395
v 0.218651 0.751241 0.188604
v 0.314909 0.695649 0.168240
v 0.238447 0.739802 0.189994
v 0.277833 0.717054 0.184471
v 0.221863 0.620082 0.184471
v 0.247125 0.620082 0.177645
v 0.269156 0.620082 0.169069
v 0.275147 0.620082 0.166216
v 0.142077 0.357071 0.156368
v 0.142077 0.490136 0.154553
v 0.296634 0.620082 0.154546
v 0.142077 0.620082 0.158093
v 0.142077 0.620082 0.188478
v 0.142115 0.788201 0.156522
v 0.142115 0.749421 0.168240
v 0.142115 0.745868 0.169048
v 0.199099 0.762506 0.184468
v 0.142115 0.707564 0.177645
v 0.142115 0.700415 0.178767
v 0.142115 0.663801 0.184468
v 0.217674 0.749334 0.188611
v 0.142077 0.618652 0.188607
v 0.142904 0.620082 0.188607
v 0.271278 0.620082 0.168240
v 0.217674 0.667268 0.188889
v 0.258281 0.728319 0.188604
v 0.153853 0.620082 0.189186
v 0.142077 0.572896 0.189994
v 0.169348 0.620082 0.189994
v 0.217674 0.649979 0.187875
v 0.217674 0.622725 0.185380
v 0.142077 0.481947 0.184471
v 0.142077 0.438184 0.177648
v 0.142077 0.410236 0.171373
v 0.142077 0.396327 0.168237
v 0.142115 0.652666 0.185492
v 0.142077 0.603443 0.189071
v 0.176467 0.620082 0.189621
v 0.142077 0.527096 0.188607
v 0.195793 0.620082 0.188607
v 0.217674 0.657952 0.188604
v 0.142077 0.504305 0.186523
vn 0.4532 0.7843 -0.4236
vn 0.5000 0.8660 0.0001
vn 0.5008 0.8656 0.0017
vn 0.5325 -0.3075 0.7886
vn 0.5326 -0.3075 0.7885
vn 0.2467 -0.1441 -0.9583
vn 0.0018 -0.0010 -1.0000
vn 0.0012 0.0001 -1.0000
vn 0.0001 -0.0000 -1.0000
vn 0.0000 -0.0000 -1.0000
vn -0.5510 0.3025 0.7777
vn -0.5331 0.3042 0.7895
vn 0.4568 0.8860 0.0793
vn 0.4939 0.8694 0.0146
vn 0.4990 0.8666 0.0037
vn 0.4990 0.8666 0.0036
vn 0.5000 0.8660 0.0009
vn 0.5080 0.8612 0.0178
vn 0.5002 0.8659 0.0028
vn 0.5009 0.8654 0.0078
vn 0.2579 -0.1488 0.9547
vn 0.2580 -0.1489 0.9546
vn 0.3550 -0.2050 0.9121
vn 0.3551 -0.2050 0.9121
vn 0.4480 -0.2587 0.8558
vn 0.4481 -0.2587 0.8558
vn 0.4481 -0.2587 0.8557
vn 0.5308 -0.3065 0.7901
vn -1.0000 0.0000 0.0000
vn -0.9712 0.0000 -0.2381
vn -0.9713 -0.0000 -0.2380
vn -0.0002 -0.0005 -1.0000
vn 0.0224 -0.0116 -0.9997
vn -1.0000 0.0001 -0.0045
vn -1.0000 0.0002 0.0000
vn -1.0000 0.0004 0.0011
vn -0.4653 0.2655 0.8444
vn -1.0000 0.0006 0.0018
vn -0.4508 0.2582 0.8544
vn -0.4477 0.2584 0.8560
vn -0.3587 0.2071 0.9102
vn -0.3553 0.2053 0.9119
vn 0.4976 0.8673 0.0101
vn -0.3549 0.2047 0.9122
vn -0.2596 0.1497 0.9540
vn -0.2575 0.1487 0.9548
vn 0.4654 0.8623 0.1995
vn -0.0525 0.0305 0.9982
vn -0.1561 0.0902 0.9836
vn -0.1536 0.0887 0.9841
vn -0.0439 0.0363 0.9984
vn -0.0556 0.0321 0.9979
vn 0.4479 -0.2586 0.8559
vn 0.3562 -0.2056 0.9115
vn 0.0525 -0.0302 0.9982
vn 0.5018 0.8648 0.0168
vn -0.0525 0.0304 0.9982
vn -0.0522 0.0301 0.9982
vn 0.0000 0.0001 1.0000
vn 0.0523 -0.0302 0.9982
vn 0.1560 -0.0900 0.9836
vn 0.1561 -0.0900 0.9836
vn 0.1565 -0.0904 0.9835
vn 0.2577 -0.1488 0.9547
vn 0.2580 -0.1490 0.9546
vn 0.3547 -0.2048 0.9123
vn 0.3559 -0.2055 0.9116
vn 0.3562 -0.2057 0.9115
vn 0.4478 -0.2586 0.8559
vn -0.1564 0.0903 0.9836
vn -0.2857 0.0878 0.9543
vn -0.9999 0.0021 0.0134
vn -0.9999 0.0020 0.0130
vn -1.0000 0.0010 0.0043
vn -1.0000 0.0009 0.0041
vn -1.0000 0.0006 0.0020
vn -0.1567 0.0905 0.9835
vn -0.0527 0.0305 0.9981
vn -0.0527 0.0304 0.9981
vn 0.0524 -0.0303 0.9982
vn 0.0528 -0.0305 0.9981
vn 0.1237 -0.0722 0.9897
vn 0.1557 -0.0899 0.9837
vn -0.0524 0.0302 0.9982
vn 0.1559 -0.0900 0.9837
vn 0.1559 -0.0901 0.9837
vn 0.1563 -0.0903 0.9836
usemtl None
s off
f 1//1 2//1 3//1
f 1//2 3//2 4//2
f 1//3 4//3 5//3
f 1//4 5//4 6//4
f 1//5 6//5 7//5
f 1//6 7//6 8//6
f 1//7 8//7 9//7
f 1//8 9//8 2//8
f 2//9 9//9 10//9
f 2//10 10//10 11//10
f 2//10 11//10 3//10
f 3//11 11//11 12//11
f 3//12 12//12 13//12
f 3//13 13//13 14//13
f 3//14 14//14 15//14
f 3//15 15//15 16//15
f 3//16 16//16 17//16
f 3//17 17//17 4//17
f 4//18 18//18 5//18
f 4//19 17//19 19//19
f 4//20 19//20 20//20
f 4//21 20//21 21//21
f 4//22 21//22 22//22
f 4//23 22//23 23//23
f 4//24 23//24 18//24
f 5//25 18//25 24//25
f 5//26 24//26 6//26
f 6//27 24//27 25//27
f 6//28 25//28 7//28
f 7//29 25//29 51//29
f 7//29 51//29 50//29
f 7//29 50//29 49//29
f 7//29 49//29 48//29
f 7//29 48//29 58//29
f 7//29 58//29 55//29
f 7//29 55//29 44//29
f 7//29 44//29 53//29
f 7//29 53//29 38//29
f 7//29 38//29 29//29
f 7//29 29//29 28//29
f 7//29 28//29 26//29
f 7//30 26//30 11//30
f 7//31 11//31 10//31
f 7//32 10//32 9//32
f 7//7 9//7 27//7
f 7//33 27//33 8//33
f 8//7 27//7 9//7
f 11//34 26//34 28//34
f 11//35 28//35 29//35
f 11//36 29//36 12//36
f 12//37 30//37 13//37
f 12//38 29//38 30//38
f 13//39 30//39 31//39
f 13//40 31//40 14//40
f 14//41 31//41 32//41
f 14//42 32//42 15//42
f 15//43 33//43 16//43
f 15//44 32//44 34//44
f 15//45 34//45 35//45
f 15//46 35//46 36//46
f 15//46 36//46 33//46
f 16//47 33//47 17//47
f 17//48 37//48 19//48
f 17//49 33//49 29//49
f 17//50 29//50 38//50
f 17//51 38//51 39//51
f 17//52 39//52 37//52
f 18//53 40//53 24//53
f 18//54 23//54 40//54
f 19//55 41//55 42//55
f 19//56 42//56 20//56
f 19//57 37//57 43//57
f 19//58 43//58 44//58
f 19//59 44//59 45//59
f 19//60 45//60 41//60
f 20//61 42//61 46//61
f 20//62 46//62 47//62
f 20//63 47//63 21//63
f 21//64 48//64 49//64
f 21//65 49//65 22//65
f 21//63 47//63 48//63
f 22//66 49//66 50//66
f 22//23 50//23 23//23
f 23//67 50//67 51//67
f 23//68 51//68 40//68
f 24//69 40//69 51//69
f 24//25 51//25 25//25
f 29//70 33//70 52//70
f 29//71 52//71 36//71
f 29//72 36//72 35//72
f 29//73 35//73 34//73
f 29//74 34//74 32//74
f 29//75 32//75 31//75
f 29//76 31//76 30//76
f 33//77 36//77 52//77
f 37//78 39//78 43//78
f 38//79 53//79 43//79
f 38//78 43//78 39//78
f 41//60 45//60 54//60
f 41//80 54//80 55//80
f 41//80 55//80 56//80
f 41//81 56//81 42//81
f 42//82 56//82 57//82
f 42//83 57//83 46//83
f 43//84 53//84 44//84
f 44//60 55//60 54//60
f 44//60 54//60 45//60
f 46//83 57//83 56//83
f 46//85 56//85 47//85
f 47//86 56//86 58//86
f 47//87 58//87 48//87
f 55//83 58//83 56//83
