# Blender v3.6.3 OBJ File: 'convex_cup.blend'
# www.blender.org
mtllib geometry_51.mtl
o geometry_51
v -0.059226 0.368988 -0.139872
v -0.059226 0.334350 -0.139872
v -0.059271 0.378800 -0.139872
v -0.059226 0.368988 -0.093974
v -0.059226 0.334350 -0.093974
v -0.136224 0.378800 -0.104377
v -0.122672 0.370981 -0.139872
v -0.118150 0.378800 -0.139872
v -0.076229 0.378800 -0.093974
v -0.073282 0.377103 -0.093974
v -0.136216 0.378800 -0.093974
v -0.136224 0.378800 -0.102988
v -0.136216 0.378800 -0.123740
v -0.134694 0.377921 -0.125991
v -0.134181 0.378800 -0.125991
vn 0.0000 0.0000 -1.0000
vn 1.0000 0.0046 -0.0000
vn 1.0000 -0.0000 0.0000
vn -0.5000 -0.8660 0.0000
vn -0.5000 -0.8660 -0.0001
vn 0.0000 1.0000 0.0000
vn 0.4908 0.8522 0.1813
vn 0.4917 0.8516 0.1816
vn -0.0019 0.0000 1.0000
vn 0.0000 0.0000 1.0000
vn -0.5000 -0.8660 0.0004
vn -0.5002 -0.8659 -0.0002
vn -0.6121 0.3540 -0.7071
vn -0.6116 0.3566 -0.7063
vn -0.6809 0.3970 -0.6155
usemtl None
s off
f 1//1 2//1 7//1
f 1//1 7//1 8//1
f 1//1 8//1 3//1
f 1//2 3//2 4//2
f 1//3 4//3 5//3
f 1//3 5//3 2//3
f 2//4 5//4 12//4
f 2//4 12//4 6//4
f 2//5 6//5 7//5
f 3//6 8//6 15//6
f 3//6 15//6 13//6
f 3//6 13//6 6//6
f 3//6 6//6 12//6
f 3//6 12//6 11//6
f 3//6 11//6 9//6
f 3//7 9//7 10//7
f 3//8 10//8 4//8
f 4//9 10//9 9//9
f 4//10 9//10 11//10
f 4//10 11//10 5//10
f 5//11 11//11 12//11
f 6//12 13//12 14//12
f 6//12 14//12 7//12
f 7//13 14//13 8//13
f 8//14 14//14 15//14
f 13//15 15//15 14//15
