# Blender v3.6.3 OBJ File: 'convex_cup.blend'
# www.blender.org
mtllib geometry_5.mtl
o geometry_5
v 0.142077 0.795462 0.114747
v 0.118011 0.809363 0.078947
v 0.142077 0.795462 0.138630
v 0.142077 0.732565 0.138630
v 0.089110 0.826044 0.078947
v 0.126232 0.804608 0.138630
v -0.097073 0.436816 0.078947
v -0.041631 0.414453 0.138630
v 0.092751 0.823908 0.088301
v 0.103020 0.817985 0.107936
v -0.148533 0.414453 0.078947
v -0.143668 0.414453 0.088301
v 0.115280 0.810894 0.125987
v -0.113629 0.414453 0.125988
v -0.099036 0.414453 0.138630
v -0.109988 0.414453 0.078947
v -0.129957 0.414453 0.107936
vn 0.5002 0.8659 0.0000
vn 1.0000 0.0000 0.0000
vn 0.7644 -0.2289 -0.6027
vn 0.4999 0.8661 0.0001
vn 0.6147 -0.3549 -0.7045
vn 0.0009 -0.0004 -1.0000
vn 0.0000 -0.0000 -1.0000
vn 0.0000 0.0000 1.0000
vn 0.6148 -0.3551 -0.7042
vn 0.4809 0.8767 0.0130
vn 0.4959 0.8684 0.0035
vn -0.7896 0.4559 0.4107
vn -0.7893 0.4558 0.4114
vn 0.4870 0.8733 0.0123
vn -0.6127 0.3538 0.7067
vn -0.6125 0.3536 0.7070
vn 0.0000 -1.0000 0.0000
vn -0.7414 0.4281 0.5169
vn -0.7411 0.4278 0.5175
vn -0.6818 0.3936 0.6167
vn -0.6813 0.3934 0.6173
usemtl None
s off
f 1//1 2//1 3//1
f 1//2 3//2 4//2
f 1//3 4//3 2//3
f 2//4 5//4 6//4
f 2//4 6//4 3//4
f 2//5 4//5 7//5
f 2//6 7//6 16//6
f 2//7 16//7 11//7
f 2//7 11//7 5//7
f 3//8 6//8 15//8
f 3//8 15//8 8//8
f 3//8 8//8 4//8
f 4//9 8//9 7//9
f 5//10 9//10 10//10
f 5//11 10//11 6//11
f 5//12 11//12 12//12
f 5//13 12//13 9//13
f 6//14 10//14 13//14
f 6//15 13//15 14//15
f 6//16 14//16 15//16
f 7//9 8//9 16//9
f 8//17 15//17 14//17
f 8//17 14//17 17//17
f 8//17 17//17 12//17
f 8//17 12//17 11//17
f 8//17 11//17 16//17
f 9//18 12//18 10//18
f 10//19 12//19 17//19
f 10//20 17//20 14//20
f 10//21 14//21 13//21
