# Blender v3.6.3 OBJ File: 'convex_cup.blend'
# www.blender.org
mtllib geometry_41.mtl
o geometry_41
v 0.077354 0.255496 -0.134990
v 0.065279 0.262466 -0.134990
v 0.077354 0.255496 -0.159567
v 0.077354 0.290143 -0.134990
v 0.058665 0.266285 -0.134990
v 0.064928 0.262671 -0.168232
v 0.077354 0.284188 -0.168232
v 0.077354 0.332890 -0.146487
v 0.030995 0.316903 -0.134990
v 0.031242 0.282120 -0.134990
v 0.028809 0.283529 -0.184128
v 0.046814 0.273134 -0.177648
v 0.077354 0.321260 -0.176576
v 0.077354 0.332890 -0.178720
v 0.028847 0.332890 -0.158421
v 0.028809 0.318161 -0.134990
v 0.029498 0.283127 -0.134990
v 0.028809 0.283529 -0.134990
v 0.028809 0.285514 -0.184438
v 0.077354 0.326026 -0.177648
v 0.056089 0.332890 -0.184459
v 0.028809 0.332890 -0.158432
v 0.028809 0.285756 -0.184474
v 0.056023 0.332890 -0.184474
v 0.028809 0.332890 -0.188668
v 0.028809 0.330890 -0.188610
v 0.031869 0.332890 -0.188310
v 0.029969 0.332890 -0.188610
vn -0.5000 -0.8660 0.0000
vn 1.0000 0.0000 0.0000
vn 0.0000 0.0000 1.0000
vn -0.0009 0.0000 1.0000
vn 0.0026 0.0000 1.0000
vn 0.2425 0.0000 0.9701
vn -0.5000 -0.8660 -0.0001
vn 0.4477 -0.2585 -0.8560
vn 0.1483 0.2569 0.9550
vn -0.5001 -0.8660 -0.0001
vn -0.4996 -0.8663 -0.0015
vn 0.3555 -0.2053 -0.9119
vn 0.0000 1.0000 0.0000
vn 0.0000 1.0000 0.0001
vn 0.0000 1.0000 -0.0001
vn 0.0000 1.0000 0.0032
vn -0.1298 0.8396 0.5275
vn 0.1481 0.2573 0.9549
vn -0.5003 -0.8659 -0.0001
vn -0.5036 -0.8640 0.0000
vn -1.0000 -0.0000 0.0000
vn -1.0000 -0.0002 0.0000
vn 0.2575 -0.1491 -0.9547
vn 0.2577 -0.1488 -0.9547
vn 0.2582 -0.1491 -0.9545
vn 0.3553 -0.2051 -0.9120
vn 0.2576 -0.1488 -0.9547
vn -0.1458 0.8377 0.5263
vn 0.2514 -0.1451 -0.9569
vn 0.2280 -0.1318 -0.9647
vn 0.1552 -0.0901 -0.9838
vn 0.1562 -0.0902 -0.9836
vn 0.0498 -0.0289 -0.9983
vn 0.1550 -0.0899 -0.9838
usemtl None
s off
f 1//1 2//1 3//1
f 1//2 3//2 7//2
f 1//2 7//2 13//2
f 1//2 13//2 20//2
f 1//2 20//2 14//2
f 1//2 14//2 8//2
f 1//2 8//2 4//2
f 1//3 4//3 9//3
f 1//3 9//3 16//3
f 1//3 16//3 18//3
f 1//4 18//4 17//4
f 1//5 17//5 10//5
f 1//3 10//3 5//3
f 1//6 5//6 2//6
f 2//1 5//1 3//1
f 3//7 5//7 6//7
f 3//8 6//8 7//8
f 4//9 8//9 9//9
f 5//10 10//10 6//10
f 6//10 10//10 11//10
f 6//11 11//11 12//11
f 6//12 12//12 7//12
f 7//12 12//12 13//12
f 8//13 14//13 21//13
f 8//14 21//14 24//14
f 8//13 24//13 27//13
f 8//15 27//15 28//15
f 8//14 28//14 25//14
f 8//13 25//13 22//13
f 8//16 22//16 15//16
f 8//17 15//17 16//17
f 8//18 16//18 9//18
f 10//19 17//19 11//19
f 11//20 17//20 18//20
f 11//21 18//21 16//21
f 11//21 16//21 22//21
f 11//21 22//21 25//21
f 11//21 25//21 26//21
f 11//21 26//21 23//21
f 11//22 23//22 19//22
f 11//23 19//23 12//23
f 12//24 19//24 14//24
f 12//25 14//25 20//25
f 12//26 20//26 13//26
f 14//27 19//27 21//27
f 15//28 22//28 16//28
f 19//29 23//29 21//29
f 21//30 23//30 24//30
f 23//31 26//31 27//31
f 23//32 27//32 24//32
f 25//33 28//33 26//33
f 26//34 28//34 27//34
