# Blender v3.6.3 OBJ File: 'convex_cup.blend'
# www.blender.org
mtllib geometry_15.mtl
o geometry_15
v 0.131187 0.224413 -0.093969
v 0.111631 0.235709 -0.125992
v 0.123878 0.228638 -0.107936
v 0.141858 0.259771 -0.107936
v 0.136665 0.233902 -0.093969
v 0.100774 0.241979 -0.093969
v 0.100774 0.241979 -0.138528
v 0.141858 0.288070 -0.125992
v 0.141858 0.242900 -0.093969
v 0.100774 0.276615 -0.093969
v 0.100774 0.249356 -0.142214
v 0.125423 0.292056 -0.142214
v 0.141858 0.292056 -0.127977
v 0.141858 0.292056 -0.093969
v 0.129160 0.292056 -0.093969
v 0.100774 0.292056 -0.120591
v 0.100774 0.282906 -0.155361
v 0.104576 0.292056 -0.156363
v 0.100774 0.292056 -0.158355
v 0.100774 0.285468 -0.156363
vn -0.4986 -0.8668 -0.0013
vn 0.7411 -0.4280 -0.5173
vn 0.7412 -0.4280 -0.5171
vn 0.0000 0.0000 1.0000
vn -0.5002 -0.8659 0.0000
vn -0.5001 -0.8660 -0.0000
vn 0.6817 -0.3937 -0.6166
vn 0.6124 -0.3535 -0.7071
vn 0.6817 -0.3935 -0.6168
vn 0.7415 -0.4279 -0.5169
vn 1.0000 0.0000 0.0000
vn -1.0000 0.0000 0.0000
vn 0.6123 -0.3535 -0.7072
vn 0.6128 -0.3523 -0.7074
vn -0.4258 0.7827 0.4540
vn 0.5343 -0.3084 -0.7870
vn 0.5342 -0.3081 -0.7872
vn 0.0000 1.0000 0.0000
vn 0.5338 -0.3080 -0.7875
vn 0.4483 -0.2587 -0.8556
usemtl None
s off
f 1//1 2//1 3//1
f 1//2 3//2 4//2
f 1//3 4//3 5//3
f 1//4 5//4 9//4
f 1//4 9//4 14//4
f 1//4 14//4 15//4
f 1//4 15//4 10//4
f 1//4 10//4 6//4
f 1//5 6//5 7//5
f 1//6 7//6 2//6
f 2//7 4//7 3//7
f 2//8 7//8 8//8
f 2//9 8//9 4//9
f 4//10 9//10 5//10
f 4//11 8//11 13//11
f 4//11 13//11 14//11
f 4//11 14//11 9//11
f 6//12 10//12 16//12
f 6//12 16//12 19//12
f 6//12 19//12 20//12
f 6//12 20//12 17//12
f 6//12 17//12 11//12
f 6//12 11//12 7//12
f 7//13 11//13 8//13
f 8//14 12//14 13//14
f 8//13 11//13 12//13
f 10//15 15//15 16//15
f 11//16 17//16 12//16
f 12//17 17//17 18//17
f 12//18 18//18 19//18
f 12//18 19//18 16//18
f 12//18 16//18 15//18
f 12//18 15//18 14//18
f 12//18 14//18 13//18
f 17//19 20//19 18//19
f 18//20 20//20 19//20
