# Blender v3.6.3 OBJ File: 'convex_cup.blend'
# www.blender.org
mtllib geometry_53.mtl
o geometry_53
v 0.082362 0.317650 0.173814
v 0.082362 0.296005 0.168942
v 0.092889 0.317650 0.169711
v 0.082362 0.317650 0.140584
v 0.082362 0.292860 0.168231
v 0.096683 0.317650 0.168231
v 0.142077 0.317650 0.096392
v 0.142077 0.309522 0.090302
v 0.129253 0.287316 0.090302
v 0.082385 0.287316 0.131159
v 0.082362 0.305813 0.137347
v 0.082362 0.287316 0.166555
v 0.096391 0.287316 0.159214
v 0.109110 0.317650 0.161724
v 0.142077 0.317650 0.140592
v 0.142077 0.287316 0.090302
v 0.082362 0.287316 0.161765
v 0.101838 0.287316 0.156361
v 0.119345 0.317650 0.156361
v 0.140201 0.317650 0.142211
v 0.122688 0.287316 0.142211
v 0.142077 0.292637 0.128093
v 0.142077 0.287316 0.125273
v 0.105696 0.287316 0.153745
v 0.126599 0.317650 0.151440
v 0.139230 0.287316 0.127897
v 0.141422 0.287316 0.125993
v 0.142077 0.288450 0.125993
v 0.141732 0.287316 0.125657
vn 0.3555 -0.2053 0.9119
vn 0.0000 0.9996 0.0267
vn 0.0000 1.0000 -0.0000
vn 0.0000 1.0000 0.0001
vn -1.0000 0.0000 0.0000
vn 0.3567 -0.2061 0.9112
vn 0.3556 -0.2053 0.9118
vn -0.5096 0.5159 -0.6886
vn -0.5798 0.3349 -0.7427
vn -0.6399 0.2276 -0.7340
vn -0.9998 0.0057 -0.0207
vn 0.4478 -0.2587 0.8559
vn 0.4479 -0.2587 0.8559
vn 0.4481 -0.2587 0.8557
vn 1.0000 0.0000 0.0000
vn 0.0000 0.0000 -1.0000
vn 0.0000 -1.0000 0.0000
vn -1.0000 -0.0010 -0.0008
vn 0.4483 -0.2587 0.8556
vn 0.6112 -0.3528 0.7085
vn 0.6121 -0.3535 0.7074
vn 0.5339 -0.3081 0.7874
vn 0.5341 -0.3082 0.7873
vn 0.5341 -0.3082 0.7872
vn 0.5343 -0.3084 0.7870
vn 0.6134 -0.3542 0.7059
vn 0.6136 -0.3541 0.7058
vn 0.6853 -0.3900 0.6151
vn 0.6761 -0.3902 0.6250
usemtl None
s off
f 1//1 2//1 3//1
f 1//2 3//2 6//2
f 1//3 6//3 14//3
f 1//3 14//3 19//3
f 1//3 19//3 25//3
f 1//3 25//3 20//3
f 1//4 20//4 15//4
f 1//3 15//3 7//3
f 1//3 7//3 4//3
f 1//5 4//5 11//5
f 1//5 11//5 17//5
f 1//5 17//5 12//5
f 1//5 12//5 5//5
f 1//5 5//5 2//5
f 2//6 5//6 6//6
f 2//7 6//7 3//7
f 4//8 7//8 8//8
f 4//9 8//9 9//9
f 4//10 9//10 10//10
f 4//11 10//11 11//11
f 5//12 12//12 6//12
f 6//13 12//13 13//13
f 6//14 13//14 14//14
f 7//15 15//15 22//15
f 7//15 22//15 28//15
f 7//15 28//15 23//15
f 7//15 23//15 16//15
f 7//15 16//15 8//15
f 8//16 16//16 9//16
f 9//17 16//17 23//17
f 9//17 23//17 29//17
f 9//17 29//17 27//17
f 9//17 27//17 26//17
f 9//17 26//17 21//17
f 9//17 21//17 24//17
f 9//17 24//17 18//17
f 9//17 18//17 13//17
f 9//17 13//17 12//17
f 9//17 12//17 17//17
f 9//17 17//17 10//17
f 10//18 17//18 11//18
f 13//14 18//14 14//14
f 14//19 18//19 19//19
f 15//20 20//20 21//20
f 15//21 21//21 22//21
f 18//22 24//22 19//22
f 19//23 24//23 25//23
f 20//24 25//24 24//24
f 20//25 24//25 21//25
f 21//21 26//21 22//21
f 22//26 26//26 27//26
f 22//27 27//27 28//27
f 23//28 28//28 29//28
f 27//29 29//29 28//29
