# Blender v3.6.3 OBJ File: 'convex_cup.blend'
# www.blender.org
mtllib geometry_39.mtl
o geometry_39
v 0.142077 0.287316 0.090302
v 0.142077 0.238838 0.090302
v 0.129253 0.287316 0.090302
v 0.142077 0.287316 0.125273
v 0.142077 0.260148 0.107933
v 0.123881 0.228637 0.107933
v 0.133105 0.223305 0.090302
v 0.082362 0.287241 0.090302
v 0.082385 0.287316 0.131148
v 0.141422 0.287316 0.125997
v 0.111629 0.235711 0.125997
v 0.082362 0.252610 0.090302
v 0.097577 0.243825 0.142210
v 0.082362 0.252610 0.155975
v 0.082362 0.287316 0.161767
v 0.122688 0.287316 0.142210
v 0.120637 0.287316 0.143606
v 0.105655 0.287316 0.153773
v 0.101838 0.287316 0.156363
v 0.082362 0.253594 0.156363
v 0.082362 0.287316 0.166559
v 0.100073 0.287316 0.157289
v 0.082362 0.253662 0.156385
vn 0.0000 -0.0000 -1.0000
vn 0.0000 1.0000 -0.0000
vn 1.0000 -0.0000 0.0000
vn 0.7411 -0.4280 0.5173
vn 0.7411 -0.4281 0.5172
vn -0.0016 1.0000 -0.0018
vn 0.6819 -0.3935 0.6166
vn 0.6818 -0.3936 0.6167
vn 0.6818 -0.3937 0.6166
vn -0.4985 -0.8669 0.0014
vn -0.4997 -0.8662 0.0004
vn -0.4998 -0.8662 0.0004
vn -0.5001 -0.8660 0.0000
vn -1.0000 0.0000 0.0000
vn -1.0000 0.0002 0.0000
vn -0.8095 0.5872 -0.0006
vn 0.6122 -0.3534 0.7074
vn 0.6121 -0.3534 0.7074
vn 0.5350 -0.3089 0.7863
vn 0.5341 -0.3085 0.7871
vn 0.5328 -0.3106 0.7872
vn 0.4485 -0.2590 0.8554
vn 0.4721 -0.2725 0.8384
vn 0.4480 -0.2587 0.8558
usemtl None
s off
f 1//1 2//1 7//1
f 1//1 7//1 12//1
f 1//1 12//1 8//1
f 1//1 8//1 3//1
f 1//2 3//2 9//2
f 1//2 9//2 15//2
f 1//2 15//2 21//2
f 1//2 21//2 22//2
f 1//2 22//2 19//2
f 1//2 19//2 18//2
f 1//2 18//2 17//2
f 1//2 17//2 16//2
f 1//2 16//2 10//2
f 1//2 10//2 4//2
f 1//3 4//3 5//3
f 1//3 5//3 2//3
f 2//4 5//4 6//4
f 2//5 6//5 7//5
f 3//6 8//6 9//6
f 4//7 10//7 5//7
f 5//8 10//8 11//8
f 5//9 11//9 6//9
f 6//10 11//10 7//10
f 7//11 11//11 13//11
f 7//12 13//12 14//12
f 7//13 14//13 12//13
f 8//14 12//14 14//14
f 8//14 14//14 20//14
f 8//14 20//14 23//14
f 8//14 23//14 21//14
f 8//15 21//15 15//15
f 8//16 15//16 9//16
f 10//17 16//17 11//17
f 11//18 16//18 13//18
f 13//19 16//19 17//19
f 13//20 17//20 18//20
f 13//20 18//20 19//20
f 13//20 19//20 20//20
f 13//21 20//21 14//21
f 19//22 22//22 23//22
f 19//23 23//23 20//23
f 21//24 23//24 22//24
