# Blender v3.6.3 OBJ File: 'convex_cup.blend'
# www.blender.org
mtllib geometry_7.mtl
o geometry_7
v 0.141862 0.795591 -0.148170
v 0.135921 0.798982 -0.148170
v 0.129326 0.802806 -0.142214
v 0.115280 0.810924 -0.125987
v 0.097483 0.821207 -0.097340
v 0.141862 0.795591 -0.114532
v 0.141862 0.692838 -0.148170
v 0.040191 0.633236 -0.148170
v -0.072833 0.452626 -0.142214
v 0.103021 0.817995 -0.107934
v -0.091561 0.452626 -0.125987
v 0.128496 0.803275 -0.097340
v 0.128521 0.803275 -0.097405
v -0.037340 0.587669 -0.097340
v -0.073966 0.452626 -0.097340
v 0.003162 0.452626 -0.148170
v -0.064048 0.452626 -0.148170
v -0.105305 0.452626 -0.110800
v -0.107898 0.452626 -0.107934
v -0.115299 0.452626 -0.097340
vn 0.4958 0.8684 -0.0087
vn 0.4978 0.8673 -0.0030
vn 0.4990 0.8666 -0.0010
vn 0.4999 0.8661 0.0000
vn 1.0000 0.0000 0.0000
vn -0.0000 0.0000 -1.0000
vn -0.5331 0.3079 -0.7880
vn -0.5349 0.3088 -0.7865
vn -0.6125 0.3536 -0.7070
vn 0.4931 0.8699 -0.0059
vn -0.6125 0.3536 -0.7069
vn -0.6816 0.3935 -0.6170
vn 0.4913 0.8496 0.1920
vn 0.5002 0.8659 0.0011
vn -0.7412 0.4279 -0.5172
vn -0.0068 -0.0006 1.0000
vn 0.0000 0.0000 1.0000
vn 0.7248 0.6289 0.2813
vn 0.7220 -0.2153 0.6576
vn 0.5244 -0.3028 0.7958
vn -0.5339 0.3081 -0.7874
vn 0.0000 -1.0000 0.0000
vn -0.0000 -1.0000 0.0001
vn -0.6816 0.3935 -0.6169
vn -0.6817 0.3936 -0.6167
vn -0.7410 0.4278 -0.5176
vn -0.7411 0.4278 -0.5174
usemtl None
s off
f 1//1 2//1 3//1
f 1//2 3//2 4//2
f 1//3 4//3 5//3
f 1//4 5//4 6//4
f 1//5 6//5 7//5
f 1//6 7//6 16//6
f 1//6 16//6 17//6
f 1//6 17//6 8//6
f 1//6 8//6 2//6
f 2//7 8//7 3//7
f 3//8 8//8 9//8
f 3//9 9//9 4//9
f 4//10 10//10 5//10
f 4//11 9//11 11//11
f 4//12 11//12 10//12
f 5//13 12//13 13//13
f 5//14 13//14 6//14
f 5//15 10//15 14//15
f 5//16 14//16 20//16
f 5//17 20//17 15//17
f 5//17 15//17 12//17
f 6//18 13//18 12//18
f 6//19 12//19 7//19
f 7//20 12//20 15//20
f 7//20 15//20 16//20
f 8//21 17//21 9//21
f 9//22 17//22 16//22
f 9//22 16//22 15//22
f 9//22 15//22 20//22
f 9//22 20//22 19//22
f 9//23 19//23 18//23
f 9//22 18//22 11//22
f 10//24 11//24 18//24
f 10//25 18//25 19//25
f 10//26 19//26 20//26
f 10//27 20//27 14//27
