# Blender v3.6.3 OBJ File: 'convex_cup.blend'
# www.blender.org
mtllib geometry_20.mtl
o geometry_20
v -0.098400 0.356972 -0.139876
v -0.122673 0.370981 -0.139876
v -0.120645 0.369810 -0.142216
v -0.098400 0.356972 -0.152166
v -0.038410 0.356972 -0.139876
v -0.118154 0.378803 -0.139876
v -0.115453 0.378803 -0.142216
v -0.109646 0.363463 -0.152166
v -0.038410 0.356972 -0.152166
v -0.025886 0.378803 -0.152166
v -0.059272 0.378803 -0.139876
v -0.100788 0.378803 -0.152166
vn -0.4999 -0.8661 0.0004
vn -0.4998 -0.8661 0.0000
vn 0.0000 -1.0000 0.0000
vn 0.0000 0.0000 1.0000
vn -0.6125 0.3539 -0.7068
vn -0.6122 0.3534 -0.7073
vn -0.5341 0.3084 -0.7872
vn -0.4999 -0.8661 -0.0001
vn -0.0000 0.0000 -1.0000
vn 0.8674 -0.4976 0.0000
vn 0.3280 0.3135 0.8911
vn 0.0000 1.0000 0.0000
usemtl None
s off
f 1//1 2//1 3//1
f 1//2 3//2 4//2
f 1//3 4//3 9//3
f 1//3 9//3 5//3
f 1//4 5//4 11//4
f 1//4 11//4 6//4
f 1//4 6//4 2//4
f 2//5 6//5 7//5
f 2//6 7//6 3//6
f 3//7 7//7 8//7
f 3//8 8//8 4//8
f 4//9 8//9 12//9
f 4//9 12//9 10//9
f 4//9 10//9 9//9
f 5//10 9//10 10//10
f 5//11 10//11 11//11
f 6//12 11//12 10//12
f 6//12 10//12 12//12
f 6//12 12//12 7//12
f 7//7 12//7 8//7
