# Blender v3.6.3 OBJ File: 'convex_cup.blend'
# www.blender.org
mtllib geometry_29.mtl
o geometry_29
v 0.077356 0.292056 -0.170006
v 0.081901 0.292056 -0.168227
v 0.077356 0.284179 -0.168227
v 0.077356 0.292056 -0.135642
v 0.082754 0.292056 -0.167788
v 0.077356 0.277840 -0.166315
v 0.100770 0.292056 -0.120593
v 0.077356 0.290135 -0.093969
v 0.098641 0.292056 -0.159467
v 0.100770 0.290561 -0.157904
v 0.081938 0.252854 -0.156363
v 0.077356 0.255496 -0.159556
v 0.100770 0.292056 -0.158351
v 0.077833 0.289860 -0.093969
v 0.100770 0.276615 -0.093969
v 0.077356 0.255496 -0.093969
v 0.100770 0.285468 -0.156363
v 0.100770 0.249354 -0.142214
v 0.097575 0.243824 -0.142214
v 0.100770 0.241976 -0.138523
v 0.081787 0.252937 -0.093969
v 0.100770 0.241981 -0.093969
v 0.100770 0.247300 -0.141187
v 0.093585 0.246128 -0.093969
vn 0.3566 -0.2058 -0.9113
vn -1.0000 0.0000 0.0000
vn -0.0000 1.0000 0.0000
vn 0.0000 1.0000 -0.0001
vn 0.4426 -0.2554 -0.8596
vn 0.4469 -0.2585 -0.8565
vn -0.0296 0.9985 0.0460
vn 0.4485 -0.2564 -0.8562
vn 0.4480 -0.2587 -0.8558
vn 0.4478 -0.2588 -0.8559
vn 0.4473 -0.2589 -0.8561
vn 0.4460 0.7747 0.4482
vn 0.4469 0.7739 0.4488
vn 1.0000 0.0000 0.0000
vn 0.0000 0.0000 1.0000
vn -0.0125 0.0002 0.9999
vn 0.4489 -0.2557 -0.8562
vn 0.4482 -0.2588 -0.8556
vn 0.5341 -0.3084 -0.7872
vn 0.5340 -0.3086 -0.7871
vn -0.4978 -0.8673 -0.0034
vn -0.4979 -0.8673 -0.0033
vn -0.5000 -0.8660 -0.0000
vn -0.5001 -0.8660 0.0000
vn 0.6121 -0.3537 -0.7073
vn 0.6122 -0.3539 -0.7071
vn -0.4999 -0.8661 0.0001
usemtl None
s off
f 1//1 2//1 3//1
f 1//2 3//2 6//2
f 1//2 6//2 12//2
f 1//2 12//2 16//2
f 1//2 16//2 8//2
f 1//2 8//2 4//2
f 1//3 4//3 7//3
f 1//3 7//3 13//3
f 1//4 13//4 9//4
f 1//3 9//3 5//3
f 1//4 5//4 2//4
f 2//5 5//5 3//5
f 3//6 5//6 6//6
f 4//7 8//7 7//7
f 5//8 9//8 10//8
f 5//9 10//9 11//9
f 5//10 11//10 6//10
f 6//11 11//11 12//11
f 7//12 8//12 14//12
f 7//13 14//13 15//13
f 7//14 15//14 22//14
f 7//14 22//14 20//14
f 7//14 20//14 23//14
f 7//14 23//14 18//14
f 7//14 18//14 17//14
f 7//14 17//14 10//14
f 7//14 10//14 13//14
f 8//15 16//15 21//15
f 8//15 21//15 24//15
f 8//15 24//15 22//15
f 8//15 22//15 15//15
f 8//16 15//16 14//16
f 9//17 13//17 10//17
f 10//18 17//18 11//18
f 11//19 17//19 18//19
f 11//20 18//20 19//20
f 11//21 19//21 12//21
f 12//22 19//22 20//22
f 12//23 20//23 21//23
f 12//24 21//24 16//24
f 18//25 23//25 19//25
f 19//26 23//26 20//26
f 20//27 22//27 24//27
f 20//27 24//27 21//27
