# Blender v3.6.3 OBJ File: 'convex_cup.blend'
# www.blender.org
mtllib geometry_19.mtl
o geometry_19
v 0.142075 0.309524 0.090302
v 0.118214 0.268191 0.090302
v 0.142075 0.266567 0.090302
v 0.142075 0.266567 0.045510
v 0.118214 0.267846 0.090043
v 0.118214 0.266567 0.090302
v 0.118228 0.266567 0.089066
v 0.118214 0.266567 0.089131
vn -0.0000 0.0000 1.0000
vn 1.0000 0.0000 0.0000
vn -0.7809 0.4508 -0.4323
vn -1.0000 0.0000 0.0000
vn -0.8251 0.3390 -0.4519
vn 0.0000 -1.0000 0.0000
vn 0.0000 -1.0000 -0.0002
vn -0.8259 0.3369 -0.4522
vn -0.9675 0.1469 -0.2059
usemtl None
s off
f 1//1 2//1 6//1
f 1//1 6//1 3//1
f 1//2 3//2 4//2
f 1//3 4//3 2//3
f 2//4 5//4 8//4
f 2//4 8//4 6//4
f 2//5 4//5 5//5
f 3//6 6//6 8//6
f 3//7 8//7 7//7
f 3//6 7//6 4//6
f 4//8 7//8 5//8
f 5//9 7//9 8//9
