# Blender v3.6.3 OBJ File: 'convex_cup.blend'
# www.blender.org
mtllib geometry_34.mtl
o geometry_34
v -0.176076 0.401815 -0.000040
v -0.168416 0.397393 -0.000040
v -0.169741 0.412780 -0.000040
v -0.169704 0.412780 -0.000582
v -0.168146 0.412780 -0.022908
v -0.174878 0.401122 -0.022908
v -0.126691 0.397393 -0.000040
v -0.168416 0.397393 -0.056131
v -0.135078 0.412780 -0.000040
v -0.163368 0.412780 -0.045474
v -0.171291 0.399055 -0.045474
v -0.122130 0.405305 -0.000040
v -0.108427 0.397393 -0.014927
v -0.164372 0.397393 -0.067367
v -0.099583 0.412780 -0.093969
v -0.155483 0.412780 -0.067367
v -0.108427 0.397393 -0.093969
v -0.155453 0.412780 -0.067432
v -0.164327 0.397393 -0.067459
v -0.140656 0.412780 -0.093969
v -0.149538 0.397393 -0.093969
v -0.152218 0.412780 -0.073666
v -0.153499 0.397393 -0.088296
v -0.143914 0.412780 -0.089298
v -0.144610 0.412780 -0.088296
vn 0.0000 0.0000 1.0000
vn -0.8643 0.4994 -0.0596
vn -0.8643 0.4993 -0.0603
vn -0.8644 0.4992 -0.0604
vn -0.5000 -0.8661 0.0000
vn -0.4998 -0.8661 0.0000
vn 0.0000 -1.0000 0.0000
vn 0.0000 1.0000 -0.0000
vn -0.8518 0.4919 -0.1803
vn -0.8518 0.4917 -0.1804
vn -0.5026 -0.8645 -0.0007
vn 0.5937 -0.3422 0.7283
vn -0.8269 0.4772 -0.2976
vn 0.4913 0.8510 0.1857
vn -0.8266 0.4775 -0.2977
vn -0.8268 0.4773 -0.2976
vn 0.6526 0.7267 0.2145
vn 0.8670 -0.4983 0.0000
vn -0.8032 0.4639 -0.3738
vn -0.7975 0.4607 -0.3895
vn 0.0000 -0.0000 -1.0000
vn -0.7899 0.4562 -0.4099
vn -0.7898 0.4559 -0.4104
vn -0.7411 0.4278 -0.5175
vn -0.7413 0.4281 -0.5169
vn -0.7896 0.4561 -0.4106
vn -0.7420 0.4286 -0.5156
usemtl None
s off
f 1//1 2//1 7//1
f 1//1 7//1 12//1
f 1//1 12//1 9//1
f 1//1 9//1 3//1
f 1//2 3//2 4//2
f 1//3 4//3 5//3
f 1//4 5//4 6//4
f 1//5 6//5 2//5
f 2//6 6//6 8//6
f 2//7 8//7 14//7
f 2//7 14//7 19//7
f 2//7 19//7 23//7
f 2//7 23//7 21//7
f 2//7 21//7 17//7
f 2//7 17//7 13//7
f 2//7 13//7 7//7
f 3//8 9//8 15//8
f 3//8 15//8 20//8
f 3//8 20//8 24//8
f 3//8 24//8 25//8
f 3//8 25//8 22//8
f 3//8 22//8 18//8
f 3//8 18//8 16//8
f 3//8 16//8 10//8
f 3//8 10//8 5//8
f 3//8 5//8 4//8
f 5//9 10//9 6//9
f 6//10 10//10 11//10
f 6//11 11//11 8//11
f 7//12 13//12 12//12
f 8//13 11//13 14//13
f 9//14 12//14 15//14
f 10//15 16//15 14//15
f 10//16 14//16 11//16
f 12//17 13//17 15//17
f 13//18 17//18 15//18
f 14//19 16//19 18//19
f 14//20 18//20 19//20
f 15//21 17//21 21//21
f 15//21 21//21 20//21
f 18//22 22//22 19//22
f 19//23 22//23 23//23
f 20//24 21//24 23//24
f 20//25 23//25 24//25
f 22//26 25//26 23//26
f 23//27 25//27 24//27
