# Blender v3.6.3 OBJ File: 'mouth_cup.blend'
# www.blender.org
mtllib mouth_cup018.mtl
o mouth_cup018_mouth_cup018.001
v 0.343791 0.570797 0.097907
v 0.390989 0.617995 0.060149
v 0.362670 0.636874 0.060149
v 0.360879 0.619029 -0.089779
v 0.343791 0.523599 -0.043687
v 0.381549 0.636874 -0.081445
v 0.324912 0.589676 -0.072005
v 0.390989 0.627434 0.060149
v 0.343791 0.523599 0.041270
v 0.353231 0.636874 -0.072005
v 0.353231 0.561357 -0.081445
v 0.390989 0.608555 -0.043687
v 0.330655 0.572931 0.095626
v 0.333835 0.580535 0.097588
v 0.353231 0.561357 0.079028
v 0.328948 0.526719 -0.041794
v 0.359143 0.633509 -0.085081
v 0.343791 0.627434 -0.072005
v 0.372110 0.608555 -0.090884
v 0.328526 0.578180 -0.083668
v 0.381549 0.599116 -0.062566
v 0.390989 0.599116 0.012951
v 0.390989 0.627434 -0.062566
v 0.343791 0.533038 0.060149
v 0.334351 0.589676 0.060149
v 0.353231 0.570797 0.088467
v 0.329529 0.526383 0.039581
v 0.343791 0.551918 -0.081445
v 0.372110 0.617995 -0.090884
v 0.343791 0.627434 -0.081445
v 0.331682 0.585823 -0.085609
v 0.329622 0.545209 -0.070349
v 0.381549 0.589676 -0.043687
v 0.353231 0.533038 -0.005928
v 0.390989 0.608555 0.050709
v 0.390989 0.617995 -0.062566
v 0.343791 0.608555 0.060149
v 0.328731 0.536284 0.058180
v 0.343791 0.542478 -0.072005
v 0.330224 0.554300 -0.078898
v 0.390989 0.599116 -0.005928
v 0.353231 0.533038 0.003511
v 0.372110 0.570797 -0.034247
v 0.362670 0.570797 0.069588
v 0.381549 0.617995 -0.081445
v 0.362670 0.551918 0.022390
vn 0.6247 0.0000 0.7809
vn 0.3159 0.9478 0.0421
vn 0.0000 1.0000 -0.0000
vn 1.0000 0.0000 0.0000
vn 0.1624 0.4871 0.8581
vn 0.3040 0.3400 0.8899
vn -0.1951 -0.1678 0.9663
vn -0.0962 0.9526 -0.2886
vn -0.7062 0.7062 0.0504
vn 0.8301 -0.4842 -0.2767
vn 0.8165 -0.4082 -0.4082
vn 0.7071 0.7071 0.0000
vn -0.2312 -0.6879 0.6879
vn -0.9351 0.3479 0.0668
vn -0.9268 0.3676 0.0770
vn 0.8165 -0.4082 0.4083
vn 0.7001 -0.1400 0.7001
vn 0.5773 -0.5773 0.5774
vn 0.5774 -0.5774 0.5773
vn -0.2060 -0.9785 -0.0026
vn -0.1916 -0.9815 0.0000
vn -0.2219 -0.8721 0.4361
vn 0.3015 -0.3015 -0.9045
vn 0.0856 0.4110 -0.9076
vn -0.0660 0.3007 -0.9514
vn -0.0980 0.0000 -0.9952
vn 0.7071 0.0000 -0.7071
vn -0.7071 0.7071 0.0000
vn -0.4175 0.8164 -0.3989
vn -0.3181 0.2578 -0.9123
vn -0.8944 0.4472 0.0000
vn -0.1176 -0.0213 -0.9928
vn -0.1652 -0.1781 -0.9700
vn -0.0506 -0.1395 -0.9889
vn -0.3513 0.1939 -0.9159
vn -0.8451 0.2259 -0.4846
vn -0.8221 0.2884 -0.4908
vn -0.9897 -0.1083 -0.0935
vn -0.2386 -0.8126 -0.5318
vn 0.8427 -0.4815 -0.2408
vn 0.7071 -0.7071 0.0000
vn 0.8616 -0.4924 0.1231
vn 0.8355 -0.4915 0.2457
vn 0.8165 -0.4083 0.4082
vn 0.8944 0.0000 -0.4472
vn 0.8729 -0.4364 -0.2182
vn -0.8903 0.4451 0.0964
vn -0.8168 0.5446 0.1903
vn -0.8294 0.5530 0.0790
vn -0.8926 0.4463 0.0638
vn -0.9992 0.0159 0.0358
vn -0.9981 -0.0622 0.0038
vn -0.9956 -0.0929 0.0067
vn -0.2439 -0.8604 0.4475
vn -0.2379 -0.6880 0.6856
vn 0.5773 -0.5774 -0.5773
vn 0.7428 -0.5571 -0.3714
vn -0.2139 -0.6907 -0.6907
vn -0.2197 -0.8117 -0.5411
vn -0.9763 -0.1103 -0.1862
vn -0.9747 -0.1083 -0.1953
vn -0.2154 -0.2060 -0.9545
vn -0.2490 -0.6546 -0.7138
vn 0.8889 -0.4444 -0.1111
vn 0.8682 -0.4961 0.0000
vn 0.8619 -0.4990 -0.0907
vn 0.8616 -0.4924 -0.1231
vn 0.8653 -0.4945 -0.0824
vn 0.8701 -0.4834 -0.0967
vn 0.8111 -0.4867 0.3244
vn 0.8301 -0.4842 0.2767
vn 0.8615 -0.5026 0.0718
vn 0.8544 -0.5126 0.0854
usemtl Material018.002
s off
f 8//1 1//1 2//1
f 8//2 6//2 3//2
f 10//3 3//3 6//3
f 12//4 8//4 2//4
f 14//5 8//5 3//5
f 14//6 1//6 8//6
f 14//7 13//7 1//7
f 17//8 10//8 6//8
f 18//9 3//9 10//9
f 21//10 5//10 11//10
f 21//11 11//11 19//11
f 22//4 12//4 2//4
f 23//12 6//12 8//12
f 23//4 8//4 12//4
f 24//13 1//13 13//13
f 25//14 7//14 13//14
f 25//15 13//15 14//15
f 26//16 15//16 2//16
f 26//17 2//17 1//17
f 26//18 24//18 15//18
f 26//19 1//19 24//19
f 27//20 16//20 5//20
f 27//21 5//21 9//21
f 27//22 9//22 24//22
f 28//23 19//23 11//23
f 29//24 17//24 6//24
f 29//25 4//25 17//25
f 29//26 19//26 4//26
f 29//27 6//27 19//27
f 30//28 18//28 10//28
f 30//29 10//29 17//29
f 30//30 17//30 4//30
f 30//31 7//31 18//31
f 31//32 4//32 19//32
f 31//33 28//33 20//33
f 31//34 19//34 28//34
f 31//35 30//35 4//35
f 31//36 20//36 7//36
f 31//37 7//37 30//37
f 32//38 16//38 7//38
f 32//39 5//39 16//39
f 33//40 5//40 21//40
f 34//41 9//41 5//41
f 35//4 22//4 2//4
f 35//42 9//42 22//42
f 35//43 24//43 9//43
f 35//44 2//44 15//44
f 36//4 23//4 12//4
f 36//45 6//45 23//45
f 36//46 33//46 21//46
f 36//46 12//46 33//46
f 37//47 25//47 14//47
f 37//48 14//48 3//48
f 37//49 3//49 18//49
f 37//50 18//50 7//50
f 37//50 7//50 25//50
f 38//51 13//51 7//51
f 38//52 7//52 16//52
f 38//53 16//53 27//53
f 38//54 27//54 24//54
f 38//55 24//55 13//55
f 39//56 28//56 11//56
f 39//57 11//57 5//57
f 39//58 32//58 28//58
f 39//59 5//59 32//59
f 40//60 32//60 7//60
f 40//61 7//61 20//61
f 40//62 20//62 28//62
f 40//63 28//63 32//63
f 41//64 33//64 12//64
f 41//4 12//4 22//4
f 41//65 22//65 34//65
f 42//65 34//65 22//65
f 42//41 9//41 34//41
f 43//66 34//66 5//66
f 43//67 5//67 33//67
f 43//68 41//68 34//68
f 43//69 33//69 41//69
f 44//16 35//16 15//16
f 44//70 15//70 24//70
f 44//71 24//71 35//71
f 45//27 19//27 6//27
f 45//45 6//45 36//45
f 45//11 36//11 21//11
f 45//11 21//11 19//11
f 46//72 42//72 22//72
f 46//42 22//42 9//42
f 46//73 9//73 42//73
