# Blender v3.6.3 OBJ File: 'mouth_cup.blend'
# www.blender.org
mtllib mouth_cup001.mtl
o mouth_cup001_mouth_cup001.001
v 0.088922 0.268730 0.173424
v 0.164439 0.278170 0.116786
v 0.154999 0.297049 0.079028
v 0.069938 0.240228 -0.119203
v 0.145560 0.183774 0.050709
v 0.069353 0.288008 0.171932
v 0.098362 0.212093 0.145105
v 0.166864 0.257909 -0.034522
v 0.126681 0.287610 0.154544
v 0.136120 0.202653 0.097907
v 0.070043 0.221533 0.163984
v 0.168525 0.294724 0.081541
v 0.164439 0.212093 0.041270
v 0.126681 0.193214 -0.100324
v 0.108166 0.240205 -0.119547
v 0.164041 0.297279 0.106969
v 0.126681 0.278170 0.154544
v 0.117241 0.193214 0.107347
v 0.145560 0.240412 0.116786
v 0.079483 0.221533 0.163984
v 0.079483 0.259291 0.173424
v 0.066628 0.261263 0.166045
v 0.164439 0.221533 0.060149
v 0.079483 0.212093 -0.119203
v 0.145560 0.183774 -0.043687
v 0.126681 0.221532 -0.119203
v 0.153628 0.297828 0.106052
v 0.085085 0.289825 0.165135
v 0.164439 0.287610 0.116786
v 0.136120 0.193214 0.088467
v 0.126681 0.212093 0.116786
v 0.117241 0.240412 0.145105
v 0.107802 0.268730 0.163984
v 0.073112 0.226848 -0.119203
v 0.107802 0.193214 0.107347
v 0.154999 0.193214 -0.024807
v 0.126681 0.183774 -0.062566
v 0.117241 0.202653 -0.119203
v 0.079483 0.212093 0.145105
v 0.136120 0.183774 0.060149
v 0.154999 0.193214 0.022390
v 0.164439 0.212093 -0.034247
v 0.107802 0.193214 -0.100324
v 0.136120 0.183774 -0.062566
v 0.126681 0.212093 -0.119203
v 0.126681 0.183774 0.060149
v 0.145560 0.202653 -0.081445
v 0.154999 0.202653 -0.053126
v 0.154999 0.212093 -0.062566
vn -0.2700 0.9501 -0.1565
vn 0.2743 0.3479 0.8965
vn 0.2153 0.9300 -0.2981
vn 0.9987 -0.0502 0.0016
vn -0.0019 0.9615 -0.2748
vn 0.1611 0.9381 -0.3065
vn 0.1811 0.9812 -0.0667
vn 0.7071 0.0000 0.7071
vn 0.4472 0.0000 0.8944
vn 0.5774 -0.5774 0.5773
vn 0.8165 -0.4082 0.4082
vn 0.6667 -0.3333 0.6667
vn 0.0000 -0.8944 0.4472
vn -0.0383 0.0383 0.9985
vn -0.4451 -0.1109 0.8886
vn 0.2357 -0.2357 0.9428
vn 0.0000 -0.2425 0.9701
vn -0.6640 -0.0956 0.7416
vn -0.9942 0.1055 -0.0193
vn -0.9963 -0.0854 -0.0053
vn 0.8427 -0.4815 0.2408
vn 0.9973 -0.0652 0.0326
vn 0.9938 -0.0784 0.0784
vn 0.6031 0.5881 -0.5388
vn 0.0549 0.9982 -0.0260
vn -0.1432 0.9890 -0.0358
vn 0.2093 0.7086 0.6738
vn 0.1245 0.9487 0.2906
vn -0.1134 0.9935 0.0030
vn 0.0364 0.9838 0.1755
vn 0.5665 0.5985 0.5665
vn 0.9933 -0.0000 0.1152
vn 0.9693 0.1937 0.1515
vn 0.8111 -0.4867 0.3244
vn 0.6396 -0.4264 0.6396
vn 0.5773 -0.5773 0.5774
vn 0.6838 -0.4558 0.5698
vn 0.5571 -0.3714 0.7428
vn 0.5488 -0.3293 0.7683
vn 0.5488 -0.3293 0.7684
vn 0.4319 -0.2592 0.8639
vn -0.9180 -0.3963 -0.0174
vn -0.9729 -0.2309 -0.0149
vn -0.0090 -0.0021 -1.0000
vn -0.0084 -0.0036 -1.0000
vn 0.7071 -0.7071 0.0000
vn 0.0000 -1.0000 0.0000
vn -0.0024 -0.0098 -0.9999
vn -0.7071 -0.7071 0.0000
vn -0.5547 -0.8321 0.0000
vn 0.0000 -0.9806 0.1961
vn 0.3015 -0.9045 0.3015
vn 0.8944 -0.4472 0.0000
vn 0.8433 -0.5270 0.1054
vn 0.9986 -0.0529 0.0000
vn 0.0000 -0.9701 -0.2425
vn 0.0000 -0.8944 -0.4472
vn -0.2074 -0.8296 -0.5185
vn -0.4472 -0.8944 0.0000
vn 0.6667 -0.6667 -0.3333
vn 0.0074 -0.0074 -0.9999
vn 0.0186 -0.0000 -0.9998
vn 0.5773 -0.5774 -0.5774
vn 0.7276 -0.4851 -0.4851
vn 0.8018 -0.5345 -0.2673
vn 0.8452 -0.5071 -0.1690
vn 0.9474 -0.0520 -0.3158
vn 0.9045 -0.3015 -0.3015
vn 0.8963 0.0383 -0.4418
vn 0.8944 -0.0000 -0.4472
usemtl Material001.002
s off
f 6//1 3//1 4//1
f 9//2 6//2 1//2
f 12//3 8//3 3//3
f 13//4 8//4 12//4
f 15//5 4//5 3//5
f 15//6 3//6 8//6
f 16//7 12//7 3//7
f 17//8 2//8 9//8
f 17//9 9//9 1//9
f 18//10 10//10 7//10
f 19//11 10//11 2//11
f 19//12 2//12 17//12
f 20//13 18//13 7//13
f 20//13 11//13 18//13
f 21//14 1//14 6//14
f 21//15 6//15 11//15
f 21//16 20//16 1//16
f 21//17 11//17 20//17
f 22//18 11//18 6//18
f 22//19 6//19 4//19
f 22//20 4//20 11//20
f 23//21 5//21 13//21
f 23//11 2//11 10//11
f 23//22 13//22 12//22
f 23//23 12//23 2//23
f 26//24 15//24 8//24
f 27//25 16//25 3//25
f 27//26 3//26 6//26
f 28//27 6//27 9//27
f 28//28 9//28 16//28
f 28//29 27//29 6//29
f 28//30 16//30 27//30
f 29//31 16//31 9//31
f 29//8 9//8 2//8
f 29//32 2//32 12//32
f 29//33 12//33 16//33
f 30//10 10//10 18//10
f 30//11 23//11 10//11
f 30//34 5//34 23//34
f 31//35 19//35 7//35
f 31//36 7//36 10//36
f 31//37 10//37 19//37
f 32//12 19//12 17//12
f 32//35 7//35 19//35
f 32//38 20//38 7//38
f 32//39 17//39 20//39
f 33//40 20//40 17//40
f 33//9 17//9 1//9
f 33//41 1//41 20//41
f 34//42 24//42 11//42
f 34//43 11//43 4//43
f 34//44 4//44 15//44
f 34//45 15//45 24//45
f 35//13 18//13 11//13
f 36//46 5//46 25//46
f 37//47 25//47 5//47
f 38//48 24//48 15//48
f 39//13 35//13 11//13
f 39//49 11//49 24//49
f 39//50 24//50 35//50
f 40//51 18//51 35//51
f 40//52 30//52 18//52
f 40//52 5//52 30//52
f 40//47 37//47 5//47
f 41//53 36//53 13//53
f 41//54 13//54 5//54
f 41//46 5//46 36//46
f 42//55 8//55 13//55
f 42//53 13//53 36//53
f 43//56 14//56 37//56
f 43//57 38//57 14//57
f 43//58 24//58 38//58
f 43//59 37//59 35//59
f 43//50 35//50 24//50
f 44//56 37//56 14//56
f 44//60 14//60 25//60
f 44//47 25//47 37//47
f 45//61 38//61 15//61
f 45//62 15//62 26//62
f 45//63 14//63 38//63
f 46//51 40//51 35//51
f 46//59 35//59 37//59
f 46//47 37//47 40//47
f 47//60 25//60 14//60
f 47//64 14//64 45//64
f 48//65 25//65 47//65
f 48//66 42//66 36//66
f 48//66 36//66 25//66
f 49//67 8//67 42//67
f 49//68 48//68 47//68
f 49//68 42//68 48//68
f 49//69 26//69 8//69
f 49//70 47//70 45//70
f 49//70 45//70 26//70
