# Blender v3.6.3 OBJ File: 'mouth_cup.blend'
# www.blender.org
mtllib mouth_cup016.mtl
o mouth_cup016_mouth_cup016.001
v 0.268274 0.702951 0.192303
v 0.381549 0.617995 0.088467
v 0.372110 0.646313 0.079028
v 0.353231 0.627434 0.060149
v 0.277714 0.580236 0.163984
v 0.381549 0.608555 0.060149
v 0.258835 0.702951 0.163984
v 0.353231 0.655753 0.135665
v 0.381549 0.636874 0.088467
v 0.376894 0.628810 0.060149
v 0.339504 0.577301 0.061947
v 0.268274 0.702951 0.163984
v 0.362670 0.636874 0.060149
v 0.257679 0.646981 0.178463
v 0.306033 0.684072 0.173424
v 0.324912 0.599116 0.145105
v 0.362670 0.636874 0.126226
v 0.372110 0.646313 0.107347
v 0.356315 0.583905 0.057923
v 0.334351 0.599116 0.060149
v 0.258835 0.674632 0.192303
v 0.306033 0.684072 0.154544
v 0.296593 0.665193 0.182863
v 0.343791 0.599116 0.126226
v 0.362670 0.646313 0.126226
v 0.362670 0.580236 0.079028
v 0.277714 0.580236 0.126226
v 0.255751 0.698752 0.186502
v 0.287154 0.580236 0.163984
v 0.315472 0.674632 0.173424
v 0.268274 0.674632 0.192303
v 0.362670 0.617995 0.116786
v 0.372110 0.589676 0.060149
v 0.353231 0.580236 0.097907
v 0.259790 0.645786 0.167579
v 0.277714 0.589676 0.126226
v 0.324912 0.580236 0.069588
v 0.296593 0.684072 0.182863
v 0.324912 0.646313 0.163984
v 0.287154 0.646313 0.182863
v 0.372110 0.589676 0.069588
v 0.353231 0.589676 0.107347
v 0.324912 0.589676 0.069588
v 0.343791 0.636874 0.145105
v 0.315472 0.665193 0.173424
v 0.296593 0.627434 0.173424
v 0.381549 0.608555 0.069588
vn 1.0000 0.0000 0.0000
vn 0.9510 0.2186 -0.2186
vn 0.8045 0.5232 -0.2812
vn 0.0000 1.0000 0.0000
vn -0.4624 0.4624 -0.7566
vn 0.4075 0.7189 -0.5632
vn 0.0845 0.8737 -0.4791
vn 0.0000 0.8437 -0.5369
vn 0.4472 0.8944 0.0000
vn 0.7071 0.7071 0.0000
vn 0.8944 0.0000 0.4472
vn 0.5774 0.8083 0.1155
vn 0.4961 0.8682 0.0000
vn -0.0476 0.0476 -0.9977
vn 0.0223 0.0393 -0.9990
vn 0.0718 0.0165 -0.9973
vn -0.5433 0.3622 -0.7574
vn -0.1847 -0.1240 -0.9749
vn -0.0691 0.0461 -0.9965
vn -0.6008 -0.3375 0.7246
vn 0.4316 0.8992 -0.0719
vn 0.6667 -0.3333 0.6667
vn 0.8165 0.4083 0.4082
vn 0.3014 -0.9200 -0.2507
vn -0.9578 -0.2875 0.0000
vn -0.0475 -0.9989 0.0000
vn -0.4570 0.1523 0.8763
vn -0.3658 0.9227 0.1219
vn -0.9902 -0.0154 -0.1385
vn -0.9723 -0.0708 0.2226
vn 0.0000 -0.9996 0.0288
vn 0.0000 -0.2873 0.9578
vn 0.6667 0.6667 0.3333
vn 0.7071 0.0000 0.7071
vn 0.3162 0.0000 0.9487
vn 0.0000 0.0000 1.0000
vn 0.8018 -0.2673 0.5345
vn 0.3636 -0.8931 -0.2648
vn 0.1693 -0.0847 -0.9819
vn 0.7807 -0.4879 0.3904
vn 0.0589 -0.9965 0.0589
vn 0.0921 -0.9947 0.0460
vn -0.9725 -0.1579 -0.1713
vn -0.9819 -0.0282 -0.1873
vn -0.9372 -0.0375 -0.3468
vn -0.8944 0.0000 -0.4472
vn -0.4848 -0.1850 -0.8548
vn -0.3237 -0.9069 -0.2697
vn -0.7682 0.0000 -0.6402
vn 0.4472 0.0000 0.8944
vn 0.5774 0.5774 0.5773
vn 0.5449 -0.3114 0.7785
vn 0.0685 -0.2741 0.9593
vn 0.2722 -0.1361 0.9526
vn 0.8944 -0.4472 0.0000
vn 0.8111 -0.4867 0.3244
vn 0.7071 -0.7071 0.0000
vn 0.7071 -0.4243 0.5657
vn 0.5774 -0.5774 0.5774
vn 0.5774 -0.5774 0.5773
vn 0.5773 -0.5774 0.5773
vn 0.7625 -0.4575 0.4575
vn 0.7553 -0.4196 0.5035
vn -0.7654 0.0850 -0.6379
vn -0.7528 0.1027 -0.6502
vn -0.7071 0.0000 -0.7071
vn 0.5963 -0.2981 0.7454
vn 0.4364 -0.2182 0.8729
vn 0.3810 -0.2540 0.8890
vn 0.4576 -0.2615 0.8498
vn 0.8729 -0.4364 0.2182
usemtl Material016.002
s off
f 9//1 2//1 6//1
f 10//2 9//2 6//2
f 10//3 3//3 9//3
f 12//4 7//4 1//4
f 13//5 4//5 7//5
f 13//6 3//6 10//6
f 13//7 12//7 3//7
f 13//8 7//8 12//8
f 15//9 12//9 1//9
f 18//10 9//10 3//10
f 18//11 17//11 2//11
f 18//11 2//11 9//11
f 18//12 15//12 8//12
f 18//13 3//13 15//13
f 19//14 4//14 13//14
f 19//15 13//15 10//15
f 19//16 10//16 6//16
f 20//17 7//17 4//17
f 20//18 19//18 11//18
f 20//19 4//19 19//19
f 21//20 14//20 5//20
f 22//13 15//13 3//13
f 22//21 3//21 12//21
f 22//9 12//9 15//9
f 24//22 17//22 16//22
f 25//23 18//23 8//23
f 25//11 17//11 18//11
f 26//24 11//24 19//24
f 27//25 5//25 14//25
f 27//26 11//26 5//26
f 28//27 21//27 1//27
f 28//28 1//28 7//28
f 28//29 7//29 14//29
f 28//30 14//30 21//30
f 29//31 5//31 11//31
f 29//32 21//32 5//32
f 30//33 8//33 15//33
f 30//34 25//34 8//34
f 31//35 23//35 1//35
f 31//36 1//36 21//36
f 31//32 21//32 29//32
f 32//37 2//37 17//37
f 32//22 17//22 24//22
f 33//38 26//38 19//38
f 33//39 19//39 6//39
f 34//40 26//40 2//40
f 34//41 29//41 11//41
f 34//42 11//42 26//42
f 35//43 27//43 14//43
f 35//44 14//44 7//44
f 35//45 7//45 27//45
f 36//46 27//46 7//46
f 37//47 20//47 11//47
f 37//48 11//48 27//48
f 37//49 27//49 36//49
f 38//35 1//35 23//35
f 38//50 23//50 30//50
f 38//51 30//51 15//51
f 38//51 15//51 1//51
f 39//34 17//34 25//34
f 39//34 25//34 30//34
f 39//52 29//52 16//52
f 40//53 31//53 29//53
f 40//54 23//54 31//54
f 41//55 33//55 6//55
f 41//56 2//56 26//56
f 41//57 26//57 33//57
f 42//58 32//58 24//58
f 42//59 29//59 34//59
f 42//60 24//60 16//60
f 42//61 16//61 29//61
f 42//62 34//62 2//62
f 42//63 2//63 32//63
f 43//64 36//64 7//64
f 43//65 7//65 20//65
f 43//49 37//49 36//49
f 43//66 20//66 37//66
f 44//67 39//67 16//67
f 44//22 16//22 17//22
f 44//34 17//34 39//34
f 45//34 39//34 30//34
f 45//50 30//50 23//50
f 45//68 40//68 39//68
f 45//68 23//68 40//68
f 46//69 40//69 29//69
f 46//70 29//70 39//70
f 46//68 39//68 40//68
f 47//55 41//55 6//55
f 47//1 6//1 2//1
f 47//71 2//71 41//71
