# Blender v3.6.3 OBJ File: 'mouth_cup.blend'
# www.blender.org
mtllib mouth_cup015.mtl
o mouth_cup015_mouth_cup015.001
v 0.253469 0.408002 -0.025269
v 0.249395 0.363126 -0.034247
v 0.268274 0.429203 -0.090884
v 0.201889 0.438821 -0.147089
v 0.105056 0.217689 -0.090641
v 0.239956 0.438643 -0.072005
v 0.136120 0.230972 -0.034247
v 0.145560 0.212093 -0.090884
v 0.264543 0.440797 -0.079142
v 0.173879 0.230972 -0.034247
v 0.239956 0.410324 -0.024807
v 0.117241 0.297049 -0.119203
v 0.239956 0.353687 -0.062566
v 0.126067 0.203008 -0.081066
v 0.211637 0.410324 -0.147522
v 0.258835 0.438643 -0.109764
v 0.261144 0.442759 -0.086483
v 0.239956 0.344247 -0.034247
v 0.202197 0.438643 -0.119203
v 0.249447 0.400855 -0.024813
v 0.107802 0.278170 -0.119203
v 0.145560 0.249851 -0.034247
v 0.249395 0.382005 -0.081445
v 0.183318 0.249851 -0.053126
v 0.143285 0.217451 -0.036748
v 0.117241 0.212093 -0.128643
v 0.136120 0.202653 -0.090884
v 0.221077 0.438643 -0.147522
v 0.239956 0.344247 -0.043687
v 0.230516 0.438643 -0.081445
v 0.104012 0.280358 -0.151629
v 0.157223 0.225698 -0.033426
v 0.107802 0.230972 -0.090884
v 0.230516 0.391445 -0.119203
v 0.164439 0.221533 -0.053126
v 0.192758 0.278170 -0.072005
v 0.101760 0.215581 -0.122917
v 0.221077 0.429203 -0.147522
v 0.249395 0.363126 -0.043687
v 0.173879 0.230972 -0.043687
v 0.117241 0.268730 -0.156962
v 0.258835 0.429203 -0.109764
v 0.183318 0.297049 -0.109764
v 0.136120 0.259291 -0.138082
v 0.183318 0.268730 -0.081445
v 0.105768 0.213267 -0.117277
v 0.107802 0.268730 -0.156962
v 0.145560 0.221532 -0.100324
v 0.164439 0.278170 -0.119203
v 0.249395 0.391445 -0.090884
v 0.211637 0.391445 -0.138082
v 0.173879 0.344247 -0.147522
v 0.117241 0.278170 -0.156962
vn 0.9758 -0.1246 0.1799
vn 0.9683 0.0681 0.2405
vn 0.0740 0.8551 0.5131
vn 0.1606 0.8281 0.5371
vn 0.8597 0.4727 -0.1935
vn -0.0086 0.9651 0.2619
vn 0.7602 0.6226 -0.1855
vn -0.7678 0.4607 0.4453
vn -0.0736 0.9973 0.0072
vn 0.0411 0.0406 0.9983
vn 0.3637 -0.2121 0.9071
vn 0.4374 -0.2187 0.8723
vn 0.4767 -0.2139 0.8527
vn -0.7848 0.3924 0.4796
vn -0.5345 0.2673 0.8018
vn -0.7643 0.4209 0.4886
vn -0.7188 -0.4748 0.5078
vn -0.6401 -0.6217 0.4513
vn 0.1954 -0.9523 0.2344
vn 0.6247 -0.6247 -0.4685
vn -0.1824 -0.9715 -0.1517
vn 0.1892 0.9636 -0.1891
vn 0.0076 0.9974 -0.0723
vn 0.8944 -0.4472 0.0000
vn 0.8729 -0.4364 -0.2182
vn 0.8427 -0.4815 -0.2408
vn 0.8638 -0.5039 0.0000
vn -0.5848 0.6823 0.4386
vn -0.4575 0.7625 0.4575
vn -0.1139 0.9869 0.1139
vn -0.1183 0.9890 0.0887
vn -0.8509 0.5252 0.0127
vn -0.8544 0.5126 0.0847
vn -0.8864 0.4432 0.1335
vn -0.9872 0.1026 0.1223
vn -0.0317 -0.0324 0.9990
vn -0.0454 -0.0263 0.9986
vn 0.0773 -0.0895 0.9930
vn 0.2542 -0.6989 0.6685
vn -0.0950 -0.2295 0.9686
vn -0.9238 0.1970 0.3283
vn -0.8782 0.1896 0.4391
vn -0.8639 0.2592 0.4319
vn 0.8018 -0.5345 -0.2673
vn 0.6963 -0.6963 -0.1741
vn 0.3726 -0.8910 0.2592
vn 0.3371 -0.9186 0.2065
vn 0.8245 -0.4774 -0.3038
vn -0.9924 0.0772 0.0963
vn 0.7071 0.0000 -0.7071
vn 0.8955 -0.3980 -0.1990
vn 0.9615 -0.2747 0.0000
vn 0.8550 -0.4987 -0.1425
vn 0.7071 -0.7071 0.0000
vn 0.3651 -0.1826 -0.9129
vn 0.0905 -0.0000 -0.9959
vn 0.8944 0.0000 -0.4472
vn 0.8165 -0.4082 -0.4082
vn 0.6667 -0.3333 -0.6667
vn 0.7379 -0.4216 -0.5270
vn 0.5571 -0.3714 -0.7428
vn 0.7930 -0.4626 -0.3965
vn 0.8127 -0.4741 -0.3386
vn 0.8111 -0.4867 -0.3244
vn -0.2811 -0.9414 -0.1865
vn -0.2368 -0.9615 -0.1397
vn -0.6036 -0.7889 0.1149
vn -0.6118 -0.7828 0.1136
vn -0.9205 -0.1312 -0.3681
vn -0.3990 0.2716 -0.8758
vn 0.0000 -0.4472 -0.8944
vn -0.3973 -0.4625 -0.7926
vn 0.6860 -0.5145 -0.5145
vn 0.7737 -0.4480 -0.4480
vn 0.7010 -0.4089 -0.5842
vn 0.6772 -0.3950 -0.6208
vn 0.7071 -0.4243 -0.5657
vn 0.7581 -0.4332 -0.4874
vn 0.7644 -0.4410 -0.4704
vn 0.6556 -0.3746 -0.6556
vn 0.5754 -0.3384 -0.7446
vn 0.5449 -0.3114 -0.7785
vn 0.6163 -0.3522 -0.7044
vn -0.1278 0.1278 -0.9835
vn -0.0218 0.0728 -0.9971
vn 0.0000 0.0000 -1.0000
usemtl Material015.002
s off
f 1//1 2//1 3//1
f 9//2 1//2 3//2
f 11//3 9//3 6//3
f 11//4 1//4 9//4
f 16//5 9//5 3//5
f 17//6 6//6 9//6
f 17//7 9//7 16//7
f 19//8 12//8 11//8
f 19//9 17//9 4//9
f 20//10 1//10 11//10
f 20//11 10//11 18//11
f 20//12 18//12 2//12
f 20//13 2//13 1//13
f 21//14 7//14 12//14
f 22//14 12//14 7//14
f 22//15 7//15 11//15
f 22//16 11//16 12//16
f 25//17 7//17 5//17
f 25//18 5//18 14//18
f 27//19 25//19 14//19
f 27//20 26//20 8//20
f 27//21 14//21 26//21
f 28//22 17//22 16//22
f 28//23 4//23 17//23
f 29//24 2//24 18//24
f 29//25 13//25 23//25
f 29//26 24//26 13//26
f 29//27 18//27 10//27
f 30//28 19//28 11//28
f 30//29 11//29 6//29
f 30//30 6//30 17//30
f 30//31 17//31 19//31
f 31//32 19//32 4//32
f 31//33 12//33 19//33
f 31//34 21//34 12//34
f 31//35 5//35 21//35
f 32//36 20//36 11//36
f 32//37 11//37 7//37
f 32//38 10//38 20//38
f 32//39 25//39 10//39
f 32//40 7//40 25//40
f 33//41 21//41 5//41
f 33//42 5//42 7//42
f 33//43 7//43 21//43
f 35//44 8//44 24//44
f 35//45 27//45 8//45
f 35//46 10//46 25//46
f 35//47 25//47 27//47
f 36//48 23//48 13//48
f 36//48 13//48 24//48
f 37//49 5//49 31//49
f 38//50 28//50 16//50
f 39//25 29//25 23//25
f 39//51 23//51 3//51
f 39//52 3//52 2//52
f 39//24 2//24 29//24
f 40//27 29//27 10//27
f 40//53 24//53 29//53
f 40//44 35//44 24//44
f 40//54 10//54 35//54
f 41//55 38//55 15//55
f 41//56 28//56 38//56
f 42//57 16//57 3//57
f 42//58 3//58 23//58
f 42//50 38//50 16//50
f 42//59 34//59 38//59
f 43//60 34//60 42//60
f 44//61 26//61 41//61
f 45//62 8//62 23//62
f 45//63 23//63 36//63
f 45//64 36//64 24//64
f 45//64 24//64 8//64
f 46//65 37//65 26//65
f 46//66 26//66 14//66
f 46//67 14//67 5//67
f 46//68 5//68 37//68
f 47//69 37//69 31//69
f 47//70 31//70 4//70
f 47//71 41//71 26//71
f 47//72 26//72 37//72
f 48//73 8//73 26//73
f 48//74 23//74 8//74
f 49//75 34//75 43//75
f 49//76 44//76 34//76
f 49//76 26//76 44//76
f 49//77 48//77 26//77
f 49//77 43//77 48//77
f 50//78 43//78 42//78
f 50//58 42//58 23//58
f 50//79 48//79 43//79
f 50//74 23//74 48//74
f 51//80 34//80 44//80
f 51//59 38//59 34//59
f 51//59 15//59 38//59
f 52//81 44//81 41//81
f 52//82 41//82 15//82
f 52//83 51//83 44//83
f 52//83 15//83 51//83
f 53//84 47//84 4//84
f 53//85 4//85 28//85
f 53//56 28//56 41//56
f 53//86 41//86 47//86
