# Blender v3.6.3 OBJ File: 'mouth_cup.blend'
# www.blender.org
mtllib mouth_cup013.mtl
o mouth_cup013_mouth_cup013.001
v 0.075394 0.802881 -0.077924
v 0.173997 0.712322 -0.184829
v 0.173879 0.759588 -0.156962
v 0.154999 0.759588 -0.185280
v -0.005473 0.636874 -0.119203
v 0.173879 0.759588 -0.185280
v 0.088922 0.797347 -0.128643
v 0.070043 0.636874 -0.175841
v 0.032285 0.646313 -0.100324
v 0.107802 0.665193 -0.185280
v 0.032285 0.750149 -0.090885
v 0.136120 0.778467 -0.166401
v 0.041725 0.684072 -0.147522
v 0.173879 0.740709 -0.156962
v 0.088922 0.636874 -0.147522
v 0.136120 0.731270 -0.185280
v 0.060604 0.797347 -0.090885
v 0.024290 0.711556 -0.080553
v 0.088922 0.806786 -0.081445
v 0.022845 0.646313 -0.147522
v 0.117241 0.769028 -0.166401
v 0.013406 0.684072 -0.119203
v 0.051164 0.702951 -0.081445
v 0.171939 0.713560 -0.173868
v 0.090056 0.636220 -0.173393
v 0.022845 0.636874 -0.100324
v 0.070043 0.646313 -0.175841
v 0.032285 0.750149 -0.081445
v 0.126681 0.787907 -0.128643
v 0.098362 0.787907 -0.081445
v 0.107802 0.797347 -0.128643
v 0.070043 0.806786 -0.090885
v 0.022845 0.636874 -0.147522
v 0.098362 0.778467 -0.147522
v 0.126681 0.778467 -0.166401
v 0.051164 0.750149 -0.119203
v -0.005473 0.655753 -0.109764
v -0.005473 0.646313 -0.119203
v -0.006145 0.637262 -0.100739
v 0.107802 0.674632 -0.185280
v 0.079483 0.702951 -0.166401
v 0.051164 0.646313 -0.166401
v 0.060604 0.797347 -0.081445
v 0.022845 0.731270 -0.081445
v 0.107802 0.797347 -0.100324
v 0.098362 0.797347 -0.081445
v 0.079483 0.750149 -0.081445
v 0.126681 0.787907 -0.147522
v 0.079483 0.797347 -0.119203
v 0.079483 0.806786 -0.100324
v 0.051164 0.636874 -0.166401
v 0.070043 0.750149 -0.138082
v 0.022845 0.712390 -0.109764
v 0.060604 0.778467 -0.109764
v 0.088922 0.684072 -0.175841
v 0.022845 0.731270 -0.090885
v 0.088922 0.806786 -0.100324
vn 1.0000 0.0025 0.0000
vn 0.0136 -0.0095 -0.9999
vn 0.0000 -0.0000 -1.0000
vn 0.0000 0.7071 -0.7071
vn 1.0000 0.0000 0.0043
vn -0.3810 0.2540 -0.8890
vn 0.5665 -0.3979 0.7216
vn 0.5377 -0.4225 0.7297
vn 0.0203 -0.0401 0.9990
vn 0.6985 -0.6845 0.2085
vn 0.9598 -0.1945 0.2022
vn 0.6181 -0.4469 0.6467
vn 0.3928 -0.5446 -0.7410
vn 0.6745 -0.7367 0.0482
vn 0.0960 -0.4276 -0.8989
vn 0.5025 -0.5025 0.7035
vn 0.0186 -0.9995 0.0261
vn -0.0037 -1.0000 0.0055
vn 0.4082 -0.4082 0.8165
vn -0.2425 0.0000 -0.9701
vn -0.8575 0.5145 0.0000
vn 0.5145 0.8575 0.0000
vn 0.7071 0.0000 0.7071
vn 0.4472 0.8944 0.0000
vn -0.1747 0.9205 0.3495
vn -0.7071 0.0000 -0.7071
vn -0.0158 -0.9997 -0.0158
vn -0.5726 0.3436 -0.7444
vn -0.3482 0.3482 -0.8704
vn -0.4851 0.4851 -0.7276
vn -0.6556 0.3746 -0.6556
vn -0.8165 0.4082 -0.4082
vn -0.8165 0.4082 -0.4083
vn -0.6667 0.3333 -0.6667
vn -0.0174 -0.2678 0.9633
vn -0.0461 -0.2443 0.9686
vn -0.0137 -0.9997 0.0205
vn -0.9993 0.0000 -0.0364
vn -0.9994 0.0244 -0.0244
vn -0.3651 0.1826 -0.9129
vn -0.4111 0.2349 -0.8808
vn -0.5449 0.3114 -0.7785
vn -0.4472 0.0000 -0.8944
vn -0.4364 0.2182 -0.8729
vn -0.5345 0.2673 -0.8018
vn -0.5547 0.0000 -0.8321
vn -0.2890 0.1734 0.9415
vn -0.7071 0.7071 0.0000
vn -0.4038 0.8165 0.4127
vn -0.1161 0.0364 0.9926
vn -0.2047 0.1023 0.9735
vn -0.5487 -0.0024 0.8360
vn -0.9106 0.2075 0.3573
vn -0.8944 0.4472 0.0000
vn 0.6667 0.6667 0.3333
vn 0.5523 0.8285 0.0921
vn 0.1942 0.1942 0.9616
vn 0.1515 0.0000 0.9885
vn 0.5665 -0.3399 0.7507
vn 0.5800 -0.2900 0.7612
vn 0.1146 -0.0573 0.9918
vn 0.0979 -0.0587 0.9935
vn 0.3015 0.9045 -0.3015
vn 0.0000 0.8944 -0.4472
vn -0.6396 0.6396 -0.4264
vn 0.0000 0.9487 -0.3162
vn -0.4082 0.8165 -0.4082
vn -0.4082 0.8165 -0.4083
vn 0.0000 1.0000 0.0000
vn -0.0262 -0.9983 -0.0524
vn -0.0230 -0.9991 -0.0345
vn -0.5547 0.0000 -0.8320
vn -0.5976 0.3586 -0.7171
vn -0.6136 0.3835 -0.6903
vn -0.6509 0.3906 -0.6509
vn -0.7379 0.4216 -0.5271
vn -0.8165 0.4083 -0.4082
vn -0.7625 0.4575 -0.4575
vn -0.7071 0.4243 -0.5657
vn -0.7276 0.4851 -0.4851
vn -0.7581 0.4332 -0.4874
vn -0.7379 0.4216 -0.5270
vn -0.9363 0.3511 0.0000
usemtl Material013.002
s off
f 6//1 3//1 2//1
f 10//2 6//2 2//2
f 10//3 4//3 6//3
f 12//4 6//4 4//4
f 14//5 2//5 3//5
f 16//3 4//3 10//3
f 21//6 4//6 16//6
f 23//7 15//7 14//7
f 23//8 9//8 15//8
f 23//9 1//9 18//9
f 24//10 15//10 2//10
f 24//11 2//11 14//11
f 24//12 14//12 15//12
f 25//13 10//13 2//13
f 25//14 2//14 15//14
f 25//15 8//15 10//15
f 26//16 15//16 9//16
f 26//17 25//17 15//17
f 26//18 5//18 25//18
f 26//19 9//19 23//19
f 27//20 10//20 8//20
f 28//21 17//21 11//21
f 29//22 3//22 6//22
f 30//23 14//23 3//23
f 31//24 19//24 29//24
f 32//25 1//25 19//25
f 33//26 5//26 20//26
f 33//27 25//27 5//27
f 34//28 21//28 13//28
f 35//4 12//4 4//4
f 35//29 4//29 21//29
f 35//30 34//30 7//30
f 35//30 21//30 34//30
f 36//31 13//31 22//31
f 38//26 20//26 5//26
f 38//32 37//32 11//32
f 38//33 11//33 22//33
f 38//34 22//34 13//34
f 38//34 13//34 20//34
f 39//35 26//35 23//35
f 39//36 23//36 18//36
f 39//37 5//37 26//37
f 39//38 38//38 5//38
f 39//39 37//39 38//39
f 40//40 27//40 16//40
f 40//3 16//3 10//3
f 40//20 10//20 27//20
f 41//41 21//41 16//41
f 41//42 13//42 21//42
f 42//43 27//43 8//43
f 42//44 41//44 27//44
f 42//45 20//45 13//45
f 42//45 13//45 41//45
f 42//46 33//46 20//46
f 43//47 28//47 1//47
f 43//21 17//21 28//21
f 43//48 32//48 17//48
f 43//49 1//49 32//49
f 44//50 18//50 1//50
f 44//51 1//51 28//51
f 44//52 39//52 18//52
f 44//53 37//53 39//53
f 44//54 28//54 11//54
f 45//24 29//24 19//24
f 45//55 19//55 3//55
f 45//56 3//56 29//56
f 46//23 30//23 3//23
f 46//55 3//55 19//55
f 46//57 19//57 1//57
f 46//58 1//58 30//58
f 47//59 23//59 14//59
f 47//60 14//60 30//60
f 47//61 30//61 1//61
f 47//62 1//62 23//62
f 48//24 31//24 29//24
f 48//22 29//22 6//22
f 48//63 6//63 12//63
f 48//64 7//64 31//64
f 48//64 35//64 7//64
f 48//64 12//64 35//64
f 49//65 17//65 32//65
f 50//66 31//66 7//66
f 50//67 49//67 32//67
f 50//68 7//68 49//68
f 50//69 32//69 19//69
f 51//70 8//70 25//70
f 51//71 25//71 33//71
f 51//43 42//43 8//43
f 51//72 33//72 42//72
f 52//73 34//73 13//73
f 52//74 7//74 34//74
f 52//31 13//31 36//31
f 52//75 49//75 7//75
f 52//75 36//75 49//75
f 53//76 36//76 22//76
f 53//77 22//77 11//77
f 54//78 11//78 17//78
f 54//79 49//79 36//79
f 54//80 17//80 49//80
f 54//81 53//81 11//81
f 54//82 36//82 53//82
f 55//41 41//41 16//41
f 55//40 16//40 27//40
f 55//44 27//44 41//44
f 56//54 44//54 11//54
f 56//32 11//32 37//32
f 56//83 37//83 44//83
f 57//69 50//69 19//69
f 57//24 19//24 31//24
f 57//66 31//66 50//66
