# Blender v3.6.3 OBJ File: 'mouth_cup.blend'
# www.blender.org
mtllib mouth_cup003.mtl
o mouth_cup003_mouth_cup003.001
v -0.102505 0.506261 -0.034548
v -0.014229 0.400490 -0.182678
v -0.014913 0.495280 -0.138082
v -0.024352 0.448082 -0.185280
v -0.165946 0.372566 -0.109764
v -0.012589 0.503378 -0.161381
v -0.024352 0.372566 -0.166401
v -0.062111 0.372566 -0.185280
v -0.014913 0.457522 -0.147522
v -0.014913 0.448082 -0.185280
v -0.020068 0.507756 -0.145372
v -0.090429 0.504720 -0.119203
v -0.149414 0.366834 -0.081319
v -0.024105 0.372423 -0.184340
v -0.099869 0.485841 -0.034247
v -0.014913 0.485841 -0.175841
v -0.128188 0.495280 -0.053126
v -0.033792 0.504720 -0.166401
v -0.097245 0.508707 -0.046082
v -0.118748 0.372566 -0.156962
v -0.090429 0.495280 -0.043687
v -0.147067 0.438643 -0.090884
v -0.172755 0.371047 -0.079821
v -0.071550 0.504720 -0.138082
v -0.024352 0.485841 -0.175841
v -0.118748 0.504720 -0.062566
v -0.169356 0.369085 -0.087163
v -0.099869 0.391445 -0.166401
v -0.156506 0.400884 -0.109764
v -0.124834 0.483904 -0.033866
v -0.175386 0.382005 -0.090884
v -0.114310 0.502157 -0.033742
v -0.109309 0.504720 -0.090884
v -0.062111 0.382005 -0.185280
v -0.080990 0.391445 -0.175841
v -0.099869 0.438643 -0.147522
v -0.137627 0.391445 -0.138082
v -0.165946 0.382005 -0.109764
v -0.120786 0.491007 -0.033405
v -0.118748 0.495280 -0.081445
v -0.147067 0.429203 -0.100324
v -0.043232 0.419764 -0.185280
v -0.062111 0.457522 -0.166401
v -0.071550 0.485841 -0.147522
v -0.128188 0.438643 -0.119203
v -0.099869 0.457522 -0.138082
v -0.118748 0.382005 -0.156962
vn 0.9956 -0.0228 0.0914
vn 0.9972 -0.0300 0.0680
vn 0.9407 -0.1698 0.2938
vn 0.9933 0.0080 -0.1150
vn 0.0000 -0.0000 -1.0000
vn 0.6593 0.5634 0.4980
vn 0.8324 0.4925 0.2542
vn 0.9429 -0.3327 0.0156
vn -0.0023 -0.9984 -0.0570
vn 0.0517 -0.9986 0.0087
vn 0.2967 -0.0479 -0.9538
vn 0.0247 -0.0154 -0.9996
vn 0.7528 -0.2214 0.6199
vn 0.5053 -0.4910 0.7096
vn 0.0000 0.2425 -0.9701
vn 0.9729 0.0561 -0.2244
vn 0.1119 0.9706 -0.2131
vn 0.2197 0.6031 -0.7668
vn 0.5211 0.7552 0.3978
vn -0.0654 0.9960 -0.0604
vn -0.0473 -0.9944 -0.0945
vn 0.7396 0.3209 0.5917
vn 0.6545 0.0955 0.7500
vn 0.7715 -0.1543 0.6172
vn -0.0684 0.9953 -0.0684
vn -0.0722 0.9927 -0.0962
vn 0.0000 0.4472 -0.8944
vn -0.2486 0.9643 0.0911
vn -0.0803 -0.9909 -0.1076
vn -0.1757 -0.9686 -0.1757
vn -0.7860 -0.5821 -0.2083
vn -0.1632 -0.9694 0.1835
vn -0.4472 0.0000 -0.8944
vn -0.0080 -0.3742 0.9273
vn 0.0438 -0.3832 0.9226
vn -0.8729 0.4364 -0.2182
vn -0.8165 0.4082 -0.4082
vn -0.8741 -0.4327 -0.2207
vn -0.9079 0.2721 0.3188
vn -0.8857 0.2069 0.4155
vn -0.6114 0.7744 0.1630
vn -0.3174 0.9390 0.1324
vn 0.0603 0.0225 0.9979
vn -0.1459 0.9881 -0.0486
vn -0.0945 0.9935 -0.0630
vn -0.8944 0.0000 -0.4472
vn -0.7171 0.3586 -0.5976
vn -0.7071 0.0000 -0.7071
vn -0.7882 0.4698 0.3976
vn -0.8081 0.4348 0.3975
vn 0.0212 -0.0767 0.9968
vn 0.0417 0.0060 0.9991
vn -0.8137 0.4650 -0.3487
vn -0.8393 0.4663 -0.2798
vn -0.8018 0.5345 -0.2673
vn -0.7778 0.4444 -0.4444
vn -0.7485 0.4366 -0.4990
vn -0.7379 0.4216 -0.5270
vn -0.3419 0.2279 -0.9117
vn -0.3652 0.1826 -0.9129
vn -0.4016 0.2410 -0.8835
vn -0.4333 0.2476 -0.8666
vn -0.5488 0.3293 -0.7684
vn -0.5449 0.3114 -0.7785
vn -0.5976 0.3586 -0.7171
vn -0.5571 0.3714 -0.7428
vn -0.5488 0.3293 -0.7683
vn -0.7061 0.3802 -0.5974
vn -0.6509 0.3906 -0.6509
vn -0.6163 0.3522 -0.7044
vn -0.6759 0.3862 -0.6276
vn -0.5855 0.3193 -0.7451
usemtl Material003.002
s off
f 9//1 6//1 3//1
f 9//2 2//2 6//2
f 9//3 7//3 2//3
f 10//4 6//4 2//4
f 10//5 8//5 4//5
f 11//6 1//6 3//6
f 11//7 3//7 6//7
f 14//8 2//8 7//8
f 14//9 13//9 8//9
f 14//10 7//10 13//10
f 14//11 10//11 2//11
f 14//12 8//12 10//12
f 15//13 7//13 9//13
f 15//14 13//14 7//14
f 16//15 10//15 4//15
f 16//16 6//16 10//16
f 18//17 11//17 6//17
f 18//18 6//18 16//18
f 19//19 1//19 11//19
f 19//20 11//20 12//20
f 20//21 8//21 13//21
f 21//22 3//22 1//22
f 21//23 1//23 15//23
f 21//24 15//24 9//24
f 21//24 9//24 3//24
f 24//25 12//25 11//25
f 24//26 11//26 18//26
f 25//27 18//27 16//27
f 25//15 16//15 4//15
f 26//28 1//28 19//28
f 27//29 20//29 13//29
f 27//30 5//30 20//30
f 27//31 23//31 5//31
f 27//32 13//32 23//32
f 28//33 8//33 20//33
f 30//34 23//34 13//34
f 30//35 13//35 15//35
f 31//36 17//36 22//36
f 31//37 22//37 29//37
f 31//38 5//38 23//38
f 31//39 30//39 17//39
f 31//40 23//40 30//40
f 32//41 26//41 17//41
f 32//42 1//42 26//42
f 32//43 15//43 1//43
f 33//44 26//44 19//44
f 33//45 19//45 12//45
f 34//5 4//5 8//5
f 34//33 8//33 28//33
f 35//33 34//33 28//33
f 38//37 31//37 29//37
f 38//46 5//46 31//46
f 38//47 29//47 37//47
f 38//48 20//48 5//48
f 39//49 32//49 17//49
f 39//50 17//50 30//50
f 39//51 30//51 15//51
f 39//52 15//52 32//52
f 40//53 33//53 22//53
f 40//54 22//54 17//54
f 40//55 17//55 26//55
f 40//55 26//55 33//55
f 41//37 29//37 22//37
f 41//56 22//56 33//56
f 41//57 33//57 12//57
f 41//58 12//58 29//58
f 42//59 25//59 4//59
f 42//5 4//5 34//5
f 42//60 34//60 35//60
f 42//61 35//61 18//61
f 42//61 18//61 25//61
f 43//62 35//62 28//62
f 43//61 18//61 35//61
f 43//63 36//63 18//63
f 43//64 28//64 36//64
f 44//65 36//65 24//65
f 44//66 24//66 18//66
f 44//67 18//67 36//67
f 45//68 37//68 29//68
f 45//58 29//58 12//58
f 46//69 12//69 24//69
f 46//65 24//65 36//65
f 46//70 36//70 37//70
f 46//71 45//71 12//71
f 46//71 37//71 45//71
f 47//72 37//72 36//72
f 47//64 36//64 28//64
f 47//33 28//33 20//33
f 47//48 38//48 37//48
f 47//48 20//48 38//48
