# Blender v3.6.3 OBJ File: 'mouth_cup.blend'
# www.blender.org
mtllib mouth_cup017.mtl
o mouth_cup017_mouth_cup017.001
v 0.013406 0.287610 0.154544
v 0.021803 0.267044 0.154330
v 0.012826 0.306823 -0.187922
v -0.052671 0.287610 -0.194720
v -0.052671 0.287610 0.154544
v 0.013406 0.259291 -0.194720
v 0.022845 0.278170 0.154544
v -0.054798 0.312245 0.154544
v -0.005473 0.259291 0.154544
v 0.013803 0.306288 -0.180356
v 0.022277 0.267745 0.107347
v -0.054798 0.312245 -0.138082
v -0.024352 0.268730 0.154544
v -0.005473 0.259291 -0.194720
v 0.014285 0.260813 0.154545
v -0.051977 0.306088 -0.186586
v -0.024352 0.268730 -0.194720
vn 0.0609 0.1420 -0.9880
vn 0.0000 0.0000 1.0000
vn -0.9963 -0.0860 0.0000
vn 0.7065 0.7065 0.0402
vn 0.3392 0.9392 0.0528
vn 0.2561 0.9660 0.0353
vn 0.9916 0.0301 -0.1259
vn 0.9956 -0.0934 0.0086
vn 0.7363 -0.6766 -0.0027
vn 0.9985 0.0490 -0.0228
vn 0.9996 0.0005 -0.0294
vn 0.0799 0.9968 -0.0000
vn -0.5547 -0.8321 0.0000
vn 0.0000 0.0000 -1.0000
vn 0.0000 -1.0000 0.0000
vn -0.4472 -0.8944 0.0000
vn 0.0768 -0.9970 0.0042
vn 0.6381 -0.7699 0.0017
vn 0.0482 -0.0238 0.9986
vn -0.0139 0.9918 -0.1267
vn -0.0234 0.4035 -0.9147
vn -0.9956 0.0666 -0.0663
usemtl Material017.002
s off
f 6//1 4//1 3//1
f 8//2 5//2 1//2
f 8//3 4//3 5//3
f 10//4 1//4 7//4
f 10//5 8//5 1//5
f 10//6 3//6 8//6
f 10//7 6//7 3//7
f 11//8 7//8 2//8
f 11//9 2//9 6//9
f 11//10 10//10 7//10
f 11//11 6//11 10//11
f 12//12 8//12 3//12
f 12//3 4//3 8//3
f 13//13 5//13 4//13
f 14//14 4//14 6//14
f 14//15 6//15 9//15
f 14//16 9//16 13//16
f 15//17 9//17 6//17
f 15//18 6//18 2//18
f 15//19 2//19 7//19
f 15//2 13//2 9//2
f 15//2 5//2 13//2
f 15//2 7//2 1//2
f 15//2 1//2 5//2
f 16//20 12//20 3//20
f 16//21 3//21 4//21
f 16//22 4//22 12//22
f 17//16 14//16 13//16
f 17//13 13//13 4//13
f 17//14 4//14 14//14
