# Blender v3.6.3 OBJ File: 'mouth_cup.blend'
# www.blender.org
mtllib mouth_cup029.mtl
o mouth_cup029_mouth_cup029.001
v 0.287154 0.693511 -0.166401
v 0.285660 0.681484 -0.166401
v 0.268274 0.693511 -0.194720
v 0.173879 0.731270 -0.194720
v 0.145371 0.712505 -0.167130
v 0.202197 0.740709 -0.194720
v 0.287154 0.693511 -0.185280
v 0.183318 0.750149 -0.166401
v 0.146239 0.645921 -0.186758
v 0.239956 0.721830 -0.175841
v 0.268274 0.702951 -0.194720
v 0.221077 0.646313 -0.166401
v 0.173588 0.746189 -0.179585
v 0.145560 0.684072 -0.194720
v 0.239956 0.721830 -0.194720
v 0.145446 0.646388 -0.177222
v 0.239956 0.646313 -0.194720
v 0.183318 0.740709 -0.194720
v 0.147468 0.711289 -0.178017
v 0.171548 0.747367 -0.168470
v 0.143260 0.657140 -0.175254
v 0.257098 0.647316 -0.178667
v 0.249395 0.655753 -0.194720
v 0.259202 0.646111 -0.167783
v 0.283510 0.682725 -0.177099
vn 0.0000 0.0000 -1.0000
vn 0.9924 -0.1233 0.0000
vn 0.0000 0.0000 1.0000
vn 0.5145 0.8575 0.0000
vn 0.4657 0.8538 0.2328
vn 0.4472 0.0000 -0.8944
vn -0.0141 -0.0051 0.9999
vn 0.0224 0.9528 -0.3027
vn 0.5345 0.8018 -0.2673
vn 0.4472 0.8944 0.0000
vn -0.0079 -0.9988 0.0482
vn -0.0820 -0.2050 -0.9753
vn 0.0000 0.9403 -0.3404
vn -0.5764 0.5764 -0.5793
vn -0.7005 0.5014 -0.5078
vn -0.7863 0.5788 -0.2161
vn -0.9591 0.1939 -0.2064
vn -0.6892 0.4135 -0.5950
vn -0.7863 0.5825 -0.2060
vn -0.2150 0.1982 0.9563
vn -0.2043 0.9688 -0.1402
vn -0.1388 -0.2055 0.9688
vn -0.1310 -0.1390 0.9816
vn -0.9975 0.0460 -0.0542
vn -0.9788 -0.0584 -0.1965
vn -0.9799 -0.1860 -0.0724
vn 0.4364 -0.2182 -0.8729
vn 0.5763 -0.5763 -0.5794
vn 0.6462 -0.5027 -0.5742
vn -0.0041 -0.9994 0.0342
vn 0.0033 -0.9999 -0.0099
vn 0.1923 -0.9706 -0.1447
vn 0.7859 -0.5794 -0.2161
vn 0.0358 -0.0657 0.9972
vn 0.7491 -0.5419 -0.3809
vn 0.8581 -0.4612 -0.2259
vn 0.7858 -0.5762 -0.2247
usemtl Material029.002
s off
f 6//1 3//1 4//1
f 7//2 1//2 2//2
f 8//3 2//3 1//3
f 10//4 1//4 7//4
f 10//5 8//5 1//5
f 11//6 7//6 3//6
f 11//1 3//1 6//1
f 12//7 8//7 5//7
f 12//3 2//3 8//3
f 13//8 8//8 6//8
f 14//1 4//1 3//1
f 15//4 10//4 7//4
f 15//9 7//9 11//9
f 15//1 11//1 6//1
f 15//10 6//10 8//10
f 15//10 8//10 10//10
f 16//11 9//11 12//11
f 17//1 14//1 3//1
f 17//12 9//12 14//12
f 18//13 13//13 6//13
f 18//1 6//1 4//1
f 18//14 4//14 13//14
f 19//15 13//15 4//15
f 19//16 5//16 13//16
f 19//17 14//17 5//17
f 19//18 4//18 14//18
f 20//19 13//19 5//19
f 20//20 5//20 8//20
f 20//21 8//21 13//21
f 21//22 16//22 12//22
f 21//23 12//23 5//23
f 21//24 5//24 14//24
f 21//25 14//25 9//25
f 21//26 9//26 16//26
f 23//1 17//1 3//1
f 23//27 3//27 7//27
f 23//28 22//28 17//28
f 23//29 7//29 22//29
f 24//30 12//30 9//30
f 24//31 9//31 17//31
f 24//32 17//32 22//32
f 24//33 22//33 2//33
f 24//34 2//34 12//34
f 25//35 22//35 7//35
f 25//36 7//36 2//36
f 25//37 2//37 22//37
