# Blender v3.6.3 OBJ File: 'mouth_cup.blend'
# www.blender.org
mtllib mouth_cup019.mtl
o mouth_cup019_mouth_cup019.001
v 0.221077 0.542478 -0.147522
v 0.221680 0.504378 -0.148367
v 0.221077 0.608555 -0.194720
v 0.146239 0.645921 -0.186758
v 0.117241 0.466961 -0.166401
v 0.221077 0.636874 -0.166401
v 0.164439 0.438643 -0.147522
v 0.126681 0.448082 -0.194720
v 0.220414 0.646696 -0.186953
v 0.145446 0.646388 -0.177222
v 0.221197 0.646253 -0.177211
v 0.201889 0.438821 -0.147089
v 0.116738 0.505010 -0.188819
v 0.119344 0.437481 -0.174319
v 0.211637 0.636874 -0.166401
v 0.164439 0.457522 -0.147522
v 0.202197 0.438643 -0.166401
v 0.117610 0.504533 -0.180030
v 0.114949 0.449406 -0.185992
v 0.211637 0.542478 -0.147522
v 0.183318 0.476401 -0.185280
v 0.221077 0.504720 -0.175841
v 0.154999 0.438643 -0.185280
v 0.116875 0.438854 -0.183886
v 0.164439 0.504720 -0.194720
v 0.221077 0.542478 -0.185280
v 0.164439 0.448082 -0.185280
v 0.202197 0.570797 -0.194720
v 0.136120 0.457522 -0.194720
vn 0.9974 0.0142 0.0711
vn -0.0819 0.0482 -0.9955
vn -0.0047 0.1995 -0.9799
vn -0.0106 0.9987 -0.0498
vn 0.9998 0.0069 0.0171
vn 1.0000 0.0014 -0.0099
vn 0.9964 0.0333 -0.0786
vn 0.0013 0.7553 0.6554
vn 0.0018 0.9990 0.0453
vn 0.1300 -0.0199 0.9913
vn -0.2254 0.0614 -0.9723
vn -0.9744 0.2053 -0.0911
vn -0.4885 -0.2587 0.8333
vn 0.0043 -0.9993 0.0360
vn 0.0000 0.1961 0.9806
vn 0.0000 0.7510 0.6603
vn -0.0116 0.0000 0.9999
vn -0.3499 0.1111 0.9302
vn -0.3714 0.0000 0.9285
vn 0.9573 -0.2886 0.0179
vn 0.0131 -0.9999 0.0094
vn -0.9938 0.0465 0.1012
vn -0.8866 0.1654 0.4320
vn -0.9760 0.1894 0.1071
vn -0.5983 -0.0215 -0.8010
vn -0.9958 0.0363 0.0840
vn -0.1310 0.1944 0.9721
vn -0.2311 0.1284 0.9644
vn -0.0091 0.0050 0.9999
vn 0.0000 0.0042 1.0000
vn 0.9603 -0.2779 -0.0245
vn 0.4016 -0.2410 -0.8835
vn 0.0184 -0.9988 -0.0460
vn -0.5950 -0.2604 -0.7604
vn -0.9644 -0.1306 0.2301
vn -0.9645 -0.1303 0.2296
vn -0.0106 -0.9902 -0.1394
vn -0.0284 -0.7481 -0.6629
vn 0.0000 0.0000 -1.0000
vn 0.9998 -0.0027 -0.0192
vn 0.9997 -0.0055 -0.0220
vn 0.3907 -0.2233 -0.8930
vn 0.2572 -0.1469 -0.9551
vn 0.3810 -0.2540 -0.8890
vn 0.3482 -0.3482 -0.8704
vn 0.2357 -0.2357 -0.9428
vn 0.2722 -0.1361 -0.9526
vn 0.2516 -0.1509 -0.9560
vn 0.2592 -0.1728 -0.9503
usemtl Material019.002
s off
f 6//1 1//1 2//1
f 8//2 4//2 3//2
f 9//3 3//3 4//3
f 10//4 9//4 4//4
f 11//5 6//5 2//5
f 11//6 2//6 3//6
f 11//7 3//7 9//7
f 11//8 10//8 6//8
f 11//9 9//9 10//9
f 12//10 2//10 1//10
f 13//11 4//11 8//11
f 13//12 10//12 4//12
f 14//13 7//13 5//13
f 14//14 12//14 7//14
f 15//15 1//15 6//15
f 15//16 6//16 10//16
f 16//17 7//17 12//17
f 16//18 10//18 5//18
f 16//19 5//19 7//19
f 17//20 2//20 12//20
f 17//21 12//21 14//21
f 18//22 13//22 5//22
f 18//23 5//23 10//23
f 18//24 10//24 13//24
f 19//25 13//25 8//25
f 19//26 5//26 13//26
f 20//27 15//27 10//27
f 20//15 1//15 15//15
f 20//28 10//28 16//28
f 20//29 16//29 12//29
f 20//30 12//30 1//30
f 22//31 2//31 17//31
f 22//32 17//32 21//32
f 23//33 17//33 14//33
f 24//34 19//34 8//34
f 24//35 14//35 5//35
f 24//36 5//36 19//36
f 24//37 23//37 14//37
f 24//38 8//38 23//38
f 25//39 8//39 3//39
f 26//40 3//40 2//40
f 26//41 2//41 22//41
f 26//42 22//42 21//42
f 26//43 21//43 25//43
f 27//44 21//44 17//44
f 27//45 17//45 23//45
f 27//46 23//46 8//46
f 28//43 26//43 25//43
f 28//39 25//39 3//39
f 28//47 3//47 26//47
f 29//48 25//48 21//48
f 29//49 21//49 27//49
f 29//46 27//46 8//46
f 29//39 8//39 25//39
