# Blender v3.6.3 OBJ File: 'mouth_cup.blend'
# www.blender.org
mtllib mouth_cup004.mtl
o mouth_cup004_mouth_cup004.001
v 0.239956 0.721830 0.192303
v 0.277714 0.580236 0.163984
v 0.279753 0.645168 0.158920
v 0.154999 0.769028 0.145105
v 0.145560 0.476401 0.192303
v 0.268274 0.599116 0.135665
v 0.239956 0.721830 0.173424
v 0.277714 0.646313 0.182863
v 0.117241 0.646313 0.192303
v 0.282396 0.596466 0.142220
v 0.185175 0.475358 0.158528
v 0.256926 0.698074 0.176011
v 0.173879 0.759588 0.163984
v 0.192758 0.485841 0.182863
v 0.258835 0.655753 0.192303
v 0.277714 0.599116 0.173424
v 0.281383 0.625373 0.152978
v 0.117241 0.617995 0.163984
v 0.279139 0.579430 0.137660
v 0.255751 0.698752 0.186502
v 0.173879 0.750149 0.192303
v 0.183318 0.476401 0.182863
v 0.154999 0.476401 0.192303
v 0.277714 0.636874 0.182863
v 0.258835 0.561357 0.173424
v 0.127836 0.740024 0.152031
v 0.147769 0.475181 0.172301
v 0.117527 0.551752 0.188946
v 0.257101 0.552899 0.142678
v 0.173879 0.759588 0.182863
v 0.249395 0.580236 0.182863
v 0.116468 0.665658 0.166958
v 0.136120 0.740709 0.182863
v 0.177329 0.474462 0.161949
v 0.116704 0.552269 0.179934
v 0.183318 0.750149 0.192303
v 0.211637 0.570797 0.192303
v 0.126681 0.740709 0.173424
v 0.136120 0.684072 0.192303
v 0.145560 0.769028 0.173424
v 0.249395 0.636874 0.192303
v 0.126681 0.721830 0.182863
v 0.154999 0.759588 0.182863
v 0.154999 0.769028 0.173424
v 0.140084 0.765533 0.150707
vn 0.4166 0.3249 -0.8490
vn 0.4813 0.3976 -0.7812
vn -0.0000 0.0000 1.0000
vn 0.4475 0.3117 -0.8382
vn -0.1764 -0.0630 -0.9823
vn 0.8137 0.5813 0.0000
vn 0.7367 0.4737 -0.4825
vn 0.9235 0.3789 0.0605
vn 0.5026 0.8615 -0.0718
vn 0.4961 0.8682 0.0000
vn 0.4987 0.1425 0.8550
vn 0.9850 -0.0772 0.1543
vn 0.8139 0.2275 -0.5346
vn 0.9950 0.0573 0.0820
vn 0.4395 0.1529 -0.8851
vn 0.9775 -0.2027 0.0591
vn 0.8305 0.5541 0.0572
vn 0.5562 0.1766 0.8121
vn 0.9214 0.3805 0.0785
vn 0.7046 -0.7046 0.0840
vn 0.3015 -0.3015 0.9045
vn 0.9877 -0.0379 0.1514
vn 0.4472 0.0000 0.8944
vn 0.9925 0.0000 0.1218
vn 0.9919 -0.0123 0.1265
vn 0.7442 -0.6202 0.2481
vn 0.6667 -0.3333 0.6667
vn 0.4364 -0.2182 0.8729
vn -0.1823 -0.0636 -0.9812
vn -0.2344 -0.0746 -0.9693
vn -0.3422 -0.1274 -0.9310
vn -0.2118 -0.0353 0.9767
vn -0.0759 -0.1316 -0.9884
vn -0.0628 -0.1349 -0.9889
vn 0.7379 -0.6723 0.0596
vn 0.7735 -0.6309 0.0612
vn 0.7496 -0.6523 0.1117
vn 0.4472 0.8944 0.0000
vn 0.2782 -0.1669 0.9459
vn 0.3123 -0.1562 0.9370
vn 0.4016 -0.2410 0.8835
vn -0.8411 0.0201 -0.5405
vn 0.0000 -0.9980 0.0638
vn -0.0031 -0.9982 0.0605
vn 0.0281 -0.9960 0.0843
vn -0.2965 -0.5034 -0.8116
vn 0.1360 -0.9893 0.0528
vn -0.9273 -0.3657 -0.0801
vn -0.9362 -0.3453 0.0657
vn -0.6289 -0.1785 -0.7567
vn -0.9968 -0.0112 -0.0797
vn -0.9959 -0.0062 0.0907
vn -0.9995 0.0015 0.0317
vn 0.0000 0.7071 0.7071
vn 0.4082 0.8165 0.4083
vn -0.9846 0.1233 0.1241
vn -0.9885 0.1395 -0.0579
vn -0.2765 0.1580 0.9479
vn -0.6396 0.4264 0.6396
vn 0.2765 -0.1580 0.9479
vn -0.9370 0.1562 0.3123
vn -0.6667 0.3333 0.6667
vn -0.3123 0.1562 0.9370
vn -0.4083 0.4083 0.8165
vn -0.3015 0.3015 0.9045
vn 0.0000 1.0000 0.0000
vn -0.2578 0.9624 -0.0859
vn -0.3756 0.1328 -0.9172
vn -0.9010 0.4294 -0.0624
vn -0.8266 0.5511 0.1145
usemtl Material004.002
s off
f 6//1 4//1 3//1
f 7//2 3//2 4//2
f 9//3 5//3 1//3
f 10//4 6//4 3//4
f 11//5 4//5 6//5
f 12//6 7//6 1//6
f 12//7 3//7 7//7
f 12//8 8//8 3//8
f 13//9 7//9 4//9
f 13//10 1//10 7//10
f 15//11 8//11 1//11
f 15//3 1//3 5//3
f 16//12 2//12 10//12
f 17//13 10//13 3//13
f 17//14 3//14 8//14
f 19//15 6//15 10//15
f 19//16 10//16 2//16
f 20//17 12//17 1//17
f 20//18 1//18 8//18
f 20//19 8//19 12//19
f 21//3 9//3 1//3
f 22//20 11//20 14//20
f 23//3 15//3 5//3
f 23//21 22//21 14//21
f 24//22 16//22 10//22
f 24//23 8//23 15//23
f 24//24 17//24 8//24
f 24//25 10//25 17//25
f 25//26 14//26 2//26
f 25//27 2//27 16//27
f 25//28 16//28 24//28
f 26//29 4//29 11//29
f 26//30 11//30 18//30
f 27//31 18//31 11//31
f 28//32 5//32 9//32
f 29//33 11//33 6//33
f 29//34 6//34 19//34
f 29//35 14//35 11//35
f 29//36 19//36 2//36
f 29//37 2//37 14//37
f 30//10 1//10 13//10
f 30//38 13//38 4//38
f 31//39 23//39 14//39
f 31//40 24//40 15//40
f 31//28 25//28 24//28
f 31//41 14//41 25//41
f 32//42 26//42 18//42
f 34//43 23//43 5//43
f 34//44 5//44 27//44
f 34//45 22//45 23//45
f 34//46 27//46 11//46
f 34//47 11//47 22//47
f 35//48 27//48 5//48
f 35//49 5//49 28//49
f 35//50 18//50 27//50
f 35//51 32//51 18//51
f 35//52 28//52 9//52
f 35//53 9//53 32//53
f 36//54 30//54 21//54
f 36//3 21//3 1//3
f 36//55 1//55 30//55
f 37//3 15//3 23//3
f 37//39 23//39 31//39
f 38//56 32//56 9//56
f 38//57 26//57 32//57
f 39//3 9//3 21//3
f 39//58 21//58 33//58
f 40//54 21//54 30//54
f 40//59 38//59 33//59
f 41//60 37//60 31//60
f 41//40 31//40 15//40
f 41//3 15//3 37//3
f 42//61 38//61 9//61
f 42//62 33//62 38//62
f 42//63 39//63 33//63
f 42//63 9//63 39//63
f 43//64 40//64 33//64
f 43//65 33//65 21//65
f 43//54 21//54 40//54
f 44//54 40//54 30//54
f 44//38 30//38 4//38
f 44//66 4//66 40//66
f 45//67 40//67 4//67
f 45//68 4//68 26//68
f 45//69 26//69 38//69
f 45//70 38//70 40//70
