# Blender v3.6.3 OBJ File: 'mouth_cup.blend'
# www.blender.org
mtllib mouth_cup006.mtl
o mouth_cup006_mouth_cup006.001
v 0.032285 0.504720 0.192303
v 0.051652 0.485559 0.186587
v -0.001502 0.621204 0.103110
v -0.118748 0.504720 0.060149
v -0.080990 0.419764 0.163984
v -0.090429 0.485841 0.060149
v 0.022845 0.617995 0.154544
v -0.014811 0.400825 0.182474
v 0.051164 0.495280 0.163984
v -0.093297 0.506398 0.061157
v -0.137243 0.447860 0.060014
v 0.053150 0.503573 0.184743
v 0.013406 0.561357 0.173424
v -0.033792 0.617995 0.107347
v 0.042123 0.447852 0.187631
v -0.043232 0.429203 0.182863
v 0.003966 0.599116 0.097907
v -0.033792 0.617995 0.097907
v -0.137627 0.457522 0.088467
v -0.112144 0.421428 0.110044
v -0.014913 0.400884 0.163984
v 0.022845 0.608555 0.116786
v -0.005473 0.608555 0.145105
v 0.013406 0.617995 0.154544
v 0.013406 0.466962 0.192303
v 0.041238 0.448401 0.179317
v -0.043232 0.419764 0.182863
v -0.071550 0.448082 0.163984
v -0.005473 0.495280 0.182863
v -0.137627 0.466961 0.060149
v -0.118748 0.504720 0.069588
v -0.105232 0.417410 0.131802
v -0.137627 0.448082 0.088467
v -0.099869 0.466961 0.060149
v -0.099869 0.419764 0.107347
v 0.051164 0.504720 0.163984
v 0.013406 0.599116 0.107347
v 0.016971 0.621442 0.122376
v -0.118748 0.457522 0.116786
v -0.023654 0.400481 0.180203
v -0.080990 0.429203 0.163984
v -0.005473 0.561357 0.163984
v 0.013406 0.523599 0.182863
v -0.014913 0.514159 0.173424
v -0.137627 0.466961 0.079028
v -0.124901 0.451682 0.062311
v -0.043232 0.589676 0.116786
v -0.109309 0.485841 0.107347
v -0.080990 0.476401 0.145105
v -0.109309 0.438643 0.135665
v -0.052671 0.448082 0.173424
v -0.062111 0.542478 0.126226
v -0.014913 0.608555 0.135665
v -0.099869 0.438643 0.145105
v -0.099869 0.476401 0.126226
vn 0.0360 0.0539 -0.9979
vn 0.0013 0.0019 -1.0000
vn 0.3380 0.3228 0.8840
vn 0.3431 0.0673 0.9369
vn 0.9943 -0.0888 -0.0596
vn -0.0000 0.3162 0.9487
vn 0.2497 -0.0363 0.9676
vn 0.5856 -0.2287 -0.7777
vn 0.2795 0.0859 -0.9563
vn 0.0177 0.3042 -0.9524
vn 0.1248 0.2497 -0.9603
vn 0.1287 0.2575 -0.9577
vn -0.0989 0.9951 0.0000
vn -0.8000 0.6000 0.0000
vn 0.6372 -0.7707 -0.0060
vn 0.9687 0.2407 -0.0602
vn 0.5850 0.3203 -0.7451
vn -0.5773 0.5773 0.5774
vn 0.1209 -0.0605 0.9908
vn 0.0489 -0.1672 0.9847
vn -0.2408 0.1204 0.9631
vn 0.9614 -0.2448 -0.1260
vn 0.9619 -0.2464 -0.1186
vn 0.6601 -0.7416 -0.1192
vn -0.4472 0.0000 0.8944
vn -0.1644 0.0000 0.9864
vn -0.0658 -0.1191 0.9907
vn -0.5460 0.3161 0.7759
vn -0.2765 0.1580 0.9479
vn -0.0136 0.0068 -0.9999
vn -0.8944 0.4472 0.0000
vn -0.7210 -0.6929 -0.0043
vn -0.9997 -0.0200 -0.0134
vn -1.0000 0.0000 0.0000
vn -0.7663 -0.6297 0.1272
vn 0.0048 -0.0024 -1.0000
vn 0.5524 -0.4206 -0.7197
vn 0.5785 -0.2893 -0.7626
vn 0.5733 -0.3618 -0.7352
vn -0.2050 -0.9041 -0.3749
vn 0.2648 -0.7229 -0.6382
vn -0.1611 -0.9784 -0.1295
vn -0.1356 -0.9829 -0.1243
vn 0.9703 0.2282 -0.0802
vn 0.9955 0.0000 -0.0952
vn 0.8575 0.0000 -0.5145
vn 0.7469 -0.0879 -0.6591
vn 0.7013 -0.1275 -0.7013
vn 0.7071 -0.0000 -0.7071
vn 0.6076 0.5326 -0.5892
vn 0.8847 0.4523 -0.1131
vn 0.0000 0.9943 0.1066
vn -0.0891 0.9933 0.0732
vn -0.0956 0.9908 0.0956
vn -0.3873 -0.5001 0.7746
vn -0.2203 -0.3493 0.9108
vn -0.3865 -0.8519 0.3534
vn -0.1438 -0.9843 -0.1020
vn 0.0398 -0.9992 -0.0034
vn -0.4364 0.2182 0.8729
vn -0.4286 0.2857 0.8571
vn -0.5278 0.3079 0.7916
vn -0.2822 0.1881 0.9407
vn -0.2357 0.2357 0.9428
vn -0.3419 0.2279 0.9117
vn -0.4016 0.2410 0.8835
vn -0.4466 0.2605 0.8560
vn -0.4319 0.2592 0.8639
vn -0.7737 0.4480 0.4480
vn -0.8026 0.4873 0.3440
vn 0.3352 -0.6463 -0.6855
vn 0.3292 -0.6528 -0.6823
vn 0.3269 -0.6347 -0.7002
vn -0.7379 0.4216 0.5270
vn -0.7581 0.4332 0.4874
vn -0.7553 0.4196 0.5035
vn -0.5618 0.3210 0.7624
vn -0.7634 -0.2546 0.5937
vn -0.7071 0.0000 0.7071
vn -0.8519 -0.2475 0.4616
vn -0.8242 0.1374 0.5494
vn -0.8575 0.0000 0.5145
vn -0.4333 0.2476 0.8666
vn -0.4111 0.2349 0.8808
vn -0.5774 0.5774 0.5773
vn -0.6810 0.4256 0.5959
vn -0.6772 0.3950 0.6208
vn -0.5963 0.2981 0.7454
vn -0.6556 0.3746 0.6556
vn -0.6667 0.3333 0.6667
vn -0.6965 0.3980 0.5970
usemtl Material006.002
s off
f 10//1 6//1 4//1
f 11//2 4//2 6//2
f 12//3 7//3 1//3
f 12//4 1//4 2//4
f 12//5 2//5 9//5
f 13//6 1//6 7//6
f 15//7 2//7 1//7
f 17//8 9//8 6//8
f 17//9 6//9 10//9
f 18//10 10//10 4//10
f 18//11 17//11 10//11
f 18//12 3//12 17//12
f 18//13 14//13 3//13
f 18//14 4//14 14//14
f 21//15 15//15 8//15
f 22//16 7//16 12//16
f 22//17 17//17 3//17
f 24//18 14//18 23//18
f 24//6 13//6 7//6
f 25//19 15//19 1//19
f 25//20 8//20 15//20
f 25//21 1//21 16//21
f 26//22 9//22 2//22
f 26//23 2//23 15//23
f 26//24 15//24 21//24
f 27//25 16//25 5//25
f 27//26 25//26 16//26
f 27//27 8//27 25//27
f 28//28 24//28 23//28
f 29//29 16//29 1//29
f 30//30 4//30 11//30
f 31//14 14//14 4//14
f 31//31 4//31 30//31
f 33//32 11//32 20//32
f 33//33 30//33 11//33
f 33//34 19//34 30//34
f 33//35 20//35 32//35
f 34//36 11//36 6//36
f 34//37 26//37 21//37
f 34//38 6//38 9//38
f 34//39 9//39 26//39
f 35//40 20//40 11//40
f 35//41 11//41 21//41
f 35//42 32//42 20//42
f 35//43 21//43 32//43
f 36//44 22//44 12//44
f 36//45 12//45 9//45
f 36//46 9//46 22//46
f 37//47 22//47 9//47
f 37//48 9//48 17//48
f 37//49 17//49 22//49
f 38//50 22//50 3//50
f 38//51 7//51 22//51
f 38//52 24//52 7//52
f 38//53 3//53 14//53
f 38//54 14//54 24//54
f 40//55 27//55 5//55
f 40//56 8//56 27//56
f 40//57 5//57 32//57
f 40//58 32//58 21//58
f 40//59 21//59 8//59
f 41//25 5//25 16//25
f 41//60 16//60 28//60
f 42//61 13//61 24//61
f 42//62 24//62 28//62
f 43//63 29//63 1//63
f 43//64 1//64 13//64
f 43//65 13//65 29//65
f 44//66 29//66 13//66
f 44//67 42//67 28//67
f 44//68 13//68 42//68
f 45//69 19//69 14//69
f 45//70 14//70 31//70
f 45//31 31//31 30//31
f 45//34 30//34 19//34
f 46//71 34//71 21//71
f 46//72 21//72 11//72
f 46//73 11//73 34//73
f 47//74 14//74 39//74
f 48//74 39//74 14//74
f 48//75 14//75 19//75
f 48//76 19//76 39//76
f 49//77 28//77 23//77
f 50//78 32//78 5//78
f 50//79 5//79 41//79
f 50//80 33//80 32//80
f 50//81 39//81 19//81
f 50//82 19//82 33//82
f 51//83 44//83 28//83
f 51//60 28//60 16//60
f 51//84 16//84 29//84
f 51//84 29//84 44//84
f 53//85 23//85 14//85
f 53//86 14//86 47//86
f 53//87 47//87 52//87
f 54//79 50//79 41//79
f 54//88 41//88 28//88
f 54//88 28//88 49//88
f 55//89 49//89 23//89
f 55//89 53//89 52//89
f 55//89 23//89 53//89
f 55//90 54//90 49//90
f 55//90 39//90 50//90
f 55//90 50//90 54//90
f 55//91 52//91 47//91
f 55//91 47//91 39//91
