# Blender v3.6.3 OBJ File: 'mouth_cup.blend'
# www.blender.org
mtllib mouth_cup021.mtl
o mouth_cup021_mouth_cup021.001
v 0.192758 0.429203 -0.119203
v 0.202197 0.363126 -0.128643
v 0.203671 0.475567 -0.149585
v 0.116875 0.438854 -0.183886
v 0.070043 0.278170 -0.147522
v 0.154999 0.429203 -0.185280
v 0.192758 0.476401 -0.138082
v 0.208355 0.425706 -0.125015
v 0.139693 0.281557 -0.123083
v 0.202197 0.419764 -0.156962
v 0.154999 0.438643 -0.185280
v 0.070043 0.297049 -0.185280
v 0.195565 0.474823 -0.153547
v 0.070043 0.325368 -0.156962
v 0.196939 0.366162 -0.114220
v 0.202197 0.476401 -0.138082
v 0.107802 0.297049 -0.128643
v 0.192758 0.438643 -0.166401
v 0.088922 0.278170 -0.175841
v 0.117241 0.410324 -0.156962
v 0.067574 0.279595 -0.170507
v 0.069560 0.353966 -0.183441
v 0.145560 0.278170 -0.138082
v 0.070043 0.287610 -0.147522
v 0.154999 0.363126 -0.119203
v 0.192758 0.429203 -0.166401
v 0.079483 0.297049 -0.185280
v 0.119344 0.437481 -0.174319
v 0.111914 0.275843 -0.134399
v 0.136120 0.278170 -0.147522
v 0.154999 0.353687 -0.119203
v 0.164439 0.372566 -0.166401
v 0.072164 0.352515 -0.174384
v 0.183318 0.363126 -0.147522
v 0.107802 0.278170 -0.166401
v 0.145560 0.410324 -0.185280
v 0.117241 0.325368 -0.175841
v 0.183318 0.382005 -0.156962
vn 0.9811 -0.0865 -0.1730
vn 0.9820 -0.0009 -0.1891
vn 0.0000 -0.0000 -1.0000
vn -0.0364 0.0219 -0.9991
vn -0.0382 0.9934 -0.1083
vn -0.3591 0.9197 -0.1590
vn -0.0233 0.6738 -0.7385
vn 0.3929 0.3168 -0.8633
vn 0.3666 0.0975 0.9253
vn 0.9258 -0.1120 0.3611
vn 0.0000 0.3714 0.9285
vn 0.3891 0.2740 0.8795
vn 0.9821 0.1490 0.1150
vn 0.0000 0.9974 -0.0723
vn -0.3030 -0.2990 0.9049
vn 0.4472 -0.0000 -0.8944
vn 0.4312 0.2653 -0.8624
vn 0.7669 0.0642 -0.6386
vn -0.4867 0.3244 0.8111
vn -0.0798 -0.9954 -0.0532
vn -0.2302 -0.6095 -0.7586
vn -0.0662 0.0317 -0.9973
vn -0.9977 0.0367 0.0578
vn -0.9857 -0.0029 -0.1682
vn 0.7351 -0.5403 0.4095
vn 0.7471 -0.5410 0.3863
vn -0.4790 0.2129 0.8516
vn -0.4472 0.0000 0.8944
vn -0.9943 0.0000 0.1068
vn -0.9949 0.0246 0.0983
vn -0.4756 0.2180 0.8522
vn -0.4891 0.2717 0.8288
vn -0.4842 0.2767 0.8301
vn -0.1227 0.0701 0.9900
vn 0.7071 0.0000 -0.7071
vn 0.0000 -0.4472 -0.8944
vn -0.5784 0.4707 0.6663
vn -0.5483 0.7962 0.2558
vn -0.8371 0.4681 0.2832
vn -0.7316 0.4065 0.5473
vn 0.0944 -0.9625 0.2543
vn -0.2993 -0.3229 0.8979
vn -0.0459 -0.9985 -0.0306
vn 0.6581 -0.3656 -0.6581
vn 0.0621 -0.9961 -0.0621
vn -0.1961 0.0000 0.9806
vn -0.1788 -0.0150 0.9838
vn -0.1090 -0.0303 0.9936
vn -0.1180 0.0000 0.9930
vn 0.4364 -0.2182 -0.8729
vn -0.8305 0.4610 0.3126
vn -0.9138 0.2675 0.3055
vn -0.7334 0.4068 0.5446
vn 0.6667 -0.3333 -0.6667
vn 0.0528 -0.9955 -0.0792
vn 0.0387 -0.9962 -0.0774
vn 0.5263 -0.3158 -0.7895
vn 0.4319 -0.2592 -0.8639
vn 0.4016 -0.2410 -0.8835
vn 0.4111 -0.2349 -0.8808
vn 0.3952 -0.2305 -0.8892
vn 0.5345 -0.2673 -0.8018
vn 0.6271 -0.3484 -0.6967
vn 0.5466 -0.3188 -0.7743
usemtl Material021.002
s off
f 10//1 8//1 2//1
f 10//2 3//2 8//2
f 12//3 11//3 6//3
f 12//4 4//4 11//4
f 13//5 7//5 3//5
f 13//6 4//6 7//6
f 13//7 11//7 4//7
f 13//8 3//8 11//8
f 15//9 8//9 1//9
f 15//10 2//10 8//10
f 16//11 7//11 1//11
f 16//12 1//12 8//12
f 16//13 8//13 3//13
f 16//14 3//14 7//14
f 17//15 5//15 9//15
f 18//16 6//16 11//16
f 18//17 11//17 3//17
f 18//18 3//18 10//18
f 20//19 1//19 7//19
f 21//20 19//20 5//20
f 21//21 12//21 19//21
f 22//22 4//22 12//22
f 22//23 21//23 14//23
f 22//24 12//24 21//24
f 23//25 15//25 9//25
f 23//26 2//26 15//26
f 24//27 17//27 14//27
f 24//28 5//28 17//28
f 24//29 21//29 5//29
f 24//30 14//30 21//30
f 25//31 14//31 17//31
f 25//32 20//32 14//32
f 25//33 1//33 20//33
f 25//34 15//34 1//34
f 26//35 18//35 10//35
f 26//16 6//16 18//16
f 27//36 19//36 12//36
f 27//3 12//3 6//3
f 28//37 20//37 7//37
f 28//38 7//38 4//38
f 28//39 4//39 22//39
f 28//40 14//40 20//40
f 29//41 23//41 9//41
f 29//42 9//42 5//42
f 29//43 5//43 19//43
f 30//44 2//44 23//44
f 30//45 23//45 29//45
f 31//46 25//46 17//46
f 31//47 17//47 9//47
f 31//48 9//48 15//48
f 31//49 15//49 25//49
f 32//50 6//50 26//50
f 33//51 28//51 22//51
f 33//52 22//52 14//52
f 33//53 14//53 28//53
f 34//54 10//54 2//54
f 34//44 2//44 30//44
f 35//55 30//55 29//55
f 35//56 29//56 19//56
f 35//57 32//57 30//57
f 35//58 19//58 32//58
f 36//3 27//3 6//3
f 36//50 6//50 32//50
f 37//58 32//58 19//58
f 37//59 19//59 27//59
f 37//60 36//60 32//60
f 37//61 27//61 36//61
f 38//54 10//54 34//54
f 38//62 32//62 26//62
f 38//62 26//62 10//62
f 38//63 34//63 30//63
f 38//64 30//64 32//64
