# Blender v3.6.3 OBJ File: 'mouth_cup.blend'
# www.blender.org
mtllib mouth_cup027.mtl
o mouth_cup027_mouth_cup027.001
v 0.003966 0.627434 -0.081445
v 0.060604 0.551918 -0.156962
v 0.063058 0.635457 -0.161099
v 0.051164 0.580236 -0.185280
v -0.096782 0.502937 -0.079539
v 0.061337 0.532615 -0.182489
v 0.060604 0.617995 -0.138082
v -0.052671 0.523599 -0.081445
v -0.024352 0.627434 -0.109764
v 0.060604 0.580236 -0.185280
v -0.043232 0.504720 -0.156962
v 0.056141 0.639502 -0.144393
v 0.051164 0.533038 -0.156962
v -0.055616 0.576487 -0.077436
v 0.041725 0.636874 -0.166401
v 0.013406 0.504720 -0.185280
v -0.090429 0.514159 -0.109764
v -0.002139 0.640450 -0.085227
v 0.058982 0.534016 -0.172642
v 0.013406 0.504720 -0.147522
v -0.093603 0.510542 -0.077577
v -0.024352 0.523599 -0.166401
v 0.060604 0.617995 -0.175841
v -0.093383 0.500975 -0.086881
v -0.080990 0.551918 -0.090884
v -0.006112 0.637248 -0.081840
v 0.003966 0.636874 -0.138082
v -0.071550 0.504720 -0.081445
v 0.024932 0.503515 -0.177339
v 0.032285 0.551918 -0.185280
v -0.043232 0.514159 -0.156962
v 0.051164 0.617995 -0.175841
v -0.090429 0.504720 -0.109764
v -0.062111 0.580236 -0.090884
v -0.043232 0.599116 -0.109764
v -0.080990 0.551918 -0.081445
v -0.099869 0.514159 -0.090884
v -0.014913 0.636874 -0.109764
v 0.022845 0.504720 -0.156962
v 0.022845 0.570797 -0.175841
v 0.013406 0.514159 -0.185280
v -0.043232 0.570797 -0.128643
v 0.003966 0.617995 -0.147522
v -0.080990 0.533038 -0.109764
v -0.024352 0.617995 -0.119203
v -0.033792 0.570797 -0.138082
v -0.033792 0.551918 -0.147522
vn 0.9984 -0.0269 0.0490
vn 0.6754 -0.2026 0.7091
vn 0.9959 -0.0249 0.0873
vn 0.9928 0.0083 -0.1197
vn 0.9092 0.2793 0.3088
vn 0.6942 0.3315 0.6389
vn 0.5963 -0.2981 0.7454
vn 0.5768 -0.3146 0.7538
vn 0.1248 -0.0681 0.9898
vn 0.1120 0.9754 -0.1898
vn 0.0910 -0.0569 -0.9942
vn 0.0000 0.0000 -1.0000
vn 0.6310 0.4743 0.6139
vn 0.9127 -0.3128 0.2627
vn 0.8252 -0.4126 0.3857
vn 0.5405 -0.4935 0.6815
vn 0.1155 -0.0687 0.9909
vn -0.4472 0.0000 -0.8944
vn 0.0000 0.2425 -0.9701
vn 0.2292 0.6089 -0.7594
vn 0.9715 0.0575 -0.2298
vn 0.0174 0.0581 0.9982
vn 0.3723 0.4157 0.8298
vn -0.0591 0.9955 -0.0742
vn -0.0598 0.9950 -0.0797
vn 0.5232 -0.5232 0.6727
vn 0.1271 -0.9783 0.1634
vn 0.0895 -0.9511 0.2956
vn 0.0922 -0.2848 0.9542
vn 0.1362 -0.1362 0.9813
vn 0.4002 -0.6201 -0.6748
vn -0.0426 -0.9956 -0.0837
vn -0.0437 -0.9952 -0.0875
vn -0.7071 0.0000 -0.7071
vn 0.0000 0.4472 -0.8944
vn -0.4016 0.2410 -0.8835
vn -0.3419 0.2279 -0.9117
vn -0.1816 -0.9665 -0.1816
vn -0.7748 -0.6003 -0.1983
vn -0.8018 0.5345 -0.2673
vn -0.7121 0.6626 0.2323
vn -0.3267 0.1862 0.9266
vn -0.8321 0.5547 0.0000
vn -0.6162 0.5434 0.5701
vn -0.6762 0.5954 0.4338
vn -0.8944 0.4472 0.0000
vn -0.8528 0.2363 0.4658
vn -0.8302 0.2972 0.4717
vn -0.8682 -0.4501 -0.2090
vn -0.8944 0.0000 -0.4472
vn -0.5348 0.8302 0.1575
vn -0.6915 0.6915 0.2087
vn -0.6396 0.6396 -0.4264
vn -0.1214 0.9893 -0.0810
vn 0.6300 -0.7687 0.1099
vn 0.6736 -0.6920 0.2595
vn 0.6757 -0.6757 0.2948
vn 0.5774 -0.5774 0.5773
vn 0.0806 -0.9935 0.0806
vn 0.0720 -0.9952 0.0662
vn -0.4111 0.2349 -0.8808
vn -0.4196 0.2447 -0.8741
vn -0.3980 0.1990 -0.8955
vn -0.5571 0.3714 -0.7428
vn -0.5466 0.3188 -0.7743
vn -0.7778 0.4444 -0.4444
vn -0.8165 0.4082 -0.4082
vn -0.6667 0.3333 -0.6667
vn -0.7276 0.4851 -0.4851
vn -0.6860 0.5145 -0.5145
vn -0.6772 0.3950 -0.6208
vn -0.6965 0.3980 -0.5970
vn -0.6556 0.3746 -0.6556
vn -0.6163 0.3522 -0.7044
vn -0.5793 0.3310 -0.7448
usemtl Material027.002
s off
f 6//1 3//1 2//1
f 7//2 1//2 2//2
f 7//3 2//3 3//3
f 10//4 3//4 6//4
f 12//5 7//5 3//5
f 12//6 1//6 7//6
f 13//7 2//7 1//7
f 13//8 1//8 8//8
f 14//9 8//9 1//9
f 15//10 12//10 3//10
f 16//11 10//11 6//11
f 16//12 4//12 10//12
f 18//13 1//13 12//13
f 19//14 6//14 2//14
f 19//15 2//15 13//15
f 20//16 13//16 8//16
f 21//17 8//17 14//17
f 22//18 16//18 11//18
f 23//19 10//19 4//19
f 23//20 15//20 3//20
f 23//21 3//21 10//21
f 26//22 14//22 1//22
f 26//23 1//23 18//23
f 27//24 18//24 12//24
f 27//25 12//25 15//25
f 28//26 20//26 8//26
f 28//27 24//27 20//27
f 28//28 5//28 24//28
f 28//29 21//29 5//29
f 28//30 8//30 21//30
f 29//31 16//31 6//31
f 29//32 24//32 11//32
f 29//33 11//33 16//33
f 30//12 4//12 16//12
f 31//18 22//18 11//18
f 31//34 11//34 17//34
f 32//19 23//19 4//19
f 32//35 15//35 23//35
f 32//36 30//36 15//36
f 32//37 4//37 30//37
f 33//34 17//34 11//34
f 33//38 11//38 24//38
f 33//39 24//39 5//39
f 34//40 9//40 25//40
f 34//41 26//41 9//41
f 35//40 25//40 9//40
f 36//42 21//42 14//42
f 36//43 34//43 25//43
f 36//44 14//44 26//44
f 36//45 26//45 34//45
f 37//46 36//46 25//46
f 37//47 5//47 21//47
f 37//48 21//48 36//48
f 37//49 33//49 5//49
f 37//50 17//50 33//50
f 38//51 26//51 18//51
f 38//52 9//52 26//52
f 38//53 27//53 9//53
f 38//54 18//54 27//54
f 39//55 29//55 6//55
f 39//56 6//56 19//56
f 39//57 19//57 13//57
f 39//58 13//58 20//58
f 39//59 20//59 24//59
f 39//60 24//60 29//60
f 40//61 30//61 22//61
f 40//62 22//62 15//62
f 40//36 15//36 30//36
f 41//12 30//12 16//12
f 41//18 16//18 22//18
f 41//63 22//63 30//63
f 43//64 27//64 15//64
f 43//65 15//65 22//65
f 43//65 22//65 31//65
f 44//66 25//66 35//66
f 44//67 37//67 25//67
f 44//67 17//67 37//67
f 44//68 31//68 17//68
f 45//69 35//69 9//69
f 45//70 9//70 27//70
f 45//71 27//71 42//71
f 45//72 44//72 35//72
f 45//72 42//72 44//72
f 46//73 42//73 27//73
f 46//74 27//74 43//74
f 46//68 44//68 42//68
f 47//74 46//74 43//74
f 47//75 43//75 31//75
f 47//68 31//68 44//68
f 47//68 44//68 46//68
