# Blender v3.6.3 OBJ File: 'mouth_cup.blend'
# www.blender.org
mtllib mouth_cup023.mtl
o mouth_cup023_mouth_cup023.001
v -0.090429 0.372566 -0.138082
v -0.015445 0.306837 -0.182286
v -0.024352 0.372566 -0.166401
v -0.033792 0.372566 -0.194720
v -0.071550 0.297049 -0.185280
v -0.014216 0.372163 -0.186553
v -0.015601 0.372980 -0.178488
v -0.043631 0.305797 -0.138082
v -0.109309 0.372566 -0.166401
v -0.062111 0.297049 -0.194720
v -0.014491 0.306245 -0.189776
v -0.110138 0.342547 -0.137836
v -0.090429 0.372566 -0.175841
v -0.109514 0.372686 -0.138372
v -0.051623 0.298865 -0.156962
v -0.099869 0.344247 -0.175841
v -0.080990 0.353687 -0.185280
v -0.071550 0.297049 -0.156962
v -0.050969 0.298487 -0.187046
v -0.106694 0.342737 -0.160752
v -0.062111 0.325368 -0.194720
v -0.099869 0.353687 -0.175841
vn 0.0213 0.9985 0.0497
vn 0.0583 0.9942 -0.0907
vn 0.9854 -0.0074 0.1699
vn 0.3797 0.2661 0.8860
vn 0.8096 0.0151 0.5868
vn 0.8431 -0.0289 0.5369
vn 0.9918 -0.0104 0.1271
vn 0.3854 0.0435 -0.9217
vn 0.1111 -0.0417 -0.9929
vn 0.0060 0.0042 1.0000
vn -0.0060 0.9999 -0.0119
vn -0.0062 0.9998 -0.0186
vn 0.0060 0.9998 0.0214
vn -0.0050 1.0000 -0.0043
vn -0.0151 0.0181 0.9997
vn -0.9998 0.0206 -0.0074
vn 0.2879 -0.9511 0.1118
vn 0.3390 -0.9205 0.1945
vn -0.6804 -0.2722 -0.6804
vn -0.3015 0.3015 -0.9045
vn -0.4472 0.0000 -0.8944
vn -0.4364 0.2182 -0.8729
vn 0.0000 -1.0000 0.0000
vn 0.0907 -0.9956 0.0227
vn -0.7626 -0.6468 0.0000
vn 0.0862 -0.9465 0.3110
vn -0.3205 -0.5850 0.7450
vn 0.1177 -0.9929 0.0150
vn 0.1992 -0.9741 -0.1068
vn 0.2092 -0.9777 0.0168
vn -0.9823 -0.1143 -0.1486
vn -0.8937 -0.1579 -0.4200
vn -0.8160 -0.4076 -0.4099
vn -0.8181 -0.5608 -0.1276
vn -0.2516 0.1509 -0.9560
vn 0.0000 -0.0000 -1.0000
vn -0.7071 0.0000 -0.7071
usemtl Material023.002
s off
f 7//1 1//1 3//1
f 7//2 6//2 4//2
f 7//3 2//3 6//3
f 8//4 3//4 1//4
f 8//5 7//5 3//5
f 8//6 2//6 7//6
f 11//7 6//7 2//7
f 11//8 4//8 6//8
f 11//9 10//9 4//9
f 12//10 8//10 1//10
f 13//11 9//11 7//11
f 13//12 7//12 4//12
f 14//13 1//13 7//13
f 14//14 7//14 9//14
f 14//15 12//15 1//15
f 14//16 9//16 12//16
f 15//17 11//17 2//17
f 15//18 2//18 8//18
f 16//19 10//19 5//19
f 17//20 13//20 4//20
f 17//21 10//21 16//21
f 17//22 9//22 13//22
f 18//23 5//23 10//23
f 18//24 10//24 15//24
f 18//25 12//25 5//25
f 18//26 15//26 8//26
f 18//27 8//27 12//27
f 19//28 15//28 10//28
f 19//29 10//29 11//29
f 19//30 11//30 15//30
f 20//31 12//31 9//31
f 20//32 9//32 16//32
f 20//33 16//33 5//33
f 20//34 5//34 12//34
f 21//35 17//35 4//35
f 21//36 4//36 10//36
f 21//21 10//21 17//21
f 22//21 17//21 16//21
f 22//37 16//37 9//37
f 22//22 9//22 17//22
