# Blender v3.6.3 OBJ File: 'mouth_cup.blend'
# www.blender.org
mtllib mouth_cup009.mtl
o mouth_cup009_mouth_cup009.001
v 0.072963 0.801161 0.043561
v -0.014913 0.646313 -0.109764
v -0.043232 0.646313 0.041270
v -0.014913 0.636874 -0.109764
v 0.088922 0.778467 -0.081445
v -0.043232 0.646313 -0.034247
v 0.038954 0.713990 -0.102034
v -0.014913 0.589676 -0.081445
v -0.024352 0.636874 -0.100324
v 0.051164 0.816226 0.031830
v 0.051164 0.740709 0.041270
v 0.041725 0.674632 -0.100324
v -0.030066 0.593022 -0.084984
v 0.060604 0.806786 -0.081445
v -0.043232 0.655753 -0.015368
v 0.041725 0.797347 0.041270
v 0.088922 0.778467 -0.072005
v -0.021081 0.640482 0.043437
v 0.041725 0.674632 -0.090885
v -0.018354 0.591695 -0.103599
v -0.037359 0.633483 0.039213
v -0.024352 0.665193 -0.072005
v 0.022845 0.712390 -0.100324
v 0.088922 0.806786 -0.081445
v -0.043232 0.655753 0.012951
v 0.051164 0.816226 -0.034247
v 0.065602 0.808535 0.041270
v -0.005473 0.646313 0.041270
v -0.024352 0.684072 0.041270
v -0.005473 0.599116 -0.090884
v -0.010648 0.602152 -0.105248
v -0.023294 0.589056 -0.099668
v -0.005473 0.693511 -0.081445
v 0.088922 0.806786 -0.062566
v 0.032285 0.787907 -0.005928
v 0.003966 0.731270 -0.043687
v 0.070043 0.816226 -0.062566
v -0.005473 0.721830 0.012951
v -0.002756 0.635305 -0.107188
v -0.005473 0.674632 -0.100324
v 0.088922 0.787907 -0.062566
v 0.073984 0.803696 0.042245
v -0.005473 0.721830 -0.015368
v -0.014913 0.693511 -0.053126
v 0.041725 0.797347 -0.043687
v 0.060604 0.816226 -0.062566
v 0.032285 0.787907 0.003511
v 0.032285 0.759588 -0.081445
v -0.024352 0.684072 -0.034247
v 0.051164 0.797347 -0.072005
v 0.003966 0.721830 -0.062566
vn 0.1420 0.0000 -0.9899
vn -0.7071 0.0000 -0.7071
vn 0.3943 -0.0122 -0.9189
vn 0.1836 -0.0298 -0.9825
vn -0.9708 -0.2398 0.0000
vn -0.9601 0.0278 -0.2783
vn -1.0000 -0.0000 0.0000
vn 0.9205 -0.3393 0.1937
vn 0.9104 -0.4138 0.0000
vn 0.1623 -0.0957 0.9821
vn 0.8890 -0.4318 0.1524
vn -0.2695 -0.9202 0.2839
vn -0.9006 -0.4260 0.0859
vn -0.1533 -0.2244 0.9624
vn 0.2830 -0.8835 0.3734
vn -0.9045 0.3015 -0.3015
vn -0.1262 0.2429 -0.9618
vn -0.1238 0.2093 -0.9700
vn -0.3015 0.3015 -0.9045
vn 0.3810 -0.0000 -0.9246
vn 0.0000 0.2166 -0.9763
vn 1.0000 0.0000 0.0000
vn -0.0966 0.2061 0.9737
vn -0.2482 0.5296 0.8111
vn 0.3699 -0.8541 0.3657
vn 0.1752 -0.1051 0.9789
vn 0.8415 -0.5049 0.1923
vn -0.0861 0.0430 0.9954
vn -0.8847 0.4423 0.1474
vn -0.8550 0.4987 0.1425
vn -0.0762 0.0438 0.9961
vn -0.0786 0.0459 0.9958
vn 0.8480 -0.5300 0.0000
vn 0.6098 -0.7751 -0.1654
vn 0.7876 -0.5803 0.2073
vn 0.8332 -0.5208 0.1860
vn -0.0319 -0.1328 -0.9906
vn 0.7144 -0.5866 -0.3814
vn 0.7604 -0.5233 -0.3846
vn 0.3763 -0.9155 -0.1419
vn -0.2456 -0.9584 0.1456
vn -0.9104 -0.0258 -0.4129
vn -0.7069 -0.0253 -0.7069
vn -0.6006 -0.0630 -0.7971
vn -0.8165 0.4082 -0.4083
vn -0.8165 0.4082 -0.4082
vn -0.8682 0.4961 0.0000
vn -0.8321 0.5547 0.0000
vn 0.0000 0.8944 -0.4472
vn 0.0000 1.0000 0.0000
vn 0.4472 0.8944 0.0000
vn 0.4246 0.9014 0.0849
vn 0.4456 0.8912 0.0851
vn -0.8619 0.4990 0.0907
vn -0.8653 0.4945 0.0824
vn 0.1934 -0.1031 -0.9757
vn 0.2001 -0.0555 -0.9782
vn 0.2508 -0.1160 -0.9611
vn -0.6810 0.4256 -0.5959
vn 0.4894 0.8668 0.0953
vn 0.1339 0.4135 0.9006
vn 0.9900 0.0000 0.1411
vn 0.9411 -0.2827 0.1855
vn 0.9730 -0.1633 0.1633
vn -0.8615 0.5026 -0.0718
vn -0.8427 0.4815 -0.2408
vn -0.8018 0.5345 -0.2673
vn -0.8615 0.5026 0.0718
vn -0.8320 0.5547 0.0000
vn -0.7778 0.4444 -0.4444
vn -0.7352 0.4411 -0.5147
vn -0.8581 0.4767 -0.1907
vn -0.8616 0.4924 -0.1231
vn -0.8729 0.4364 -0.2182
vn -0.8301 0.4842 -0.2767
vn -0.8111 0.4867 -0.3244
vn -0.8293 0.4739 -0.2962
vn -0.8393 0.4663 -0.2797
vn -0.8393 0.4663 -0.2798
usemtl Material009.002
s off
f 7//1 4//1 2//1
f 9//2 2//2 4//2
f 12//3 7//3 5//3
f 12//4 4//4 7//4
f 13//5 3//5 6//5
f 13//6 6//6 9//6
f 15//7 6//7 3//7
f 17//8 1//8 11//8
f 17//9 12//9 5//9
f 18//10 11//10 1//10
f 19//11 17//11 11//11
f 19//9 12//9 17//9
f 21//12 13//12 8//12
f 21//13 3//13 13//13
f 21//14 18//14 3//14
f 21//15 8//15 18//15
f 22//16 9//16 6//16
f 23//17 14//17 7//17
f 23//18 7//18 2//18
f 23//19 2//19 14//19
f 24//20 5//20 7//20
f 24//21 7//21 14//21
f 24//22 17//22 5//22
f 25//7 15//7 3//7
f 27//23 16//23 1//23
f 27//24 10//24 16//24
f 28//25 18//25 8//25
f 28//26 11//26 18//26
f 28//27 19//27 11//27
f 29//28 3//28 18//28
f 29//29 25//29 3//29
f 29//30 16//30 10//30
f 29//31 18//31 1//31
f 29//32 1//32 16//32
f 30//33 12//33 19//33
f 30//34 8//34 20//34
f 30//35 28//35 8//35
f 30//36 19//36 28//36
f 31//37 20//37 4//37
f 31//38 30//38 20//38
f 31//39 12//39 30//39
f 32//40 20//40 8//40
f 32//41 8//41 13//41
f 32//42 13//42 9//42
f 32//43 9//43 4//43
f 32//44 4//44 20//44
f 33//45 2//45 9//45
f 33//46 9//46 22//46
f 34//22 17//22 24//22
f 35//47 15//47 25//47
f 35//48 10//48 26//48
f 37//49 24//49 14//49
f 37//50 26//50 10//50
f 37//51 34//51 24//51
f 37//52 10//52 27//52
f 37//53 27//53 34//53
f 38//54 29//54 10//54
f 38//55 25//55 29//55
f 38//47 35//47 25//47
f 39//56 31//56 4//56
f 39//57 4//57 12//57
f 39//58 12//58 31//58
f 40//59 14//59 2//59
f 40//46 2//46 33//46
f 41//22 17//22 34//22
f 42//60 34//60 27//60
f 42//61 27//61 1//61
f 42//62 41//62 34//62
f 42//63 1//63 17//63
f 42//64 17//64 41//64
f 43//65 35//65 26//65
f 43//47 15//47 35//47
f 45//66 44//66 36//66
f 46//49 37//49 14//49
f 46//67 14//67 26//67
f 46//50 26//50 37//50
f 47//68 38//68 10//68
f 47//69 10//69 35//69
f 47//47 35//47 38//47
f 48//70 40//70 33//70
f 48//71 14//71 40//71
f 49//72 36//72 44//72
f 49//73 45//73 36//73
f 49//73 26//73 45//73
f 49//73 43//73 26//73
f 49//73 15//73 43//73
f 49//74 6//74 15//74
f 49//74 44//74 22//74
f 49//74 22//74 6//74
f 50//75 48//75 45//75
f 50//76 14//76 48//76
f 50//67 45//67 26//67
f 50//67 26//67 14//67
f 51//77 48//77 33//77
f 51//66 44//66 45//66
f 51//75 45//75 48//75
f 51//78 33//78 22//78
f 51//79 22//79 44//79
