# Blender v3.6.3 OBJ File: 'mouth_cup.blend'
# www.blender.org
mtllib mouth_cup002.mtl
o mouth_cup002_mouth_cup002.001
v 0.145560 0.712390 -0.156962
v 0.145896 0.504534 -0.177105
v 0.145560 0.665193 -0.194720
v 0.126681 0.712390 -0.185280
v -0.024352 0.372566 -0.166401
v 0.147468 0.711289 -0.178017
v 0.070608 0.306171 -0.167614
v -0.016079 0.505406 -0.149171
v -0.024352 0.391445 -0.194720
v 0.145560 0.693511 -0.156962
v 0.060130 0.637153 -0.148193
v -0.014913 0.476401 -0.147522
v 0.136120 0.665193 -0.194720
v -0.014491 0.306245 -0.189776
v -0.014913 0.504720 -0.175841
v -0.025647 0.401665 -0.171384
v 0.117997 0.400467 -0.169247
v 0.118052 0.711909 -0.155197
v 0.098362 0.655753 -0.147522
v 0.032285 0.306489 -0.166401
v 0.079483 0.570797 -0.194720
v -0.024352 0.372566 -0.194720
v 0.098362 0.391445 -0.194720
v -0.005473 0.485841 -0.185280
v 0.060604 0.636874 -0.175841
v 0.098362 0.665193 -0.147522
v 0.098624 0.353540 -0.166962
v -0.005473 0.476401 -0.147522
v -0.015445 0.306837 -0.182286
v 0.144853 0.505128 -0.186427
v 0.041725 0.306489 -0.194720
v -0.014913 0.466961 -0.185280
v 0.098362 0.665193 -0.185280
v 0.096089 0.354999 -0.176628
v 0.079483 0.617995 -0.147522
v 0.117241 0.429203 -0.194720
v 0.060604 0.325368 -0.194720
v 0.115497 0.401891 -0.178642
v 0.067838 0.307762 -0.176885
vn 0.3282 0.3098 -0.8924
vn 0.0689 0.9966 -0.0459
vn 0.9958 -0.0080 -0.0917
vn 0.9959 0.0000 0.0903
vn 0.9964 -0.0072 0.0842
vn -0.8764 -0.0079 0.4815
vn -0.1032 0.0523 0.9933
vn 0.0000 0.1961 -0.9806
vn 0.0000 -0.0000 -1.0000
vn -0.9423 0.0153 0.3343
vn -0.9902 0.0989 -0.0983
vn -0.9938 0.1015 -0.0461
vn 0.5572 -0.0870 0.8258
vn -0.0168 0.9998 0.0112
vn 0.1961 0.0000 0.9806
vn -0.1859 -0.1594 0.9695
vn -0.0075 -0.9996 0.0254
vn -0.2400 0.1440 -0.9600
vn -0.9985 0.0000 -0.0554
vn -0.9990 -0.0444 0.0000
vn -0.2524 0.1461 -0.9565
vn -0.4111 0.2349 -0.8808
vn -0.7492 0.6299 -0.2048
vn -0.7912 0.6112 -0.0197
vn -0.8671 0.4955 -0.0507
vn -0.8654 0.5007 -0.0199
vn -0.1904 0.2368 0.9527
vn -0.0313 0.0188 0.9993
vn 0.0000 0.0000 1.0000
vn 0.0610 0.1367 0.9887
vn 0.2728 -0.0659 0.9598
vn 0.2432 -0.0621 0.9680
vn 0.0306 -0.1037 0.9941
vn 0.0000 -0.1104 0.9939
vn 0.0997 -0.0726 0.9924
vn -0.3064 -0.2627 0.9149
vn -0.0321 -0.9967 0.0747
vn -0.9816 -0.1544 -0.1128
vn -0.9909 -0.1343 0.0000
vn 0.9937 -0.0102 -0.1118
vn 0.9561 -0.2657 -0.1239
vn 0.0030 -0.9999 -0.0149
vn -0.0869 -0.0869 -0.9924
vn -0.3123 0.1562 -0.9370
vn -0.6963 0.1741 -0.6963
vn -0.4364 0.2182 -0.8729
vn -0.4016 0.2410 -0.8835
vn -0.3935 0.2278 -0.8906
vn 0.8802 -0.3774 -0.2878
vn 0.8256 -0.4843 -0.2896
vn 0.1085 -0.0651 0.9920
vn 0.1271 -0.0636 0.9898
vn 0.4086 -0.0490 -0.9114
vn 0.7023 -0.3512 -0.6192
vn 0.6484 -0.3705 -0.6650
vn 0.8822 -0.2794 -0.3790
vn 0.9157 -0.2820 -0.2864
vn 0.8795 -0.3765 -0.2911
vn 0.7890 -0.3483 -0.5061
vn 0.6547 -0.3880 -0.6486
vn 0.8122 -0.4840 -0.3257
vn 0.1990 -0.9543 -0.2232
vn 0.5038 -0.5038 -0.7017
usemtl Material002.002
s off
f 6//1 3//1 4//1
f 6//2 4//2 1//2
f 6//3 2//3 3//3
f 10//4 6//4 1//4
f 10//5 2//5 6//5
f 12//6 8//6 5//6
f 12//7 11//7 8//7
f 13//8 4//8 3//8
f 13//9 3//9 9//9
f 16//10 5//10 8//10
f 16//11 15//11 9//11
f 16//12 8//12 15//12
f 17//13 2//13 10//13
f 18//14 1//14 4//14
f 19//15 10//15 1//15
f 20//16 12//16 5//16
f 20//17 14//17 7//17
f 21//9 13//9 9//9
f 21//18 4//18 13//18
f 22//9 9//9 3//9
f 22//19 16//19 9//19
f 22//20 5//20 16//20
f 23//9 22//9 3//9
f 24//21 21//21 9//21
f 25//22 24//22 15//22
f 25//23 18//23 4//23
f 25//24 11//24 18//24
f 25//25 15//25 8//25
f 25//26 8//26 11//26
f 26//27 18//27 11//27
f 26//28 11//28 12//28
f 26//29 12//29 19//29
f 26//15 19//15 1//15
f 26//30 1//30 18//30
f 27//31 17//31 10//31
f 27//32 10//32 19//32
f 28//33 20//33 7//33
f 28//34 12//34 20//34
f 28//35 7//35 27//35
f 28//29 19//29 12//29
f 29//36 20//36 5//36
f 29//37 14//37 20//37
f 29//38 22//38 14//38
f 29//39 5//39 22//39
f 30//40 3//40 2//40
f 30//41 2//41 17//41
f 31//42 7//42 14//42
f 31//43 14//43 22//43
f 31//9 22//9 23//9
f 32//44 24//44 9//44
f 32//45 9//45 15//45
f 32//46 15//46 24//46
f 33//18 4//18 21//18
f 33//21 21//21 24//21
f 33//47 25//47 4//47
f 33//48 24//48 25//48
f 34//49 17//49 27//49
f 34//50 27//50 7//50
f 35//51 28//51 27//51
f 35//52 27//52 19//52
f 35//29 19//29 28//29
f 36//9 23//9 3//9
f 36//53 3//53 30//53
f 36//54 34//54 23//54
f 37//9 31//9 23//9
f 37//55 23//55 34//55
f 38//56 36//56 30//56
f 38//57 30//57 17//57
f 38//58 17//58 34//58
f 38//59 34//59 36//59
f 39//60 37//60 34//60
f 39//61 34//61 7//61
f 39//62 7//62 31//62
f 39//63 31//63 37//63
