# Blender v3.6.3 OBJ File: 'mouth_cup.blend'
# www.blender.org
mtllib mouth_cup015.mtl
o mouth_cup015
v 0.286700 0.640777 0.172425
v 0.370567 0.628796 0.100539
v 0.340614 0.658748 0.142473
v 0.346605 0.640777 0.094549
v 0.249988 0.431553 0.094075
v 0.370567 0.640777 0.094549
v 0.328633 0.658748 0.124501
v 0.262738 0.491014 0.136482
v 0.358586 0.646767 0.124501
v 0.366488 0.631151 0.092031
v 0.274259 0.641042 0.171431
v 0.358586 0.646767 0.094549
v 0.268728 0.449081 0.100539
v 0.292690 0.598843 0.160444
v 0.370567 0.640777 0.100539
v 0.364576 0.628796 0.112520
v 0.252485 0.433570 0.091918
v 0.334624 0.658748 0.148463
v 0.256747 0.508986 0.148463
v 0.274719 0.634786 0.148463
v 0.340614 0.652758 0.106530
v 0.352595 0.646767 0.094549
v 0.340614 0.658748 0.124501
v 0.256747 0.443090 0.112520
v 0.358586 0.604834 0.094549
v 0.358586 0.604834 0.100539
v 0.328633 0.616815 0.142473
v 0.334624 0.622805 0.094549
v 0.256747 0.431109 0.100539
v 0.327221 0.657489 0.147740
v 0.298681 0.628796 0.166435
v 0.280709 0.622805 0.172425
v 0.280709 0.640777 0.148463
v 0.250757 0.473043 0.094549
v 0.346605 0.652758 0.106530
v 0.246826 0.463331 0.120777
v 0.256747 0.461062 0.124501
v 0.316652 0.544929 0.112520
v 0.310662 0.520967 0.094549
v 0.328633 0.604834 0.136482
v 0.262738 0.502995 0.142473
v 0.340614 0.640777 0.142473
v 0.268728 0.449081 0.094549
v 0.247832 0.432798 0.098734
v 0.286700 0.628796 0.172425
v 0.262738 0.497005 0.094549
v 0.248847 0.546010 0.145789
v 0.247264 0.445107 0.109211
v 0.268728 0.455071 0.106530
v 0.262738 0.461062 0.118511
v 0.334624 0.568891 0.106530
v 0.310662 0.520967 0.100539
v 0.304671 0.574881 0.142473
v 0.352595 0.616815 0.118511
v 0.280709 0.562900 0.154454
v 0.358586 0.640777 0.124501
v 0.334624 0.646767 0.148463
v 0.292690 0.616815 0.166435
v 0.280709 0.598843 0.166435
v 0.247650 0.510779 0.144092
v 0.250757 0.538938 0.130492
v 0.274719 0.473043 0.112520
v 0.268728 0.491014 0.130492
v 0.358586 0.610824 0.106530
vn 0.8491 -0.2362 -0.4725
vn 0.1049 0.2098 -0.9721
vn 0.5145 0.8575 0.0000
vn 0.6350 0.7620 0.1270
vn 0.8944 0.0000 0.4472
vn 1.0000 0.0000 0.0000
vn -0.0274 0.8253 0.5641
vn 0.0000 1.0000 0.0000
vn 0.7071 0.0000 0.7071
vn -0.5657 0.4243 -0.7071
vn 0.0000 0.1592 -0.9873
vn -0.0847 0.0847 -0.9928
vn 0.0000 0.8944 -0.4472
vn -0.4851 0.4851 -0.7276
vn 0.4454 0.8909 -0.0891
vn 0.0000 0.9487 -0.3162
vn 0.8275 -0.2942 -0.4782
vn 0.8165 -0.4082 0.4082
vn 0.8944 -0.4472 0.0000
vn -0.0951 0.0634 -0.9934
vn -0.0927 0.0541 -0.9942
vn -0.5745 0.3830 -0.7234
vn 0.3343 -0.8496 -0.4078
vn 0.7276 -0.4851 0.4851
vn -0.1716 0.9842 0.0429
vn -0.2822 0.9587 0.0348
vn -0.1858 0.9515 0.2451
vn 0.4472 0.0000 0.8944
vn -0.0790 0.0263 0.9965
vn -0.4230 -0.1005 0.9005
vn -0.6925 0.6925 -0.2025
vn -0.4019 0.9073 -0.1234
vn -0.5500 0.5500 -0.6285
vn -0.5217 0.6421 -0.5618
vn -0.6633 0.0208 -0.7481
vn 0.2357 0.9428 -0.2357
vn -0.4013 -0.4096 0.8193
vn 0.3109 -0.1788 -0.9335
vn 0.3268 -0.1868 -0.9264
vn 0.8682 -0.4961 0.0000
vn 0.4083 -0.4082 0.8165
vn 0.4082 -0.4082 0.8165
vn 0.5345 -0.2673 0.8018
vn 0.6432 -0.5911 -0.4867
vn 0.8320 -0.5547 0.0000
vn 0.8638 -0.5039 0.0000
vn 0.3367 -0.1964 -0.9209
vn -0.2671 -0.6814 0.6814
vn -0.2146 -0.9638 0.1583
vn -0.9902 0.0588 -0.1266
vn -0.9051 0.0216 -0.4247
vn 0.0000 0.0000 1.0000
vn -0.1005 0.0574 -0.9933
vn -0.1214 0.0607 -0.9907
vn -0.6504 0.3252 -0.6865
vn -0.5914 0.3379 -0.7322
vn -0.9549 0.2812 -0.0957
vn -0.9902 0.0621 -0.1254
vn -0.4023 -0.4974 0.7686
vn -0.3780 -0.5135 0.7703
vn -0.3735 -0.6112 0.6978
vn -0.9940 0.0403 -0.1012
vn 0.6396 -0.4264 0.6396
vn 0.7071 -0.4243 0.5657
vn 0.6509 -0.3906 0.6509
vn 0.7379 -0.4216 0.5270
vn 0.7447 -0.4311 0.5095
vn 0.7778 -0.4444 0.4445
vn 0.7594 -0.4396 0.4796
vn 0.7714 -0.4500 0.4500
vn 0.6163 -0.3522 0.7044
vn 0.6254 -0.3621 0.6912
vn 0.6084 -0.3549 0.7098
vn 0.6965 -0.3980 0.5970
vn 0.6667 -0.3333 0.6667
vn 0.6765 -0.3903 0.6245
vn 0.4981 -0.3113 0.8093
vn 0.5466 -0.3188 0.7743
vn 0.5450 -0.3114 0.7785
vn 0.5449 -0.3114 0.7785
vn 0.4364 -0.2182 0.8729
vn 0.4286 -0.2857 0.8571
vn 0.2357 -0.2357 0.9428
vn 0.1790 -0.2386 0.9545
vn 0.3810 -0.2540 0.8890
vn -0.9987 0.0357 -0.0374
vn -0.4603 -0.3851 0.7999
vn -0.4463 -0.0956 0.8897
vn -0.6885 -0.0115 0.7251
vn -0.9289 0.2781 -0.2445
vn -0.7826 0.2981 -0.5466
vn -0.9824 0.0895 -0.1640
vn 0.7249 -0.4229 0.5437
vn 0.7010 -0.4089 0.5842
vn 0.6544 -0.3789 0.6544
vn 0.6692 -0.3856 0.6352
vn 0.6710 -0.3871 0.6323
vn 0.7778 -0.4444 0.4444
vn 0.8165 -0.4082 0.4083
vn 0.7379 -0.4216 0.5271
usemtl Material015.001
s off
f 10//1 6//1 2//1
f 12//2 6//2 10//2
f 15//3 6//3 3//3
f 15//4 3//4 9//4
f 15//5 9//5 2//5
f 15//6 2//6 6//6
f 18//7 11//7 1//7
f 18//8 3//8 7//8
f 18//9 9//9 3//9
f 21//10 4//10 20//10
f 22//11 12//11 10//11
f 22//12 10//12 4//12
f 22//13 21//13 12//13
f 22//14 4//14 21//14
f 23//8 7//8 3//8
f 23//3 3//3 6//3
f 23//15 6//15 12//15
f 23//16 21//16 7//16
f 25//17 10//17 2//17
f 26//18 2//18 16//18
f 26//19 25//19 2//19
f 28//20 4//20 10//20
f 28//21 10//21 17//21
f 28//22 20//22 4//22
f 29//23 5//23 17//23
f 29//24 13//24 24//24
f 30//25 18//25 7//25
f 30//26 7//26 11//26
f 30//27 11//27 18//27
f 31//28 18//28 1//28
f 32//29 1//29 11//29
f 32//30 11//30 19//30
f 33//31 20//31 11//31
f 33//32 11//32 7//32
f 33//33 21//33 20//33
f 33//34 7//34 21//34
f 34//35 17//35 5//35
f 35//36 23//36 12//36
f 35//13 12//13 21//13
f 35//16 21//16 23//16
f 37//37 19//37 36//37
f 39//38 17//38 10//38
f 39//39 10//39 25//39
f 39//40 25//40 26//40
f 41//41 37//41 8//41
f 41//42 19//42 37//42
f 42//9 9//9 18//9
f 42//43 31//43 27//43
f 43//44 29//44 17//44
f 43//45 13//45 29//45
f 43//46 39//46 13//46
f 43//47 17//47 39//47
f 44//48 29//48 24//48
f 44//49 5//49 29//49
f 44//50 36//50 34//50
f 44//51 34//51 5//51
f 45//28 31//28 1//28
f 45//52 1//52 32//52
f 46//53 28//53 17//53
f 46//54 17//54 34//54
f 46//55 34//55 20//55
f 46//56 20//56 28//56
f 47//57 11//57 20//57
f 47//58 34//58 36//58
f 48//59 37//59 36//59
f 48//60 24//60 37//60
f 48//61 44//61 24//61
f 48//62 36//62 44//62
f 49//24 24//24 13//24
f 50//63 37//63 24//63
f 50//64 24//64 49//64
f 50//65 8//65 37//65
f 51//66 16//66 38//66
f 51//67 38//67 49//67
f 52//40 39//40 26//40
f 52//46 13//46 39//46
f 52//68 26//68 51//68
f 52//69 51//69 49//69
f 52//70 49//70 13//70
f 53//71 40//71 27//71
f 53//72 8//72 40//72
f 53//73 41//73 8//73
f 54//74 38//74 16//74
f 54//75 16//75 27//75
f 54//75 27//75 40//75
f 54//76 50//76 38//76
f 55//77 19//77 41//77
f 55//78 41//78 53//78
f 55//79 53//79 27//79
f 55//80 27//80 14//80
f 56//9 9//9 42//9
f 56//5 16//5 2//5
f 56//5 2//5 9//5
f 56//75 42//75 27//75
f 56//75 27//75 16//75
f 57//9 42//9 18//9
f 57//28 18//28 31//28
f 57//43 31//43 42//43
f 58//81 31//81 45//81
f 58//43 14//43 27//43
f 58//43 27//43 31//43
f 58//82 55//82 14//82
f 58//82 19//82 55//82
f 59//83 45//83 32//83
f 59//84 32//84 19//84
f 59//85 58//85 45//85
f 59//82 19//82 58//82
f 60//86 47//86 36//86
f 60//87 36//87 19//87
f 60//88 19//88 11//88
f 60//89 11//89 47//89
f 61//90 47//90 20//90
f 61//91 20//91 34//91
f 61//92 34//92 47//92
f 62//64 50//64 49//64
f 62//93 49//93 38//93
f 62//94 38//94 50//94
f 63//95 40//95 8//95
f 63//65 8//65 50//65
f 63//96 54//96 40//96
f 63//97 50//97 54//97
f 64//98 51//98 26//98
f 64//99 26//99 16//99
f 64//100 16//100 51//100
