# Blender v3.6.3 OBJ File: 'mouth_cup.blend'
# www.blender.org
mtllib mouth_cup028.mtl
o mouth_cup028
v 0.077032 0.275356 0.172425
v 0.154909 0.233423 0.082568
v 0.146791 0.273158 0.096925
v 0.136937 0.239413 0.058606
v 0.077032 0.215451 0.148463
v 0.152607 0.246715 0.057802
v 0.068525 0.241044 0.100539
v 0.142928 0.263375 0.124501
v 0.120219 0.199651 0.082568
v 0.154909 0.245404 0.088558
v 0.083023 0.275356 0.142473
v 0.068291 0.229631 0.156202
v 0.136937 0.275356 0.094549
v 0.139272 0.277467 0.121037
v 0.118966 0.203470 0.112520
v 0.089013 0.245404 0.160444
v 0.154909 0.221442 0.058606
v 0.100994 0.203470 0.082568
v 0.154909 0.239413 0.088558
v 0.069365 0.276324 0.168804
v 0.077032 0.215451 0.100539
v 0.142928 0.245404 0.058606
v 0.118966 0.275356 0.148463
v 0.112975 0.197480 0.106530
v 0.106985 0.221442 0.136482
v 0.077032 0.227432 0.160444
v 0.148918 0.221442 0.082568
v 0.130947 0.227432 0.058606
v 0.135773 0.218692 0.060291
v 0.136937 0.233423 0.112520
v 0.072814 0.274361 0.158256
v 0.100994 0.275356 0.160444
v 0.068789 0.270667 0.167558
v 0.071042 0.221442 0.154454
v 0.124956 0.263375 0.142473
v 0.095004 0.209461 0.136482
v 0.118966 0.197480 0.106530
v 0.083023 0.221442 0.154454
v 0.077032 0.269366 0.172425
v 0.154909 0.227432 0.076577
v 0.142928 0.245404 0.112520
v 0.112975 0.221442 0.130492
v 0.089013 0.263375 0.166435
v 0.089013 0.209461 0.136482
v 0.095004 0.215451 0.142473
v 0.154909 0.221442 0.064596
v 0.106985 0.233423 0.142473
v 0.083023 0.215451 0.148463
v 0.077032 0.245404 0.166435
v 0.100994 0.269366 0.160444
v 0.112975 0.203470 0.118511
v 0.068640 0.246790 0.161246
v 0.118966 0.269366 0.148463
vn 0.9532 0.2965 -0.0587
vn 0.9536 0.2156 0.2101
vn 0.3019 0.8101 -0.5026
vn -0.4265 0.7667 -0.4799
vn 0.9252 0.2979 0.2353
vn 0.2392 0.9660 -0.0981
vn -0.0654 0.9951 -0.0735
vn 1.0000 0.0000 0.0000
vn 0.9936 0.0882 -0.0706
vn 0.9487 0.0000 0.3162
vn -0.0639 0.9955 -0.0698
vn -0.6528 -0.2170 -0.7258
vn -0.1548 0.7461 -0.6476
vn -0.0951 0.0951 -0.9909
vn -0.4569 0.4569 -0.7632
vn -0.3926 0.6733 -0.6265
vn 0.7447 0.3351 0.5772
vn -0.1927 -0.9703 -0.1462
vn -0.4472 -0.8944 0.0000
vn 0.8165 -0.4082 0.4082
vn -0.0667 0.0333 -0.9972
vn -0.0081 -0.0325 -0.9994
vn -0.5700 -0.1027 -0.8152
vn -0.5015 0.2508 -0.8280
vn 0.0567 -0.7782 -0.6255
vn -0.1395 -0.7025 -0.6979
vn -0.0545 -0.2179 -0.9744
vn -0.3793 -0.3727 -0.8469
vn 0.7741 -0.4168 0.4764
vn 0.7517 -0.4510 0.4811
vn -0.5806 0.7450 -0.3285
vn -0.6202 0.6985 -0.3571
vn -0.6564 0.6735 -0.3400
vn 0.0642 0.9896 0.1285
vn 0.0597 0.9920 0.1112
vn 0.0997 0.9837 0.1495
vn -0.9928 0.1111 -0.0452
vn -0.9999 0.0126 -0.0016
vn -0.9501 -0.3049 -0.0665
vn -0.9466 -0.3147 -0.0702
vn -0.7071 -0.7071 0.0000
vn -0.4782 -0.3340 0.8122
vn 0.0000 -0.7071 0.7071
vn 0.7071 0.0000 0.7071
vn 0.0000 -0.9959 -0.0903
vn 0.5054 -0.8613 -0.0516
vn 0.7493 -0.4683 0.4683
vn 0.0000 -0.9285 0.3714
vn 0.4867 -0.3244 0.8111
vn 0.5488 -0.3293 0.7683
vn -0.4271 0.0000 0.9042
vn -0.5194 -0.1329 0.8442
vn 0.7807 -0.3904 0.4879
vn 0.8111 -0.3244 0.4867
vn 0.7428 -0.3714 0.5571
vn 0.6695 -0.4017 0.6249
vn 0.6692 -0.3875 0.6340
vn 0.6556 -0.3746 0.6556
vn 0.5345 -0.2673 0.8018
vn 0.4472 -0.0000 0.8944
vn 0.4286 -0.2857 0.8571
vn 0.0000 -0.8944 0.4472
vn 0.5547 -0.8321 0.0000
vn 0.7159 -0.6562 0.2386
vn 0.8018 -0.5345 0.2673
vn 0.5976 -0.3586 0.7171
vn 0.5488 -0.3293 0.7684
vn 0.5571 -0.3714 0.7428
vn 0.3333 -0.6667 0.6667
vn -0.5214 -0.2070 0.8278
vn -0.4751 -0.2783 0.8348
vn 0.3419 -0.2279 0.9117
vn 0.5547 0.0000 0.8320
vn 0.5721 -0.4767 0.6674
vn 0.6396 -0.4264 0.6396
vn 0.5774 -0.5774 0.5773
vn 0.4264 -0.6396 0.6396
vn 0.2673 -0.8018 0.5345
vn -0.5390 -0.2121 0.8151
vn -0.8978 -0.1073 0.4272
vn -0.5390 -0.2275 0.8110
vn 0.5547 0.0000 0.8321
usemtl Material028.001
s off
f 10//1 6//1 3//1
f 10//2 3//2 8//2
f 13//3 3//3 6//3
f 13//4 7//4 11//4
f 14//5 8//5 3//5
f 14//6 3//6 13//6
f 14//7 13//7 11//7
f 17//8 10//8 2//8
f 17//9 6//9 10//9
f 19//10 10//10 8//10
f 19//8 2//8 10//8
f 20//11 14//11 11//11
f 21//12 7//12 18//12
f 22//13 13//13 6//13
f 22//14 6//14 4//14
f 22//15 4//15 7//15
f 22//16 7//16 13//16
f 23//17 8//17 14//17
f 24//18 18//18 9//18
f 24//19 21//19 18//19
f 27//20 2//20 19//20
f 28//21 4//21 6//21
f 28//22 6//22 17//22
f 28//23 18//23 7//23
f 28//24 7//24 4//24
f 29//25 17//25 9//25
f 29//26 9//26 18//26
f 29//27 28//27 17//27
f 29//28 18//28 28//28
f 30//29 27//29 19//29
f 30//30 15//30 27//30
f 31//31 20//31 11//31
f 31//32 11//32 7//32
f 31//33 7//33 20//33
f 32//34 20//34 1//34
f 32//35 14//35 20//35
f 32//36 23//36 14//36
f 33//37 20//37 7//37
f 33//38 7//38 12//38
f 34//39 12//39 7//39
f 34//40 7//40 21//40
f 34//41 21//41 5//41
f 34//42 26//42 12//42
f 34//43 5//43 26//43
f 35//44 8//44 23//44
f 37//45 24//45 9//45
f 37//46 9//46 17//46
f 37//47 27//47 15//47
f 37//48 36//48 24//48
f 38//49 16//49 26//49
f 38//50 35//50 16//50
f 39//51 1//51 20//51
f 39//52 20//52 33//52
f 40//8 17//8 2//8
f 40//20 2//20 27//20
f 41//53 30//53 19//53
f 41//54 19//54 8//54
f 41//55 8//55 30//55
f 42//56 15//56 30//56
f 42//57 30//57 8//57
f 42//58 35//58 25//58
f 42//58 8//58 35//58
f 43//59 16//59 35//59
f 43//60 32//60 1//60
f 43//60 1//60 39//60
f 43//61 26//61 16//61
f 44//62 36//62 5//62
f 44//48 24//48 36//48
f 44//19 5//19 21//19
f 44//19 21//19 24//19
f 46//63 37//63 17//63
f 46//64 27//64 37//64
f 46//65 40//65 27//65
f 46//8 17//8 40//8
f 47//66 25//66 35//66
f 47//67 35//67 38//67
f 47//68 45//68 25//68
f 47//68 38//68 45//68
f 48//62 5//62 36//62
f 48//69 45//69 38//69
f 48//69 36//69 45//69
f 48//43 38//43 26//43
f 48//43 26//43 5//43
f 49//70 39//70 33//70
f 49//71 12//71 26//71
f 49//72 43//72 39//72
f 49//61 26//61 43//61
f 50//73 23//73 32//73
f 50//60 32//60 43//60
f 51//74 25//74 45//74
f 51//75 42//75 25//75
f 51//75 15//75 42//75
f 51//76 37//76 15//76
f 51//77 45//77 36//77
f 51//78 36//78 37//78
f 52//79 49//79 33//79
f 52//80 33//80 12//80
f 52//81 12//81 49//81
f 53//44 35//44 23//44
f 53//82 23//82 50//82
f 53//59 50//59 43//59
f 53//59 43//59 35//59
