# Blender v3.6.3 OBJ File: 'mouth_cup.blend'
# www.blender.org
mtllib mouth_cup025.mtl
o mouth_cup025
v 0.328633 0.544929 0.088558
v 0.388538 0.616815 0.052615
v 0.364576 0.628796 0.052615
v 0.370567 0.622805 0.004691
v 0.328633 0.502995 0.004691
v 0.382548 0.634786 0.034644
v 0.322643 0.544929 0.016672
v 0.382548 0.634786 0.052615
v 0.334624 0.520967 0.046625
v 0.394529 0.616815 0.004691
v 0.370567 0.634786 0.034644
v 0.322448 0.551031 0.088438
v 0.322643 0.538938 0.004691
v 0.388538 0.628796 0.052615
v 0.328633 0.532948 0.082568
v 0.389179 0.621717 0.004288
v 0.328633 0.502995 0.022663
v 0.380370 0.626622 0.005124
v 0.328633 0.568891 0.046625
v 0.372978 0.631071 0.053812
v 0.358586 0.604834 0.004691
v 0.318553 0.535309 0.080043
v 0.394529 0.622805 0.016672
v 0.334624 0.526957 0.058606
v 0.334624 0.544929 0.082568
v 0.364576 0.562900 0.004691
v 0.321117 0.503876 0.004518
v 0.364576 0.568891 0.040634
v 0.370567 0.628796 0.016672
v 0.352595 0.610824 0.046625
v 0.322643 0.556910 0.046625
v 0.334624 0.562900 0.004691
v 0.320220 0.510384 0.039786
v 0.320431 0.546206 0.087193
v 0.394529 0.616815 0.016672
v 0.385633 0.623765 0.004691
v 0.340614 0.544929 0.070587
v 0.328633 0.508986 0.040634
v 0.388538 0.604834 0.004691
v 0.319599 0.504753 0.022316
v 0.352595 0.550919 0.046625
v 0.364576 0.628796 0.046625
v 0.352595 0.610824 0.052615
v 0.328633 0.568891 0.052615
v 0.319207 0.522950 0.063393
v 0.322643 0.556910 0.052615
v 0.388538 0.610824 0.040634
v 0.364576 0.562900 0.010682
v 0.328633 0.520967 0.064596
v 0.388538 0.604834 0.010682
v 0.382548 0.598843 0.034644
vn 0.0000 1.0000 0.0000
vn -0.3094 0.9283 0.2063
vn 0.2225 0.2441 0.9439
vn 0.2357 0.2357 0.9428
vn 0.5145 0.0000 0.8575
vn 0.0000 0.9638 -0.2665
vn -0.0129 0.1452 -0.9893
vn -0.0514 0.4237 0.9044
vn -0.2920 0.8759 0.3841
vn -0.2561 0.5155 0.8178
vn -0.0208 0.0139 -0.9997
vn -0.9939 0.0984 -0.0492
vn 0.9864 0.0000 0.1644
vn 0.7071 0.7071 0.0000
vn 0.6491 0.6804 -0.3402
vn 0.7881 -0.3941 0.4729
vn 0.6883 -0.2294 0.6882
vn 0.6667 -0.3333 0.6667
vn 0.0376 -0.0226 -0.9990
vn 0.8575 -0.5145 0.0000
vn 0.0214 -0.0143 -0.9997
vn -0.0129 0.0055 -0.9999
vn -0.1164 -0.9932 0.0000
vn 0.8452 -0.5071 0.1690
vn -0.3121 0.8497 -0.4249
vn -0.1601 0.9364 -0.3122
vn -0.8018 0.5345 -0.2673
vn -0.8278 0.5322 -0.1774
vn -0.8357 0.5143 -0.1928
vn -0.8522 0.4870 -0.1913
vn -0.8805 0.4402 -0.1761
vn -0.9922 0.1161 -0.0464
vn -0.8729 0.4364 -0.2182
vn -0.8706 0.4542 -0.1893
vn -0.0192 0.0110 -0.9998
vn -0.0160 0.0080 -0.9998
vn -0.3174 -0.4814 0.8170
vn -0.2135 -0.4369 0.8738
vn -0.1876 -0.1711 0.9672
vn -0.9846 0.1747 -0.0076
vn 1.0000 0.0000 0.0000
vn 0.4424 0.8555 -0.2692
vn 0.4513 0.8516 -0.2669
vn 0.4578 0.8464 -0.2721
vn 0.2923 0.6450 -0.7061
vn 0.8266 -0.4759 0.3006
vn 0.8148 -0.4527 0.3621
vn 0.8111 -0.4867 0.3244
vn 0.8018 -0.5345 0.2673
vn -0.1863 -0.9321 0.3107
vn 0.0447 -0.0255 -0.9987
vn 0.0515 -0.0258 -0.9983
vn 0.8944 -0.4472 0.0000
vn -0.9967 0.0624 -0.0511
vn -0.9952 0.0437 -0.0871
vn -0.1920 -0.9809 0.0319
vn -0.1930 -0.9318 0.3073
vn 0.8305 -0.4983 0.2491
vn 0.8427 -0.4815 0.2408
vn 0.8297 -0.4787 0.2872
vn -0.8321 0.5547 0.0000
vn -0.7071 0.7071 0.0000
vn -0.8242 0.5494 -0.1374
vn -0.8682 0.4961 0.0000
vn -0.8116 0.5411 0.2201
vn -0.8944 0.4472 0.0000
vn -0.8642 0.4938 0.0970
vn -0.3191 -0.7670 0.5567
vn -0.9268 -0.3466 0.1447
vn -0.9945 -0.0989 0.0343
vn -0.9262 0.3727 0.0561
vn -0.9793 0.2024 0.0000
vn -0.8923 0.4462 0.0684
vn 0.9370 -0.3123 0.1562
vn 0.8619 -0.4972 0.0994
vn 0.8682 -0.4961 0.0000
vn -0.2388 -0.8080 0.5386
vn -0.2385 -0.8615 0.4483
vn -0.1902 -0.8781 0.4390
vn 0.8616 -0.4924 0.1231
vn 0.8645 -0.4940 0.0926
vn 0.8701 -0.4834 0.0967
usemtl Material025.001
s off
f 11//1 8//1 6//1
f 11//2 3//2 8//2
f 12//3 1//3 8//3
f 14//4 8//4 1//4
f 14//5 1//5 2//5
f 18//6 11//6 6//6
f 18//7 16//7 4//7
f 20//8 12//8 8//8
f 20//9 8//9 3//9
f 20//10 3//10 12//10
f 21//11 4//11 16//11
f 22//12 7//12 13//12
f 23//13 14//13 2//13
f 23//14 6//14 8//14
f 23//14 8//14 14//14
f 23//15 10//15 16//15
f 25//16 15//16 2//16
f 25//17 2//17 1//17
f 25//18 1//18 15//18
f 26//19 5//19 16//19
f 26//20 17//20 5//20
f 27//21 16//21 5//21
f 27//22 13//22 16//22
f 27//23 5//23 17//23
f 28//24 9//24 17//24
f 29//25 18//25 4//25
f 29//26 11//26 18//26
f 29//27 4//27 21//27
f 30//28 11//28 29//28
f 30//29 29//29 21//29
f 30//30 21//30 19//30
f 31//31 19//31 7//31
f 31//32 7//32 22//32
f 32//33 13//33 7//33
f 32//34 7//34 19//34
f 32//30 19//30 21//30
f 32//35 21//35 16//35
f 32//36 16//36 13//36
f 34//37 22//37 15//37
f 34//38 15//38 1//38
f 34//39 1//39 12//39
f 34//40 31//40 22//40
f 35//13 23//13 2//13
f 35//41 10//41 23//41
f 36//42 18//42 6//42
f 36//43 6//43 23//43
f 36//44 23//44 16//44
f 36//45 16//45 18//45
f 37//46 24//46 2//46
f 37//47 2//47 15//47
f 37//48 15//48 24//48
f 38//24 17//24 9//24
f 38//49 9//49 24//49
f 38//50 33//50 17//50
f 39//51 26//51 16//51
f 39//52 16//52 10//52
f 39//53 10//53 35//53
f 40//54 22//54 13//54
f 40//55 13//55 27//55
f 40//56 27//56 17//56
f 40//57 17//57 33//57
f 41//58 24//58 9//58
f 41//24 9//24 28//24
f 41//59 28//59 2//59
f 41//60 2//60 24//60
f 42//61 30//61 3//61
f 42//62 3//62 11//62
f 42//63 11//63 30//63
f 43//64 30//64 19//64
f 43//65 12//65 3//65
f 43//61 3//61 30//61
f 44//66 19//66 31//66
f 44//64 43//64 19//64
f 44//67 12//67 43//67
f 45//68 15//68 22//68
f 45//69 40//69 33//69
f 45//70 22//70 40//70
f 46//71 34//71 12//71
f 46//72 31//72 34//72
f 46//66 44//66 31//66
f 46//73 12//73 44//73
f 47//74 35//74 2//74
f 47//59 2//59 28//59
f 48//75 28//75 17//75
f 48//20 17//20 26//20
f 48//76 26//76 39//76
f 49//49 38//49 24//49
f 49//48 24//48 15//48
f 49//77 15//77 45//77
f 49//78 45//78 33//78
f 49//79 33//79 38//79
f 50//76 48//76 39//76
f 50//53 39//53 35//53
f 51//80 47//80 28//80
f 51//75 28//75 48//75
f 51//81 48//81 50//81
f 51//82 50//82 35//82
f 51//82 35//82 47//82
