# Blender v3.6.3 OBJ File: 'mouth_cup.blend'
# www.blender.org
mtllib mouth_cup009.mtl
o mouth_cup009
v 0.256747 0.706672 0.190397
v 0.256747 0.640777 0.184406
v 0.256747 0.676720 0.166435
v 0.148918 0.766577 0.148463
v 0.142928 0.664739 0.190397
v 0.256747 0.706672 0.172425
v 0.257043 0.640613 0.167550
v 0.238776 0.640777 0.190397
v 0.154909 0.760587 0.178416
v 0.184861 0.748606 0.184406
v 0.256747 0.670729 0.190397
v 0.142928 0.670729 0.166435
v 0.148918 0.754596 0.148463
v 0.166818 0.640824 0.179286
v 0.142928 0.766577 0.172425
v 0.184861 0.748606 0.166435
v 0.226795 0.724644 0.190397
v 0.178871 0.736625 0.190397
v 0.250757 0.658748 0.190397
v 0.140583 0.765245 0.151015
v 0.232785 0.640777 0.166435
v 0.167027 0.640698 0.188788
v 0.142558 0.664961 0.173846
v 0.142928 0.712663 0.184406
v 0.148918 0.766577 0.172425
v 0.226795 0.724644 0.178416
v 0.184861 0.742615 0.190397
v 0.140592 0.755982 0.153545
v 0.148918 0.754596 0.178416
v 0.142928 0.676720 0.190397
v 0.160899 0.760587 0.178416
v 0.190852 0.742615 0.190397
v 0.142928 0.742615 0.178416
v 0.154909 0.736625 0.184406
v 0.166890 0.718653 0.190397
vn 0.3107 0.1864 -0.9321
vn 1.0000 0.0045 0.0000
vn 0.9993 0.0071 -0.0355
vn 0.0000 0.0000 1.0000
vn 0.0033 -0.9999 0.0098
vn 0.9999 0.0000 0.0130
vn 0.9998 -0.0035 0.0176
vn 0.1644 0.0000 -0.9864
vn 0.1437 -0.0294 -0.9892
vn 0.5071 0.8452 -0.1690
vn 0.4472 0.8944 0.0000
vn 0.5145 0.8575 0.0000
vn 0.4961 0.8682 0.0000
vn 0.3094 -0.2063 0.9283
vn 0.3652 -0.1826 0.9129
vn -0.4637 -0.1538 -0.8725
vn -0.2928 0.0000 -0.9562
vn -0.1704 0.9844 -0.0426
vn 0.0447 -0.1236 -0.9913
vn -0.0681 -0.2044 -0.9765
vn -0.1661 -0.4984 -0.8509
vn -0.0056 -0.9997 -0.0250
vn -0.0222 -0.0889 0.9958
vn -0.0041 -0.9999 -0.0132
vn 0.0009 -1.0000 0.0079
vn -0.5317 -0.6553 -0.5365
vn -0.7060 -0.7082 0.0062
vn -0.7060 -0.7082 0.0061
vn 0.0000 1.0000 0.0000
vn 0.0000 0.7071 0.7071
vn 0.5064 0.8608 -0.0506
vn -0.2357 0.2357 0.9428
vn -0.9754 -0.0588 -0.2122
vn -0.9960 -0.0394 -0.0803
vn -0.9996 -0.0167 0.0221
vn -0.9938 0.0283 0.1071
vn -0.3015 0.3015 0.9045
vn -0.9980 0.0000 0.0633
vn -0.9950 0.0164 0.0983
vn 0.0000 0.5547 0.8320
vn 0.4082 0.8165 0.4082
vn 0.0000 0.5547 0.8321
vn 0.2673 0.8018 0.5345
vn -0.9943 0.0209 0.1046
vn -0.9938 0.0270 0.1078
vn -0.4364 0.2182 0.8729
vn -0.3652 0.1826 0.9129
vn -0.3651 0.1826 0.9129
vn -0.3124 0.1562 0.9370
vn -0.2572 0.1469 0.9551
vn -0.2394 0.1596 0.9577
usemtl Material009.001
s off
f 6//1 3//1 4//1
f 7//2 6//2 1//2
f 7//3 3//3 6//3
f 8//4 1//4 5//4
f 8//5 7//5 2//5
f 11//6 7//6 1//6
f 11//7 2//7 7//7
f 11//4 1//4 8//4
f 13//8 4//8 3//8
f 13//9 3//9 7//9
f 16//10 6//10 4//10
f 16//11 4//11 10//11
f 17//12 1//12 6//12
f 17//13 16//13 10//13
f 17//4 5//4 1//4
f 18//4 5//4 17//4
f 19//4 11//4 8//4
f 19//14 8//14 2//14
f 19//15 2//15 11//15
f 20//16 13//16 12//16
f 20//17 4//17 13//17
f 20//18 15//18 4//18
f 21//19 13//19 7//19
f 21//20 12//20 13//20
f 21//21 14//21 12//21
f 21//22 7//22 14//22
f 22//23 8//23 5//23
f 22//24 14//24 7//24
f 22//25 7//25 8//25
f 23//26 12//26 14//26
f 23//27 22//27 5//27
f 23//28 14//28 22//28
f 25//11 10//11 4//11
f 25//29 4//29 15//29
f 25//30 15//30 9//30
f 26//12 17//12 6//12
f 26//31 6//31 16//31
f 26//13 16//13 17//13
f 27//32 9//32 18//32
f 27//4 18//4 17//4
f 28//33 20//33 12//33
f 28//34 12//34 23//34
f 28//35 23//35 5//35
f 28//36 15//36 20//36
f 29//37 9//37 15//37
f 30//4 5//4 18//4
f 30//38 28//38 5//38
f 30//39 24//39 28//39
f 31//30 25//30 9//30
f 31//11 10//11 25//11
f 31//40 9//40 27//40
f 32//4 27//4 17//4
f 32//41 17//41 10//41
f 32//42 31//42 27//42
f 32//43 10//43 31//43
f 33//44 28//44 24//44
f 33//45 15//45 28//45
f 33//46 29//46 15//46
f 33//47 24//47 29//47
f 34//48 29//48 24//48
f 34//32 18//32 9//32
f 34//32 9//32 29//32
f 34//49 24//49 30//49
f 35//50 34//50 30//50
f 35//4 30//4 18//4
f 35//51 18//51 34//51
