# Blender v3.6.3 OBJ File: 'mouth_cup.blend'
# www.blender.org
mtllib mouth_cup041.mtl
o mouth_cup041
v 0.143350 0.550706 -0.179817
v 0.131255 0.430939 -0.170196
v 0.142928 0.502995 -0.192995
v 0.089013 0.550919 -0.192995
v 0.082733 0.551094 -0.176138
v 0.070661 0.419348 -0.188531
v 0.142577 0.551122 -0.188886
v 0.143143 0.490895 -0.175835
v 0.130947 0.467052 -0.169033
v 0.130947 0.431109 -0.187005
v 0.095004 0.419128 -0.192995
v 0.065051 0.502995 -0.192995
v 0.071505 0.418894 -0.180282
v 0.142434 0.491299 -0.185126
v 0.124956 0.467052 -0.192995
v 0.095750 0.418716 -0.177832
v 0.083023 0.544929 -0.192995
v 0.064675 0.479280 -0.179583
v 0.112975 0.443090 -0.169033
v 0.106985 0.437100 -0.192995
v 0.083406 0.550698 -0.185544
v 0.065469 0.478792 -0.188099
v 0.064781 0.503172 -0.178301
v 0.124956 0.467052 -0.169033
vn 0.9963 0.0144 -0.0842
vn 0.0759 0.0854 -0.9935
vn 0.0091 0.9989 0.0450
vn -0.0029 0.9999 -0.0114
vn 0.9999 -0.0045 -0.0157
vn 0.0609 0.1187 0.9911
vn 0.3946 0.0597 0.9169
vn 0.5209 -0.0230 0.8533
vn 0.9803 -0.1963 -0.0200
vn 0.0000 -0.0000 -1.0000
vn -0.1806 -0.0645 -0.9814
vn -0.0187 -0.9984 -0.0530
vn 0.9629 -0.1774 -0.2033
vn 0.9922 -0.0956 -0.0799
vn 0.9794 -0.1843 -0.0827
vn 0.2408 -0.1204 -0.9631
vn 0.3222 -0.9458 -0.0415
vn 0.3285 -0.9444 -0.0156
vn -0.0046 -0.9996 -0.0269
vn -0.0979 -0.3071 0.9466
vn -0.9891 -0.1130 0.0950
vn -0.1101 -0.2575 0.9600
vn 0.0424 -0.0318 0.9986
vn 0.2107 -0.1264 -0.9693
vn 0.2075 -0.1383 -0.9684
vn -0.8901 0.3815 -0.2495
vn -0.9258 0.3690 -0.0818
vn -0.1048 0.9933 -0.0493
vn -0.6296 0.6296 -0.4551
vn -0.9952 -0.0355 -0.0908
vn -0.9453 -0.0803 -0.3161
vn -0.9924 -0.0860 -0.0876
vn -0.9359 0.3516 -0.0215
vn -0.9998 0.0054 -0.0185
vn -0.1670 0.0181 0.9858
vn -0.3368 -0.0490 0.9403
vn -0.2387 -0.0419 0.9702
vn 0.0000 0.0000 1.0000
vn 0.0000 0.0842 0.9964
vn -0.0840 0.0420 0.9956
usemtl Material041.001
s off
f 7//1 1//1 3//1
f 7//2 3//2 4//2
f 7//3 5//3 1//3
f 7//4 4//4 5//4
f 8//5 3//5 1//5
f 9//6 1//6 5//6
f 9//7 8//7 1//7
f 9//8 2//8 8//8
f 10//9 8//9 2//9
f 11//10 4//10 3//10
f 12//11 11//11 6//11
f 12//10 4//10 11//10
f 13//12 6//12 11//12
f 14//13 10//13 3//13
f 14//14 3//14 8//14
f 14//15 8//15 10//15
f 15//10 11//10 3//10
f 15//16 3//16 10//16
f 16//17 11//17 10//17
f 16//18 10//18 2//18
f 16//19 13//19 11//19
f 16//20 2//20 13//20
f 17//10 4//10 12//10
f 18//21 6//21 13//21
f 19//22 13//22 2//22
f 19//23 2//23 9//23
f 20//24 15//24 10//24
f 20//25 10//25 11//25
f 20//10 11//10 15//10
f 21//26 17//26 12//26
f 21//27 12//27 5//27
f 21//28 5//28 4//28
f 21//29 4//29 17//29
f 22//30 18//30 12//30
f 22//31 12//31 6//31
f 22//32 6//32 18//32
f 23//33 5//33 12//33
f 23//34 12//34 18//34
f 23//35 19//35 5//35
f 23//36 18//36 13//36
f 23//37 13//37 19//37
f 24//38 19//38 9//38
f 24//39 9//39 5//39
f 24//40 5//40 19//40
