# Blender v3.6.3 OBJ File: 'mouth_cup.blend'
# www.blender.org
mtllib mouth_cup001.mtl
o mouth_cup001
v 0.268728 0.508986 -0.097147
v 0.278326 0.506933 -0.099366
v 0.274719 0.610824 -0.145071
v 0.214775 0.628818 -0.186554
v 0.190852 0.502995 -0.181014
v 0.214814 0.628796 -0.169033
v 0.268728 0.502995 -0.097147
v 0.274719 0.544929 -0.151062
v 0.268728 0.610824 -0.145071
v 0.274719 0.628796 -0.175024
v 0.184861 0.526957 -0.163043
v 0.274719 0.502995 -0.127100
v 0.276324 0.502082 -0.098134
v 0.238776 0.628796 -0.163043
v 0.276484 0.627777 -0.166856
v 0.268728 0.562900 -0.163043
v 0.238776 0.616815 -0.187005
v 0.190852 0.514976 -0.157052
v 0.184470 0.527183 -0.179526
v 0.274719 0.508986 -0.133090
v 0.193051 0.501760 -0.161772
v 0.274719 0.574881 -0.163043
v 0.232785 0.502995 -0.163043
v 0.214814 0.586862 -0.187005
v 0.238776 0.628796 -0.187005
v 0.250757 0.598843 -0.181014
v 0.183596 0.503726 -0.176197
v 0.250757 0.502995 -0.151062
v 0.185901 0.502411 -0.165274
v 0.274719 0.616815 -0.175024
v 0.208823 0.502995 -0.175024
v 0.220804 0.586862 -0.187005
v 0.262738 0.628796 -0.181014
v 0.262738 0.508986 -0.145071
v 0.202833 0.514976 -0.181014
v 0.262738 0.622805 -0.181014
v 0.232785 0.604834 -0.187005
vn 0.2862 0.3942 0.8733
vn -0.2518 0.4121 0.8757
vn 0.0000 0.4258 0.9048
vn -0.5744 0.2154 0.7898
vn 0.2512 0.1395 0.9578
vn 0.1289 0.0000 0.9917
vn 0.9167 -0.3946 -0.0632
vn 0.0000 0.7071 0.7071
vn -0.2111 0.4925 0.8443
vn 0.0002 1.0000 0.0007
vn -0.0003 1.0000 0.0013
vn 0.9813 0.1050 0.1612
vn 0.9943 -0.0400 -0.0988
vn 0.0835 0.7832 0.6162
vn 0.0385 0.9926 0.1155
vn -0.6097 0.0000 0.7926
vn -0.6023 0.0951 0.7926
vn -0.9586 0.2835 0.0266
vn -0.9583 0.2859 0.0025
vn 0.9925 -0.0548 -0.1095
vn 0.9873 -0.1125 -0.1125
vn -0.1007 -0.9855 0.1368
vn 0.9940 -0.0405 -0.1012
vn 0.5963 -0.2981 -0.7454
vn -0.2581 0.0102 -0.9661
vn -0.2352 -0.0022 -0.9719
vn -0.0188 0.0107 -0.9998
vn 0.0000 0.0000 -1.0000
vn -0.5572 -0.0962 -0.8248
vn -0.9989 0.0407 0.0243
vn 0.0333 -0.9989 -0.0333
vn 0.0270 -0.9992 -0.0303
vn 0.0296 -0.9986 -0.0444
vn 0.5263 -0.3158 -0.7895
vn -0.2205 -0.9355 0.2761
vn -0.6143 -0.2480 0.7490
vn -0.7875 -0.0888 0.6099
vn -0.9781 -0.0595 0.1992
vn -0.1559 -0.9841 -0.0855
vn -0.0630 -0.9964 -0.0568
vn 0.9774 0.0000 -0.2112
vn 0.9871 -0.0441 -0.1542
vn 0.4815 -0.2408 -0.8427
vn 0.0292 -0.9979 -0.0583
vn 0.0222 -0.9975 -0.0666
vn 0.4319 -0.2592 -0.8639
vn 0.4164 -0.2411 -0.8766
vn 0.0000 -0.0712 -0.9975
vn 0.2425 0.0000 -0.9701
vn 0.4472 0.0000 -0.8944
vn 0.0009 1.0000 -0.0034
vn 0.0006 1.0000 -0.0012
vn 0.6667 -0.3333 -0.6667
vn 0.5774 -0.5773 -0.5774
vn 0.5466 -0.3188 -0.7743
vn 0.5692 -0.3162 -0.7589
vn 0.3015 -0.3015 -0.9045
vn 0.3907 -0.2233 -0.8930
vn 0.4085 -0.2365 -0.8816
vn 0.1098 -0.1098 -0.9879
vn 0.3652 -0.1826 -0.9129
vn 0.1945 -0.1296 -0.9723
vn 0.2665 -0.1523 -0.9517
vn 0.2722 -0.1361 -0.9526
usemtl Material001.001
s off
f 1//1 2//1 3//1
f 9//2 6//2 1//2
f 9//3 1//3 3//3
f 11//4 1//4 6//4
f 13//5 2//5 1//5
f 13//6 1//6 7//6
f 13//7 12//7 2//7
f 14//8 9//8 3//8
f 14//9 6//9 9//9
f 14//10 10//10 4//10
f 14//11 4//11 6//11
f 15//12 3//12 2//12
f 15//13 2//13 8//13
f 15//14 14//14 3//14
f 15//15 10//15 14//15
f 18//16 7//16 1//16
f 18//17 1//17 11//17
f 19//18 11//18 6//18
f 19//19 6//19 4//19
f 20//20 8//20 2//20
f 20//21 2//21 12//21
f 21//22 13//22 7//22
f 22//23 15//23 8//23
f 22//24 8//24 16//24
f 24//25 19//25 4//25
f 24//26 5//26 19//26
f 25//27 24//27 4//27
f 25//28 17//28 24//28
f 27//29 19//29 5//29
f 27//30 11//30 19//30
f 28//31 12//31 13//31
f 28//32 13//32 21//32
f 28//33 21//33 23//33
f 28//34 23//34 16//34
f 29//35 21//35 7//35
f 29//36 7//36 18//36
f 29//37 18//37 11//37
f 29//38 11//38 27//38
f 29//39 27//39 5//39
f 29//40 5//40 21//40
f 30//41 10//41 15//41
f 30//42 15//42 22//42
f 30//43 22//43 16//43
f 31//44 23//44 21//44
f 31//45 21//45 5//45
f 31//46 16//46 23//46
f 31//47 30//47 16//47
f 32//28 24//28 17//28
f 32//48 5//48 24//48
f 33//49 17//49 25//49
f 33//50 10//50 30//50
f 33//51 25//51 4//51
f 33//52 4//52 10//52
f 34//53 8//53 20//53
f 34//54 20//54 12//54
f 34//54 12//54 28//54
f 34//55 28//55 16//55
f 34//56 16//56 8//56
f 35//57 31//57 5//57
f 35//58 26//58 30//58
f 35//59 30//59 31//59
f 35//60 5//60 32//60
f 36//50 33//50 30//50
f 36//61 30//61 26//61
f 36//49 17//49 33//49
f 37//62 35//62 32//62
f 37//28 32//28 17//28
f 37//63 26//63 35//63
f 37//64 36//64 26//64
f 37//64 17//64 36//64
