# Blender v3.6.3 OBJ File: 'mouth_cup.blend'
# www.blender.org
mtllib mouth_cup055.mtl
o mouth_cup055_mouth_cup055.001
v 0.053070 0.586862 -0.151062
v 0.082631 0.503252 -0.179770
v 0.082647 0.587088 -0.170477
v 0.077032 0.580872 -0.187005
v 0.011999 0.478535 -0.177731
v 0.083023 0.532948 -0.192995
v 0.023118 0.586862 -0.163043
v 0.083023 0.544929 -0.169033
v 0.017127 0.497005 -0.157052
v 0.084499 0.580019 -0.181384
v 0.023118 0.491014 -0.187005
v 0.075602 0.587724 -0.168547
v 0.077032 0.574881 -0.163043
v 0.064675 0.479280 -0.179583
v 0.009010 0.504256 -0.161677
v 0.017550 0.586618 -0.150467
v 0.035099 0.550919 -0.151062
v 0.083277 0.586716 -0.180048
v 0.083411 0.502771 -0.188448
v 0.071042 0.526957 -0.192995
v 0.035099 0.550919 -0.181014
v 0.011137 0.502995 -0.181014
v 0.053070 0.580872 -0.151062
v 0.017127 0.479033 -0.163043
v 0.047080 0.479033 -0.192995
v 0.011137 0.497005 -0.157052
v 0.059061 0.586862 -0.181014
v 0.065469 0.478792 -0.188099
v 0.071042 0.574881 -0.187005
v 0.077032 0.532948 -0.192995
v 0.023118 0.479033 -0.187005
v 0.017127 0.562900 -0.169033
v 0.009762 0.479862 -0.168335
v 0.017127 0.580872 -0.163043
v 0.047080 0.485024 -0.192995
v 0.023118 0.532948 -0.151062
v 0.053070 0.580872 -0.181014
v 0.023118 0.574881 -0.169033
vn 0.3384 -0.2377 0.9105
vn 0.6049 0.1728 -0.7774
vn 0.9873 0.0142 0.1584
vn 0.1536 0.9573 0.2451
vn 0.7746 0.0285 0.6319
vn 0.5300 0.2497 0.8104
vn 0.3385 -0.2464 0.9081
vn -0.0151 0.9998 0.0127
vn -0.0062 0.9991 0.0413
vn 0.3203 -0.2094 0.9239
vn 0.5994 0.2605 -0.7568
vn 0.9841 0.1680 0.0581
vn 0.0807 0.9962 -0.0335
vn 0.9978 -0.0198 0.0630
vn 0.9953 -0.0329 0.0912
vn 0.9939 -0.0039 -0.1106
vn -0.3123 0.1562 -0.9370
vn 0.4472 0.0000 0.8944
vn 0.4262 -0.0947 0.8997
vn 0.3231 -0.1939 0.9263
vn 0.0168 0.0000 0.9999
vn 0.0153 -0.0092 0.9998
vn 0.3148 -0.3002 0.9005
vn 0.0000 0.0000 -1.0000
vn 0.2143 -0.1428 -0.9663
vn -0.8894 0.0301 0.4562
vn 0.0000 -0.3162 0.9487
vn 0.0309 0.7515 -0.6590
vn -0.0208 0.9989 -0.0415
vn 0.0093 0.9967 -0.0812
vn 0.7970 -0.5948 0.1045
vn 0.7961 -0.5954 0.1083
vn 0.2496 -0.2006 -0.9473
vn -0.0027 -0.9992 -0.0389
vn 0.0107 -0.9995 0.0302
vn 0.0259 -0.9979 0.0595
vn -0.2121 0.1212 -0.9697
vn -0.1231 0.1231 -0.9847
vn -0.2572 0.1469 -0.9551
vn 0.0000 0.1240 -0.9923
vn -0.4472 0.0000 -0.8944
vn -0.6322 -0.1249 -0.7647
vn -0.0191 -0.9969 -0.0764
vn -0.2425 0.0000 -0.9701
vn -0.9728 -0.0642 -0.2226
vn -0.9940 -0.0008 -0.1093
vn -0.9556 -0.1046 0.2754
vn -0.1790 -0.9792 0.0957
vn -0.5595 -0.4239 0.7122
vn -0.9880 0.1026 -0.1153
vn -0.9944 0.1051 -0.0146
vn -0.7845 0.1961 -0.5883
vn -0.6774 0.6774 -0.2867
vn -0.4082 0.4083 -0.8165
vn 0.0144 -0.0096 0.9999
vn -0.3350 -0.0452 0.9411
vn 0.0000 -0.1644 0.9864
vn 0.3094 -0.2063 0.9283
vn -0.2643 0.1586 -0.9513
vn -0.2357 0.2357 -0.9428
vn -0.4016 0.2410 -0.8835
vn -0.5345 0.2673 -0.8018
vn -0.4082 0.4082 -0.8165
vn -0.4364 0.2182 -0.8729
usemtl Material055.001
s off
f 9//1 2//1 8//1
f 10//2 6//2 4//2
f 10//3 3//3 8//3
f 12//4 1//4 3//4
f 13//5 8//5 3//5
f 13//6 3//6 1//6
f 14//7 2//7 9//7
f 16//8 12//8 7//8
f 16//9 1//9 12//9
f 17//10 9//10 8//10
f 18//11 10//11 4//11
f 18//12 3//12 10//12
f 18//13 12//13 3//13
f 19//14 10//14 8//14
f 19//15 8//15 2//15
f 19//16 6//16 10//16
f 22//17 21//17 11//17
f 23//18 13//18 1//18
f 23//19 8//19 13//19
f 23//20 17//20 8//20
f 23//21 1//21 16//21
f 23//22 16//22 17//22
f 24//23 14//23 9//23
f 25//24 20//24 6//24
f 25//25 6//25 19//25
f 26//26 16//26 15//26
f 26//27 24//27 9//27
f 27//28 18//28 4//28
f 27//29 7//29 12//29
f 27//30 12//30 18//30
f 28//31 19//31 2//31
f 28//32 2//32 14//32
f 28//33 25//33 19//33
f 28//34 5//34 25//34
f 28//35 24//35 5//35
f 28//36 14//36 24//36
f 29//37 20//37 11//37
f 29//38 4//38 20//38
f 29//39 11//39 21//39
f 30//38 20//38 4//38
f 30//40 4//40 6//40
f 30//24 6//24 20//24
f 31//41 22//41 11//41
f 31//42 5//42 22//42
f 31//43 25//43 5//43
f 31//44 11//44 25//44
f 33//45 22//45 5//45
f 33//46 15//46 22//46
f 33//47 26//47 15//47
f 33//48 5//48 24//48
f 33//49 24//49 26//49
f 34//50 22//50 15//50
f 34//51 15//51 16//51
f 34//52 32//52 22//52
f 34//53 16//53 7//53
f 34//54 7//54 27//54
f 35//44 25//44 11//44
f 35//37 11//37 20//37
f 35//24 20//24 25//24
f 36//55 17//55 16//55
f 36//56 16//56 26//56
f 36//57 26//57 9//57
f 36//58 9//58 17//58
f 37//59 29//59 21//59
f 37//60 27//60 4//60
f 37//60 4//60 29//60
f 37//54 34//54 27//54
f 38//61 37//61 21//61
f 38//62 32//62 34//62
f 38//63 34//63 37//63
f 38//64 21//64 22//64
f 38//64 22//64 32//64
