# Blender v3.6.3 OBJ File: 'mouth_cup.blend'
# www.blender.org
mtllib mouth_cup027.mtl
o mouth_cup027
v 0.078533 0.801068 0.059565
v 0.083023 0.796530 0.058606
v 0.072391 0.804615 0.036181
v 0.005146 0.730634 0.004691
v -0.027120 0.624159 0.053428
v -0.006835 0.658748 0.004691
v 0.053070 0.796530 0.058606
v 0.083023 0.802520 0.052615
v 0.000571 0.667415 0.060214
v 0.035099 0.730634 0.004691
v -0.024806 0.676720 0.004691
v -0.018816 0.622805 0.046625
v 0.059061 0.802520 0.058606
v 0.077032 0.784549 0.058606
v -0.018816 0.670729 0.058606
v 0.020163 0.740862 0.004346
v 0.077032 0.796530 0.034644
v -0.026615 0.641834 0.004898
v -0.018816 0.622805 0.052615
v 0.011137 0.670729 0.052615
v 0.047080 0.796530 0.034644
v 0.035099 0.766577 0.058606
v -0.024806 0.670729 0.046625
v -0.018816 0.688701 0.004691
v -0.018816 0.640777 0.004691
v 0.083023 0.796530 0.052615
v 0.033027 0.743827 0.004928
v -0.028556 0.624999 0.047943
v 0.011137 0.670729 0.058606
v 0.053070 0.802520 0.046625
v 0.057629 0.799888 0.034125
v -0.012825 0.682710 0.058606
v -0.024806 0.664739 0.052615
v 0.029108 0.766577 0.040634
v -0.024806 0.676720 0.022663
v 0.077032 0.790539 0.040634
v 0.053070 0.742615 0.052615
v 0.053070 0.742615 0.058606
v 0.047080 0.796530 0.040634
v 0.041089 0.784549 0.046625
v 0.005146 0.730634 0.010682
v 0.077032 0.784549 0.052615
v -0.018816 0.688701 0.010682
vn 0.6546 0.5345 0.5345
vn -0.0429 0.0299 0.9986
vn -0.0457 0.0457 0.9979
vn 0.0273 0.9937 0.1091
vn 0.0603 0.9686 0.2413
vn 0.1401 -0.0701 0.9876
vn 0.1264 -0.0689 0.9896
vn -0.0980 -0.0927 0.9909
vn 0.0165 -0.0096 -0.9998
vn 0.7502 0.5105 -0.4202
vn 0.0641 -0.1946 0.9788
vn -0.1609 -0.9870 0.0000
vn 0.8430 -0.5031 -0.1904
vn 0.8473 -0.4943 -0.1942
vn 0.8480 -0.5300 0.0000
vn -0.4120 0.5812 -0.7018
vn -0.0642 0.0385 0.9972
vn -0.0268 0.0134 -0.9996
vn -0.0376 0.0215 -0.9991
vn 0.0124 -0.0083 -0.9999
vn -0.0062 -0.0010 -1.0000
vn -0.0271 -0.0045 -0.9996
vn 0.8095 -0.5397 -0.2313
vn -0.1338 -0.9109 -0.3904
vn 0.9487 0.0000 -0.3162
vn 1.0000 -0.0000 0.0000
vn 0.8944 -0.4472 0.0000
vn 0.2434 0.3142 -0.9176
vn 0.4801 0.0910 -0.8725
vn 0.0396 0.0241 -0.9989
vn -0.2512 -0.8975 -0.3624
vn -0.2302 -0.9691 -0.0882
vn -0.9984 0.0516 -0.0248
vn 0.2238 -0.2574 0.9400
vn -0.0850 0.9955 0.0425
vn -0.6667 0.6667 0.3333
vn -0.2133 0.5446 -0.8111
vn -0.0725 0.4855 -0.8712
vn -0.0282 0.4715 -0.8814
vn -0.2555 0.9230 -0.2876
vn -0.3027 0.9044 -0.3008
vn -0.0761 0.0381 0.9964
vn -0.0724 0.0414 0.9965
vn -0.8137 0.4650 0.3487
vn -0.7332 0.0554 0.6778
vn -0.8165 0.4082 0.4082
vn -0.8165 0.4082 0.4083
vn -0.9633 0.0602 0.2614
vn -0.9929 0.0838 0.0838
vn -0.8944 0.4472 0.0000
vn -0.8616 0.4924 0.1231
vn -0.9964 0.0823 0.0206
vn -0.9974 0.0723 0.0000
vn 0.8504 -0.3720 -0.3720
vn 0.9045 -0.3015 -0.3015
vn 0.8638 -0.5039 0.0000
vn 0.1657 -0.0947 0.9816
vn 0.1821 -0.1062 0.9775
vn 0.8682 -0.4961 0.0000
vn -0.8437 0.5369 0.0000
vn -0.7071 0.7071 0.0000
vn -0.8018 0.5345 0.2673
vn -0.8438 0.4885 0.2221
vn -0.8245 0.4774 0.3038
vn -0.8111 0.4867 0.3244
vn -0.8452 0.5071 0.1690
vn -0.8619 0.4990 0.0907
vn -0.8682 0.4961 0.0000
vn -0.8555 0.5133 0.0684
vn 0.8729 -0.4364 -0.2182
vn 0.8511 -0.4864 -0.1976
vn 0.8567 -0.4613 -0.2307
vn -0.8666 0.4952 0.0619
usemtl Material027.001
s off
f 8//1 1//1 2//1
f 9//2 1//2 7//2
f 13//3 7//3 1//3
f 13//4 8//4 3//4
f 13//5 1//5 8//5
f 14//6 2//6 1//6
f 14//7 1//7 9//7
f 15//8 5//8 9//8
f 16//9 10//9 6//9
f 17//10 3//10 8//10
f 19//11 9//11 5//11
f 19//12 5//12 12//12
f 20//13 12//13 6//13
f 20//14 6//14 10//14
f 20//15 19//15 12//15
f 21//16 16//16 4//16
f 22//17 9//17 7//17
f 24//18 16//18 11//18
f 24//19 4//19 16//19
f 25//20 16//20 6//20
f 25//21 11//21 16//21
f 25//22 18//22 11//22
f 25//23 6//23 12//23
f 25//24 12//24 18//24
f 26//25 17//25 8//25
f 26//26 8//26 2//26
f 26//27 2//27 14//27
f 27//28 3//28 17//28
f 27//29 17//29 10//29
f 27//30 10//30 16//30
f 28//31 18//31 12//31
f 28//32 12//32 5//32
f 28//33 11//33 18//33
f 29//34 9//34 19//34
f 29//15 19//15 20//15
f 30//35 13//35 3//35
f 30//36 7//36 13//36
f 31//37 16//37 21//37
f 31//38 27//38 16//38
f 31//39 3//39 27//39
f 31//40 30//40 3//40
f 31//41 21//41 30//41
f 32//42 15//42 9//42
f 32//43 9//43 22//43
f 32//44 22//44 23//44
f 33//45 5//45 15//45
f 33//46 32//46 23//46
f 33//47 15//47 32//47
f 33//48 28//48 5//48
f 33//49 23//49 28//49
f 35//50 24//50 11//50
f 35//51 23//51 34//51
f 35//52 28//52 23//52
f 35//53 11//53 28//53
f 36//54 10//54 17//54
f 36//55 17//55 26//55
f 37//14 20//14 10//14
f 37//56 29//56 20//56
f 38//57 14//57 9//57
f 38//58 9//58 29//58
f 38//59 37//59 14//59
f 38//56 29//56 37//56
f 39//60 21//60 4//60
f 39//61 30//61 21//61
f 39//62 7//62 30//62
f 40//63 34//63 23//63
f 40//64 23//64 22//64
f 40//65 22//65 7//65
f 40//66 39//66 34//66
f 40//62 7//62 39//62
f 41//67 35//67 34//67
f 41//68 4//68 24//68
f 41//60 39//60 4//60
f 41//69 34//69 39//69
f 42//70 36//70 26//70
f 42//27 26//27 14//27
f 42//59 14//59 37//59
f 42//71 37//71 10//71
f 42//72 10//72 36//72
f 43//68 41//68 24//68
f 43//50 24//50 35//50
f 43//73 35//73 41//73
