# Blender v3.6.3 OBJ File: 'mouth_cup.blend'
# www.blender.org
mtllib mouth_cup042.mtl
o mouth_cup042
v 0.182496 0.345184 0.103960
v 0.220804 0.341252 0.076577
v 0.196842 0.341252 0.058606
v 0.148918 0.251394 0.046625
v 0.148918 0.245404 0.100539
v 0.220804 0.335261 0.058606
v 0.160899 0.317290 0.094549
v 0.219866 0.347784 0.058277
v 0.202833 0.335261 0.100539
v 0.160899 0.233423 0.070587
v 0.178871 0.347242 0.094549
v 0.145884 0.279668 0.103329
v 0.204271 0.349871 0.091739
v 0.220804 0.347242 0.076577
v 0.155499 0.245067 0.046831
v 0.154909 0.251394 0.100539
v 0.151214 0.235556 0.069292
v 0.214814 0.323280 0.064596
v 0.160899 0.317290 0.100539
v 0.184861 0.347242 0.082568
v 0.142928 0.281347 0.094549
v 0.199618 0.349098 0.098555
v 0.208823 0.341252 0.094549
v 0.172880 0.251394 0.058606
v 0.154909 0.245404 0.094549
v 0.196842 0.317290 0.094549
v 0.140360 0.246886 0.098954
v 0.154096 0.233892 0.058321
v 0.220804 0.335261 0.064596
v 0.196842 0.299318 0.076577
v 0.184861 0.323280 0.058606
v 0.196842 0.347242 0.064596
v 0.214814 0.323280 0.058606
v 0.172880 0.251394 0.064596
v 0.172880 0.263375 0.082568
v 0.142928 0.251394 0.064596
v 0.155972 0.236268 0.056880
v 0.153650 0.242708 0.048277
v 0.172880 0.269366 0.088558
v 0.147463 0.242820 0.066180
vn -0.0604 0.1635 -0.9847
vn 1.0000 0.0000 0.0000
vn 0.9961 0.0733 -0.0489
vn 0.1750 0.9844 0.0202
vn 0.1926 -0.0113 -0.9812
vn 0.0859 0.0570 -0.9947
vn 0.1301 -0.0743 0.9887
vn 0.0744 -0.0744 0.9945
vn 0.1007 -0.0658 0.9927
vn -0.8575 0.5145 0.0000
vn -0.7468 0.5288 0.4033
vn -0.4506 0.2435 0.8589
vn -0.7814 0.4537 -0.4285
vn -0.7881 0.4729 -0.3941
vn -0.1087 0.9926 -0.0544
vn -0.8329 0.4165 -0.3644
vn -0.8944 0.4472 0.0000
vn -0.8573 0.3688 0.3592
vn 0.2545 0.1950 0.9472
vn 0.5174 0.7361 0.4365
vn -0.0978 0.9941 0.0459
vn -0.1360 0.9556 0.2614
vn 0.8018 -0.2673 0.5345
vn 0.8320 0.0000 0.5547
vn 0.5537 0.2429 0.7965
vn 0.6560 0.4669 0.5930
vn 0.5773 -0.5774 0.5773
vn 0.4851 -0.7276 0.4851
vn 0.7741 -0.4168 0.4764
vn 0.7379 -0.4216 0.5270
vn -0.2413 -0.9327 0.2680
vn -0.2149 -0.9334 0.2874
vn -0.1975 -0.0969 0.9755
vn -0.9350 0.1127 0.3363
vn -0.2255 -0.9703 0.0879
vn 0.8944 -0.4472 0.0000
vn 0.8729 -0.4364 0.2182
vn 0.8293 -0.4739 0.2962
vn 0.8297 -0.4787 0.2872
vn -0.7276 0.4851 -0.4851
vn -0.6396 0.4264 -0.6396
vn -0.7625 0.4575 -0.4575
vn -0.2062 0.6919 -0.6919
vn -0.1022 0.9924 -0.0681
vn -0.0464 0.9954 -0.0837
vn 0.6095 -0.3555 -0.7086
vn 0.4882 -0.2441 -0.8379
vn 0.8638 -0.5039 0.0000
vn 0.8443 -0.4925 0.2111
vn 0.8321 -0.5547 0.0000
vn 0.7625 -0.4575 0.4575
vn 0.7654 -0.4784 0.4305
vn 0.7987 -0.4698 0.3759
vn 0.7778 -0.4444 0.4444
vn -0.9957 0.0658 -0.0658
vn -0.9045 0.3015 -0.3015
vn -0.8512 -0.4414 -0.2837
vn 0.6401 -0.6733 -0.3699
vn 0.6099 -0.7033 -0.3652
vn 0.3913 -0.6831 -0.6166
vn 0.5880 -0.5946 -0.5484
vn -0.7703 -0.4959 -0.4010
vn -0.2865 -0.3273 -0.9005
vn 0.3896 -0.6836 -0.6172
vn 0.7594 -0.4396 0.4796
vn -0.8572 -0.4853 -0.1722
vn -0.8517 -0.5029 -0.1475
vn -0.8589 -0.4968 -0.1245
vn -0.8667 -0.4821 -0.1280
usemtl Material042.001
s off
f 8//1 4//1 3//1
f 14//2 2//2 6//2
f 14//3 6//3 8//3
f 14//4 8//4 13//4
f 15//5 8//5 6//5
f 15//6 4//6 8//6
f 16//7 9//7 1//7
f 16//8 12//8 5//8
f 16//9 1//9 12//9
f 19//10 11//10 7//10
f 19//11 1//11 11//11
f 19//12 12//12 1//12
f 20//13 4//13 7//13
f 20//14 7//14 11//14
f 20//15 11//15 13//15
f 21//16 7//16 4//16
f 21//17 19//17 7//17
f 21//18 12//18 19//18
f 22//19 1//19 9//19
f 22//20 14//20 13//20
f 22//21 13//21 11//21
f 22//22 11//22 1//22
f 23//23 9//23 2//23
f 23//24 2//24 14//24
f 23//25 22//25 9//25
f 23//26 14//26 22//26
f 25//27 16//27 5//27
f 25//28 5//28 10//28
f 26//29 2//29 9//29
f 26//30 9//30 16//30
f 27//31 17//31 10//31
f 27//32 10//32 5//32
f 27//33 5//33 12//33
f 27//34 12//34 21//34
f 28//35 10//35 17//35
f 29//36 18//36 6//36
f 29//2 6//2 2//2
f 29//37 2//37 18//37
f 30//38 18//38 2//38
f 30//39 10//39 18//39
f 31//40 20//40 3//40
f 31//41 3//41 4//41
f 31//42 4//42 20//42
f 32//43 8//43 3//43
f 32//40 3//40 20//40
f 32//44 20//44 13//44
f 32//45 13//45 8//45
f 33//46 24//46 15//46
f 33//47 15//47 6//47
f 33//36 6//36 18//36
f 33//48 18//48 24//48
f 34//48 24//48 18//48
f 34//49 18//49 10//49
f 34//50 10//50 24//50
f 35//51 16//51 25//51
f 35//52 25//52 10//52
f 35//53 10//53 30//53
f 35//54 30//54 2//54
f 35//54 2//54 26//54
f 36//55 27//55 21//55
f 36//56 21//56 4//56
f 36//57 4//57 28//57
f 37//58 24//58 10//58
f 37//59 10//59 28//59
f 37//60 28//60 15//60
f 37//61 15//61 24//61
f 38//62 28//62 4//62
f 38//63 4//63 15//63
f 38//64 15//64 28//64
f 39//54 35//54 26//54
f 39//65 26//65 16//65
f 39//51 16//51 35//51
f 40//66 36//66 28//66
f 40//67 28//67 17//67
f 40//68 17//68 27//68
f 40//69 27//69 36//69
