# Blender v3.6.3 OBJ File: 'mouth_cup.blend'
# www.blender.org
mtllib mouth_cup016.mtl
o mouth_cup016
v -0.012789 0.305288 0.189968
v 0.017901 0.258725 0.148463
v 0.011137 0.281347 -0.163043
v -0.047943 0.306775 -0.163231
v -0.036787 0.281347 0.190397
v 0.005146 0.257385 -0.163043
v -0.030797 0.305309 -0.163043
v 0.015119 0.271878 0.148463
v -0.012500 0.276277 0.188578
v -0.049866 0.309397 0.148463
v 0.017901 0.258725 -0.163043
v -0.036787 0.281347 -0.163043
v 0.005146 0.257385 0.148463
v -0.006835 0.293328 -0.163043
v -0.024806 0.275356 0.190397
v -0.048473 0.305138 0.186932
v -0.049866 0.309397 -0.139081
v 0.014682 0.271158 -0.162373
v -0.013166 0.305532 0.182545
v -0.047084 0.296244 -0.163043
v -0.046839 0.296102 0.187516
vn 0.8781 0.1857 0.4409
vn 0.7731 0.6342 0.0094
vn 0.7923 -0.0213 0.6098
vn 0.9784 0.2069 -0.0000
vn 0.0004 -0.0034 -1.0000
vn 0.0037 0.0011 -1.0000
vn -0.4961 -0.8682 0.0000
vn -0.0056 -0.0099 -0.9999
vn 0.1045 -0.9945 0.0000
vn 0.0090 0.0135 -0.9999
vn 0.0132 0.0265 -0.9996
vn 0.1494 -0.0458 0.9877
vn 0.0060 0.0119 0.9999
vn -0.4463 -0.8926 0.0638
vn 0.0934 -0.8892 0.4478
vn 0.1360 -0.8657 0.4818
vn -0.0848 0.1027 0.9911
vn -0.0136 0.9938 0.1105
vn 0.0859 0.9912 -0.1008
vn 0.7798 0.2332 -0.5811
vn 0.9445 0.3285 -0.0021
vn 0.9681 0.2507 -0.0019
vn 0.4471 0.8942 -0.0234
vn 0.6472 0.7623 -0.0078
vn 0.5546 0.8319 -0.0192
vn 0.1968 0.9804 -0.0107
vn 0.1048 0.9945 -0.0000
vn 0.0782 0.9965 0.0288
vn -0.8226 -0.5686 0.0000
vn -0.9784 -0.2069 -0.0000
vn -0.9941 -0.0823 -0.0702
vn -0.0293 -0.0203 -0.9994
vn -0.8265 -0.5629 0.0004
vn -0.2524 0.0169 0.9675
vn -0.9841 -0.1769 0.0161
vn -0.9754 -0.2204 0.0006
usemtl Material016.001
s off
f 8//1 1//1 2//1
f 8//2 3//2 1//2
f 9//3 2//3 1//3
f 11//4 8//4 2//4
f 11//5 6//5 4//5
f 11//6 4//6 3//6
f 12//7 6//7 5//7
f 12//8 4//8 6//8
f 13//7 5//7 6//7
f 13//9 11//9 2//9
f 13//9 6//9 11//9
f 14//10 3//10 4//10
f 14//11 4//11 7//11
f 15//12 9//12 1//12
f 15//13 1//13 5//13
f 15//14 5//14 13//14
f 15//15 13//15 2//15
f 15//16 2//16 9//16
f 16//17 5//17 1//17
f 16//18 1//18 10//18
f 17//19 7//19 4//19
f 18//20 11//20 3//20
f 18//21 3//21 8//21
f 18//22 8//22 11//22
f 19//23 14//23 7//23
f 19//24 1//24 3//24
f 19//25 3//25 14//25
f 19//26 7//26 17//26
f 19//27 17//27 10//27
f 19//28 10//28 1//28
f 20//29 12//29 5//29
f 20//30 10//30 17//30
f 20//31 17//31 4//31
f 20//32 4//32 12//32
f 21//33 20//33 5//33
f 21//34 5//34 16//34
f 21//35 16//35 10//35
f 21//36 10//36 20//36
