# Blender v3.6.3 OBJ File: 'mouth_cup.blend'
# www.blender.org
mtllib mouth_cup040.mtl
o mouth_cup040
v 0.142928 0.347242 0.160444
v 0.202833 0.341252 0.106530
v 0.199618 0.349098 0.098555
v 0.172880 0.347242 0.100539
v 0.142377 0.251712 0.100199
v 0.130517 0.347490 0.159516
v 0.202833 0.347242 0.106530
v 0.130947 0.275356 0.142473
v 0.160899 0.269366 0.100539
v 0.144873 0.253730 0.098043
v 0.089013 0.281347 0.142473
v 0.160899 0.341252 0.148463
v 0.202833 0.341252 0.100539
v 0.160899 0.347242 0.148463
v 0.148918 0.251394 0.106530
v 0.106985 0.317290 0.142473
v 0.090942 0.280256 0.151163
v 0.136937 0.275356 0.100539
v 0.172880 0.335261 0.136482
v 0.136937 0.329271 0.160444
v 0.178871 0.299318 0.100539
v 0.178871 0.299318 0.106530
v 0.130947 0.341252 0.136482
v 0.108837 0.316249 0.152438
v 0.089908 0.274850 0.149716
v 0.095004 0.275356 0.136482
v 0.154909 0.317290 0.100539
v 0.148918 0.305309 0.142473
v 0.142928 0.341252 0.160444
v 0.130947 0.329271 0.160444
v 0.160899 0.269366 0.106530
v 0.184861 0.317290 0.112520
v 0.134016 0.345506 0.146769
v 0.136937 0.341252 0.130492
v 0.118966 0.275356 0.148463
v 0.140220 0.252957 0.104859
v 0.095004 0.281347 0.136482
v 0.089013 0.275356 0.142473
v 0.136937 0.281347 0.100539
v 0.136937 0.299318 0.148463
v 0.160899 0.275356 0.112520
v 0.124956 0.281347 0.148463
v 0.148918 0.257385 0.112520
vn 0.0166 0.9988 0.0452
vn -0.0733 0.9957 -0.0569
vn -0.0774 0.0498 -0.9958
vn 0.7071 0.0000 0.7071
vn 1.0000 0.0000 0.0000
vn 0.9076 0.2968 -0.2968
vn 0.2514 -0.1392 -0.9578
vn 0.1615 0.9736 0.1615
vn 0.0511 0.9957 0.0767
vn 0.5547 0.0000 0.8321
vn 0.6517 -0.5924 -0.4736
vn 0.3437 -0.8506 -0.3979
vn -0.5894 -0.1241 -0.7982
vn 0.8682 -0.4961 0.0000
vn 0.3442 -0.2065 -0.9159
vn 0.2954 -0.1688 -0.9403
vn 0.8575 -0.5145 0.0000
vn -0.7175 0.6689 -0.1945
vn -0.8748 0.4374 0.2083
vn -0.8712 0.4244 0.2466
vn -0.6634 0.3056 0.6830
vn -0.8250 0.5254 0.2082
vn -0.9654 0.1231 0.2297
vn -0.6446 -0.1375 -0.7520
vn -0.0884 0.0530 -0.9947
vn -0.6124 0.3675 -0.6999
vn 0.5855 -0.3193 0.7451
vn 0.5449 -0.3114 0.7785
vn 0.5345 -0.2673 0.8018
vn 0.5547 0.0000 0.8320
vn 0.0000 0.0000 1.0000
vn -0.0735 0.0490 0.9961
vn -0.2749 0.0425 0.9605
vn 0.0000 -0.1860 0.9825
vn 0.8321 -0.5547 0.0000
vn 0.7379 -0.4216 0.5270
vn 0.6938 -0.3651 0.6208
vn -0.3977 0.8837 -0.2468
vn -0.3144 0.9211 -0.2297
vn -0.3551 0.8966 -0.2648
vn -0.5774 0.5773 -0.5773
vn -0.6159 0.4448 -0.6502
vn -0.6247 0.4685 -0.6247
vn 0.0372 -0.8560 0.5157
vn 0.3152 -0.7093 0.6305
vn 0.0527 -0.2334 0.9710
vn 0.0462 -0.2665 0.9627
vn -0.3160 -0.9428 0.1057
vn -0.2048 -0.9651 0.1631
vn -0.2139 -0.9508 0.2241
vn -0.7071 0.0000 -0.7071
vn -0.6508 0.0000 -0.7593
vn -0.6667 0.3333 -0.6667
vn -0.6225 0.3261 -0.7114
vn -0.9925 0.0000 0.1226
vn -0.6712 -0.3148 -0.6712
vn -0.4134 -0.9105 -0.0126
vn -0.1139 0.0569 -0.9919
vn -0.3001 -0.0000 -0.9539
vn -0.6189 0.3094 -0.7220
vn 0.5488 -0.3293 0.7684
vn 0.7276 -0.4851 0.4851
vn 0.7625 -0.4575 0.4575
vn 0.6759 -0.3862 0.6276
vn 0.6509 -0.3906 0.6509
vn 0.4082 -0.4082 0.8165
vn 0.3015 -0.3015 0.9045
vn 0.4867 -0.3244 0.8111
vn 0.6396 -0.4264 0.6396
vn 0.4264 -0.6396 0.6396
usemtl Material040.001
s off
f 6//1 1//1 3//1
f 6//2 3//2 4//2
f 10//3 4//3 3//3
f 12//4 2//4 7//4
f 13//5 7//5 2//5
f 13//6 3//6 7//6
f 13//7 10//7 3//7
f 14//8 7//8 3//8
f 14//9 3//9 1//9
f 14//4 12//4 7//4
f 14//10 1//10 12//10
f 15//11 10//11 9//11
f 15//12 5//12 10//12
f 18//13 10//13 5//13
f 19//4 2//4 12//4
f 21//14 13//14 2//14
f 21//15 9//15 10//15
f 21//16 10//16 13//16
f 22//14 21//14 2//14
f 22//17 9//17 21//17
f 23//18 16//18 6//18
f 24//19 16//19 11//19
f 24//20 11//20 17//20
f 24//21 17//21 6//21
f 24//22 6//22 16//22
f 25//23 17//23 11//23
f 26//24 18//24 5//24
f 27//25 4//25 10//25
f 27//26 16//26 4//26
f 28//27 19//27 12//27
f 28//28 12//28 20//28
f 29//29 20//29 12//29
f 29//30 12//30 1//30
f 29//31 1//31 20//31
f 30//31 20//31 1//31
f 30//32 1//32 6//32
f 30//33 6//33 17//33
f 30//34 17//34 20//34
f 31//35 15//35 9//35
f 31//17 9//17 22//17
f 32//36 22//36 2//36
f 32//37 2//37 19//37
f 33//38 23//38 6//38
f 33//39 6//39 4//39
f 33//40 4//40 23//40
f 34//41 23//41 4//41
f 34//42 4//42 16//42
f 34//43 16//43 23//43
f 35//44 25//44 15//44
f 35//45 15//45 8//45
f 35//46 20//46 17//46
f 35//47 17//47 25//47
f 36//48 25//48 5//48
f 36//49 5//49 15//49
f 36//50 15//50 25//50
f 37//51 26//51 11//51
f 37//52 18//52 26//52
f 37//53 11//53 16//53
f 37//54 16//54 27//54
f 38//55 25//55 11//55
f 38//51 11//51 26//51
f 38//56 26//56 5//56
f 38//57 5//57 25//57
f 39//58 27//58 10//58
f 39//59 10//59 18//59
f 39//60 37//60 27//60
f 39//52 18//52 37//52
f 40//28 28//28 20//28
f 40//61 8//61 28//61
f 41//62 15//62 31//62
f 41//63 31//63 22//63
f 41//36 22//36 32//36
f 41//64 32//64 19//64
f 41//65 28//65 8//65
f 41//65 19//65 28//65
f 42//66 35//66 8//66
f 42//67 20//67 35//67
f 42//68 40//68 20//68
f 42//68 8//68 40//68
f 43//69 41//69 8//69
f 43//70 8//70 15//70
f 43//62 15//62 41//62
