# Blender v3.6.3 OBJ File: 'mouth_cup.blend'
# www.blender.org
mtllib mouth_cup045.mtl
o mouth_cup045
v 0.166686 0.574999 0.188005
v 0.166890 0.479033 0.184406
v 0.166890 0.514976 0.166435
v 0.106920 0.550961 0.179197
v 0.112975 0.431109 0.190397
v 0.166890 0.568891 0.172425
v 0.166890 0.514976 0.190397
v 0.107180 0.550807 0.188110
v 0.142998 0.431070 0.166585
v 0.160899 0.568891 0.172425
v 0.166925 0.574863 0.178815
v 0.118966 0.431109 0.190397
v 0.142963 0.574861 0.189978
v 0.106913 0.503036 0.189560
v 0.166893 0.473041 0.166441
v 0.118966 0.431109 0.166435
v 0.160899 0.514976 0.166435
v 0.136937 0.461062 0.190397
v 0.142928 0.437100 0.184406
v 0.113620 0.430753 0.174852
v 0.142727 0.575013 0.180853
v 0.166292 0.473388 0.176142
v 0.118966 0.437100 0.166435
v 0.160899 0.502995 0.190397
v 0.136937 0.431109 0.184406
v 0.107201 0.502886 0.180874
v 0.142315 0.431463 0.176082
v 0.136937 0.473043 0.166435
vn 0.0000 0.1104 -0.9939
vn 1.0000 0.0007 -0.0061
vn 1.0000 -0.0003 0.0016
vn 0.9997 0.0044 0.0260
vn 0.0000 0.7306 -0.6829
vn 0.0000 0.0000 1.0000
vn -0.5587 0.8288 0.0307
vn 0.0826 0.0400 0.9958
vn -0.0067 0.0043 1.0000
vn -0.9996 0.0065 0.0292
vn -0.0726 0.0307 0.9969
vn -0.0298 0.0091 0.9995
vn 1.0000 -0.0004 0.0003
vn 1.0000 0.0001 -0.0032
vn 0.0063 -0.0070 -1.0000
vn 0.0003 -0.0001 -1.0000
vn -0.1593 0.1090 -0.9812
vn 0.0000 0.0000 -1.0000
vn 0.0001 -0.0000 1.0000
vn 0.2782 -0.1669 0.9459
vn 0.2872 -0.1641 0.9437
vn 0.0000 -0.9997 0.0229
vn -0.0014 -0.9991 -0.0431
vn -0.0044 0.9998 0.0168
vn 0.0049 0.9999 -0.0146
vn -0.0506 0.7530 -0.6561
vn -0.2533 0.4365 -0.8633
vn -0.5583 0.8292 0.0283
vn 0.9769 -0.2025 0.0677
vn 0.8669 -0.4933 0.0713
vn 0.8369 -0.4782 0.2662
vn -0.7272 0.0000 -0.6864
vn 0.3123 -0.1562 0.9370
vn 0.3015 -0.3015 0.9045
vn 0.0126 -0.9999 0.0065
vn 0.0068 -0.9998 0.0205
vn -0.9956 -0.0853 -0.0393
vn -0.9959 -0.0843 -0.0315
vn -0.9994 -0.0070 -0.0330
vn -0.8307 -0.0243 -0.5563
vn -0.8432 -0.0302 -0.5368
vn 0.8374 -0.4793 0.2629
vn 0.8650 -0.4949 0.0827
vn 0.1445 -0.9882 0.0513
vn 0.6504 -0.6504 0.3925
vn -0.1812 0.0906 -0.9793
vn -0.1680 0.0960 -0.9811
usemtl Material045.001
s off
f 10//1 6//1 3//1
f 11//2 3//2 6//2
f 11//3 7//3 2//3
f 11//4 1//4 7//4
f 11//5 6//5 10//5
f 12//6 7//6 5//6
f 13//7 4//7 8//7
f 13//8 7//8 1//8
f 13//9 5//9 7//9
f 14//10 8//10 4//10
f 14//11 13//11 8//11
f 14//12 5//12 13//12
f 15//13 11//13 2//13
f 15//14 3//14 11//14
f 16//15 15//15 9//15
f 16//16 3//16 15//16
f 17//1 10//1 3//1
f 17//17 4//17 10//17
f 17//18 3//18 16//18
f 18//19 7//19 12//19
f 19//20 18//20 12//20
f 19//21 2//21 18//21
f 20//22 12//22 5//22
f 20//23 16//23 9//23
f 21//24 13//24 1//24
f 21//25 1//25 11//25
f 21//26 11//26 10//26
f 21//27 10//27 4//27
f 21//28 4//28 13//28
f 22//29 15//29 2//29
f 22//30 9//30 15//30
f 22//31 2//31 19//31
f 23//18 17//18 16//18
f 23//32 16//32 4//32
f 24//21 18//21 2//21
f 24//33 2//33 7//33
f 24//6 7//6 18//6
f 25//34 19//34 12//34
f 25//35 20//35 9//35
f 25//36 12//36 20//36
f 26//37 20//37 5//37
f 26//38 5//38 14//38
f 26//39 14//39 4//39
f 26//40 4//40 16//40
f 26//41 16//41 20//41
f 27//42 22//42 19//42
f 27//43 9//43 22//43
f 27//44 25//44 9//44
f 27//45 19//45 25//45
f 28//46 23//46 4//46
f 28//47 4//47 17//47
f 28//18 17//18 23//18
