# Blender v3.6.3 OBJ File: 'mouth_cup.blend'
# www.blender.org
mtllib mouth_cup033.mtl
o mouth_cup033
v 0.072248 0.244721 0.150153
v 0.071306 0.227891 0.148463
v 0.071307 0.227891 -0.139081
v 0.015119 0.271878 -0.139081
v 0.015119 0.271878 0.148463
v 0.017127 0.251394 -0.139081
v 0.065051 0.251394 -0.139081
v 0.017127 0.251394 0.148463
v 0.059061 0.227432 -0.139081
v 0.068525 0.241044 -0.139081
v 0.023118 0.275356 0.148463
v 0.059061 0.227432 0.148463
v 0.035099 0.239413 0.148463
v 0.065051 0.251394 0.142473
v 0.023118 0.275356 -0.139081
v 0.035099 0.239413 -0.139081
v 0.035099 0.269366 0.148463
v 0.035099 0.269366 -0.139081
vn 0.9984 -0.0559 0.0000
vn -0.0310 -0.0030 0.9995
vn -0.9952 -0.0976 0.0000
vn 0.0374 -0.9993 -0.0000
vn 0.9479 0.3181 -0.0162
vn 0.9782 0.2069 -0.0152
vn 0.0001 0.0000 -1.0000
vn -0.0141 0.0325 0.9994
vn 0.0037 -0.1001 0.9950
vn -0.5547 -0.8321 0.0000
vn -0.4472 -0.8944 0.0000
vn -0.0353 -0.0705 0.9969
vn -0.0374 -0.0560 0.9977
vn 0.6799 0.7333 -0.0000
vn -0.3988 0.9170 -0.0000
vn -0.0000 0.0000 -1.0000
vn 0.1329 0.2657 0.9548
vn 0.5336 0.8189 0.2115
vn 0.5145 0.8575 -0.0000
vn 0.4472 0.8944 -0.0000
usemtl Material033.001
s off
f 1//1 2//1 3//1
f 8//2 1//2 5//2
f 8//3 5//3 4//3
f 8//3 4//3 6//3
f 9//4 3//4 2//4
f 10//5 7//5 1//5
f 10//6 1//6 3//6
f 10//7 3//7 7//7
f 11//8 5//8 1//8
f 12//9 2//9 1//9
f 12//4 9//4 2//4
f 13//10 8//10 6//10
f 13//11 9//11 12//11
f 13//12 12//12 1//12
f 13//13 1//13 8//13
f 14//14 1//14 7//14
f 15//15 4//15 5//15
f 15//15 5//15 11//15
f 15//16 6//16 4//16
f 15//16 3//16 6//16
f 16//10 13//10 6//10
f 16//11 9//11 13//11
f 16//16 6//16 3//16
f 16//16 3//16 9//16
f 17//17 11//17 1//17
f 17//18 1//18 14//18
f 17//19 14//19 7//19
f 17//20 15//20 11//20
f 18//19 17//19 7//19
f 18//20 15//20 17//20
f 18//16 7//16 3//16
f 18//16 3//16 15//16
