# Blender v3.6.3 OBJ File: 'mouth_cup.blend'
# www.blender.org
mtllib mouth_cup012.mtl
o mouth_cup012
v 0.100994 0.796530 0.100539
v 0.100994 0.784549 0.100539
v 0.083023 0.790539 0.058606
v 0.068783 0.806356 0.057298
v -0.146019 0.384007 0.095418
v 0.089013 0.802520 0.070587
v 0.037115 0.685043 0.104321
v -0.138626 0.383185 0.088558
v 0.078533 0.801068 0.059565
v 0.089013 0.802520 0.100539
v 0.100994 0.796530 0.094549
v 0.100994 0.784549 0.094549
v -0.138626 0.383185 0.094549
v -0.144616 0.455071 0.052615
v 0.065051 0.808511 0.070587
v -0.138626 0.437100 0.094549
v -0.072730 0.526957 0.052615
v 0.059061 0.712663 0.094549
v 0.059061 0.712663 0.100539
v -0.146484 0.420221 0.053272
v -0.030797 0.652758 0.052615
v -0.144616 0.425119 0.094549
v 0.011137 0.688701 0.100539
v -0.138626 0.455071 0.076577
v -0.030797 0.598843 0.052615
v -0.102683 0.443090 0.088558
v -0.148168 0.385266 0.090759
v -0.132635 0.425119 0.052615
v 0.059061 0.802520 0.058606
v -0.015934 0.663075 0.051606
v 0.077032 0.802520 0.100539
v 0.005146 0.676720 0.100539
v -0.144616 0.443090 0.076577
v -0.096692 0.538938 0.058606
v 0.059061 0.748606 0.058606
v -0.138626 0.419128 0.052615
v 0.023118 0.742615 0.064596
v -0.000844 0.652758 0.052615
v 0.059061 0.772568 0.100539
v -0.144616 0.455071 0.058606
v -0.096692 0.538938 0.052615
v 0.059061 0.802520 0.064596
v -0.030797 0.652758 0.058606
v 0.041089 0.766577 0.076577
v -0.006835 0.640777 0.052615
v -0.132635 0.473043 0.064596
v -0.090702 0.532948 0.082568
v 0.053070 0.790539 0.070587
v 0.065051 0.802520 0.082568
v 0.017127 0.706672 0.094549
vn 0.0591 0.0000 0.9983
vn 0.6582 0.3417 -0.6708
vn 0.3353 0.2263 -0.9145
vn 0.4923 0.6694 -0.5563
vn 0.4472 0.8944 0.0000
vn 0.0132 0.0264 0.9996
vn 1.0000 0.0000 0.0000
vn 0.8944 0.0000 -0.4472
vn 0.1060 -0.0937 0.9899
vn -0.1105 -0.9939 0.0000
vn 0.2425 0.9701 0.0000
vn 0.2416 0.9663 -0.0888
vn 0.8638 -0.5039 0.0000
vn 0.7777 -0.4537 -0.4351
vn 0.5185 -0.3024 0.7998
vn 0.5811 -0.3619 0.7289
vn -0.0880 0.0241 0.9958
vn -0.2408 0.1204 0.9631
vn -0.8165 0.4082 0.4082
vn 0.7818 -0.4597 -0.4212
vn 0.8575 -0.5145 0.0000
vn -0.3021 -0.6904 -0.6573
vn -0.2429 -0.9588 -0.1470
vn -0.9032 0.0399 0.4273
vn 0.7798 -0.4679 -0.4159
vn 0.7816 -0.4598 -0.4215
vn -0.3843 0.8882 -0.2520
vn -0.1908 0.1533 -0.9696
vn 0.0433 -0.0255 -0.9987
vn 0.0446 -0.0260 -0.9987
vn -0.1585 0.1326 -0.9784
vn 0.0000 0.0322 0.9995
vn 0.0000 0.9806 0.1961
vn -0.2407 0.1204 0.9631
vn -0.1313 0.0546 0.9898
vn -0.1345 0.0672 0.9886
vn -0.9934 0.0809 0.0809
vn 0.7713 -0.4408 -0.4591
vn 0.7714 -0.4446 -0.4553
vn 0.5774 -0.5773 -0.5774
vn -0.1555 -0.6985 -0.6985
vn -0.0852 -0.0142 -0.9963
vn 0.0083 -0.0083 -0.9999
vn -0.0062 -0.0010 -1.0000
vn -0.8575 0.5145 0.0000
vn 0.0668 0.0001 -0.9978
vn 0.0833 -0.0074 -0.9965
vn -0.1331 0.0761 0.9882
vn -0.1224 0.0735 0.9898
vn -0.6556 0.3746 0.6556
vn -0.8571 0.4286 0.2857
vn -0.9961 0.0732 0.0488
vn -0.9986 0.0535 0.0000
vn -0.9986 0.0528 0.0044
vn -0.8682 0.4961 0.0000
vn -0.8654 0.5010 0.0000
vn -0.1020 0.0583 -0.9931
vn -0.1126 0.0652 -0.9915
vn -0.7071 0.7071 0.0000
vn -0.8348 0.4833 0.2636
vn -0.8298 0.4797 0.2852
vn 0.3652 -0.1826 -0.9129
vn 0.0462 -0.0264 -0.9986
vn 0.0498 -0.0249 -0.9985
vn 0.7379 -0.4216 -0.5271
vn 0.7379 -0.4216 -0.5270
vn -0.8393 0.4663 0.2798
vn -0.8427 0.4815 0.2408
vn -0.8283 0.4783 0.2917
vn -0.8258 0.4764 0.3017
vn -0.7948 0.4586 0.3974
vn -0.7778 0.4444 0.4444
vn -0.8452 0.5071 0.1690
vn -0.8301 0.4842 0.2767
vn -0.7444 0.4467 0.4963
vn -0.8111 0.4867 0.3244
vn -0.5571 0.7428 0.3714
vn -0.8018 0.5345 0.2673
vn -0.7861 0.4542 0.4193
vn -0.7561 0.4369 0.4873
vn -0.7594 0.4396 0.4796
vn -0.7623 0.4404 0.4743
usemtl Material012.001
s off
f 7//1 2//1 1//1
f 9//2 6//2 3//2
f 9//3 3//3 4//3
f 9//4 4//4 6//4
f 10//5 1//5 6//5
f 10//6 7//6 1//6
f 11//5 6//5 1//5
f 11//7 1//7 2//7
f 11//8 3//8 6//8
f 12//7 11//7 2//7
f 12//8 3//8 11//8
f 13//9 7//9 5//9
f 13//10 5//10 8//10
f 15//11 10//11 6//11
f 15//12 6//12 4//12
f 18//13 12//13 2//13
f 18//14 17//14 12//14
f 19//15 2//15 7//15
f 19//16 7//16 13//16
f 19//13 18//13 2//13
f 22//17 5//17 7//17
f 23//18 16//18 22//18
f 24//19 22//19 16//19
f 25//14 12//14 17//14
f 26//20 17//20 18//20
f 26//21 13//21 8//21
f 26//21 19//21 13//21
f 26//21 18//21 19//21
f 27//22 20//22 8//22
f 27//23 8//23 5//23
f 27//24 5//24 22//24
f 28//25 26//25 8//25
f 28//26 17//26 26//26
f 29//27 15//27 4//27
f 29//28 4//28 21//28
f 30//29 17//29 28//29
f 30//30 25//30 17//30
f 30//31 21//31 4//31
f 31//32 7//32 10//32
f 31//33 10//33 15//33
f 32//34 23//34 22//34
f 32//35 22//35 7//35
f 32//36 7//36 23//36
f 33//19 22//19 24//19
f 33//37 27//37 22//37
f 35//38 3//38 12//38
f 35//39 12//39 25//39
f 36//40 28//40 8//40
f 36//41 8//41 20//41
f 36//42 20//42 14//42
f 36//43 30//43 28//43
f 36//44 14//44 30//44
f 37//45 29//45 21//45
f 38//46 30//46 4//46
f 38//47 4//47 3//47
f 39//48 23//48 7//48
f 39//49 7//49 31//49
f 39//50 16//50 23//50
f 40//51 33//51 24//51
f 40//52 27//52 33//52
f 40//53 14//53 20//53
f 40//54 20//54 27//54
f 40//55 34//55 14//55
f 41//56 34//56 21//56
f 41//55 14//55 34//55
f 41//57 30//57 14//57
f 41//58 21//58 30//58
f 42//59 15//59 29//59
f 42//45 29//45 37//45
f 43//45 37//45 21//45
f 43//56 21//56 34//56
f 43//60 34//60 37//60
f 44//61 37//61 34//61
f 45//62 38//62 3//62
f 45//63 25//63 30//63
f 45//64 30//64 38//64
f 45//65 35//65 25//65
f 45//66 3//66 35//66
f 46//67 40//67 24//67
f 46//68 34//68 40//68
f 46//69 44//69 34//69
f 46//70 24//70 44//70
f 47//71 44//71 24//71
f 47//72 24//72 16//72
f 48//73 42//73 37//73
f 48//74 37//74 44//74
f 49//75 39//75 31//75
f 49//76 48//76 44//76
f 49//77 31//77 15//77
f 49//78 15//78 42//78
f 49//78 42//78 48//78
f 49//79 44//79 47//79
f 50//80 16//80 39//80
f 50//81 39//81 49//81
f 50//82 49//82 47//82
f 50//82 47//82 16//82
