# Blender v3.6.3 OBJ File: 'mouth_cup.blend'
# www.blender.org
mtllib mouth_cup021.mtl
o mouth_cup021
v 0.234613 0.376153 -0.031459
v 0.232785 0.347242 -0.049223
v 0.232785 0.377195 -0.085166
v 0.200485 0.411069 -0.124547
v 0.166890 0.359223 -0.115119
v 0.206323 0.411156 -0.118413
v 0.232785 0.359223 -0.073185
v 0.217312 0.345818 -0.031535
v 0.196842 0.413138 -0.115119
v 0.196842 0.353233 -0.121109
v 0.232785 0.371204 -0.085166
v 0.228966 0.349447 -0.030817
v 0.178871 0.383185 -0.121109
v 0.203768 0.412606 -0.121992
v 0.214814 0.359223 -0.031252
v 0.208823 0.347242 -0.103138
v 0.178871 0.383185 -0.115119
v 0.170231 0.357326 -0.124263
v 0.202833 0.365214 -0.121109
v 0.220804 0.371204 -0.103138
v 0.226795 0.377195 -0.031252
v 0.172880 0.347242 -0.103138
v 0.226795 0.353233 -0.079176
v 0.226795 0.347242 -0.067195
v 0.214814 0.365214 -0.109128
v 0.172880 0.353233 -0.103138
v 0.167157 0.347091 -0.121361
v 0.226795 0.359223 -0.085166
v 0.202833 0.353233 -0.115119
v 0.190852 0.347242 -0.121109
v 0.169711 0.345640 -0.117782
vn 0.7959 0.6052 -0.0153
vn 0.9985 -0.0483 -0.0241
vn 0.2875 0.9172 0.2757
vn 0.9994 0.0000 -0.0340
vn 0.9990 -0.0311 -0.0311
vn 0.2832 -0.9435 0.1718
vn 0.9551 -0.1966 0.2217
vn -0.7463 0.5287 -0.4043
vn 0.2648 0.9446 0.1938
vn -0.2135 0.9337 -0.2874
vn 0.8297 0.1108 -0.5472
vn -0.0519 -0.0308 0.9982
vn -0.8944 0.4472 0.0000
vn -0.8575 0.5145 0.0000
vn -0.7625 0.4575 0.4575
vn -0.7964 0.3982 0.4551
vn -0.8607 0.3344 -0.3839
vn -0.4693 0.2597 -0.8440
vn 0.1074 -0.0657 -0.9920
vn 0.1345 -0.0672 -0.9886
vn 0.6216 -0.0269 -0.7829
vn 0.8176 0.0766 -0.5706
vn 0.8321 0.0000 -0.5547
vn 0.1328 0.9273 0.3500
vn -0.7337 0.4891 0.4717
vn -0.0210 0.0140 0.9997
vn 0.0289 0.0179 0.9994
vn -0.8392 -0.1674 0.5174
vn 0.0665 -0.9975 -0.0222
vn 0.0521 -0.9983 -0.0260
vn 0.6667 -0.6667 -0.3333
vn 0.8018 -0.5345 -0.2673
vn 0.7068 -0.0271 -0.7068
vn 0.7177 -0.0217 -0.6960
vn 0.8018 -0.2673 -0.5345
vn -0.8638 0.0000 0.5039
vn -0.8616 0.1231 0.4924
vn -0.8944 0.0000 0.4472
vn -0.9392 -0.1732 0.2964
vn -0.9137 0.1698 -0.3691
vn 0.7625 -0.4575 -0.4575
vn 0.8165 -0.4082 -0.4082
vn 0.7807 -0.3904 -0.4880
vn 0.7664 -0.4180 -0.4877
vn 0.7071 -0.4243 -0.5657
vn 0.6667 -0.3333 -0.6667
vn 0.0120 -0.2760 -0.9611
vn 0.1016 -0.1016 -0.9896
vn 0.5773 -0.5774 -0.5774
vn 0.5774 -0.5774 -0.5773
vn -0.3004 -0.9389 0.1677
vn -0.7007 -0.6769 0.2257
vn 0.0100 -0.9242 -0.3817
vn 0.0652 -0.9957 -0.0652
vn 0.0506 -0.9984 -0.0259
usemtl Material021.001
s off
f 6//1 1//1 3//1
f 7//2 1//2 2//2
f 9//3 1//3 6//3
f 11//4 3//4 1//4
f 11//5 1//5 7//5
f 12//6 8//6 2//6
f 12//7 2//7 1//7
f 13//8 9//8 4//8
f 14//9 9//9 6//9
f 14//10 4//10 9//10
f 14//11 6//11 3//11
f 15//12 8//12 12//12
f 17//13 13//13 5//13
f 17//14 9//14 13//14
f 17//15 15//15 9//15
f 17//16 5//16 15//16
f 18//17 5//17 13//17
f 18//18 13//18 4//18
f 18//19 4//19 10//19
f 19//20 10//20 4//20
f 19//21 4//21 14//21
f 20//22 14//22 3//22
f 20//23 3//23 11//23
f 21//24 1//24 9//24
f 21//25 9//25 15//25
f 21//26 15//26 12//26
f 21//27 12//27 1//27
f 22//28 8//28 15//28
f 24//29 2//29 8//29
f 24//30 8//30 16//30
f 24//31 16//31 23//31
f 24//32 23//32 7//32
f 24//32 7//32 2//32
f 25//33 19//33 14//33
f 25//34 14//34 20//34
f 25//35 20//35 11//35
f 26//36 22//36 15//36
f 26//37 15//37 5//37
f 26//38 5//38 22//38
f 27//39 22//39 5//39
f 27//40 5//40 18//40
f 28//41 23//41 16//41
f 28//42 11//42 7//42
f 28//42 7//42 23//42
f 28//43 25//43 11//43
f 28//44 16//44 25//44
f 29//45 25//45 16//45
f 29//46 10//46 19//46
f 29//46 19//46 25//46
f 30//47 27//47 18//47
f 30//48 18//48 10//48
f 30//49 29//49 16//49
f 30//50 10//50 29//50
f 31//51 8//51 22//51
f 31//52 22//52 27//52
f 31//53 27//53 30//53
f 31//54 30//54 16//54
f 31//55 16//55 8//55
