# Blender v3.6.3 OBJ File: 'mouth_cup.blend'
# www.blender.org
mtllib mouth_cup017.mtl
o mouth_cup017
v -0.096692 0.371204 -0.139081
v -0.012954 0.305393 -0.182570
v -0.042779 0.305306 -0.139081
v -0.018816 0.371204 -0.192995
v -0.072730 0.305309 -0.187005
v -0.013152 0.371418 -0.178987
v -0.102683 0.371204 -0.163043
v -0.048768 0.293328 -0.192995
v -0.101309 0.337945 -0.139422
v -0.012825 0.323280 -0.175024
v -0.012825 0.371204 -0.192995
v -0.024806 0.371204 -0.169033
v -0.078721 0.353233 -0.181014
v -0.104686 0.372384 -0.141913
v -0.054759 0.305309 -0.192995
v -0.054759 0.293328 -0.163043
v -0.047272 0.307900 -0.139081
v -0.101089 0.334341 -0.165590
v -0.012569 0.305161 -0.189993
v -0.066740 0.371204 -0.181014
v -0.054759 0.293328 -0.192995
v -0.060749 0.347242 -0.187005
v -0.072730 0.323280 -0.187005
v -0.047084 0.296244 -0.163043
v -0.066740 0.299318 -0.163043
v -0.102683 0.353233 -0.169033
v -0.096692 0.365214 -0.169033
v -0.042778 0.329271 -0.192995
v -0.048768 0.365214 -0.187005
v -0.066740 0.299318 -0.187005
v -0.084711 0.341252 -0.181014
v -0.096692 0.335261 -0.175024
v -0.084711 0.365214 -0.175024
v -0.096692 0.341252 -0.175024
vn 0.7521 0.0591 0.6564
vn 0.8013 -0.2374 0.5491
vn 0.0000 -0.0000 -1.0000
vn 0.9997 0.0087 0.0232
vn 0.3669 0.3002 0.8805
vn 0.6385 0.1673 0.7512
vn 0.0000 0.9997 -0.0231
vn 0.0044 0.9999 -0.0152
vn 0.0365 0.9973 0.0642
vn 0.0781 0.9792 0.1874
vn -0.3290 0.0360 0.9436
vn 0.3028 -0.9511 0.0606
vn -0.1615 -0.2801 0.9463
vn 0.0000 0.0000 1.0000
vn -0.0112 -0.0087 0.9999
vn -0.9953 -0.0972 0.0050
vn 0.3070 -0.9506 0.0456
vn 0.0971 -0.0448 -0.9943
vn 0.9999 0.0044 0.0118
vn 0.9982 -0.0294 0.0526
vn -0.0099 0.9992 -0.0398
vn -0.0292 0.9979 -0.0585
vn -0.3162 0.0000 -0.9487
vn 0.0000 -1.0000 0.0000
vn -0.2722 0.1361 -0.9526
vn 0.3495 -0.9195 0.1800
vn 0.3879 -0.8830 0.2642
vn 0.3412 -0.8979 0.2782
vn -0.4472 -0.8944 0.0000
vn -0.7141 -0.7001 0.0035
vn -0.7143 -0.6941 0.0896
vn -0.3714 -0.7428 0.5570
vn -0.4001 -0.7114 0.5778
vn -0.9962 -0.0863 -0.0126
vn -0.9949 0.0320 -0.0961
vn -0.5345 0.2673 -0.8018
vn -0.2061 0.1177 -0.9714
vn -0.2157 0.1078 -0.9705
vn -0.2357 0.2357 -0.9428
vn -0.2224 0.1483 -0.9636
vn -0.2592 0.1728 -0.9503
vn -0.7071 -0.7071 0.0000
vn -0.5773 -0.5774 -0.5773
vn -0.4472 -0.0000 -0.8944
vn -0.7850 -0.4635 -0.4111
vn -0.8898 -0.1534 -0.4297
vn -0.3810 0.2540 -0.8890
vn -0.4364 0.2182 -0.8729
vn -0.4083 0.4083 -0.8165
vn -0.4082 0.4082 -0.8165
vn -0.7071 0.0000 -0.7071
usemtl Material017.001
s off
f 10//1 6//1 3//1
f 10//2 3//2 2//2
f 11//3 8//3 4//3
f 11//4 6//4 10//4
f 12//5 1//5 3//5
f 12//6 3//6 6//6
f 14//7 11//7 4//7
f 14//8 6//8 11//8
f 14//9 12//9 6//9
f 14//10 1//10 12//10
f 14//11 9//11 1//11
f 15//3 4//3 8//3
f 16//12 8//12 2//12
f 17//13 9//13 3//13
f 17//14 3//14 1//14
f 17//15 1//15 9//15
f 18//16 9//16 14//16
f 19//17 2//17 8//17
f 19//18 8//18 11//18
f 19//19 11//19 10//19
f 19//20 10//20 2//20
f 20//21 14//21 4//21
f 20//22 7//22 14//22
f 21//3 15//3 8//3
f 21//23 5//23 15//23
f 21//24 8//24 16//24
f 23//23 15//23 5//23
f 23//25 13//25 22//25
f 24//26 16//26 2//26
f 24//27 2//27 3//27
f 24//28 3//28 16//28
f 25//29 21//29 16//29
f 25//30 18//30 5//30
f 25//31 9//31 18//31
f 25//32 16//32 3//32
f 25//33 3//33 9//33
f 26//34 18//34 14//34
f 26//35 14//35 7//35
f 27//36 26//36 7//36
f 28//37 22//37 4//37
f 28//3 4//3 15//3
f 28//38 23//38 22//38
f 28//38 15//38 23//38
f 29//39 20//39 4//39
f 29//40 4//40 22//40
f 29//41 22//41 13//41
f 29//41 13//41 20//41
f 30//42 25//42 5//42
f 30//43 5//43 21//43
f 30//29 21//29 25//29
f 31//25 13//25 23//25
f 31//44 23//44 5//44
f 32//45 5//45 18//45
f 32//46 18//46 26//46
f 32//44 31//44 5//44
f 33//47 20//47 13//47
f 33//48 31//48 27//48
f 33//48 13//48 31//48
f 33//49 27//49 7//49
f 33//50 7//50 20//50
f 34//51 32//51 26//51
f 34//44 31//44 32//44
f 34//48 26//48 27//48
f 34//48 27//48 31//48
