# Blender v3.6.3 OBJ File: 'mouth_cup.blend'
# www.blender.org
mtllib mouth_cup026.mtl
o mouth_cup026
v 0.167127 0.664602 0.187620
v 0.166686 0.574999 0.188005
v 0.166890 0.646767 0.172425
v 0.106082 0.665274 0.162408
v 0.083023 0.568891 0.190397
v 0.089013 0.526957 0.172425
v 0.166434 0.665037 0.177946
v 0.166925 0.574863 0.178815
v 0.136937 0.664739 0.190397
v 0.082945 0.610870 0.166603
v 0.106913 0.503036 0.189560
v 0.118966 0.664739 0.160444
v 0.112975 0.664739 0.184406
v 0.082908 0.503070 0.179803
v 0.107201 0.502886 0.180874
v 0.118966 0.658748 0.160444
v 0.100994 0.604834 0.190397
v 0.083023 0.610824 0.184406
v 0.083023 0.526957 0.172425
v 0.083191 0.502898 0.188423
v 0.095004 0.532948 0.172425
v 0.106985 0.646767 0.160444
v 0.081583 0.575749 0.171977
v 0.108716 0.663739 0.174676
v 0.112975 0.646767 0.160444
v 0.089013 0.574881 0.166435
vn 0.9965 0.0458 -0.0693
vn 0.9996 -0.0048 0.0261
vn 0.9999 -0.0008 -0.0146
vn 0.0916 0.0038 0.9958
vn -0.0014 0.9998 0.0207
vn 0.0086 0.9990 0.0443
vn 0.0137 -0.0077 0.9999
vn 0.0415 -0.0129 0.9991
vn 0.3305 0.2806 -0.9011
vn 0.0274 0.9954 -0.0914
vn -0.0066 0.9996 0.0264
vn 0.7697 -0.6378 0.0294
vn 0.7691 -0.6380 0.0365
vn 0.0397 -0.3041 -0.9518
vn 0.2425 0.0000 -0.9701
vn 0.2213 -0.0862 -0.9714
vn 0.0000 0.0000 1.0000
vn -0.2400 0.1440 0.9600
vn -0.2677 0.1487 0.9519
vn -0.2722 0.1361 0.9526
vn -0.9201 0.3917 0.0050
vn 0.0000 -0.2951 -0.9555
vn -0.0477 -0.0300 0.9984
vn 0.0050 -0.9998 0.0175
vn -0.0067 -0.9998 -0.0197
vn 0.1924 -0.1924 -0.9623
vn 0.1965 -0.1906 -0.9618
vn -0.3593 0.0811 -0.9297
vn -0.1460 0.0974 -0.9845
vn 0.0000 0.0000 -1.0000
vn -0.9965 0.0118 0.0823
vn -0.9971 -0.0048 0.0762
vn -0.9994 -0.0147 0.0325
vn -0.9992 0.0394 0.0045
vn -0.9931 -0.0304 -0.1137
vn -0.9029 -0.0306 -0.4288
vn -0.8294 0.4608 0.3157
vn -0.6948 0.6800 0.2343
vn -0.8549 0.4594 0.2411
vn 0.1992 -0.0996 -0.9749
vn 0.1618 -0.1285 -0.9784
vn 0.1231 -0.1231 -0.9847
vn -0.4032 -0.0637 -0.9129
vn -0.2057 -0.0301 -0.9782
vn 0.0000 -0.1240 -0.9923
vn 0.0000 -0.0830 -0.9965
usemtl Material026.001
s off
f 7//1 1//1 3//1
f 8//2 1//2 2//2
f 8//3 3//3 1//3
f 9//4 2//4 1//4
f 9//5 7//5 4//5
f 9//6 1//6 7//6
f 11//7 9//7 5//7
f 11//8 2//8 9//8
f 12//9 7//9 3//9
f 12//10 4//10 7//10
f 13//11 9//11 4//11
f 15//12 8//12 2//12
f 15//13 2//13 11//13
f 15//14 14//14 6//14
f 16//15 12//15 3//15
f 16//16 3//16 8//16
f 17//17 5//17 9//17
f 17//18 9//18 13//18
f 18//19 17//19 13//19
f 18//20 5//20 17//20
f 18//21 4//21 10//21
f 19//22 6//22 14//22
f 20//23 11//23 5//23
f 20//24 15//24 11//24
f 20//25 14//25 15//25
f 21//26 15//26 6//26
f 21//27 8//27 15//27
f 22//28 10//28 4//28
f 22//29 4//29 12//29
f 22//30 12//30 16//30
f 23//31 5//31 18//31
f 23//32 20//32 5//32
f 23//33 14//33 20//33
f 23//34 18//34 10//34
f 23//35 19//35 14//35
f 23//36 10//36 19//36
f 24//37 18//37 13//37
f 24//38 13//38 4//38
f 24//39 4//39 18//39
f 25//40 16//40 8//40
f 25//41 8//41 21//41
f 25//30 22//30 16//30
f 25//42 21//42 6//42
f 26//43 19//43 10//43
f 26//44 10//44 22//44
f 26//45 6//45 19//45
f 26//42 25//42 6//42
f 26//46 22//46 25//46
