# Blender v3.6.3 OBJ File: 'mouth_cup.blend'
# www.blender.org
mtllib mouth_cup010.mtl
o mouth_cup010
v -0.048768 0.502995 -0.115119
v 0.035099 0.395166 -0.175024
v 0.035099 0.467052 -0.169033
v 0.017127 0.479033 -0.187005
v -0.053666 0.370573 -0.176855
v 0.035099 0.449081 -0.192995
v 0.009010 0.504256 -0.161677
v -0.048768 0.497005 -0.115119
v -0.054759 0.502995 -0.145071
v 0.035888 0.478577 -0.184000
v -0.042778 0.377195 -0.187005
v -0.048768 0.371204 -0.163043
v -0.000844 0.502995 -0.175024
v -0.056842 0.504218 -0.117101
v 0.035383 0.395002 -0.189659
v 0.033667 0.479896 -0.174542
v 0.023118 0.443090 -0.192995
v -0.054759 0.395166 -0.181014
v -0.024806 0.371204 -0.169033
v -0.030797 0.502995 -0.163043
v 0.011137 0.497005 -0.181014
v -0.058405 0.499145 -0.118588
v 0.012058 0.502464 -0.173034
v 0.005146 0.461062 -0.187005
v 0.029108 0.449081 -0.192995
v -0.000844 0.395166 -0.192995
v -0.042778 0.371204 -0.187005
v -0.018553 0.371053 -0.186006
v -0.054759 0.461062 -0.163043
v 0.005146 0.497005 -0.181014
v -0.056758 0.372390 -0.167391
v -0.000844 0.401157 -0.192995
v -0.019507 0.371621 -0.177685
v -0.042778 0.461062 -0.169033
v -0.042778 0.497005 -0.157052
v -0.030797 0.437100 -0.181014
vn 0.6002 0.2721 0.7522
vn 0.5214 -0.0709 0.8504
vn 0.5408 0.0000 0.8412
vn 0.9988 -0.0041 0.0495
vn 0.1584 0.2841 -0.9456
vn 0.1089 0.9808 0.1617
vn -0.2385 0.0000 0.9711
vn 0.9998 -0.0074 0.0195
vn 0.9962 -0.0001 -0.0870
vn 0.6818 0.3512 0.6417
vn 0.9610 0.1924 0.1988
vn 0.2294 -0.3462 0.9097
vn 0.2275 -0.3467 0.9100
vn 0.0105 -0.9991 0.0419
vn -0.0291 0.9969 -0.0727
vn -0.0301 0.9986 -0.0437
vn -0.0347 0.9983 -0.0462
vn 0.1561 0.3588 -0.9203
vn -0.3837 -0.3287 0.8630
vn -0.3651 -0.1565 0.9177
vn -0.9451 0.3158 -0.0842
vn 0.7228 0.6871 0.0739
vn 0.7225 0.6861 0.0856
vn 0.4613 0.7066 -0.5366
vn 0.1214 0.8127 -0.5699
vn 0.0622 0.9883 -0.1393
vn -0.2061 0.1177 -0.9714
vn -0.1945 0.1296 -0.9723
vn -0.2572 0.1469 -0.9551
vn -0.1400 0.1400 -0.9802
vn 0.0000 0.1961 -0.9806
vn 0.0000 0.0000 -1.0000
vn 0.0913 -0.0608 -0.9940
vn -0.4472 0.0000 -0.8944
vn -0.6691 -0.1527 -0.7273
vn -0.1414 0.0000 -0.9899
vn 0.4068 -0.9133 0.0182
vn 0.0177 -0.9997 0.0154
vn -0.0035 -0.9978 -0.0658
vn 0.0373 -0.3034 -0.9521
vn 0.0849 -0.3344 -0.9386
vn -0.9902 0.0550 -0.1283
vn -0.9939 0.0290 -0.1064
vn -0.3244 0.4867 -0.8111
vn 0.0000 0.7071 -0.7071
vn 0.0000 0.3162 -0.9487
vn -0.2394 0.1596 -0.9577
vn -0.2084 -0.9709 0.1182
vn -0.4891 -0.3189 0.8118
vn -0.9944 0.0263 -0.1019
vn -0.9516 -0.0919 -0.2932
vn 0.3893 -0.9149 0.1071
vn 0.3809 -0.9049 0.1897
vn 0.2269 -0.9695 0.0922
vn -0.4333 0.2476 -0.8666
vn -0.4345 0.2370 -0.8689
vn -0.5855 0.3193 -0.7451
vn -0.5571 0.3714 -0.7428
vn -0.5449 0.3114 -0.7785
vn -0.2643 0.1586 -0.9513
vn -0.4111 0.2349 -0.8808
vn -0.4016 0.2410 -0.8835
usemtl Material010.001
s off
f 7//1 1//1 3//1
f 8//2 2//2 3//2
f 8//3 3//3 1//3
f 10//4 3//4 2//4
f 10//5 6//5 4//5
f 14//6 1//6 7//6
f 14//7 8//7 1//7
f 15//8 10//8 2//8
f 15//9 6//9 10//9
f 16//10 7//10 3//10
f 16//11 3//11 10//11
f 19//12 2//12 8//12
f 19//13 8//13 12//13
f 19//14 12//14 5//14
f 20//15 7//15 13//15
f 20//16 14//16 7//16
f 20//17 9//17 14//17
f 21//18 10//18 4//18
f 22//19 12//19 8//19
f 22//20 8//20 14//20
f 22//21 14//21 9//21
f 23//22 16//22 10//22
f 23//23 7//23 16//23
f 23//24 10//24 21//24
f 23//25 21//25 13//25
f 23//26 13//26 7//26
f 24//27 17//27 11//27
f 24//28 4//28 17//28
f 24//29 11//29 18//29
f 25//30 17//30 4//30
f 25//31 4//31 6//31
f 25//32 6//32 17//32
f 26//32 17//32 6//32
f 26//33 6//33 15//33
f 27//34 18//34 11//34
f 27//35 5//35 18//35
f 27//36 11//36 26//36
f 28//37 15//37 2//37
f 28//38 19//38 5//38
f 28//39 5//39 27//39
f 28//40 27//40 26//40
f 28//41 26//41 15//41
f 29//42 22//42 9//42
f 29//43 18//43 22//43
f 30//44 20//44 13//44
f 30//45 13//45 21//45
f 30//46 21//46 4//46
f 30//47 4//47 24//47
f 31//48 5//48 12//48
f 31//49 12//49 22//49
f 31//50 22//50 18//50
f 31//51 18//51 5//51
f 32//36 26//36 11//36
f 32//27 11//27 17//27
f 32//32 17//32 26//32
f 33//52 28//52 2//52
f 33//53 2//53 19//53
f 33//54 19//54 28//54
f 34//55 29//55 20//55
f 34//56 18//56 29//56
f 35//57 29//57 9//57
f 35//58 9//58 20//58
f 35//59 20//59 29//59
f 36//60 30//60 24//60
f 36//29 24//29 18//29
f 36//61 18//61 34//61
f 36//62 34//62 20//62
f 36//62 20//62 30//62
