# Blender v3.6.3 OBJ File: 'mouth_cup.blend'
# www.blender.org
mtllib mouth_cup019.mtl
o mouth_cup019
v 0.095004 0.796530 -0.085166
v 0.142928 0.652758 -0.169033
v 0.142928 0.772568 -0.145071
v 0.136937 0.724644 -0.181014
v -0.000844 0.664739 -0.097147
v 0.142928 0.724644 -0.181014
v 0.089013 0.796530 -0.121109
v 0.142928 0.754596 -0.145071
v 0.023118 0.664739 -0.085166
v 0.100994 0.652758 -0.181014
v 0.143927 0.763314 -0.164363
v 0.100994 0.796530 -0.121109
v 0.071042 0.802520 -0.085166
v 0.095004 0.784549 -0.085166
v 0.095004 0.652758 -0.151062
v 0.143241 0.652577 -0.185811
v 0.041089 0.670729 -0.145071
v 0.136937 0.766577 -0.169033
v 0.100994 0.796530 -0.097147
v 0.005146 0.676720 -0.103138
v 0.089013 0.802520 -0.103138
v -0.000289 0.664418 -0.084824
v 0.053070 0.712663 -0.085166
v 0.084217 0.652068 -0.166454
v 0.142928 0.688701 -0.187005
v 0.071042 0.676720 -0.163043
v 0.142928 0.748606 -0.175024
v 0.124956 0.778558 -0.157052
v 0.142928 0.772568 -0.163043
v 0.112975 0.790539 -0.133090
v 0.071042 0.802520 -0.091157
v 0.005146 0.688701 -0.085166
v 0.011137 0.670729 -0.115119
v 0.089013 0.802520 -0.085166
v 0.035099 0.682710 -0.085166
v 0.091366 0.651400 -0.169942
v 0.041089 0.664739 -0.145071
v 0.124956 0.664739 -0.187005
v 0.100994 0.664739 -0.181014
v 0.136937 0.748606 -0.175024
v 0.106985 0.784549 -0.145071
v 0.112975 0.790539 -0.115119
v 0.130947 0.778558 -0.157052
v 0.071042 0.784549 -0.109128
v 0.083023 0.802520 -0.103138
v -0.000844 0.676720 -0.091157
v 0.053070 0.772568 -0.085166
v -0.000844 0.670729 -0.097147
v 0.041089 0.694691 -0.133090
v 0.126406 0.651921 -0.181488
v 0.089013 0.664739 -0.175024
v 0.011137 0.664739 -0.115119
v 0.136937 0.688701 -0.187005
v 0.124956 0.706672 -0.181014
v 0.124956 0.772568 -0.163043
v 0.083023 0.796530 -0.115119
v 0.053070 0.772568 -0.091157
v 0.017127 0.682710 -0.115119
v -0.000844 0.676720 -0.085166
v 0.071042 0.736625 -0.139081
v 0.059061 0.664739 -0.157052
v 0.077032 0.688701 -0.163043
v 0.100994 0.760587 -0.151062
v 0.089013 0.688701 -0.169033
vn 0.7809 0.0000 0.6247
vn 0.9988 -0.0110 0.0467
vn 0.9987 0.0000 0.0517
vn 0.7318 -0.1561 0.6635
vn 0.1096 -0.9500 0.2923
vn 0.9998 -0.0098 0.0188
vn 0.7428 0.5571 0.3714
vn 0.0000 0.9487 -0.3162
vn 0.4472 0.8944 0.0000
vn 0.0036 0.0000 1.0000
vn 0.0163 -0.9805 0.1960
vn 0.5304 -0.3094 0.7893
vn 0.0136 -0.0079 0.9999
vn -0.1619 -0.9866 -0.0184
vn -0.0610 -0.9943 0.0873
vn 0.9951 0.0162 -0.0974
vn 0.9978 0.0065 -0.0654
vn 0.0000 0.1644 -0.9864
vn 0.9893 0.0354 -0.1415
vn 0.0000 0.2425 -0.9701
vn 0.9942 0.1073 0.0000
vn 0.4082 0.4082 -0.8165
vn 0.9474 0.1431 -0.2862
vn 0.5145 0.8575 0.0000
vn 0.0000 0.8944 -0.4472
vn 0.0000 1.0000 0.0000
vn 0.6667 0.6667 0.3333
vn 0.0015 0.0015 1.0000
vn 0.0000 0.0025 1.0000
vn 0.5153 -0.3435 0.7852
vn 0.5263 -0.3158 0.7895
vn 0.0140 -0.0084 0.9999
vn 0.0148 -0.0098 0.9998
vn -0.2436 -0.9142 -0.3239
vn 0.0251 -0.9974 0.0669
vn -0.0532 -0.9952 0.0818
vn -0.4820 -0.6512 -0.5862
vn -0.7071 0.0000 -0.7071
vn 0.0435 -0.0326 -0.9985
vn -0.1100 -0.2596 -0.9594
vn -0.2425 0.0000 -0.9701
vn 0.0000 0.3162 -0.9487
vn 0.6172 0.7715 0.1543
vn 0.3651 0.9129 -0.1826
vn 0.0000 0.7071 -0.7071
vn -0.4082 0.8165 -0.4083
vn -0.8575 0.5145 0.0000
vn -0.0405 0.0232 0.9989
vn -0.0297 0.0178 0.9994
vn -0.8321 0.0000 -0.5547
vn -0.8018 0.2673 -0.5345
vn -0.8165 0.4082 -0.4083
vn -1.0000 0.0000 0.0000
vn -0.6667 0.3333 -0.6667
vn -0.0354 -0.9878 -0.1519
vn -0.0369 -0.9567 -0.2887
vn 0.0419 -0.9991 0.0116
vn 0.0257 -0.9991 0.0330
vn -0.4472 0.0000 -0.8944
vn -0.4364 0.2182 -0.8729
vn -0.4497 -0.7717 -0.4497
vn -0.3036 -0.9311 -0.2024
vn -0.8320 0.0000 -0.5547
vn 0.0000 -0.0000 -1.0000
vn -0.2408 0.1204 -0.9631
vn -0.3419 0.2279 -0.9117
vn -0.2572 0.1469 -0.9551
vn -0.2394 0.1596 -0.9577
vn -0.3015 0.3015 -0.9045
vn -0.2294 0.6883 -0.6882
vn -0.4016 0.2410 -0.8835
vn -0.7276 0.4851 -0.4851
vn -0.7644 0.4410 -0.4704
vn -0.7625 0.4575 -0.4575
vn -0.7990 0.4494 -0.3995
vn -0.8664 0.4874 -0.1083
vn -0.8682 0.4961 0.0000
vn -0.7428 0.3714 -0.5571
vn -0.7379 0.4216 -0.5271
vn -0.6994 0.4049 -0.5890
vn -0.6692 0.3875 -0.6340
vn -0.9981 -0.0438 0.0438
vn -0.0510 0.0255 0.9984
vn -0.8944 0.4472 0.0000
vn -0.6271 0.3484 -0.6967
vn -0.6321 0.3904 -0.6693
vn -0.6509 0.3906 -0.6509
vn -0.5547 0.0000 -0.8321
vn -0.5270 0.1054 -0.8433
vn -0.5126 0.0854 -0.8544
vn -0.5126 -0.0854 -0.8544
vn -0.5345 -0.2673 -0.8018
vn -0.5345 0.2673 -0.8018
vn -0.5450 0.3114 -0.7785
vn -0.5488 0.3293 -0.7684
vn -0.5663 0.3304 -0.7551
vn -0.5639 0.3253 -0.7591
vn -0.4127 0.2397 -0.8788
vn -0.4111 0.2349 -0.8808
vn -0.4333 0.2476 -0.8666
usemtl Material019.001
s off
f 8//1 3//1 1//1
f 11//2 8//2 2//2
f 11//3 3//3 8//3
f 14//1 8//1 1//1
f 14//4 2//4 8//4
f 15//5 2//5 9//5
f 16//6 11//6 2//6
f 19//7 1//7 3//7
f 21//8 12//8 7//8
f 21//9 19//9 12//9
f 22//10 14//10 1//10
f 22//11 15//11 9//11
f 23//12 2//12 14//12
f 23//13 14//13 22//13
f 24//14 22//14 5//14
f 24//15 15//15 22//15
f 25//16 6//16 11//16
f 25//17 11//17 16//17
f 25//18 4//18 6//18
f 27//19 11//19 6//19
f 27//20 6//20 4//20
f 29//21 3//21 11//21
f 29//22 27//22 18//22
f 29//23 11//23 27//23
f 30//9 12//9 19//9
f 30//24 3//24 29//24
f 30//25 28//25 7//25
f 30//25 7//25 12//25
f 31//26 13//26 21//26
f 34//26 21//26 13//26
f 34//27 1//27 19//27
f 34//9 19//9 21//9
f 34//28 22//28 1//28
f 34//29 13//29 22//29
f 35//30 9//30 2//30
f 35//31 2//31 23//31
f 35//32 23//32 22//32
f 35//33 22//33 9//33
f 36//34 24//34 10//34
f 36//35 2//35 15//35
f 36//36 15//36 24//36
f 37//37 10//37 24//37
f 37//38 33//38 17//38
f 38//39 25//39 16//39
f 38//40 16//40 10//40
f 39//41 38//41 10//41
f 40//20 27//20 4//20
f 40//42 18//42 27//42
f 41//25 7//25 28//25
f 42//9 30//9 19//9
f 42//43 19//43 3//43
f 42//24 3//24 30//24
f 43//44 30//44 29//44
f 43//45 29//45 28//45
f 43//25 28//25 30//25
f 45//26 31//26 21//26
f 45//8 21//8 7//8
f 45//46 7//46 31//46
f 47//47 13//47 31//47
f 47//48 32//48 22//48
f 47//49 22//49 13//49
f 48//50 33//50 5//50
f 48//51 20//51 33//51
f 48//52 46//52 20//52
f 48//53 5//53 46//53
f 49//54 17//54 33//54
f 50//55 36//55 10//55
f 50//56 10//56 16//56
f 50//57 16//57 2//57
f 50//58 2//58 36//58
f 51//59 39//59 10//59
f 51//60 26//60 39//60
f 52//61 37//61 24//61
f 52//62 24//62 5//62
f 52//63 5//63 33//63
f 52//38 33//38 37//38
f 53//18 4//18 25//18
f 53//64 25//64 38//64
f 53//65 38//65 39//65
f 54//66 40//66 4//66
f 54//67 53//67 39//67
f 54//68 4//68 53//68
f 55//69 18//69 40//69
f 55//70 41//70 28//70
f 55//45 29//45 18//45
f 55//45 28//45 29//45
f 55//71 40//71 54//71
f 56//72 44//72 31//72
f 56//46 31//46 7//46
f 57//73 44//73 20//73
f 57//74 31//74 44//74
f 57//75 20//75 46//75
f 57//47 47//47 31//47
f 57//76 46//76 32//76
f 57//77 32//77 47//77
f 58//78 33//78 20//78
f 58//79 20//79 44//79
f 58//80 44//80 56//80
f 58//81 56//81 49//81
f 58//54 49//54 33//54
f 59//53 46//53 5//53
f 59//82 5//82 22//82
f 59//83 22//83 32//83
f 59//84 32//84 46//84
f 60//85 17//85 49//85
f 60//86 7//86 41//86
f 60//87 56//87 7//87
f 60//81 49//81 56//81
f 61//88 37//88 17//88
f 61//89 17//89 26//89
f 61//90 26//90 51//90
f 61//91 51//91 10//91
f 61//92 10//92 37//92
f 62//93 26//93 17//93
f 62//94 17//94 55//94
f 62//60 39//60 26//60
f 63//94 55//94 17//94
f 63//95 41//95 55//95
f 63//96 60//96 41//96
f 63//97 17//97 60//97
f 64//98 55//98 54//98
f 64//99 54//99 39//99
f 64//100 62//100 55//100
f 64//60 39//60 62//60
