# Blender v3.6.3 OBJ File: 'mouth_cup.blend'
# www.blender.org
mtllib mouth_cup036.mtl
o mouth_cup036
v 0.070980 0.443126 0.189674
v 0.070781 0.395317 0.187337
v 0.071302 0.442959 0.181370
v 0.035043 0.443127 0.179090
v -0.012789 0.305288 0.189968
v 0.071116 0.395129 0.179259
v 0.047080 0.305309 0.190397
v 0.011449 0.412957 0.186733
v 0.029108 0.305309 0.172425
v 0.065079 0.371190 0.178727
v 0.035363 0.442938 0.187297
v 0.041089 0.335261 0.172425
v -0.012875 0.371237 0.179019
v 0.047492 0.305081 0.173978
v 0.064734 0.371388 0.186674
v 0.011110 0.413155 0.178734
v 0.029108 0.317290 0.172425
v -0.013166 0.305532 0.182545
v -0.012515 0.371025 0.186754
v 0.035099 0.329271 0.172425
vn 0.0059 0.9998 -0.0199
vn 0.9991 -0.0062 0.0416
vn 0.9992 -0.0056 0.0388
vn 0.3043 -0.0478 0.9514
vn -0.0072 0.0065 1.0000
vn 0.9684 -0.2453 0.0459
vn -0.0668 0.0427 0.9969
vn -0.0068 0.9997 0.0233
vn 0.0629 0.0651 -0.9959
vn 0.1392 0.0431 -0.9893
vn 0.0003 -0.9999 0.0139
vn -0.0102 -0.9996 -0.0256
vn 0.9655 -0.2588 0.0278
vn 0.0837 -0.0335 -0.9959
vn 0.2260 -0.0022 -0.9741
vn 0.9373 -0.2306 -0.2612
vn 0.9681 -0.2460 0.0481
vn 0.9552 -0.2459 0.1644
vn 0.9657 -0.2553 0.0482
vn -0.7809 0.6230 0.0448
vn -0.7813 0.6223 0.0485
vn -0.8668 0.4963 0.0490
vn -0.0582 0.0583 -0.9966
vn 0.0000 -0.0000 -1.0000
vn -0.1552 -0.0000 -0.9879
vn -0.2328 -0.0511 -0.9712
vn -0.0130 -0.9994 -0.0322
vn -0.8669 0.4955 0.0540
vn -0.0849 0.0490 0.9952
vn -0.9987 0.0067 0.0510
vn -0.9989 0.0069 0.0467
vn -0.0583 0.0583 -0.9966
vn -0.0951 0.0475 -0.9943
vn -0.0950 0.0476 -0.9943
usemtl Material036.001
s off
f 1//1 3//1 4//1
f 6//2 1//2 2//2
f 6//3 3//3 1//3
f 7//4 2//4 1//4
f 7//5 1//5 5//5
f 10//6 6//6 2//6
f 11//7 5//7 1//7
f 11//8 1//8 4//8
f 12//9 4//9 3//9
f 12//10 3//10 6//10
f 14//11 7//11 5//11
f 14//12 5//12 9//12
f 14//13 10//13 7//13
f 14//14 9//14 12//14
f 14//15 12//15 6//15
f 14//16 6//16 10//16
f 15//17 10//17 2//17
f 15//18 2//18 7//18
f 15//19 7//19 10//19
f 16//20 11//20 4//20
f 16//21 8//21 11//21
f 16//22 13//22 8//22
f 16//23 4//23 12//23
f 17//24 12//24 9//24
f 17//25 9//25 13//25
f 18//26 13//26 9//26
f 18//27 9//27 5//27
f 19//28 8//28 13//28
f 19//29 11//29 8//29
f 19//29 5//29 11//29
f 19//30 18//30 5//30
f 19//31 13//31 18//31
f 20//32 16//32 12//32
f 20//24 12//24 17//24
f 20//33 17//33 13//33
f 20//34 13//34 16//34
