# Blender v3.6.3 OBJ File: 'mouth_cup.blend'
# www.blender.org
mtllib mouth_cup060.mtl
o mouth_cup060
v 0.130947 0.215451 0.100539
v 0.154909 0.209461 0.046625
v 0.150786 0.223822 0.051171
v 0.116157 0.211499 -0.055093
v 0.130947 0.185499 0.046625
v 0.154909 0.209461 -0.043233
v 0.116717 0.222722 0.099156
v 0.148918 0.215451 0.070587
v 0.157230 0.220102 0.004955
v 0.136937 0.185499 -0.049223
v 0.136937 0.221442 0.094549
v 0.145909 0.217188 -0.054160
v 0.118966 0.191489 0.082568
v 0.154909 0.215451 0.052615
v 0.130947 0.191489 0.082568
v 0.154909 0.203470 -0.025261
v 0.127297 0.223549 0.098287
v 0.144587 0.223943 0.069070
v 0.136937 0.215451 0.094549
v 0.150668 0.217900 -0.041747
v 0.118966 0.191489 -0.055214
v 0.148918 0.203470 -0.055214
v 0.116253 0.205037 0.098865
v 0.142928 0.185499 0.040634
v 0.148918 0.209461 0.064596
v 0.154909 0.203470 0.028653
v 0.130947 0.203470 0.094549
v 0.130947 0.185499 -0.049223
v 0.142928 0.185499 -0.043233
v 0.124956 0.203470 0.100539
v 0.136937 0.185499 0.046625
v 0.142928 0.191489 0.052615
v 0.148918 0.191489 -0.019271
v 0.124956 0.197480 0.094549
v 0.148918 0.191489 0.016672
vn -0.1127 0.9920 -0.0573
vn -0.1852 0.9802 -0.0706
vn 0.9045 -0.3015 0.3015
vn 0.8411 0.4626 0.2804
vn 0.8876 0.4522 0.0874
vn 0.9980 -0.0443 0.0443
vn 0.0000 -0.9864 0.1644
vn 0.9958 -0.0866 -0.0289
vn 0.0558 0.2908 0.9552
vn 0.4063 0.4102 0.8165
vn 0.8286 0.4755 0.2954
vn 0.8323 0.4755 0.2851
vn 0.2746 0.9455 0.1752
vn -0.0813 0.9961 -0.0349
vn -0.0807 0.9961 -0.0343
vn 0.7071 0.0000 0.7071
vn 0.8944 0.0000 0.4472
vn 0.0168 0.9978 -0.0636
vn 0.1181 0.9910 -0.0633
vn 0.8737 0.4645 -0.1447
vn 0.8152 0.4694 -0.3394
vn -0.4472 -0.8944 0.0000
vn 0.8237 0.2208 -0.5223
vn 0.1633 -0.4082 -0.8981
vn -0.0023 0.0057 -1.0000
vn 0.0159 0.0801 -0.9967
vn -0.9997 0.0262 0.0017
vn -0.9805 -0.1964 0.0000
vn -0.9903 -0.1390 -0.0052
vn 0.0000 -1.0000 0.0000
vn 0.8165 -0.4082 0.4082
vn 0.9904 -0.1382 0.0000
vn 0.9951 -0.0942 0.0314
vn 0.8669 -0.4729 0.1576
vn 0.6667 -0.3333 0.6667
vn 0.0000 -0.7071 -0.7071
vn 0.5774 -0.5774 -0.5773
vn 0.8729 -0.4364 -0.2182
vn 0.8847 -0.4423 -0.1474
vn -0.0771 0.0386 0.9963
vn -0.1909 -0.0112 0.9816
vn 0.5773 -0.5774 0.5773
vn 0.1925 -0.9623 0.1925
vn 0.8427 -0.4815 0.2408
vn 0.8393 -0.4663 0.2798
vn 0.8111 -0.4867 0.3244
vn 0.7454 -0.5963 0.2981
vn 0.8944 -0.4472 0.0000
vn 0.8701 -0.4834 -0.0967
vn 0.7071 -0.7071 0.0000
vn -0.2546 -0.6838 0.6838
vn -0.3697 -0.7438 0.5568
vn 0.0000 -0.8944 0.4472
vn 0.5774 -0.5773 0.5774
vn 0.8544 -0.5126 0.0854
usemtl Material060.001
s off
f 12//1 7//1 3//1
f 12//2 4//2 7//2
f 14//3 8//3 2//3
f 14//4 3//4 8//4
f 14//5 9//5 3//5
f 14//6 2//6 9//6
f 15//7 13//7 5//7
f 16//8 6//8 9//8
f 17//9 7//9 1//9
f 17//10 1//10 11//10
f 18//11 11//11 8//11
f 18//12 8//12 3//12
f 18//13 17//13 11//13
f 18//14 3//14 7//14
f 18//15 7//15 17//15
f 19//16 11//16 1//16
f 19//17 8//17 11//17
f 20//18 12//18 3//18
f 20//19 3//19 9//19
f 20//20 9//20 6//20
f 20//21 6//21 12//21
f 21//22 5//22 13//22
f 22//23 12//23 6//23
f 22//24 10//24 21//24
f 22//25 21//25 4//25
f 22//26 4//26 12//26
f 23//27 7//27 4//27
f 23//28 21//28 13//28
f 23//29 4//29 21//29
f 24//30 5//30 10//30
f 25//3 2//3 8//3
f 25//31 8//31 15//31
f 26//32 16//32 9//32
f 26//33 9//33 2//33
f 26//34 2//34 24//34
f 27//35 19//35 1//35
f 27//31 15//31 8//31
f 27//31 8//31 19//31
f 28//36 21//36 10//36
f 28//30 10//30 5//30
f 28//22 5//22 21//22
f 29//37 10//37 22//37
f 29//30 24//30 10//30
f 29//38 22//38 6//38
f 29//39 6//39 16//39
f 30//40 1//40 7//40
f 30//41 7//41 23//41
f 30//35 27//35 1//35
f 30//42 15//42 27//42
f 31//43 24//43 15//43
f 31//7 15//7 5//7
f 31//30 5//30 24//30
f 32//44 24//44 2//44
f 32//45 2//45 25//45
f 32//46 25//46 15//46
f 32//47 15//47 24//47
f 33//48 16//48 26//48
f 33//49 29//49 16//49
f 33//50 24//50 29//50
f 34//51 30//51 23//51
f 34//52 23//52 13//52
f 34//53 13//53 15//53
f 34//54 15//54 30//54
f 35//48 33//48 26//48
f 35//55 26//55 24//55
f 35//50 24//50 33//50
