# Blender v3.6.3 OBJ File: 'mouth_cup.blend'
# www.blender.org
mtllib mouth_cup018.mtl
o mouth_cup018
v 0.207649 0.347920 -0.084441
v 0.208823 0.335261 -0.085166
v 0.172880 0.347242 -0.139081
v 0.077032 0.347242 -0.187005
v 0.100994 0.203470 -0.085166
v 0.069845 0.347933 -0.182451
v 0.208823 0.347242 -0.097147
v 0.126780 0.205876 -0.082594
v 0.148918 0.347242 -0.157052
v 0.184861 0.347242 -0.085166
v 0.071042 0.221442 -0.157052
v 0.190852 0.347242 -0.121109
v 0.124956 0.209461 -0.109128
v 0.100994 0.347242 -0.181014
v 0.068525 0.241044 -0.121109
v 0.100766 0.221130 -0.085149
v 0.071042 0.299318 -0.181014
v 0.100994 0.215451 -0.139081
v 0.208823 0.341252 -0.097147
v 0.142928 0.221442 -0.091157
v 0.118966 0.197480 -0.103138
v 0.089013 0.251394 -0.163043
v 0.072227 0.346587 -0.173498
v 0.077032 0.215451 -0.121109
v 0.068708 0.234770 -0.158002
v 0.071042 0.335261 -0.187005
v 0.166890 0.329271 -0.139081
v 0.142928 0.221442 -0.085166
v 0.208823 0.335261 -0.091157
v 0.160899 0.251394 -0.091157
v 0.122266 0.199033 -0.083506
v 0.106985 0.203470 -0.121109
v 0.124956 0.197480 -0.097147
v 0.136937 0.335261 -0.163043
v 0.089013 0.317290 -0.181014
v 0.077032 0.233423 -0.163043
v 0.112975 0.197480 -0.103138
v 0.071042 0.275356 -0.175024
v 0.190852 0.341252 -0.121109
v 0.148918 0.311299 -0.145071
v 0.172880 0.341252 -0.139081
v 0.160899 0.251394 -0.085166
v 0.166890 0.281347 -0.109128
v 0.077032 0.221442 -0.157052
v 0.130947 0.203470 -0.091157
v 0.124956 0.335261 -0.169033
v 0.077032 0.335261 -0.187005
v 0.077032 0.275356 -0.175024
v 0.083023 0.227432 -0.157052
v 0.077032 0.215451 -0.145071
v 0.130947 0.227432 -0.115119
v 0.142928 0.287337 -0.139081
v 0.106985 0.239413 -0.145071
v 0.148918 0.341252 -0.157052
v 0.142928 0.233423 -0.103138
v 0.184861 0.299318 -0.097147
v 0.190852 0.323280 -0.109128
v 0.100994 0.209461 -0.133090
v 0.100994 0.293328 -0.169033
v 0.100994 0.341252 -0.181014
v 0.077032 0.299318 -0.181014
v 0.100994 0.203470 -0.121109
v 0.106985 0.215451 -0.133090
v 0.172880 0.329271 -0.133090
vn 0.9924 0.0871 0.0871
vn 0.1054 -0.0471 0.9933
vn 0.0158 0.9996 -0.0222
vn 0.0178 0.9996 -0.0237
vn -0.0311 0.9986 0.0439
vn -0.0327 0.0316 0.9990
vn 0.0341 0.9988 -0.0341
vn 0.0631 0.9969 -0.0474
vn 0.0270 0.9938 -0.1081
vn 0.0244 0.9985 -0.0488
vn -0.0990 -0.0022 0.9951
vn -0.0703 0.0470 0.9964
vn -0.7473 -0.0103 0.6644
vn 1.0000 0.0000 0.0000
vn 0.8000 0.0000 -0.6000
vn -0.1517 0.9707 0.1863
vn -0.9455 0.1708 0.2772
vn -0.5718 0.3814 0.7263
vn -0.5741 0.3801 0.7252
vn -0.9437 -0.3137 0.1050
vn -0.8393 -0.2790 0.4666
vn -0.9999 0.0087 -0.0064
vn -0.9850 -0.1707 0.0241
vn -0.5009 0.2505 -0.8285
vn -0.9835 -0.0287 -0.1785
vn -0.9819 -0.0312 -0.1870
vn 0.8682 -0.4961 0.0000
vn 0.8575 -0.5145 0.0000
vn -0.0924 -0.0714 0.9932
vn 0.5514 -0.4567 0.6981
vn 0.7625 -0.4575 -0.4575
vn -0.4472 -0.8944 0.0000
vn -0.2142 -0.9605 0.1774
vn -0.0515 -0.9934 0.1029
vn 0.0000 -1.0000 0.0000
vn 0.0000 -0.9487 -0.3162
vn -0.9439 -0.0801 -0.3204
vn -0.8176 -0.1821 -0.5462
vn -0.3015 -0.3015 -0.9045
vn 0.7071 -0.0000 -0.7071
vn 0.6000 0.0000 -0.8000
vn 0.6667 -0.3333 -0.6667
vn 0.2979 -0.1702 0.9393
vn 0.3457 -0.2074 0.9151
vn 0.0000 -0.4472 -0.8944
vn 0.8018 -0.5345 -0.2673
vn 0.8321 -0.5547 0.0000
vn 0.6805 -0.5958 0.4265
vn 0.5824 -0.7868 0.2044
vn 0.4333 -0.2476 -0.8666
vn 0.0000 -0.1644 -0.9864
vn 0.0000 0.0000 -1.0000
vn 0.2425 0.0000 -0.9701
vn 0.4016 -0.2410 -0.8835
vn 0.3810 -0.2540 -0.8890
vn 0.0000 -0.2425 -0.9701
vn 0.0000 -0.2747 -0.9615
vn 0.4867 -0.3244 -0.8111
vn 0.5488 -0.3293 -0.7684
vn 0.4082 -0.4082 -0.8165
vn 0.4575 -0.4575 -0.7625
vn -0.7071 -0.7071 0.0000
vn 0.0000 -0.8944 -0.4472
vn 0.7249 -0.4229 -0.5437
vn 0.6965 -0.3980 -0.5970
vn 0.5793 -0.3310 -0.7448
vn 0.5663 -0.3304 -0.7551
vn 0.5531 -0.3226 -0.7681
vn 0.5628 -0.3070 -0.7675
vn 0.5747 -0.2873 -0.7663
vn 0.4472 0.0000 -0.8944
vn 0.5449 -0.3114 -0.7785
vn 0.5450 -0.3114 -0.7785
vn 0.7485 -0.4366 -0.4990
vn 0.7581 -0.4332 -0.4874
vn 0.7594 -0.4396 -0.4796
vn 0.7778 -0.4444 -0.4444
vn 0.7428 -0.3714 -0.5571
vn 0.3333 -0.6667 -0.6667
vn 0.5773 -0.5774 -0.5774
vn 0.5774 -0.5773 -0.5774
vn 0.5774 -0.5773 -0.5773
vn 0.4111 -0.2349 -0.8808
vn 0.3980 -0.1990 -0.8955
vn 0.2722 -0.1361 -0.9526
vn 0.2394 -0.1596 -0.9577
vn 0.3419 -0.2279 -0.9117
vn 0.6694 -0.4260 -0.6086
vn 0.5774 -0.5774 -0.5773
vn 0.6692 -0.3875 -0.6340
vn 0.6537 -0.3813 -0.6537
vn 0.6556 -0.3746 -0.6556
vn 0.6763 -0.3889 -0.6256
usemtl Material018.001
s off
f 7//1 1//1 2//1
f 8//2 2//2 1//2
f 9//3 6//3 1//3
f 9//4 1//4 3//4
f 10//5 1//5 6//5
f 10//6 8//6 1//6
f 12//7 3//7 1//7
f 12//8 1//8 7//8
f 14//9 4//9 6//9
f 14//10 6//10 9//10
f 16//11 5//11 8//11
f 16//12 8//12 10//12
f 16//13 15//13 5//13
f 19//14 7//14 2//14
f 19//15 12//15 7//15
f 23//16 10//16 6//16
f 23//17 6//17 15//17
f 23//18 16//18 10//18
f 23//19 15//19 16//19
f 24//20 15//20 11//20
f 24//21 5//21 15//21
f 25//22 15//22 6//22
f 25//23 11//23 15//23
f 26//24 6//24 4//24
f 26//25 25//25 6//25
f 26//26 17//26 25//26
f 29//14 19//14 2//14
f 30//27 29//27 2//27
f 30//28 28//28 20//28
f 31//29 8//29 5//29
f 31//30 28//30 8//30
f 33//31 13//31 20//31
f 37//32 5//32 24//32
f 37//33 31//33 5//33
f 37//34 33//34 31//34
f 37//35 21//35 33//35
f 37//36 32//36 21//36
f 38//37 25//37 17//37
f 38//38 11//38 25//38
f 38//39 36//39 11//39
f 39//40 3//40 12//40
f 39//15 12//15 19//15
f 41//41 9//41 3//41
f 41//42 39//42 27//42
f 41//40 3//40 39//40
f 42//43 2//43 8//43
f 42//44 8//44 28//44
f 42//27 30//27 2//27
f 42//28 28//28 30//28
f 44//45 11//45 36//45
f 45//46 33//46 20//46
f 45//47 20//47 28//47
f 45//48 28//48 31//48
f 45//49 31//49 33//49
f 46//50 34//50 22//50
f 47//51 17//51 26//51
f 47//52 26//52 4//52
f 47//53 4//53 14//53
f 48//54 35//54 22//54
f 48//55 22//55 36//55
f 48//56 38//56 17//56
f 48//57 36//57 38//57
f 49//58 36//58 22//58
f 49//59 22//59 18//59
f 49//60 44//60 36//60
f 49//61 18//61 44//61
f 50//32 37//32 24//32
f 50//62 24//62 11//62
f 50//63 11//63 44//63
f 51//64 43//64 13//64
f 51//65 39//65 43//65
f 52//66 40//66 27//66
f 52//67 18//67 40//67
f 53//67 40//67 18//67
f 53//59 18//59 22//59
f 53//68 22//68 40//68
f 54//69 27//69 40//69
f 54//70 41//70 27//70
f 54//41 9//41 41//41
f 54//71 14//71 9//71
f 54//72 40//72 22//72
f 54//73 22//73 34//73
f 55//74 13//74 43//74
f 55//31 30//31 20//31
f 55//31 20//31 13//31
f 56//75 43//75 19//75
f 56//76 55//76 43//76
f 56//76 30//76 55//76
f 56//77 19//77 29//77
f 56//77 29//77 30//77
f 57//65 43//65 39//65
f 57//78 39//78 19//78
f 57//75 19//75 43//75
f 58//79 44//79 18//79
f 58//63 50//63 44//63
f 58//80 18//80 13//80
f 58//80 13//80 33//80
f 58//81 33//81 21//81
f 58//82 21//82 32//82
f 59//50 46//50 22//50
f 59//54 22//54 35//54
f 59//83 35//83 46//83
f 60//84 46//84 35//84
f 60//71 34//71 46//71
f 60//71 54//71 34//71
f 60//71 14//71 54//71
f 60//53 47//53 14//53
f 60//85 35//85 47//85
f 61//86 47//86 35//86
f 61//51 17//51 47//51
f 61//56 48//56 17//56
f 61//87 35//87 48//87
f 62//36 32//36 37//36
f 62//32 37//32 50//32
f 62//63 58//63 32//63
f 62//63 50//63 58//63
f 63//88 51//88 13//88
f 63//89 13//89 18//89
f 63//90 52//90 51//90
f 63//91 18//91 52//91
f 64//92 52//92 27//92
f 64//42 27//42 39//42
f 64//93 39//93 51//93
f 64//90 51//90 52//90
