# Blender v3.6.3 OBJ File: 'mouth_cup.blend'
# www.blender.org
mtllib mouth_cup035.mtl
o mouth_cup035
v -0.081014 0.504338 -0.086587
v -0.054759 0.377195 -0.157052
v -0.052341 0.501599 -0.135679
v -0.060749 0.383185 -0.181014
v -0.174569 0.371204 -0.091157
v -0.054759 0.383185 -0.181014
v -0.054759 0.497005 -0.109128
v -0.144616 0.377195 -0.085166
v -0.058927 0.370152 -0.175537
v -0.102683 0.502995 -0.091157
v -0.132635 0.383185 -0.139081
v -0.053666 0.370573 -0.176855
v -0.060749 0.449081 -0.163043
v -0.052155 0.447577 -0.157979
v -0.054759 0.502995 -0.109128
v -0.078721 0.491014 -0.085166
v -0.060749 0.502995 -0.139081
v -0.171533 0.369452 -0.083293
v -0.102683 0.371204 -0.163043
v -0.156597 0.389176 -0.109128
v -0.060749 0.407147 -0.175024
v -0.054759 0.479033 -0.151062
v -0.090702 0.467052 -0.085166
v -0.090702 0.502995 -0.109128
v -0.084711 0.467052 -0.139081
v -0.102683 0.502995 -0.085166
v -0.151997 0.367809 -0.085092
v -0.126645 0.371204 -0.145071
v -0.090702 0.371204 -0.169033
v -0.102683 0.377195 -0.163043
v -0.162588 0.377195 -0.109128
v -0.174569 0.377195 -0.091157
v -0.054759 0.407147 -0.175024
v -0.060749 0.479033 -0.151062
v -0.132635 0.395166 -0.085166
v -0.108673 0.473043 -0.109128
v -0.066740 0.497005 -0.139081
v -0.060749 0.371204 -0.157052
v -0.162588 0.371204 -0.109128
v -0.066740 0.419128 -0.169033
v -0.090702 0.377195 -0.169033
v -0.090702 0.443090 -0.145071
v -0.126645 0.377195 -0.145071
v -0.138626 0.383185 -0.133090
v -0.174569 0.377195 -0.085166
v -0.150607 0.407147 -0.103138
v -0.078721 0.497005 -0.127100
v -0.078721 0.419128 -0.163043
v -0.114664 0.401157 -0.145071
v -0.138626 0.413138 -0.115119
v -0.096692 0.485024 -0.115119
v -0.066740 0.455071 -0.157052
v -0.114664 0.425119 -0.133090
vn -0.1919 -0.4029 -0.8949
vn 0.0000 -0.3132 -0.9497
vn 0.9954 -0.0357 0.0891
vn 0.9959 -0.0317 0.0852
vn 0.9971 -0.0360 0.0671
vn 0.9830 0.0252 -0.1817
vn 0.9959 0.0000 0.0907
vn 0.6451 0.1899 0.7401
vn 0.7071 0.0000 0.7071
vn 0.7145 -0.2598 0.6496
vn 0.1776 0.9835 -0.0355
vn 0.0436 0.9990 -0.0087
vn 0.0000 0.2425 -0.9701
vn 0.9132 0.1582 -0.3756
vn 0.3958 0.4879 -0.7780
vn 0.6305 -0.3152 0.7093
vn 0.0584 -0.0292 0.9979
vn -0.0542 0.9979 -0.0362
vn -0.0416 0.9983 -0.0416
vn -0.0619 0.9981 0.0000
vn 0.0056 0.0112 0.9999
vn 0.0578 0.1157 0.9916
vn 0.5621 -0.4364 0.7026
vn 0.0865 -0.0602 0.9944
vn -0.0444 -0.9965 -0.0715
vn -0.0921 -0.9912 -0.0950
vn -0.0618 -0.9947 -0.0824
vn -0.1963 -0.4031 -0.8939
vn -0.0556 -0.9922 -0.1113
vn -0.4472 0.0000 -0.8944
vn -0.6000 0.0000 -0.8000
vn -0.8682 0.4961 0.0000
vn -0.8320 0.0000 -0.5547
vn -0.7682 0.3841 -0.5121
vn 0.0000 0.2747 -0.9615
vn 0.3015 0.3015 -0.9045
vn 0.7926 0.1928 -0.5785
vn 0.9326 0.0875 -0.3501
vn 0.0000 0.3714 -0.9285
vn 0.0000 0.4472 -0.8944
vn 0.5767 -0.3845 0.7209
vn 0.5922 -0.3455 0.7280
vn 0.0781 -0.0455 0.9959
vn 0.0857 -0.0571 0.9947
vn -0.7444 0.4467 -0.4963
vn -0.5774 0.5773 -0.5773
vn -0.4082 0.4082 -0.8165
vn 0.0885 -0.9939 0.0653
vn 0.0961 -0.9932 0.0660
vn 0.6817 -0.6817 0.2656
vn 0.5352 -0.5352 0.6535
vn -0.1027 -0.9894 -0.1027
vn -0.2052 -0.9691 -0.1368
vn -0.8321 0.0000 -0.5547
vn -0.7071 0.0000 -0.7071
vn -0.3810 0.2540 -0.8890
vn -0.4001 0.2223 -0.8891
vn -0.3714 0.0000 -0.9285
vn -0.4111 0.2349 -0.8808
vn -0.5793 0.3310 -0.7448
vn -0.5488 0.3293 -0.7683
vn -0.5488 0.3293 -0.7684
vn -0.5884 0.1961 -0.7845
vn -0.7044 0.3522 -0.6163
vn -1.0000 0.0000 0.0000
vn -0.9132 -0.2882 0.2882
vn -0.2413 0.1379 0.9606
vn -0.7778 0.4444 -0.4444
vn -0.7594 0.4396 -0.4796
vn -0.7664 0.4180 -0.4877
vn -0.6509 0.3906 -0.6509
vn -0.5773 0.5773 -0.5774
vn -0.4319 0.2592 -0.8639
vn -0.5449 0.3114 -0.7785
vn -0.4333 0.2476 -0.8666
vn -0.5584 0.3007 -0.7732
vn -0.6969 0.3690 -0.6149
vn -0.6692 0.3875 -0.6340
vn -0.7379 0.4216 -0.5270
vn -0.7071 0.4243 -0.5657
vn -0.6810 0.4256 -0.5959
vn -0.7010 0.4089 -0.5842
vn -0.6772 0.3950 -0.6208
vn -0.4867 0.3244 -0.8111
vn -0.5051 0.3030 -0.8081
vn -0.6691 0.3824 -0.6373
vn -0.6556 0.3746 -0.6556
usemtl Material035.001
s off
f 12//1 9//1 4//1
f 12//2 4//2 6//2
f 14//3 7//3 2//3
f 14//4 3//4 7//4
f 14//5 2//5 12//5
f 14//6 12//6 6//6
f 15//7 7//7 3//7
f 16//8 15//8 1//8
f 16//9 7//9 15//9
f 16//10 2//10 7//10
f 17//11 15//11 3//11
f 17//12 1//12 15//12
f 21//13 6//13 4//13
f 22//14 3//14 14//14
f 22//15 17//15 3//15
f 23//16 2//16 16//16
f 23//17 16//17 18//17
f 24//18 10//18 1//18
f 24//19 1//19 17//19
f 26//20 1//20 10//20
f 26//21 18//21 16//21
f 26//22 16//22 1//22
f 27//23 2//23 8//23
f 27//24 8//24 18//24
f 27//25 19//25 9//25
f 28//26 27//26 18//26
f 28//27 19//27 27//27
f 29//28 4//28 9//28
f 29//29 9//29 19//29
f 30//30 29//30 19//30
f 30//31 19//31 28//31
f 32//32 26//32 10//32
f 32//33 31//33 5//33
f 32//34 20//34 31//34
f 33//35 21//35 13//35
f 33//13 6//13 21//13
f 33//36 13//36 22//36
f 33//37 22//37 14//37
f 33//38 14//38 6//38
f 34//39 22//39 13//39
f 34//40 17//40 22//40
f 35//41 8//41 2//41
f 35//42 2//42 23//42
f 35//43 23//43 18//43
f 35//44 18//44 8//44
f 36//45 10//45 24//45
f 37//46 24//46 17//46
f 37//47 17//47 34//47
f 38//48 27//48 9//48
f 38//49 9//49 12//49
f 38//50 12//50 2//50
f 38//51 2//51 27//51
f 39//52 28//52 18//52
f 39//53 18//53 5//53
f 39//54 5//54 31//54
f 39//55 31//55 11//55
f 39//55 11//55 28//55
f 40//56 13//56 21//56
f 41//57 21//57 4//57
f 41//58 4//58 29//58
f 41//30 29//30 30//30
f 41//59 40//59 21//59
f 42//60 11//60 25//60
f 42//61 37//61 34//61
f 42//62 25//62 37//62
f 43//31 30//31 28//31
f 43//55 28//55 11//55
f 43//63 11//63 30//63
f 44//64 31//64 20//64
f 44//55 11//55 31//55
f 45//65 32//65 5//65
f 45//66 5//66 18//66
f 45//67 18//67 26//67
f 45//32 26//32 32//32
f 46//68 32//68 10//68
f 46//69 10//69 36//69
f 46//70 20//70 32//70
f 47//71 37//71 25//71
f 47//72 24//72 37//72
f 48//73 13//73 40//73
f 48//74 30//74 42//74
f 48//75 41//75 30//75
f 48//75 40//75 41//75
f 49//74 42//74 30//74
f 49//76 30//76 11//76
f 49//60 11//60 42//60
f 50//77 44//77 20//77
f 50//78 47//78 25//78
f 50//79 46//79 36//79
f 50//79 20//79 46//79
f 51//80 36//80 24//80
f 51//81 24//81 47//81
f 51//82 50//82 36//82
f 51//83 47//83 50//83
f 52//74 48//74 42//74
f 52//62 42//62 34//62
f 52//84 34//84 13//84
f 52//85 13//85 48//85
f 53//78 50//78 25//78
f 53//86 44//86 50//86
f 53//87 25//87 11//87
f 53//87 11//87 44//87
