# Blender v3.6.3 OBJ File: 'mouth_cup.blend'
# www.blender.org
mtllib mouth_cup043.mtl
o mouth_cup043
v 0.214814 0.550919 -0.157052
v 0.215240 0.526718 -0.157967
v 0.214814 0.622805 -0.192995
v 0.142928 0.640777 -0.192995
v 0.148918 0.502995 -0.169033
v 0.215032 0.640666 -0.177505
v 0.172880 0.502995 -0.163043
v 0.142740 0.640899 -0.177295
v 0.142928 0.508986 -0.192995
v 0.214319 0.641062 -0.187196
v 0.216331 0.615976 -0.174748
v 0.202833 0.538938 -0.157052
v 0.208823 0.616815 -0.169033
v 0.172880 0.502995 -0.187005
v 0.143571 0.502640 -0.177444
v 0.214814 0.538938 -0.181014
v 0.208823 0.550919 -0.157052
v 0.172880 0.514976 -0.163043
v 0.185901 0.502411 -0.165274
v 0.148918 0.508986 -0.192995
v 0.142884 0.503021 -0.186491
v 0.214814 0.574881 -0.187005
v 0.148918 0.508986 -0.169033
v 0.208823 0.526957 -0.181014
v 0.208823 0.562900 -0.187005
v 0.183596 0.503726 -0.176197
v 0.166890 0.538938 -0.192995
vn -0.0000 0.0000 -1.0000
vn -0.9999 0.0000 -0.0119
vn 0.9962 0.0496 -0.0713
vn 0.0759 0.3038 -0.9497
vn 0.0033 0.9992 0.0406
vn -0.0034 1.0000 -0.0079
vn 0.8996 0.0949 0.4262
vn 0.9913 0.0125 0.1310
vn 0.9968 0.0451 -0.0660
vn -0.0492 -0.1242 0.9910
vn 0.0371 -0.0371 0.9986
vn 0.4338 0.1992 0.8787
vn 0.0038 0.3338 0.9426
vn -0.8438 -0.0056 0.5367
vn 0.9995 -0.0174 -0.0277
vn 0.0000 0.0000 1.0000
vn -0.1786 0.0893 0.9799
vn -0.0577 0.1786 0.9822
vn 0.0000 0.1789 0.9839
vn -0.2366 0.0532 0.9702
vn -0.2425 -0.0000 0.9701
vn -0.1961 -0.0000 0.9806
vn 0.1337 -0.4298 0.8929
vn 0.0028 -0.9996 -0.0286
vn -0.0265 -0.9940 0.1058
vn -0.0214 -0.9982 0.0558
vn 0.0000 -0.7071 -0.7071
vn -0.9971 -0.0061 0.0754
vn -1.0000 -0.0006 -0.0073
vn -0.0122 -0.7369 -0.6759
vn -0.0016 -0.9991 -0.0419
vn 0.9962 -0.0109 -0.0869
vn 0.9968 -0.0132 -0.0792
vn -0.2537 0.0486 0.9661
vn -0.8008 0.0000 0.5989
vn 0.8670 -0.4335 -0.2459
vn 0.6540 -0.7324 -0.1897
vn 0.3124 -0.1562 -0.9370
vn 0.2408 -0.1204 -0.9631
vn 0.2643 -0.1586 -0.9513
vn 0.3123 -0.1562 -0.9370
vn 0.6369 -0.7379 -0.2232
vn 0.2310 -0.9590 -0.1641
vn 0.5390 -0.6865 -0.4880
vn 0.0001 -0.0000 -1.0000
vn 0.2061 -0.1177 -0.9714
vn 0.2107 -0.1264 -0.9693
usemtl Material043.001
s off
f 9//1 4//1 3//1
f 9//2 8//2 4//2
f 10//3 6//3 3//3
f 10//4 3//4 4//4
f 10//5 8//5 6//5
f 10//6 4//6 8//6
f 11//7 6//7 1//7
f 11//8 1//8 2//8
f 11//9 3//9 6//9
f 12//10 7//10 2//10
f 12//11 2//11 1//11
f 13//12 1//12 6//12
f 13//13 6//13 8//13
f 15//14 5//14 8//14
f 16//15 11//15 2//15
f 17//16 12//16 1//16
f 17//17 8//17 12//17
f 17//18 13//18 8//18
f 17//19 1//19 13//19
f 18//20 12//20 8//20
f 18//21 5//21 7//21
f 18//22 7//22 12//22
f 19//23 2//23 7//23
f 19//24 15//24 14//24
f 19//25 7//25 5//25
f 19//26 5//26 15//26
f 20//27 14//27 9//27
f 20//1 9//1 3//1
f 21//28 15//28 8//28
f 21//29 8//29 9//29
f 21//30 9//30 14//30
f 21//31 14//31 15//31
f 22//32 3//32 11//32
f 22//33 11//33 16//33
f 23//34 18//34 8//34
f 23//35 8//35 5//35
f 23//21 5//21 18//21
f 24//36 16//36 2//36
f 24//37 2//37 19//37
f 24//38 22//38 16//38
f 25//39 3//39 22//39
f 25//40 24//40 14//40
f 25//41 22//41 24//41
f 26//42 24//42 19//42
f 26//43 19//43 14//43
f 26//44 14//44 24//44
f 27//45 20//45 3//45
f 27//46 3//46 25//46
f 27//47 25//47 14//47
f 27//47 14//47 20//47
