# Blender v3.6.3 OBJ File: 'mouth_cup.blend'
# www.blender.org
mtllib mouth_cup044.mtl
o mouth_cup044
v -0.024806 0.586862 -0.085166
v 0.035099 0.574881 -0.145071
v -0.006835 0.586862 -0.145071
v 0.011137 0.508986 -0.181014
v 0.017127 0.502995 -0.157052
v 0.017127 0.574881 -0.163043
v -0.096692 0.508986 -0.091157
v 0.032409 0.588446 -0.148875
v -0.024806 0.580872 -0.085166
v 0.018486 0.502211 -0.175844
v -0.012825 0.532948 -0.163043
v -0.048768 0.586862 -0.097147
v 0.011137 0.586862 -0.157052
v 0.017127 0.508986 -0.181014
v -0.072730 0.502995 -0.085166
v -0.042778 0.502995 -0.151062
v -0.060749 0.574881 -0.085166
v -0.084711 0.514976 -0.109128
v -0.042778 0.586862 -0.109128
v 0.035067 0.586881 -0.151131
v 0.011137 0.574881 -0.163043
v 0.011137 0.502995 -0.181014
v -0.066740 0.508986 -0.085166
v -0.092542 0.500599 -0.088595
v -0.092682 0.506670 -0.082691
v -0.024806 0.508986 -0.163043
v -0.048768 0.514976 -0.145071
v -0.060749 0.574881 -0.091157
v -0.046486 0.585544 -0.083757
v -0.090702 0.502995 -0.103138
v -0.018816 0.580872 -0.139081
v 0.033899 0.575593 -0.153671
v -0.000844 0.532948 -0.169033
v -0.024806 0.502995 -0.163043
v -0.048768 0.538938 -0.085166
v -0.094699 0.501845 -0.083936
v -0.084711 0.532948 -0.085166
v -0.042778 0.508986 -0.151062
v -0.084711 0.532948 -0.091157
v -0.060749 0.568891 -0.097147
v -0.090702 0.508986 -0.103138
v -0.072730 0.526957 -0.115119
v -0.024806 0.556910 -0.145071
v -0.042778 0.568891 -0.121109
v -0.042778 0.538938 -0.139081
v -0.048768 0.538938 -0.133090
vn 0.7015 0.3179 0.6379
vn 0.6643 -0.2815 0.6924
vn 0.7071 0.0000 0.7071
vn 0.9638 -0.2543 0.0803
vn -0.0086 0.9998 0.0172
vn -0.0471 0.9964 -0.0706
vn 0.0000 0.2631 -0.9648
vn -0.0286 0.9995 -0.0143
vn -0.0446 0.9980 -0.0446
vn 0.1158 0.8747 -0.4706
vn 0.2051 0.5178 -0.8305
vn 0.4213 0.2386 -0.8749
vn 0.7152 0.3165 0.6231
vn -0.5121 0.3841 -0.7682
vn 0.0000 0.4472 -0.8944
vn 0.4728 -0.4728 -0.7436
vn 0.0000 0.0000 -1.0000
vn 0.5298 -0.5298 0.6623
vn 0.0500 -0.9977 0.0453
vn 0.0982 -0.9876 0.1227
vn 0.1036 -0.1036 0.9892
vn -0.4364 0.2182 -0.8729
vn -0.4472 0.0000 -0.8944
vn -0.5449 0.3114 -0.7785
vn -0.7071 0.7071 0.0000
vn -0.7428 0.5571 -0.3714
vn -0.0534 0.9928 0.1068
vn -0.6004 0.7794 0.1791
vn -0.1887 0.1237 0.9742
vn 0.0602 -0.0217 0.9980
vn 0.0649 0.0000 0.9979
vn -0.1823 -0.9662 -0.1823
vn -0.5773 0.5774 -0.5774
vn -0.5488 0.3293 -0.7683
vn 0.9872 -0.0699 -0.1435
vn 0.9758 -0.1598 -0.1494
vn 0.9296 -0.0870 -0.3582
vn 0.7796 0.0597 -0.6235
vn -0.4016 0.2410 -0.8835
vn -0.4333 0.2476 -0.8666
vn -0.0441 -0.9951 -0.0882
vn -0.5547 0.0000 -0.8320
vn -0.0543 -0.9952 -0.0814
vn -0.0377 -0.9971 -0.0664
vn 0.5934 -0.3560 0.7219
vn 0.6006 -0.3432 0.7221
vn 0.1001 -0.0601 0.9932
vn 0.0966 -0.0552 0.9938
vn 0.0661 -0.9559 0.2861
vn 0.0681 -0.2759 0.9588
vn -0.8518 0.2354 0.4679
vn -0.7736 -0.6023 -0.1971
vn -0.8675 -0.4521 -0.2077
vn -0.3257 0.1861 0.9270
vn -0.8293 0.2962 0.4739
vn -0.8682 0.4961 0.0000
vn -0.5547 0.0000 -0.8321
vn -0.7071 0.0000 -0.7071
vn -0.5345 0.2673 -0.8018
vn -0.8944 0.4472 0.0000
vn -0.7625 0.4575 -0.4575
vn -0.7601 0.4434 -0.4751
vn -0.7778 0.4444 -0.4444
vn -0.8944 0.0000 -0.4472
vn -0.8165 0.4082 -0.4082
vn -0.7010 0.4089 -0.5842
vn -0.6667 0.3333 -0.6667
vn -0.5450 0.3114 -0.7785
vn -0.5793 0.3310 -0.7448
vn -0.6861 0.4036 -0.6053
vn -0.6695 0.4120 -0.6180
vn -0.6692 0.3875 -0.6340
vn -0.6556 0.3746 -0.6556
usemtl Material044.001
s off
f 8//1 1//1 2//1
f 9//2 5//2 2//2
f 9//3 2//3 1//3
f 10//4 2//4 5//4
f 12//5 1//5 8//5
f 13//6 3//6 8//6
f 14//7 4//7 6//7
f 19//8 12//8 8//8
f 19//9 8//9 3//9
f 20//10 13//10 8//10
f 20//11 6//11 13//11
f 20//12 14//12 6//12
f 20//13 8//13 2//13
f 21//14 3//14 13//14
f 21//15 13//15 6//15
f 21//7 6//7 4//7
f 22//16 14//16 10//16
f 22//17 4//17 14//17
f 23//18 15//18 5//18
f 24//19 10//19 5//19
f 24//20 5//20 15//20
f 25//21 15//21 23//21
f 26//22 11//22 4//22
f 26//23 4//23 22//23
f 27//24 21//24 11//24
f 28//25 17//25 12//25
f 28//26 12//26 19//26
f 29//27 1//27 12//27
f 29//28 12//28 17//28
f 29//29 17//29 25//29
f 29//30 25//30 9//30
f 29//31 9//31 1//31
f 30//32 16//32 24//32
f 31//33 19//33 3//33
f 31//34 3//34 21//34
f 32//35 20//35 2//35
f 32//36 2//36 10//36
f 32//37 10//37 14//37
f 32//38 14//38 20//38
f 33//39 21//39 4//39
f 33//22 4//22 11//22
f 33//40 11//40 21//40
f 34//41 22//41 10//41
f 34//23 26//23 22//23
f 34//42 16//42 26//42
f 34//43 24//43 16//43
f 34//44 10//44 24//44
f 35//45 23//45 5//45
f 35//46 5//46 9//46
f 35//47 25//47 23//47
f 35//48 9//48 25//48
f 36//49 24//49 15//49
f 36//50 15//50 25//50
f 36//51 25//51 7//51
f 36//52 30//52 24//52
f 36//53 7//53 30//53
f 37//54 25//54 17//54
f 37//55 7//55 25//55
f 37//56 17//56 28//56
f 38//57 26//57 16//57
f 38//58 16//58 30//58
f 38//59 27//59 11//59
f 38//59 11//59 26//59
f 39//56 37//56 28//56
f 39//60 7//60 37//60
f 40//61 28//61 19//61
f 40//62 19//62 18//62
f 40//63 39//63 28//63
f 40//63 18//63 39//63
f 41//64 30//64 7//64
f 41//58 18//58 27//58
f 41//58 38//58 30//58
f 41//58 27//58 38//58
f 41//65 39//65 18//65
f 41//65 7//65 39//65
f 42//66 18//66 19//66
f 42//67 27//67 18//67
f 43//34 31//34 21//34
f 43//68 21//68 27//68
f 43//69 27//69 31//69
f 44//70 42//70 19//70
f 44//71 19//71 31//71
f 44//72 31//72 42//72
f 45//69 31//69 27//69
f 45//67 27//67 42//67
f 46//67 45//67 42//67
f 46//72 42//72 31//72
f 46//73 31//73 45//73
