# Blender v3.6.3 OBJ File: 'mouth_cup.blend'
# www.blender.org
mtllib mouth_cup007.mtl
o mouth_cup007
v 0.370567 0.640777 -0.079176
v 0.376557 0.622805 -0.085166
v 0.340614 0.658748 -0.145071
v 0.274161 0.688123 -0.180374
v 0.280709 0.508986 -0.079176
v 0.286700 0.688701 -0.163043
v 0.370567 0.640777 -0.103138
v 0.316652 0.514976 -0.079176
v 0.298681 0.682710 -0.157052
v 0.286700 0.688701 -0.181014
v 0.352595 0.634786 -0.079176
v 0.250757 0.622805 -0.157052
v 0.376557 0.634786 -0.091157
v 0.372501 0.625147 -0.076672
v 0.292690 0.526957 -0.127100
v 0.340614 0.658748 -0.121109
v 0.274719 0.688701 -0.163043
v 0.298681 0.682710 -0.175024
v 0.374033 0.630463 -0.079163
v 0.364576 0.634786 -0.115119
v 0.364576 0.598843 -0.079176
v 0.302198 0.504423 -0.077649
v 0.340614 0.616815 -0.079176
v 0.358586 0.640777 -0.079176
v 0.272340 0.504369 -0.118855
v 0.280709 0.604834 -0.169033
v 0.376557 0.628796 -0.091157
v 0.298681 0.502995 -0.103138
v 0.346605 0.640777 -0.139081
v 0.364576 0.640777 -0.115119
v 0.364576 0.598843 -0.085166
v 0.292690 0.532948 -0.079176
v 0.274719 0.508986 -0.091157
v 0.285288 0.500390 -0.081992
v 0.292690 0.670729 -0.181014
v 0.280709 0.526957 -0.139081
v 0.250901 0.610743 -0.163351
v 0.322643 0.550919 -0.109128
v 0.304671 0.502995 -0.091157
v 0.346605 0.652758 -0.139081
v 0.370567 0.628796 -0.103138
v 0.278488 0.500850 -0.093475
v 0.292690 0.682710 -0.181014
v 0.322643 0.658748 -0.163043
v 0.280709 0.652758 -0.181014
v 0.280709 0.502995 -0.121109
v 0.292690 0.508986 -0.115119
v 0.322643 0.598843 -0.139081
v 0.252038 0.622086 -0.165791
v 0.274719 0.568891 -0.157052
v 0.271496 0.528818 -0.134547
v 0.316652 0.514976 -0.085166
v 0.346605 0.610824 -0.121109
v 0.346605 0.592853 -0.109128
v 0.304671 0.646767 -0.169033
v 0.280709 0.568891 -0.157052
v 0.328633 0.664739 -0.157052
v 0.274719 0.604834 -0.169033
v 0.280709 0.508986 -0.127100
v 0.310662 0.538938 -0.115119
v 0.271346 0.510933 -0.123904
v 0.358586 0.622805 -0.115119
v 0.364576 0.610824 -0.097147
v 0.316652 0.646767 -0.163043
vn 0.5145 0.8575 0.0000
vn 0.3906 0.9113 0.1302
vn 0.4472 0.8944 0.0000
vn 0.7071 0.7071 0.0000
vn 0.4652 0.8840 0.0465
vn 0.4961 0.8682 0.0000
vn -0.0476 0.9984 -0.0317
vn 0.0000 1.0000 0.0000
vn -0.9391 0.3432 0.0188
vn 0.0000 0.8682 0.4961
vn -0.6555 0.3013 0.6925
vn 0.9041 0.3042 0.3000
vn 0.9612 0.1234 0.2468
vn 0.8957 -0.0511 0.4418
vn 0.5874 0.1984 0.7846
vn 0.3265 -0.1866 0.9266
vn 0.8281 -0.2949 0.4767
vn -0.0646 0.0295 0.9975
vn 0.1891 -0.1180 0.9748
vn -0.0945 0.0630 0.9935
vn -0.5516 0.3678 0.7486
vn 0.0000 0.1582 0.9874
vn -0.0841 0.0841 0.9929
vn -0.4730 0.4730 0.7433
vn 0.8944 0.0000 -0.4472
vn 1.0000 0.0000 0.0000
vn 0.8165 0.4082 -0.4083
vn 0.8000 0.0000 -0.6000
vn 0.8682 -0.4961 0.0000
vn 0.8944 -0.4472 0.0000
vn 0.8165 -0.4082 -0.4082
vn -0.0740 0.0370 0.9966
vn -0.0918 0.0524 0.9944
vn -0.5819 0.3325 0.7422
vn -0.6255 0.3127 0.7148
vn -0.8922 0.0704 0.4461
vn -0.1450 -0.3769 0.9148
vn -0.9788 -0.1039 0.1765
vn -0.9823 -0.1521 0.1097
vn 0.5919 -0.7830 0.1911
vn 0.1079 -0.9927 -0.0540
vn 0.1960 -0.9708 0.1385
vn 0.7071 0.0000 -0.7071
vn 0.8165 0.4082 -0.4082
vn -0.8799 -0.4506 0.1507
vn -0.7389 -0.5299 0.4163
vn -0.7864 -0.4764 0.3932
vn 0.0000 0.0000 -1.0000
vn 0.5774 0.5774 -0.5773
vn 0.5145 0.0000 -0.8575
vn 0.3419 -0.2279 -0.9117
vn -0.0514 0.0086 -0.9986
vn -0.1850 -0.9785 -0.0908
vn 0.0750 -0.9944 -0.0750
vn 0.0555 -0.9958 -0.0728
vn 0.6396 -0.4264 -0.6396
vn 0.6537 -0.3813 -0.6537
vn -0.9864 0.0666 -0.1501
vn -0.9459 0.2812 -0.1618
vn -0.3147 -0.1694 -0.9340
vn -0.4166 -0.0607 -0.9070
vn -0.4683 -0.4037 -0.7859
vn -0.4910 -0.3962 -0.7758
vn 0.7644 -0.4410 -0.4704
vn 0.7428 -0.5571 -0.3714
vn 0.7071 -0.7071 0.0000
vn 0.6691 -0.3824 -0.6373
vn 0.6692 -0.3848 -0.6357
vn 0.4111 -0.2349 -0.8808
vn 0.0000 -0.3162 -0.9487
vn 0.0000 -0.3939 -0.9191
vn 0.5596 -0.3265 -0.7617
vn 0.5561 -0.3178 -0.7680
vn 0.6047 0.1728 -0.7775
vn 0.6396 0.4264 -0.6396
vn 0.5884 0.7845 -0.1961
vn 0.0000 -0.2425 -0.9701
vn -0.2742 -0.2008 -0.9405
vn -0.2915 -0.3025 -0.9075
vn -0.2930 -0.6761 -0.6761
vn 0.5774 -0.5774 -0.5774
vn 0.5774 -0.5774 -0.5773
vn 0.6788 -0.4073 -0.6110
vn 0.7071 -0.4243 -0.5657
vn 0.6765 -0.3903 -0.6245
vn -0.4659 -0.4496 -0.7621
vn -0.9584 -0.2504 -0.1369
vn -0.6286 -0.3938 -0.6707
vn -0.3673 -0.6013 -0.7096
vn -0.3709 -0.5151 -0.7727
vn 0.6862 -0.3743 -0.6238
vn 0.7044 -0.3522 -0.6163
vn 0.7428 -0.3714 -0.5571
vn 0.7399 -0.4036 -0.5381
vn 0.6965 -0.3980 -0.5970
vn 0.7553 -0.4196 -0.5035
vn 0.7778 -0.4444 -0.4444
vn 0.7581 -0.4332 -0.4874
vn 0.4333 -0.2476 -0.8666
vn 0.4663 -0.2798 -0.8393
vn 0.5643 -0.2821 -0.7759
vn 0.5537 -0.3149 -0.7709
vn 0.4364 -0.2182 -0.8729
usemtl Material007.001
s off
f 7//1 3//1 1//1
f 9//2 6//2 1//2
f 10//3 6//3 9//3
f 13//4 7//4 1//4
f 16//5 9//5 1//5
f 16//1 1//1 3//1
f 16//6 3//6 9//6
f 17//7 10//7 4//7
f 17//8 6//8 10//8
f 17//9 4//9 12//9
f 17//10 1//10 6//10
f 17//11 12//11 5//11
f 18//3 10//3 9//3
f 18//6 9//6 3//6
f 19//12 13//12 1//12
f 19//13 2//13 13//13
f 19//14 14//14 2//14
f 19//15 1//15 14//15
f 21//16 14//16 8//16
f 21//17 2//17 14//17
f 22//18 14//18 5//18
f 22//19 8//19 14//19
f 23//20 14//20 11//20
f 23//21 11//21 17//21
f 24//22 14//22 1//22
f 24//23 11//23 14//23
f 24//24 17//24 11//24
f 24//10 1//10 17//10
f 27//25 20//25 13//25
f 27//26 13//26 2//26
f 30//27 3//27 7//27
f 30//25 7//25 13//25
f 30//25 13//25 20//25
f 30//28 20//28 29//28
f 31//29 21//29 8//29
f 31//30 2//30 21//30
f 31//31 27//31 2//31
f 32//32 5//32 14//32
f 32//33 14//33 23//33
f 32//34 23//34 17//34
f 32//35 17//35 5//35
f 33//36 5//36 12//36
f 34//37 22//37 5//37
f 37//38 33//38 12//38
f 37//39 25//39 33//39
f 39//40 8//40 22//40
f 39//41 34//41 28//41
f 39//42 22//42 34//42
f 40//28 30//28 29//28
f 40//43 29//43 3//43
f 40//44 3//44 30//44
f 41//25 20//25 27//25
f 42//45 33//45 25//45
f 42//46 34//46 5//46
f 42//47 5//47 33//47
f 43//48 35//48 10//48
f 43//49 10//49 18//49
f 44//43 3//43 29//43
f 44//50 35//50 43//50
f 45//51 35//51 26//51
f 45//52 4//52 10//52
f 45//48 10//48 35//48
f 46//53 42//53 25//53
f 46//54 28//54 34//54
f 46//55 34//55 42//55
f 47//56 36//56 15//56
f 48//57 15//57 36//57
f 49//58 37//58 12//58
f 49//59 12//59 4//59
f 49//60 45//60 37//60
f 49//61 4//61 45//61
f 51//62 50//62 36//62
f 51//63 37//63 50//63
f 52//64 28//64 38//64
f 52//65 39//65 28//65
f 52//29 31//29 8//29
f 52//66 8//66 39//66
f 53//67 48//67 29//67
f 53//68 15//68 48//68
f 55//69 26//69 35//69
f 56//70 50//70 26//70
f 56//71 36//71 50//71
f 56//72 48//72 36//72
f 56//73 29//73 48//73
f 57//74 44//74 43//74
f 57//75 43//75 18//75
f 57//76 18//76 3//76
f 57//43 3//43 44//43
f 58//77 45//77 26//77
f 58//78 37//78 45//78
f 58//79 50//79 37//79
f 58//70 26//70 50//70
f 59//80 46//80 25//80
f 59//56 36//56 47//56
f 59//81 47//81 28//81
f 59//82 28//82 46//82
f 60//83 47//83 15//83
f 60//84 38//84 28//84
f 60//84 28//84 47//84
f 60//85 15//85 53//85
f 61//86 51//86 36//86
f 61//87 25//87 37//87
f 61//88 37//88 51//88
f 61//89 59//89 25//89
f 61//90 36//90 59//90
f 62//91 53//91 29//91
f 62//92 29//92 20//92
f 62//93 20//93 41//93
f 62//94 41//94 54//94
f 62//95 54//95 38//95
f 62//95 60//95 53//95
f 62//95 38//95 60//95
f 63//96 54//96 41//96
f 63//97 31//97 52//97
f 63//64 52//64 38//64
f 63//98 38//98 54//98
f 63//31 41//31 27//31
f 63//31 27//31 31//31
f 64//99 26//99 55//99
f 64//100 56//100 26//100
f 64//101 44//101 29//101
f 64//102 29//102 56//102
f 64//103 55//103 35//103
f 64//103 35//103 44//103
