# Blender v3.6.3 OBJ File: 'mouth_cup.blend'
# www.blender.org
mtllib mouth_cup038.mtl
o mouth_cup038
v -0.022561 0.651461 0.051829
v -0.024806 0.616815 0.040634
v -0.022518 0.633465 -0.077763
v -0.030797 0.634786 -0.079176
v -0.072730 0.592853 0.022663
v -0.030797 0.664739 -0.031252
v -0.021626 0.656912 0.045511
v -0.066740 0.592853 0.052615
v -0.042778 0.592853 -0.037242
v -0.030797 0.658748 -0.049223
v -0.021429 0.644817 -0.066012
v -0.030797 0.664739 0.028653
v -0.036787 0.592853 0.052615
v -0.061823 0.584024 0.050893
v -0.065455 0.586121 -0.037067
v -0.072730 0.592853 -0.025261
v -0.021776 0.662989 -0.030907
v -0.030797 0.646767 -0.067195
v -0.036787 0.658748 0.004691
v -0.060749 0.610824 0.040634
v -0.030797 0.652758 0.052615
v -0.029511 0.619567 0.054269
v -0.024806 0.622805 -0.037242
v -0.068225 0.584261 0.022150
v -0.047176 0.589436 0.054161
v -0.042778 0.586862 0.040634
v -0.024536 0.628639 -0.079009
v -0.042778 0.640777 -0.043233
v -0.066740 0.598843 -0.037242
v -0.021001 0.656551 -0.047891
v -0.021996 0.663116 0.028334
v -0.060749 0.616815 0.010682
v -0.036787 0.658748 -0.007290
v -0.066740 0.598843 0.040634
v -0.030797 0.658748 0.046625
v -0.060749 0.604834 0.052615
v -0.036787 0.592853 0.046625
v -0.068006 0.584135 -0.024724
v -0.027032 0.626622 -0.076852
v -0.052766 0.589201 -0.038647
v -0.036787 0.640777 -0.061204
v -0.060749 0.610824 -0.037242
v -0.042778 0.646767 0.016672
v -0.066740 0.604834 -0.019271
v -0.042778 0.634786 0.052615
v -0.048768 0.628796 0.046625
v -0.036787 0.634786 -0.067195
v -0.060749 0.616815 -0.007290
vn 0.9936 -0.0875 0.0715
vn 0.9967 -0.0803 0.0105
vn 0.9949 -0.1007 0.0051
vn 0.1924 0.9310 -0.3103
vn 0.2302 0.6892 -0.6871
vn 0.2274 0.6886 -0.6886
vn 0.2363 0.8085 -0.5390
vn -0.7071 0.7071 0.0000
vn 0.8935 -0.2658 0.3620
vn 0.9197 -0.1735 0.3523
vn 0.1033 0.0535 0.9932
vn 0.9567 -0.2902 -0.0223
vn -0.8432 -0.5053 0.1836
vn -0.8679 -0.4654 0.1736
vn -0.8856 -0.4644 0.0000
vn -0.1202 -0.2541 0.9597
vn 0.1816 -0.1099 0.9772
vn 0.2811 -0.9219 0.2668
vn 0.3373 -0.8986 0.2806
vn 0.1919 0.1692 -0.9667
vn 0.8556 -0.5134 -0.0662
vn 0.9258 -0.3751 -0.0464
vn -0.8452 0.5071 -0.1690
vn -0.7208 -0.0822 -0.6883
vn -0.8707 -0.0945 -0.4826
vn 0.9989 -0.0470 0.0069
vn 0.2536 0.8092 -0.5300
vn 0.2493 0.9093 -0.3333
vn 0.9939 0.1105 0.0034
vn 0.9970 0.0770 0.0064
vn 0.1904 0.9817 -0.0014
vn 0.1813 0.9834 0.0000
vn -0.8701 0.4834 0.0967
vn -0.8682 0.4961 0.0000
vn -0.8847 0.4423 0.1474
vn -0.9129 0.3651 0.1826
vn 0.1760 0.6961 0.6961
vn 0.2240 0.7213 0.6554
vn -0.8452 0.5071 0.1690
vn 0.1832 0.9326 0.3109
vn 0.2235 0.9183 0.3268
vn -0.0706 0.0378 0.9968
vn -0.0724 0.0362 0.9967
vn -0.8729 0.4364 0.2182
vn 0.8559 -0.5135 -0.0611
vn 0.7318 -0.6795 -0.0523
vn 0.7071 -0.7071 0.0000
vn 0.8904 -0.4539 -0.0349
vn 0.8944 -0.4472 0.0000
vn -0.0482 -0.9988 0.0025
vn 0.1406 -0.9900 -0.0129
vn -0.8791 -0.4766 -0.0028
vn -0.8446 -0.4731 -0.2507
vn -0.2395 -0.5552 -0.7965
vn -0.4030 -0.4176 -0.8144
vn -0.3821 -0.4117 -0.8273
vn 0.3575 -0.7806 -0.5127
vn 0.0989 -0.7454 -0.6592
vn 0.2215 -0.9689 -0.1101
vn 0.3514 -0.9335 -0.0718
vn 0.2637 -0.9626 -0.0616
vn -0.8393 0.4663 -0.2798
vn -0.8111 0.4867 -0.3244
vn -0.8165 0.4082 -0.4082
vn -0.8729 0.4364 -0.2182
vn -0.8616 0.4924 -0.1231
vn -0.8480 0.4240 -0.3180
vn -0.8465 0.4515 -0.2822
vn -0.8619 0.4972 0.0994
vn -0.8588 0.5010 0.1073
vn -0.8544 0.5126 0.0854
vn -0.8615 0.5026 0.0718
vn -0.8619 0.4990 -0.0907
vn -0.8944 0.4472 0.0000
vn -0.0735 0.0441 0.9963
vn -0.0704 0.0469 0.9964
vn -0.7276 0.4851 0.4851
vn -0.8111 0.4867 0.3244
vn -0.8111 0.4867 0.3245
vn -0.8427 0.4815 0.2408
vn -0.8381 0.3492 -0.4191
vn -0.8412 0.3824 -0.3824
vn -0.8666 0.4952 -0.0619
usemtl Material038.001
s off
f 7//1 1//1 2//1
f 11//2 7//2 2//2
f 11//3 2//3 3//3
f 17//4 10//4 6//4
f 18//5 11//5 3//5
f 18//6 3//6 4//6
f 18//7 10//7 11//7
f 19//8 12//8 6//8
f 22//9 13//9 2//9
f 22//10 2//10 1//10
f 22//11 1//11 21//11
f 23//12 3//12 2//12
f 24//13 14//13 8//13
f 24//14 8//14 5//14
f 24//15 5//15 16//15
f 25//16 8//16 14//16
f 25//17 13//17 22//17
f 26//18 25//18 14//18
f 26//19 13//19 25//19
f 27//20 4//20 3//20
f 27//21 23//21 9//21
f 27//22 3//22 23//22
f 28//23 6//23 10//23
f 29//24 4//24 15//24
f 29//25 15//25 16//25
f 30//26 7//26 11//26
f 30//27 11//27 10//27
f 30//28 10//28 17//28
f 31//29 30//29 17//29
f 31//30 7//30 30//30
f 31//31 17//31 6//31
f 31//32 6//32 12//32
f 32//33 5//33 20//33
f 33//8 19//8 6//8
f 33//34 32//34 19//34
f 34//35 20//35 5//35
f 34//36 5//36 8//36
f 35//37 21//37 1//37
f 35//38 1//38 7//38
f 35//39 12//39 20//39
f 35//40 31//40 12//40
f 35//41 7//41 31//41
f 36//42 25//42 22//42
f 36//43 8//43 25//43
f 36//44 34//44 8//44
f 36//44 20//44 34//44
f 37//45 9//45 23//45
f 37//46 26//46 9//46
f 37//47 13//47 26//47
f 37//48 23//48 2//48
f 37//49 2//49 13//49
f 38//50 14//50 24//50
f 38//51 26//51 14//51
f 38//52 24//52 16//52
f 38//53 16//53 15//53
f 39//54 27//54 15//54
f 39//55 15//55 4//55
f 39//56 4//56 27//56
f 40//57 27//57 9//57
f 40//58 15//58 27//58
f 40//59 38//59 15//59
f 40//60 9//60 26//60
f 40//61 26//61 38//61
f 41//62 28//62 10//62
f 41//63 10//63 18//63
f 41//64 18//64 4//64
f 42//65 29//65 16//65
f 42//66 16//66 28//66
f 42//67 41//67 29//67
f 42//68 28//68 41//68
f 43//69 32//69 20//69
f 43//70 20//70 12//70
f 43//71 12//71 19//71
f 43//72 19//72 32//72
f 44//73 33//73 6//73
f 44//74 16//74 5//74
f 44//74 5//74 32//74
f 44//66 28//66 16//66
f 44//66 6//66 28//66
f 45//75 36//75 22//75
f 45//76 22//76 21//76
f 45//77 21//77 35//77
f 45//78 35//78 36//78
f 46//79 36//79 35//79
f 46//39 35//39 20//39
f 46//80 20//80 36//80
f 47//64 41//64 4//64
f 47//81 4//81 29//81
f 47//82 29//82 41//82
f 48//74 44//74 32//74
f 48//34 32//34 33//34
f 48//83 33//83 44//83
