# Blender v3.6.3 OBJ File: 'mouth_cup.blend'
# www.blender.org
mtllib mouth_cup056.mtl
o mouth_cup056
v 0.041089 0.305309 0.190397
v 0.071042 0.233423 0.166435
v 0.072245 0.268690 0.157036
v -0.015127 0.289341 0.148463
v -0.012825 0.269366 0.190397
v 0.071306 0.227891 0.148463
v 0.047080 0.299318 0.166435
v 0.071042 0.257385 0.172425
v 0.017127 0.257385 0.190397
v -0.012789 0.305288 0.189968
v 0.073279 0.256127 0.153265
v -0.012825 0.269366 0.148463
v 0.047492 0.305081 0.173978
v -0.006835 0.293328 0.148463
v 0.046493 0.305648 0.182172
v 0.047080 0.269366 0.184406
v 0.059061 0.227432 0.166435
v -0.013166 0.305532 0.182545
v 0.068789 0.270667 0.167558
v 0.041089 0.299318 0.190397
v 0.053070 0.245404 0.178416
v 0.065051 0.227432 0.166435
v 0.005146 0.257385 0.190397
v 0.059061 0.227432 0.148463
v 0.023118 0.305309 0.172425
v 0.059061 0.257385 0.178416
v 0.029108 0.275356 0.190397
v 0.041089 0.257385 0.184406
v 0.059061 0.233423 0.172425
v 0.035099 0.239413 0.148463
v 0.047080 0.239413 0.178416
v 0.005146 0.257385 0.148463
v 0.035099 0.239413 0.178416
vn -0.0000 0.0000 1.0000
vn -0.0080 0.0119 0.9999
vn -0.9985 0.0017 0.0556
vn 0.9964 -0.0761 0.0381
vn 0.9926 -0.0295 0.1178
vn 0.9925 0.0478 0.1128
vn -0.9934 -0.1145 0.0000
vn 0.5779 0.6329 -0.5151
vn 0.2353 0.4566 -0.8580
vn 0.1150 0.7863 -0.6070
vn 0.1938 0.2967 -0.9351
vn 0.1317 0.1572 -0.9787
vn 0.7928 0.2956 0.5330
vn 0.8389 0.5404 0.0649
vn -0.0007 0.9992 0.0407
vn -0.4019 0.8358 -0.3740
vn -0.9986 0.0132 0.0512
vn -0.0017 0.9995 0.0330
vn 0.8147 0.3163 0.4860
vn 0.9323 0.2529 0.2587
vn 0.8620 0.4678 0.1952
vn 0.5145 0.0000 0.8575
vn 0.4364 -0.2182 0.8729
vn 0.6894 -0.6894 0.2224
vn -0.5547 -0.8321 0.0000
vn 0.0000 -1.0000 0.0000
vn 0.0374 -0.9992 -0.0125
vn -0.0000 0.0000 -1.0000
vn 0.0391 0.8733 -0.4855
vn -0.0921 0.9319 -0.3508
vn -0.0021 0.9996 -0.0297
vn 0.0136 0.9976 -0.0673
vn 0.3487 -0.1162 0.9300
vn 0.4463 -0.0638 0.8926
vn 0.3123 -0.1562 0.9370
vn 0.2722 -0.1361 0.9526
vn 0.2394 -0.1596 0.9577
vn 0.4082 -0.4082 0.8165
vn 0.0000 -0.7071 0.7071
vn -0.4472 -0.8944 0.0000
vn 0.3015 -0.3015 0.9045
vn 0.0000 -0.5547 0.8320
vn 0.2357 -0.2357 0.9428
vn -0.5145 -0.8575 0.0000
vn -0.5547 -0.8320 0.0000
vn 0.0000 -0.5547 0.8321
usemtl Material056.001
s off
f 9//1 1//1 5//1
f 10//2 5//2 1//2
f 10//3 4//3 5//3
f 11//4 2//4 6//4
f 11//5 8//5 2//5
f 11//6 3//6 8//6
f 12//7 5//7 4//7
f 13//8 3//8 7//8
f 14//9 7//9 3//9
f 14//10 13//10 7//10
f 14//11 3//11 11//11
f 14//12 11//12 6//12
f 15//13 1//13 8//13
f 15//14 3//14 13//14
f 15//15 10//15 1//15
f 18//16 14//16 4//16
f 18//17 4//17 10//17
f 18//18 10//18 15//18
f 19//19 15//19 8//19
f 19//20 8//20 3//20
f 19//21 3//21 15//21
f 20//22 8//22 1//22
f 20//1 1//1 9//1
f 21//23 2//23 8//23
f 22//24 6//24 2//24
f 23//1 9//1 5//1
f 23//25 5//25 12//25
f 24//26 22//26 17//26
f 24//27 6//27 22//27
f 24//28 14//28 6//28
f 24//28 4//28 14//28
f 25//29 13//29 14//29
f 25//30 14//30 18//30
f 25//31 18//31 15//31
f 25//32 15//32 13//32
f 26//33 20//33 16//33
f 26//34 8//34 20//34
f 26//23 21//23 8//23
f 26//35 16//35 21//35
f 27//1 20//1 9//1
f 27//36 16//36 20//36
f 28//35 21//35 16//35
f 28//37 27//37 9//37
f 28//36 16//36 27//36
f 29//38 22//38 2//38
f 29//23 2//23 21//23
f 29//39 17//39 22//39
f 30//28 4//28 24//28
f 30//40 24//40 17//40
f 31//41 29//41 21//41
f 31//42 9//42 23//42
f 31//39 17//39 29//39
f 31//43 28//43 9//43
f 31//43 21//43 28//43
f 32//44 30//44 23//44
f 32//45 23//45 12//45
f 32//28 12//28 4//28
f 32//28 4//28 30//28
f 33//40 30//40 17//40
f 33//44 23//44 30//44
f 33//46 31//46 23//46
f 33//39 17//39 31//39
