# Blender v3.6.3 OBJ File: 'mouth_cup.blend'
# www.blender.org
mtllib mouth_cup008.mtl
o mouth_cup008
v 0.232785 0.640777 0.190397
v 0.274719 0.544929 0.148463
v 0.268728 0.640777 0.154454
v 0.244766 0.485024 0.106530
v 0.166890 0.485024 0.184406
v 0.277797 0.555168 0.128811
v 0.166818 0.640824 0.179286
v 0.274719 0.634786 0.178416
v 0.232785 0.455071 0.142473
v 0.251628 0.472548 0.107352
v 0.268728 0.556910 0.124501
v 0.167027 0.640698 0.188788
v 0.178871 0.455071 0.148463
v 0.274719 0.640777 0.178416
v 0.274719 0.586862 0.166435
v 0.256747 0.628796 0.184406
v 0.275546 0.544459 0.125282
v 0.250757 0.473043 0.136482
v 0.166292 0.473388 0.176142
v 0.166890 0.526957 0.190397
v 0.178871 0.461062 0.148463
v 0.196842 0.455071 0.136482
v 0.276771 0.639623 0.158858
v 0.274719 0.568891 0.160444
v 0.190852 0.485024 0.178416
v 0.256747 0.640777 0.184406
v 0.238776 0.461062 0.142473
v 0.184861 0.455071 0.172425
v 0.202833 0.574881 0.190397
v 0.166890 0.485024 0.160444
v 0.230271 0.456523 0.134099
v 0.196842 0.461062 0.136482
v 0.256747 0.598843 0.178416
v 0.176516 0.456431 0.167338
v 0.208823 0.455071 0.160444
v 0.172880 0.485024 0.184406
v 0.232785 0.628796 0.190397
v 0.169064 0.471821 0.165110
v 0.220804 0.491014 0.166435
v 0.232785 0.556910 0.178416
v 0.226795 0.455071 0.148463
v 0.190852 0.514976 0.184406
v 0.172880 0.526957 0.190397
v 0.226795 0.616815 0.190397
v 0.268728 0.574881 0.166435
v 0.202833 0.461062 0.166435
v 0.244766 0.514976 0.160444
v 0.184861 0.544929 0.190397
v 0.268728 0.556910 0.160444
v 0.256747 0.520967 0.154454
vn 0.4558 0.2994 -0.8382
vn -0.2235 0.3278 -0.9179
vn -0.2395 0.3099 -0.9201
vn -0.0015 0.9999 0.0133
vn 0.0004 1.0000 -0.0001
vn 0.9943 -0.0258 0.1031
vn 0.3162 0.0000 0.9487
vn 0.9752 -0.2180 0.0392
vn 0.4511 0.1924 -0.8715
vn 0.3338 0.1220 -0.9347
vn 0.3320 0.1231 -0.9352
vn 0.9459 -0.3220 0.0403
vn 0.9458 -0.3230 0.0338
vn -0.9998 0.0027 0.0220
vn -0.0245 0.0142 0.9996
vn -0.9958 -0.0129 0.0901
vn -0.9994 0.0017 0.0355
vn -0.5605 0.1033 -0.8217
vn -0.3838 -0.2693 -0.8833
vn 0.0000 -1.0000 0.0000
vn -0.5547 0.0000 -0.8321
vn 0.9945 0.0000 0.1044
vn 0.9949 -0.0230 0.0987
vn 0.4910 0.2973 -0.8188
vn 0.1638 0.9857 -0.0409
vn 0.9905 -0.0616 0.1231
vn 0.9929 -0.0377 0.1130
vn 0.2425 0.0000 0.9701
vn 0.0004 1.0000 0.0013
vn 0.0004 1.0000 0.0017
vn 0.7068 -0.7068 0.0275
vn 0.7150 -0.6984 0.0332
vn 0.6667 -0.3333 0.6667
vn -0.3656 -0.5264 0.7676
vn 0.0000 -0.0000 1.0000
vn -0.9994 0.0038 -0.0352
vn -0.6017 0.0956 -0.7930
vn -0.7071 0.0000 -0.7071
vn 0.0007 -0.8581 -0.5136
vn 0.3488 -0.9002 -0.2608
vn 0.0299 -0.9833 -0.1795
vn -0.5547 0.0000 -0.8320
vn -0.5534 0.0692 -0.8301
vn -0.5300 0.0000 -0.8480
vn 0.3651 -0.1826 0.9129
vn -0.4812 -0.6146 0.6251
vn -0.8705 -0.4866 -0.0736
vn -0.1885 -0.9809 0.0471
vn 0.3066 -0.2453 0.9197
vn 0.0000 -0.3714 0.9285
vn 0.0000 -0.1414 0.9899
vn -0.9232 -0.2539 -0.2884
vn -0.9162 -0.3582 -0.1793
vn -0.9512 -0.2296 -0.2064
vn 0.3246 -0.1855 0.9275
vn 0.4011 -0.2340 0.8857
vn 0.5774 -0.5774 0.5773
vn 0.2524 -0.1461 0.9565
vn 0.2400 -0.1440 0.9600
vn 0.3159 -0.1829 0.9310
vn 0.3107 -0.1864 0.9321
vn 0.3187 -0.1859 0.9295
vn 0.2484 -0.1420 0.9582
vn 0.2408 -0.1204 0.9631
vn 0.4111 -0.2349 0.8808
vn 0.4364 -0.2182 0.8729
vn 0.5345 -0.2673 0.8018
vn 0.4016 -0.2410 0.8835
vn 0.3810 -0.2540 0.8890
vn 0.4082 -0.4082 0.8165
vn 0.5051 -0.3030 0.8081
vn 0.5263 -0.3158 0.7895
vn 0.4842 -0.2767 0.8301
vn 0.5466 -0.3188 0.7743
vn 0.2075 -0.1383 0.9684
vn -0.0001 0.0000 1.0000
vn 0.5449 -0.3114 0.7785
usemtl Material008.001
s off
f 11//1 3//1 6//1
f 11//2 7//2 3//2
f 11//3 4//3 7//3
f 12//4 1//4 7//4
f 14//5 3//5 7//5
f 15//6 6//6 8//6
f 16//7 8//7 14//7
f 17//8 6//8 2//8
f 17//9 11//9 6//9
f 17//10 10//10 4//10
f 17//11 4//11 11//11
f 18//12 17//12 2//12
f 18//13 10//13 17//13
f 19//14 12//14 7//14
f 20//15 1//15 12//15
f 20//16 19//16 5//16
f 20//17 12//17 19//17
f 21//18 7//18 4//18
f 22//19 4//19 10//19
f 22//20 9//20 13//20
f 22//21 13//21 21//21
f 23//22 14//22 8//22
f 23//23 8//23 6//23
f 23//24 6//24 3//24
f 23//25 3//25 14//25
f 24//26 2//26 6//26
f 24//27 6//27 15//27
f 26//7 16//7 14//7
f 26//28 1//28 16//28
f 26//29 14//29 7//29
f 26//30 7//30 1//30
f 27//31 9//31 10//31
f 27//32 10//32 18//32
f 27//33 18//33 2//33
f 28//20 13//20 9//20
f 28//34 5//34 19//34
f 29//35 1//35 20//35
f 30//36 19//36 7//36
f 30//37 7//37 21//37
f 30//38 21//38 13//38
f 31//39 22//39 10//39
f 31//40 10//40 9//40
f 31//41 9//41 22//41
f 32//42 22//42 21//42
f 32//43 21//43 4//43
f 32//44 4//44 22//44
f 33//45 8//45 16//45
f 34//46 28//46 19//46
f 34//47 19//47 13//47
f 34//48 13//48 28//48
f 35//20 28//20 9//20
f 36//49 28//49 25//49
f 36//50 5//50 28//50
f 36//51 20//51 5//51
f 37//28 16//28 1//28
f 37//35 1//35 29//35
f 38//52 30//52 13//52
f 38//53 13//53 19//53
f 38//54 19//54 30//54
f 40//55 33//55 16//55
f 40//56 25//56 39//56
f 41//20 35//20 9//20
f 41//57 9//57 27//57
f 42//58 16//58 29//58
f 42//59 29//59 36//59
f 42//60 40//60 16//60
f 42//61 36//61 25//61
f 42//62 25//62 40//62
f 43//35 29//35 20//35
f 43//51 20//51 36//51
f 44//35 37//35 29//35
f 44//63 29//63 16//63
f 44//64 16//64 37//64
f 45//65 40//65 39//65
f 45//65 33//65 40//65
f 45//66 15//66 8//66
f 45//66 8//66 33//66
f 45//67 24//67 15//67
f 46//68 39//68 25//68
f 46//69 25//69 28//69
f 46//70 28//70 35//70
f 46//71 35//71 39//71
f 47//71 39//71 35//71
f 47//72 35//72 41//72
f 47//73 45//73 39//73
f 47//74 41//74 27//74
f 48//75 43//75 36//75
f 48//59 36//59 29//59
f 48//76 29//76 43//76
f 49//67 24//67 45//67
f 49//73 45//73 47//73
f 49//33 27//33 2//33
f 49//33 2//33 24//33
f 50//77 49//77 47//77
f 50//74 47//74 27//74
f 50//33 27//33 49//33
