# Blender v3.6.3 OBJ File: 'mouth_cup.blend'
# www.blender.org
mtllib mouth_cup023.mtl
o mouth_cup023
v -0.150607 0.413138 0.094549
v -0.144616 0.371204 0.094549
v -0.139221 0.443438 0.034712
v -0.150607 0.425119 -0.085166
v -0.192540 0.371204 -0.037242
v -0.144616 0.383185 -0.085166
v -0.141552 0.411369 0.092658
v -0.180559 0.371204 0.082568
v -0.168578 0.431109 -0.001299
v -0.138626 0.431109 0.034644
v -0.141035 0.429041 -0.076965
v -0.180559 0.371204 -0.079176
v -0.141276 0.435171 0.069417
v -0.151997 0.367809 -0.085092
v -0.168578 0.383185 0.094549
v -0.174569 0.413138 -0.043233
v -0.192540 0.383185 0.034644
v -0.144616 0.371204 0.088558
v -0.140895 0.422970 -0.082870
v -0.138703 0.443135 -0.037269
v -0.150607 0.443090 0.058606
v -0.165659 0.369519 0.092747
v -0.171533 0.369452 -0.083293
v -0.174569 0.383185 -0.085166
v -0.156597 0.443090 -0.043233
v -0.192540 0.371204 0.040634
v -0.192540 0.389176 -0.007290
v -0.150607 0.437100 0.070587
v -0.168578 0.425119 0.034644
v -0.141782 0.441454 0.057613
v -0.186550 0.371204 -0.061204
v -0.174569 0.395166 -0.073185
v -0.162588 0.437100 -0.025261
v -0.156597 0.443090 0.034644
v -0.150607 0.443090 -0.061204
v -0.186550 0.377195 0.064596
v -0.186550 0.371204 0.064596
v -0.192540 0.383185 -0.037242
v -0.192540 0.389176 0.004691
v -0.162588 0.413138 0.076577
v -0.156597 0.431109 0.064596
v -0.168578 0.395166 -0.085166
v -0.174569 0.419128 -0.013280
v -0.168578 0.431109 0.004691
v -0.141157 0.441093 -0.059993
v -0.150607 0.431109 -0.079176
v -0.156597 0.437100 -0.055214
v -0.192540 0.377195 0.040634
v -0.180559 0.377195 0.082568
v -0.180559 0.395166 -0.055214
v -0.180559 0.377195 -0.079176
v -0.174569 0.407147 0.052615
v -0.162588 0.437100 0.022663
v -0.186550 0.395166 0.028653
v -0.168578 0.401157 -0.079176
v -0.162588 0.395166 0.094549
v -0.186550 0.377195 -0.061204
v -0.180559 0.383185 -0.073185
v -0.174569 0.413138 0.040634
v -0.186550 0.383185 0.058606
v -0.168578 0.407147 0.070587
v -0.186550 0.389176 0.046625
vn 0.2100 0.0300 0.9772
vn 0.9969 -0.0749 0.0248
vn 0.9966 0.0478 0.0665
vn 0.9955 0.0599 0.0732
vn 0.2749 0.6701 0.6895
vn 0.0000 0.0000 1.0000
vn 0.9950 -0.0995 0.0000
vn 0.9943 -0.1060 -0.0073
vn 0.9011 -0.4327 -0.0298
vn 0.4179 -0.9085 0.0000
vn 0.2371 0.0339 -0.9709
vn 0.3080 0.6669 -0.6785
vn 0.9956 -0.0924 -0.0128
vn 0.9988 0.0482 0.0070
vn 0.9875 0.1208 -0.1009
vn 0.9969 -0.0769 -0.0139
vn 0.0785 -0.9968 0.0156
vn -0.5668 -0.2255 0.7924
vn -0.0728 -0.1456 0.9867
vn -0.0838 -0.9965 -0.0003
vn 0.0000 -0.0000 -1.0000
vn 0.0000 -0.0048 -1.0000
vn -0.1036 -0.1569 -0.9822
vn -0.4396 -0.2161 -0.8718
vn -1.0000 -0.0000 0.0000
vn -0.0835 -0.9965 0.0000
vn -0.0706 -0.9975 0.0042
vn 0.2286 0.6884 0.6884
vn 0.9363 0.3251 0.1329
vn 0.1928 0.9755 0.1061
vn 0.2345 0.8623 0.4489
vn 0.2113 0.8742 0.4371
vn -0.1813 -0.9824 -0.0453
vn -0.2226 -0.9721 -0.0742
vn -0.8519 0.5112 -0.1136
vn -0.7071 0.7071 0.0000
vn -0.0201 0.9998 0.0050
vn -0.0200 0.9998 0.0000
vn -0.8146 0.5431 0.2037
vn -0.0080 1.0000 -0.0027
vn 0.0046 1.0000 -0.0042
vn -0.1207 -0.9922 0.0302
vn -0.1447 -0.9883 0.0482
vn -0.9701 0.0000 0.2425
vn -0.9487 0.0000 0.3162
vn -0.8619 0.4972 -0.0994
vn -0.9701 0.0000 -0.2425
vn -0.8682 0.4961 0.0000
vn -0.7276 0.4851 0.4851
vn -0.8018 0.5345 0.2673
vn -0.8222 0.5232 0.2242
vn -0.8616 0.5026 -0.0718
vn -0.8544 0.5126 -0.0854
vn -0.8575 0.5044 -0.1009
vn 0.2191 0.9694 -0.1108
vn 0.9759 0.1813 -0.1217
vn 0.3014 0.6742 -0.6742
vn -0.7625 0.4575 -0.4575
vn 0.2959 0.7799 -0.5516
vn 0.2398 0.8078 -0.5385
vn -0.8111 0.4867 -0.3244
vn -0.8297 0.4787 -0.2872
vn -0.8305 0.4983 -0.2491
vn -0.8018 0.5345 -0.2673
vn -0.9428 0.2357 0.2357
vn -0.7071 0.0000 0.7071
vn -0.8498 0.4576 -0.2615
vn -0.8393 0.4663 -0.2798
vn -0.9487 0.0000 -0.3162
vn -0.7071 0.0000 -0.7071
vn -0.8165 0.4083 -0.4083
vn -0.8433 0.5270 0.1054
vn -0.8242 0.5494 0.1374
vn -0.8645 0.4940 0.0926
vn -0.8701 0.4834 0.0967
vn -0.8616 0.4924 0.1231
vn -0.8619 0.4972 0.0994
vn -0.7428 0.3714 0.5571
vn -0.7625 0.4575 0.4575
vn -0.9045 0.3015 -0.3015
vn -0.8165 0.4082 -0.4082
vn -0.8571 0.4286 -0.2857
vn -0.8305 0.4983 0.2491
vn -0.9045 0.3015 0.3015
vn -0.8427 0.4815 0.2408
vn -0.8276 0.4598 0.3219
vn -0.8137 0.4650 0.3487
vn -0.8301 0.4842 0.2767
vn -0.8111 0.4867 0.3244
vn -0.8581 0.4767 0.1907
vn -0.8729 0.4364 0.2182
usemtl Material023.001
s off
f 7//1 1//1 2//1
f 10//2 7//2 2//2
f 10//3 3//3 7//3
f 13//4 7//4 3//4
f 13//5 1//5 7//5
f 15//6 2//6 1//6
f 18//7 10//7 2//7
f 18//8 6//8 10//8
f 18//9 14//9 6//9
f 18//10 2//10 14//10
f 19//11 6//11 4//11
f 19//12 4//12 11//12
f 19//13 10//13 6//13
f 20//14 3//14 10//14
f 20//15 19//15 11//15
f 20//16 10//16 19//16
f 22//17 14//17 2//17
f 22//18 15//18 8//18
f 22//19 2//19 15//19
f 23//20 14//20 5//20
f 24//21 4//21 6//21
f 24//22 6//22 14//22
f 24//23 14//23 23//23
f 24//24 23//24 12//24
f 26//25 17//25 5//25
f 26//26 5//26 14//26
f 26//27 14//27 22//27
f 27//25 5//25 17//25
f 28//28 1//28 13//28
f 30//29 13//29 3//29
f 30//30 3//30 21//30
f 30//31 28//31 13//31
f 30//32 21//32 28//32
f 31//33 23//33 5//33
f 31//34 12//34 23//34
f 33//35 25//35 16//35
f 33//36 9//36 25//36
f 34//36 25//36 9//36
f 34//37 21//37 3//37
f 34//38 3//38 25//38
f 34//39 29//39 21//39
f 35//40 25//40 3//40
f 35//41 3//41 20//41
f 37//42 26//42 22//42
f 37//43 22//43 8//43
f 37//44 36//44 26//44
f 37//45 8//45 36//45
f 38//46 27//46 16//46
f 38//25 5//25 27//25
f 38//47 31//47 5//47
f 39//25 27//25 17//25
f 39//48 9//48 27//48
f 40//49 1//49 28//49
f 41//50 28//50 21//50
f 41//51 21//51 29//51
f 42//21 4//21 24//21
f 43//52 27//52 9//52
f 43//53 9//53 33//53
f 43//54 33//54 16//54
f 43//46 16//46 27//46
f 44//36 34//36 9//36
f 44//48 9//48 39//48
f 45//55 35//55 20//55
f 45//56 20//56 11//56
f 46//57 11//57 4//57
f 46//58 4//58 42//58
f 46//59 45//59 11//59
f 46//60 35//60 45//60
f 47//61 35//61 32//61
f 47//62 32//62 16//62
f 47//63 16//63 25//63
f 47//64 25//64 35//64
f 48//65 36//65 17//65
f 48//25 17//25 26//25
f 48//44 26//44 36//44
f 49//45 36//45 8//45
f 49//66 8//66 15//66
f 50//67 38//67 16//67
f 50//68 16//68 32//68
f 51//69 12//69 31//69
f 51//70 24//70 12//70
f 51//71 42//71 24//71
f 53//72 44//72 29//72
f 53//73 29//73 34//73
f 53//36 34//36 44//36
f 54//74 44//74 39//74
f 54//75 39//75 17//75
f 54//76 17//76 29//76
f 54//77 29//77 44//77
f 55//58 46//58 42//58
f 55//61 32//61 35//61
f 55//61 35//61 46//61
f 56//78 49//78 15//78
f 56//6 15//6 1//6
f 56//49 1//49 40//49
f 56//79 40//79 49//79
f 57//69 51//69 31//69
f 57//47 31//47 38//47
f 57//80 38//80 51//80
f 58//80 51//80 38//80
f 58//81 42//81 51//81
f 58//81 55//81 42//81
f 58//81 32//81 55//81
f 58//82 50//82 32//82
f 58//82 38//82 50//82
f 59//83 52//83 41//83
f 59//51 41//51 29//51
f 59//76 29//76 17//76
f 60//65 17//65 36//65
f 60//84 36//84 49//84
f 60//85 52//85 59//85
f 61//86 60//86 49//86
f 61//87 49//87 40//87
f 61//88 41//88 52//88
f 61//88 52//88 60//88
f 61//89 40//89 28//89
f 61//89 28//89 41//89
f 62//85 60//85 59//85
f 62//90 59//90 17//90
f 62//91 17//91 60//91
