# Blender v3.6.3 OBJ File: 'mouth_cup.blend'
# www.blender.org
mtllib mouth_cup054.mtl
o mouth_cup054
v 0.035099 0.479033 0.190397
v 0.035239 0.413057 0.188758
v 0.035099 0.485024 0.166435
v -0.012825 0.502995 0.142473
v -0.024806 0.383185 0.190397
v -0.000844 0.383185 0.172425
v 0.036137 0.502396 0.180453
v 0.011275 0.371125 0.188779
v 0.034911 0.413261 0.180693
v -0.030797 0.383185 0.166435
v 0.033942 0.503692 0.170885
v -0.018816 0.502995 0.166435
v 0.010925 0.371343 0.180978
v 0.035099 0.443090 0.172425
v -0.012825 0.497005 0.142473
v -0.030402 0.370977 0.182905
v -0.000844 0.497005 0.178416
v -0.031339 0.479353 0.149230
v -0.021253 0.504430 0.145918
v 0.023118 0.502995 0.184406
v -0.012825 0.371204 0.172425
v -0.023349 0.370363 0.184851
v -0.030797 0.443090 0.178416
v -0.024806 0.461062 0.148463
v -0.018816 0.497005 0.142473
v -0.030797 0.479033 0.166435
v 0.005146 0.502995 0.178416
v -0.024806 0.425119 0.184406
v 0.029108 0.479033 0.190397
v -0.024806 0.383185 0.166435
v -0.031366 0.371547 0.174616
v -0.024806 0.479033 0.172425
v -0.030797 0.413138 0.184406
v -0.033189 0.462480 0.153665
v 0.017127 0.497005 0.184406
v -0.018816 0.467052 0.178416
v -0.012825 0.407147 0.190397
v -0.012825 0.497005 0.172425
v -0.030797 0.467052 0.172425
v 0.011137 0.449081 0.190397
v -0.000844 0.467052 0.184406
vn 0.9947 -0.0004 0.1028
vn 0.0441 -0.0247 0.9987
vn 0.0371 -0.0232 0.9990
vn 0.8672 -0.4956 -0.0478
vn 0.9719 0.1098 -0.2081
vn 0.5028 0.2298 -0.8333
vn 0.8666 -0.4962 -0.0527
vn 0.9994 -0.0131 -0.0326
vn 0.9990 -0.0177 -0.0411
vn 0.9980 -0.0090 -0.0628
vn 0.4006 -0.2404 -0.8841
vn 0.4180 -0.2451 -0.8748
vn 0.3421 -0.2053 -0.9169
vn 0.4472 0.0000 -0.8944
vn 0.4176 -0.1285 -0.8995
vn 0.0938 0.9795 -0.1785
vn 0.0807 0.9900 0.1157
vn -0.0073 0.9989 0.0457
vn 0.2859 0.3645 0.8862
vn 0.3224 -0.3224 -0.8900
vn -0.0943 -0.4042 0.9098
vn -0.2756 -0.4078 0.8705
vn 0.0231 -0.9986 -0.0480
vn 0.0253 -0.9993 -0.0291
vn -0.5257 -0.1527 -0.8368
vn 0.0000 0.0000 -1.0000
vn -0.3684 -0.0928 -0.9250
vn 0.0000 -0.1644 -0.9864
vn -0.3132 0.3132 -0.8965
vn -0.6251 0.1503 -0.7659
vn -0.9255 0.3770 0.0362
vn -0.8861 0.4430 0.1362
vn -0.0201 0.9980 0.0604
vn -0.0371 0.9966 0.0741
vn -0.4082 0.4082 0.8165
vn -0.3015 0.3015 0.9045
vn 0.0000 0.0000 1.0000
vn 0.0000 0.2425 0.9701
vn 0.2364 -0.2239 -0.9455
vn 0.2357 -0.2357 -0.9428
vn 0.1842 -0.2210 -0.9577
vn 0.0000 -0.4472 -0.8944
vn 0.0000 -0.2249 -0.9744
vn -0.1069 -0.5683 -0.8159
vn -0.0699 -0.9957 -0.0604
vn -0.0293 -0.9953 -0.0922
vn -0.7770 -0.0297 0.6288
vn -0.9933 -0.0134 0.1145
vn -0.9925 0.1176 0.0335
vn -0.5825 -0.1463 -0.7996
vn -0.9881 -0.0530 -0.1442
vn -0.9932 0.0228 0.1138
vn -0.9974 -0.0034 0.0722
vn -0.1924 0.1925 0.9623
vn -0.3651 0.1826 0.9129
vn -0.4364 0.2182 0.8729
vn -0.4016 0.2410 0.8835
vn -0.3107 0.1864 0.9321
vn -0.2722 0.1361 0.9526
vn -0.4286 0.2857 0.8571
vn -0.4082 0.4083 0.8165
vn -0.4867 0.3244 0.8111
vn -0.9924 0.0298 0.1193
vn -0.9920 0.0564 0.1127
vn -0.6667 0.3333 0.6667
vn -0.2516 0.1509 0.9560
vn 0.0001 0.0000 1.0000
vn -0.2572 0.1469 0.9551
vn -0.3112 0.1778 0.9336
usemtl Material054.001
s off
f 7//1 1//1 2//1
f 8//2 2//2 1//2
f 8//3 1//3 5//3
f 9//4 2//4 8//4
f 11//5 7//5 3//5
f 11//6 3//6 4//6
f 13//7 9//7 8//7
f 14//8 7//8 2//8
f 14//9 2//9 9//9
f 14//10 3//10 7//10
f 14//11 13//11 6//11
f 14//12 9//12 13//12
f 15//13 14//13 6//13
f 15//14 4//14 3//14
f 15//15 3//15 14//15
f 19//16 11//16 4//16
f 20//17 7//17 11//17
f 20//18 11//18 19//18
f 20//19 1//19 7//19
f 21//20 6//20 13//20
f 22//21 8//21 5//21
f 22//22 5//22 16//22
f 22//23 21//23 13//23
f 22//24 13//24 8//24
f 24//25 10//25 18//25
f 25//26 4//26 15//26
f 25//27 24//27 18//27
f 25//28 15//28 24//28
f 25//29 19//29 4//29
f 25//30 18//30 19//30
f 26//31 19//31 18//31
f 26//32 12//32 19//32
f 27//33 20//33 19//33
f 27//34 19//34 12//34
f 27//35 12//35 17//35
f 27//36 17//36 20//36
f 29//37 5//37 1//37
f 29//38 1//38 20//38
f 30//39 15//39 6//39
f 30//40 6//40 21//40
f 30//41 24//41 15//41
f 30//42 21//42 10//42
f 30//43 10//43 24//43
f 31//44 10//44 21//44
f 31//45 22//45 16//45
f 31//46 21//46 22//46
f 33//47 16//47 5//47
f 33//48 31//48 16//48
f 34//49 26//49 18//49
f 34//50 18//50 10//50
f 34//51 10//51 31//51
f 34//52 33//52 23//52
f 34//53 31//53 33//53
f 35//36 20//36 17//36
f 35//54 29//54 20//54
f 36//55 33//55 28//55
f 36//55 23//55 33//55
f 36//56 32//56 23//56
f 36//57 17//57 32//57
f 36//58 35//58 17//58
f 37//37 5//37 29//37
f 37//59 33//59 5//59
f 37//59 28//59 33//59
f 38//60 32//60 17//60
f 38//61 17//61 12//61
f 38//62 12//62 32//62
f 39//56 23//56 32//56
f 39//63 34//63 23//63
f 39//64 26//64 34//64
f 39//65 32//65 12//65
f 39//65 12//65 26//65
f 40//66 29//66 35//66
f 40//67 37//67 29//67
f 40//68 28//68 37//68
f 41//69 36//69 28//69
f 41//58 35//58 36//58
f 41//66 40//66 35//66
f 41//68 28//68 40//68
