# Blender v3.6.3 OBJ File: 'mouth_cup.blend'
# www.blender.org
mtllib mouth_cup034.mtl
o mouth_cup034
v 0.033027 0.743827 0.004928
v 0.041089 0.736625 -0.025261
v 0.017127 0.742615 -0.043233
v 0.017127 0.712663 -0.085166
v -0.018816 0.640777 0.004691
v 0.037953 0.744450 -0.038345
v 0.017127 0.700682 0.004691
v 0.023818 0.706268 -0.084734
v -0.012825 0.700682 0.004691
v 0.017127 0.730634 -0.067195
v 0.036328 0.745399 -0.025805
v -0.006835 0.652758 -0.031252
v 0.035099 0.730634 -0.007290
v 0.030442 0.739348 0.005223
v 0.041089 0.736625 -0.037242
v 0.025835 0.711094 -0.083489
v 0.005146 0.730634 0.004691
v -0.024806 0.670729 -0.037242
v 0.035099 0.724644 -0.031252
v -0.026615 0.641834 0.004898
v 0.026836 0.728487 -0.065892
v 0.020163 0.740862 0.004346
v 0.005146 0.730634 -0.013280
v 0.005146 0.724644 -0.043233
v 0.011137 0.712663 -0.079176
v -0.026024 0.635499 -0.037670
v -0.006835 0.652758 -0.037242
v 0.035099 0.724644 -0.037242
v -0.024806 0.676720 0.004691
v -0.024806 0.676720 -0.019271
v 0.011137 0.736625 -0.031252
v -0.012825 0.694691 -0.037242
v -0.027468 0.636343 -0.025565
v 0.011137 0.706672 -0.079176
v -0.018816 0.634786 -0.037242
v -0.012825 0.700682 -0.007290
v -0.018816 0.634786 -0.025261
vn 0.0262 0.8941 -0.4471
vn 0.8697 0.4792 0.1180
vn 0.8743 0.4792 0.0770
vn -0.0679 0.9941 -0.0840
vn -0.1717 0.9846 0.0319
vn 0.8519 -0.5112 0.1136
vn 0.8725 -0.4698 0.1342
vn 0.9533 -0.1105 0.2810
vn 0.8265 -0.3071 0.4718
vn 0.3210 -0.1235 0.9390
vn 0.0537 -0.0322 0.9980
vn 0.9282 0.3720 0.0000
vn 0.2143 0.1591 -0.9637
vn 0.9268 -0.3599 -0.1070
vn 0.8545 0.2809 -0.4369
vn -0.0542 0.0968 0.9938
vn -0.0265 0.0159 0.9995
vn 0.8664 -0.4874 0.1083
vn 0.8598 -0.5016 0.0955
vn 0.8944 -0.4472 0.0000
vn 0.0241 -0.0174 0.9996
vn 0.2498 0.7907 -0.5590
vn 0.6301 0.5340 -0.5637
vn 0.2549 0.6804 -0.6871
vn 0.2436 0.6858 -0.6858
vn -0.0790 0.1492 0.9856
vn -0.2264 0.9727 0.0503
vn -0.5607 0.8254 0.0662
vn -0.8575 0.5145 0.0000
vn -0.8018 0.5345 -0.2673
vn -0.5774 0.5774 -0.5774
vn -0.8293 0.4739 -0.2962
vn -0.2997 -0.3729 -0.8781
vn -0.7756 0.0345 -0.6303
vn 0.8638 -0.5039 0.0000
vn 0.8937 -0.4469 -0.0394
vn 0.8637 -0.5038 -0.0102
vn -0.0173 0.0068 0.9998
vn -0.0222 0.0111 0.9997
vn -0.8944 0.4472 0.0000
vn -0.8433 0.5270 -0.1054
vn -0.8242 0.5494 -0.1374
vn -0.7071 0.7071 0.0000
vn -0.8520 0.4260 -0.3043
vn -0.8450 0.4489 -0.2905
vn -0.8847 0.4423 -0.1474
vn -0.9920 0.0358 -0.1208
vn -0.9973 0.0693 -0.0231
vn -0.9985 0.0519 0.0186
vn -0.9978 0.0658 0.0000
vn -0.7450 0.0000 -0.6670
vn -0.7071 0.0000 -0.7071
vn -0.6543 -0.0958 -0.7501
vn -0.0050 -0.5513 -0.8343
vn 0.8288 -0.5526 -0.0876
vn 0.8320 -0.5547 0.0000
vn -0.8701 0.4834 -0.0967
vn -0.8619 0.4972 -0.0994
vn -0.1267 -0.9727 0.1945
vn -0.1803 -0.9671 0.1794
vn -0.1784 -0.9828 0.0472
vn -0.0983 -0.9952 0.0000
vn 0.8433 -0.5270 0.1054
usemtl Material034.001
s off
f 10//1 3//1 6//1
f 11//2 1//2 2//2
f 11//3 2//3 6//3
f 11//4 6//4 3//4
f 11//5 3//5 1//5
f 12//6 7//6 5//6
f 13//7 7//7 2//7
f 13//8 2//8 1//8
f 13//9 1//9 7//9
f 14//10 7//10 1//10
f 14//11 5//11 7//11
f 15//12 6//12 2//12
f 16//13 8//13 4//13
f 16//14 15//14 8//14
f 16//15 6//15 15//15
f 17//16 14//16 1//16
f 17//17 9//17 14//17
f 19//18 2//18 7//18
f 19//19 7//19 12//19
f 19//20 15//20 2//20
f 20//21 5//21 14//21
f 21//22 10//22 6//22
f 21//23 6//23 16//23
f 21//24 16//24 4//24
f 21//25 4//25 10//25
f 22//26 17//26 1//26
f 22//27 1//27 3//27
f 22//28 3//28 17//28
f 23//29 9//29 17//29
f 24//30 3//30 10//30
f 25//31 10//31 4//31
f 25//32 24//32 10//32
f 26//33 4//33 8//33
f 26//34 18//34 25//34
f 27//35 19//35 12//35
f 28//36 8//36 15//36
f 28//20 15//20 19//20
f 28//37 27//37 8//37
f 28//35 19//35 27//35
f 29//38 20//38 14//38
f 29//39 14//39 9//39
f 30//40 29//40 9//40
f 31//41 24//41 23//41
f 31//42 3//42 24//42
f 31//43 23//43 17//43
f 31//43 17//43 3//43
f 32//44 25//44 18//44
f 32//45 24//45 25//45
f 32//46 18//46 30//46
f 33//47 18//47 26//47
f 33//48 30//48 18//48
f 33//49 20//49 29//49
f 33//50 29//50 30//50
f 34//51 26//51 25//51
f 34//52 25//52 4//52
f 34//53 4//53 26//53
f 35//54 26//54 8//54
f 35//55 8//55 27//55
f 35//56 27//56 12//56
f 36//40 30//40 9//40
f 36//29 9//29 23//29
f 36//57 32//57 30//57
f 36//58 23//58 24//58
f 36//58 24//58 32//58
f 37//59 5//59 20//59
f 37//60 20//60 33//60
f 37//61 33//61 26//61
f 37//62 26//62 35//62
f 37//56 35//56 12//56
f 37//63 12//63 5//63
