# Blender v3.6.3 OBJ File: 'mouth_cup.blend'
# www.blender.org
mtllib mouth_cup049.mtl
o mouth_cup049
v 0.029108 0.395166 -0.175024
v 0.048317 0.304625 -0.173692
v 0.047080 0.341252 -0.192995
v -0.006835 0.389176 -0.192995
v -0.012825 0.395166 -0.169033
v -0.012569 0.305161 -0.189993
v 0.035383 0.395002 -0.189659
v 0.047080 0.317290 -0.169033
v 0.029108 0.305309 -0.192995
v -0.018553 0.371053 -0.186006
v -0.000844 0.395166 -0.192995
v 0.035044 0.395202 -0.181680
v 0.047425 0.341077 -0.178942
v 0.005146 0.305309 -0.175024
v 0.045868 0.306009 -0.182391
v -0.012825 0.377195 -0.192995
v -0.020263 0.390048 -0.174603
v -0.020040 0.395904 -0.173743
v 0.041089 0.305309 -0.169033
v 0.035099 0.311299 -0.192995
v 0.047080 0.335261 -0.192995
v -0.019507 0.371621 -0.177685
v -0.012825 0.329271 -0.175024
v -0.017679 0.394510 -0.182678
v -0.012954 0.305393 -0.182570
vn 0.1406 0.1081 0.9841
vn 0.0009 -0.9993 -0.0363
vn 0.0000 -0.0000 -1.0000
vn 0.0918 0.0816 -0.9924
vn 0.7278 0.2180 0.6502
vn 0.9889 0.0446 0.1415
vn 0.9995 0.0210 -0.0243
vn 0.8136 0.2135 0.5408
vn 0.9766 0.2138 -0.0213
vn 0.9738 0.2246 0.0358
vn -0.0167 -0.9994 0.0297
vn 0.1672 -0.9653 -0.2006
vn -0.0716 -0.0418 -0.9966
vn -0.7601 -0.0298 -0.6491
vn 0.0092 0.9997 -0.0247
vn 0.0074 0.9995 -0.0309
vn 0.0182 0.9917 0.1275
vn 0.0155 0.9997 0.0192
vn -0.0193 -0.9931 0.1158
vn 0.5070 -0.2535 0.8238
vn 0.0000 0.0000 1.0000
vn 0.4826 -0.4826 -0.7309
vn 0.9980 0.0000 -0.0640
vn 0.9463 -0.1441 -0.2894
vn 0.5923 -0.2962 -0.7493
vn -0.9934 -0.0219 -0.1124
vn -0.9907 -0.0834 -0.1079
vn -0.6544 -0.0853 0.7513
vn -0.5505 -0.0756 0.8314
vn -0.1492 -0.0895 0.9847
vn -0.1632 -0.1224 0.9790
vn -0.8862 -0.1116 0.4497
vn -0.1556 0.9689 -0.1923
vn -0.4736 0.4736 -0.7426
vn -0.5807 0.2904 -0.7606
vn -0.8143 0.1112 -0.5697
vn -0.9609 0.0737 -0.2667
vn -0.9611 0.0756 -0.2657
vn -0.9119 -0.1192 0.3927
vn -0.9943 -0.0948 -0.0485
vn -0.0173 -0.9994 0.0303
vn -0.3707 -0.2781 0.8861
usemtl Material049.001
s off
f 8//1 1//1 5//1
f 9//2 2//2 6//2
f 9//3 4//3 3//3
f 11//4 7//4 3//4
f 11//3 3//3 4//3
f 12//5 1//5 8//5
f 13//6 8//6 2//6
f 13//7 2//7 3//7
f 13//8 12//8 8//8
f 13//9 3//9 7//9
f 13//10 7//10 12//10
f 14//11 6//11 2//11
f 15//12 2//12 9//12
f 16//13 9//13 6//13
f 16//3 4//3 9//3
f 16//14 6//14 10//14
f 18//15 12//15 7//15
f 18//16 7//16 11//16
f 18//17 5//17 1//17
f 18//18 1//18 12//18
f 19//19 14//19 2//19
f 19//20 2//20 8//20
f 19//21 8//21 5//21
f 20//22 15//22 9//22
f 20//3 9//3 3//3
f 21//23 3//23 2//23
f 21//24 2//24 15//24
f 21//3 20//3 3//3
f 21//25 15//25 20//25
f 22//26 17//26 10//26
f 22//27 10//27 6//27
f 23//28 18//28 17//28
f 23//29 5//29 18//29
f 23//30 19//30 5//30
f 23//31 14//31 19//31
f 23//32 17//32 22//32
f 24//33 18//33 11//33
f 24//34 11//34 4//34
f 24//35 4//35 16//35
f 24//36 16//36 10//36
f 24//37 10//37 17//37
f 24//38 17//38 18//38
f 25//39 23//39 22//39
f 25//40 22//40 6//40
f 25//41 6//41 14//41
f 25//42 14//42 23//42
