# Blender v3.6.3 OBJ File: 'mouth_cup.blend'
# www.blender.org
mtllib mouth_cup013.mtl
o mouth_cup013
v -0.030797 0.371204 0.190397
v -0.012789 0.305288 0.189968
v -0.030797 0.413138 0.160444
v -0.079071 0.413344 0.142968
v -0.102683 0.335261 0.172425
v -0.047084 0.296244 0.148463
v -0.048768 0.413138 0.178416
v -0.012515 0.371025 0.186754
v -0.066740 0.299318 0.190397
v -0.012825 0.365214 0.172425
v -0.066740 0.413138 0.142473
v -0.105361 0.360801 0.146260
v -0.078721 0.407147 0.166435
v -0.036787 0.401157 0.184406
v -0.054759 0.293328 0.190397
v -0.066740 0.299318 0.148463
v -0.042779 0.305306 0.148463
v -0.012825 0.371204 0.172425
v -0.096692 0.359223 0.142473
v -0.072730 0.413138 0.166435
v -0.084711 0.353233 0.178416
v -0.102683 0.365214 0.166435
v -0.030314 0.412859 0.176576
v -0.054759 0.293328 0.148463
v -0.100678 0.338734 0.148463
v -0.066740 0.407147 0.142473
v -0.013166 0.305532 0.182545
v -0.103252 0.371540 0.143278
v -0.042778 0.395166 0.184406
v -0.090702 0.341252 0.178416
v -0.102683 0.341252 0.172425
v -0.090702 0.365214 0.172425
v -0.090702 0.365214 0.142473
v -0.066740 0.311299 0.190397
v -0.072730 0.395166 0.142473
v -0.036787 0.365214 0.190397
v -0.066740 0.353233 0.184406
v -0.072730 0.341252 0.184406
v -0.060749 0.323280 0.190397
vn 0.0031 1.0000 0.0031
vn 0.1956 0.0471 0.9795
vn 0.9998 -0.0051 -0.0196
vn 0.0155 0.9994 -0.0309
vn 0.1924 0.2293 0.9542
vn 0.0112 -0.0034 0.9999
vn 0.0000 0.0000 1.0000
vn -0.7071 -0.7071 0.0000
vn -0.4472 -0.8944 0.0000
vn 0.4467 0.0496 -0.8933
vn 0.9998 0.0000 -0.0217
vn 0.5922 0.0237 -0.8054
vn 0.6247 0.0000 -0.7809
vn -0.0397 0.0221 -0.9990
vn -0.4082 0.4082 0.8165
vn -0.0051 0.9999 0.0101
vn -0.6937 0.6937 0.1935
vn 0.3713 0.3656 0.8535
vn 0.0168 0.9997 0.0168
vn 0.0926 0.5178 0.8505
vn 0.9211 0.3888 -0.0209
vn 0.9214 0.3883 -0.0151
vn 0.2741 -0.9617 0.0000
vn 0.0277 -0.0730 -0.9969
vn -0.0659 -0.1319 -0.9891
vn -0.7485 -0.6445 -0.1560
vn -0.9697 -0.2170 -0.1126
vn -0.2601 -0.2240 -0.9392
vn -0.4210 -0.1782 -0.8894
vn 0.0824 -0.0392 -0.9958
vn 0.2426 0.0000 -0.9701
vn 0.0000 0.0000 -1.0000
vn 0.7503 -0.1147 -0.6511
vn 0.9986 -0.0144 -0.0512
vn 0.7115 -0.3380 -0.6160
vn 0.3535 -0.9302 -0.0983
vn 0.3167 -0.9473 -0.0473
vn -0.4199 -0.1653 -0.8924
vn -0.0654 0.0304 -0.9974
vn -0.9734 0.2140 0.0824
vn -0.8578 0.4901 0.1550
vn -0.8562 0.4963 0.1438
vn -0.2357 0.2357 0.9428
vn -0.3297 0.1978 0.9231
vn -0.9917 0.0312 0.1248
vn -0.9948 0.0000 0.1018
vn -0.4364 0.2182 0.8729
vn -0.4472 0.0000 0.8944
vn -0.4333 0.2476 0.8666
vn -0.4016 0.2410 0.8835
vn 0.0531 -0.0531 -0.9972
vn 0.0794 -0.0397 -0.9960
vn 0.0702 -0.0421 -0.9966
vn -0.1622 0.1622 0.9733
vn -0.3112 0.1778 0.9336
vn -0.3123 0.1562 0.9370
vn -0.2484 0.1420 0.9582
vn -0.3137 0.1255 0.9412
vn -0.2722 0.1361 0.9526
usemtl Material013.001
s off
f 7//1 3//1 4//1
f 8//2 1//2 2//2
f 10//3 8//3 2//3
f 11//4 4//4 3//4
f 14//5 1//5 8//5
f 15//6 2//6 1//6
f 15//7 1//7 9//7
f 16//8 9//8 5//8
f 16//9 15//9 9//9
f 17//10 11//10 3//10
f 18//11 8//11 10//11
f 18//12 17//12 3//12
f 18//13 10//13 17//13
f 19//14 4//14 11//14
f 20//15 13//15 7//15
f 20//16 7//16 4//16
f 20//17 4//17 13//17
f 23//18 14//18 8//18
f 23//19 3//19 7//19
f 23//20 7//20 14//20
f 23//21 18//21 3//21
f 23//22 8//22 18//22
f 24//23 2//23 15//23
f 24//9 15//9 16//9
f 24//24 19//24 6//24
f 24//25 16//25 19//25
f 25//26 16//26 5//26
f 25//27 5//27 12//27
f 25//28 19//28 16//28
f 25//29 12//29 19//29
f 26//30 17//30 6//30
f 26//31 11//31 17//31
f 26//32 19//32 11//32
f 27//33 17//33 10//33
f 27//34 10//34 2//34
f 27//35 6//35 17//35
f 27//36 24//36 6//36
f 27//37 2//37 24//37
f 28//38 19//38 12//38
f 28//39 4//39 19//39
f 28//40 12//40 22//40
f 28//41 22//41 13//41
f 28//42 13//42 4//42
f 29//43 14//43 7//43
f 29//44 7//44 21//44
f 31//45 22//45 12//45
f 31//46 12//46 5//46
f 31//47 30//47 22//47
f 31//48 5//48 9//48
f 32//49 13//49 22//49
f 32//50 21//50 7//50
f 32//50 7//50 13//50
f 32//47 30//47 21//47
f 32//47 22//47 30//47
f 33//51 6//51 19//51
f 33//32 19//32 26//32
f 34//7 9//7 1//7
f 34//48 31//48 9//48
f 34//48 30//48 31//48
f 35//32 33//32 26//32
f 35//52 26//52 6//52
f 35//53 6//53 33//53
f 36//7 34//7 1//7
f 36//54 1//54 14//54
f 36//54 14//54 29//54
f 37//55 29//55 21//55
f 37//56 21//56 30//56
f 37//57 36//57 29//57
f 38//56 37//56 30//56
f 38//58 30//58 34//58
f 38//59 34//59 37//59
f 39//59 37//59 34//59
f 39//7 34//7 36//7
f 39//57 36//57 37//57
